%TF.GenerationSoftware,KiCad,Pcbnew,10.0.0*%
%TF.CreationDate,2026-03-31T00:41:15+02:00*%
%TF.ProjectId,esp_home_sensor,6573705f-686f-46d6-955f-73656e736f72,rev?*%
%TF.SameCoordinates,Original*%
%TF.FileFunction,Copper,L3,Inr*%
%TF.FilePolarity,Positive*%
%FSLAX46Y46*%
G04 Gerber Fmt 4.6, Leading zero omitted, Abs format (unit mm)*
G04 Created by KiCad (PCBNEW 10.0.0) date 2026-03-31 00:41:15*
%MOMM*%
%LPD*%
G01*
G04 APERTURE LIST*
%TA.AperFunction,ViaPad*%
%ADD10C,0.350000*%
%TD*%
%TA.AperFunction,ViaPad*%
%ADD11C,0.500000*%
%TD*%
%TA.AperFunction,ViaPad*%
%ADD12C,0.400000*%
%TD*%
%TA.AperFunction,Conductor*%
%ADD13C,0.300000*%
%TD*%
G04 APERTURE END LIST*
D10*
%TO.N,GND*%
X165000000Y-59750000D03*
D11*
X119825000Y-60825000D03*
D10*
X193000000Y-58750000D03*
D12*
X180000000Y-61750000D03*
D11*
X130350000Y-58075000D03*
D12*
X155000000Y-72800000D03*
D11*
X187650000Y-60050000D03*
D10*
X151000000Y-62000000D03*
X115500000Y-54000000D03*
D12*
X183750000Y-63750000D03*
D11*
X130750000Y-69250000D03*
D12*
X167425000Y-68112500D03*
X180000000Y-63750000D03*
X167425000Y-67512500D03*
X175325000Y-67512500D03*
D10*
X148525000Y-59975000D03*
D12*
X183900000Y-60450000D03*
D11*
X118750000Y-69250000D03*
D10*
X162500000Y-73750000D03*
D11*
X181250000Y-59250000D03*
D12*
X183000000Y-63750000D03*
X180000000Y-60750000D03*
X184000000Y-61750000D03*
X175925000Y-67512500D03*
D10*
X172390000Y-57845000D03*
D11*
X121875000Y-61625000D03*
D12*
X184000000Y-62750000D03*
D11*
X130350000Y-63620711D03*
D10*
X144000000Y-58000000D03*
X146550000Y-59975000D03*
D12*
X120000000Y-64500000D03*
D10*
X148525000Y-56025000D03*
X182610000Y-57845000D03*
D12*
X184500000Y-61750000D03*
X176525000Y-66912500D03*
D10*
X144000000Y-56000000D03*
X153000000Y-60000000D03*
D12*
X172975000Y-67612500D03*
D10*
X182610000Y-53915000D03*
D12*
X175925000Y-68112500D03*
D10*
X159500000Y-56500000D03*
D11*
X178750000Y-61750000D03*
D10*
X146000000Y-54000000D03*
D11*
X174000000Y-64000000D03*
D12*
X184750000Y-71450000D03*
D10*
X150500000Y-59975000D03*
X164000000Y-62250000D03*
X153000000Y-56000000D03*
X148500000Y-54000000D03*
D12*
X168625000Y-66912500D03*
D10*
X146000000Y-62000000D03*
X144000000Y-62000000D03*
X148500000Y-62000000D03*
D12*
X176525000Y-67512500D03*
X175325000Y-68112500D03*
D10*
X172390000Y-53915000D03*
D11*
X176700000Y-65250000D03*
D12*
X184500000Y-63750000D03*
D11*
X175000000Y-61000000D03*
D10*
X151000000Y-54000000D03*
D12*
X185250000Y-63750000D03*
D11*
X139200000Y-54600000D03*
D10*
X150500000Y-58000000D03*
X153000000Y-54000000D03*
D11*
X139200000Y-55600000D03*
X125875000Y-60825000D03*
D10*
X153000000Y-58000000D03*
D12*
X168025000Y-67512500D03*
X147000000Y-72800000D03*
X184750000Y-72000000D03*
D10*
X150500000Y-56025000D03*
D12*
X140000000Y-72800000D03*
D11*
X119825000Y-62425000D03*
D12*
X185850000Y-74450000D03*
X185400000Y-60450000D03*
X168625000Y-67512500D03*
X184500000Y-62750000D03*
X183150000Y-60450000D03*
D10*
X144000000Y-54000000D03*
X146550000Y-58000000D03*
D11*
X134750000Y-60500000D03*
D10*
X153000000Y-62000000D03*
X144000000Y-60000000D03*
D12*
X165075000Y-67612500D03*
D11*
X166250000Y-61750000D03*
D10*
X146550000Y-56025000D03*
D11*
X174000000Y-59500000D03*
D12*
X184650000Y-60450000D03*
X168025000Y-68112500D03*
D10*
X162000000Y-57500000D03*
X148525000Y-58000000D03*
D12*
%TO.N,3V3_AUX*%
X176225000Y-70712500D03*
X176225000Y-70112500D03*
X176825000Y-70112500D03*
D11*
X166250000Y-62750000D03*
D12*
X175625000Y-70112500D03*
D11*
X130750000Y-70250000D03*
D12*
X175625000Y-71312500D03*
X176225000Y-71312500D03*
D11*
X118750000Y-70250000D03*
D12*
X124000000Y-60500000D03*
X175625000Y-70712500D03*
%TO.N,3V3_MCU*%
X167725000Y-70112500D03*
D10*
X141750000Y-55600000D03*
D12*
X120500000Y-59000000D03*
X128000000Y-57500000D03*
X167725000Y-70712500D03*
X168325000Y-71312500D03*
X168325000Y-70712500D03*
X168325000Y-70112500D03*
D11*
X134750000Y-59500000D03*
D12*
X168925000Y-70112500D03*
X167725000Y-71312500D03*
D11*
X136990000Y-66240000D03*
D10*
%TO.N,/MCU/USER_SW*%
X138000000Y-58500000D03*
X138000000Y-68750000D03*
%TO.N,/Env_sensor/I2C.SDA*%
X149750000Y-66500000D03*
X130750000Y-71250000D03*
%TO.N,/MCU/DISP_IF.CLK*%
X165500000Y-60000000D03*
X163500000Y-62000000D03*
%TO.N,/MCU/EN*%
X144500000Y-68500000D03*
X140000000Y-60000000D03*
%TO.N,/Env_sensor/I2C.SCL*%
X130750000Y-72250000D03*
X151250000Y-68000000D03*
%TO.N,/MCU/DISP_IF.RST*%
X159250000Y-57000000D03*
X162250000Y-57000000D03*
D11*
%TO.N,VBAT*%
X187750000Y-73500000D03*
D12*
X187900000Y-68300000D03*
X136500000Y-56750000D03*
X187900000Y-68800000D03*
X166250000Y-66000000D03*
X187900000Y-67800000D03*
%TO.N,/DC_DC/EN*%
X170771446Y-69478554D03*
X143750000Y-64250000D03*
D10*
%TO.N,/MCU/BOOT*%
X153000000Y-70000000D03*
X154250000Y-67000000D03*
D12*
%TO.N,/Protection/BAT-*%
X183750000Y-73750000D03*
X182750000Y-72750000D03*
X182750000Y-74750000D03*
X183250000Y-74250000D03*
X183750000Y-72750000D03*
X182750000Y-70750000D03*
X183250000Y-73250000D03*
X182750000Y-71750000D03*
X183250000Y-71250000D03*
X183750000Y-74750000D03*
X182750000Y-73750000D03*
D10*
%TO.N,/Protection/DSG*%
X186750000Y-69250000D03*
X189000000Y-67250000D03*
D12*
%TO.N,/Protection/BAT+*%
X190150000Y-67400000D03*
X186000000Y-67200000D03*
X190150000Y-67950000D03*
%TO.N,Net-(U3-Pad4)*%
X190150000Y-69400000D03*
X187900000Y-69650000D03*
X190150000Y-68650000D03*
X187900000Y-70150000D03*
X190150000Y-70150000D03*
D10*
%TO.N,Net-(JP1-B)*%
X180000000Y-62750000D03*
%TD*%
%TO.N,3V3_AUX*%
D13*
X172112500Y-70112500D02*
X175625000Y-70112500D01*
X171000000Y-69000000D02*
X172112500Y-70112500D01*
X166250000Y-62750000D02*
X169750000Y-62750000D01*
X171000000Y-64000000D02*
X171000000Y-69000000D01*
X169750000Y-62750000D02*
X171000000Y-64000000D01*
%TD*%
%TA.AperFunction,Conductor*%
%TO.N,VBAT*%
G36*
X188304736Y-67550942D02*
G01*
X188366975Y-67563322D01*
X188384640Y-67570638D01*
X188433319Y-67603165D01*
X188446834Y-67616680D01*
X188463098Y-67641021D01*
X188479361Y-67665360D01*
X188486677Y-67683023D01*
X188499058Y-67745263D01*
X188500000Y-67754823D01*
X188500000Y-68056320D01*
X188500001Y-68056334D01*
X188518880Y-68141152D01*
X188518883Y-68141157D01*
X188571961Y-68209967D01*
X188723899Y-68336583D01*
X188731328Y-68344298D01*
X188774455Y-68400206D01*
X188783486Y-68419488D01*
X188798829Y-68488418D01*
X188800000Y-68499064D01*
X188800000Y-68895176D01*
X188799058Y-68904736D01*
X188786677Y-68966976D01*
X188779361Y-68984639D01*
X188746836Y-69033317D01*
X188733317Y-69046836D01*
X188684639Y-69079361D01*
X188666976Y-69086677D01*
X188619275Y-69096165D01*
X188604734Y-69099058D01*
X188595177Y-69100000D01*
X187854823Y-69100000D01*
X187845265Y-69099058D01*
X187827202Y-69095465D01*
X187783023Y-69086677D01*
X187765360Y-69079361D01*
X187741021Y-69063098D01*
X187716680Y-69046834D01*
X187703165Y-69033319D01*
X187670638Y-68984639D01*
X187663322Y-68966979D01*
X187650940Y-68904726D01*
X187650000Y-68895176D01*
X187650000Y-67754823D01*
X187650939Y-67745274D01*
X187663323Y-67683018D01*
X187670638Y-67665360D01*
X187703167Y-67616677D01*
X187716677Y-67603167D01*
X187765361Y-67570637D01*
X187783018Y-67563323D01*
X187845274Y-67550939D01*
X187854823Y-67550000D01*
X188295177Y-67550000D01*
X188304736Y-67550942D01*
G37*
%TD.AperFunction*%
%TD*%
%TA.AperFunction,Conductor*%
%TO.N,Net-(U3-Pad4)*%
G36*
X190271728Y-68350419D02*
G01*
X190278050Y-68351251D01*
X190284331Y-68352500D01*
X190343588Y-68368377D01*
X190355403Y-68373272D01*
X190366198Y-68379505D01*
X190376345Y-68387291D01*
X190410377Y-68421323D01*
X190421000Y-68437221D01*
X190423854Y-68444112D01*
X190423855Y-68464930D01*
X190425489Y-68464834D01*
X190426150Y-68476069D01*
X190440684Y-68502027D01*
X190445342Y-68513595D01*
X190448413Y-68525366D01*
X190450000Y-68537736D01*
X190450000Y-70292766D01*
X190449763Y-70297576D01*
X190449292Y-70302351D01*
X190448587Y-70307101D01*
X190437618Y-70362242D01*
X190434831Y-70371432D01*
X190431209Y-70380177D01*
X190426680Y-70388649D01*
X190399516Y-70429304D01*
X190393422Y-70436730D01*
X190386730Y-70443422D01*
X190379304Y-70449516D01*
X190338649Y-70476680D01*
X190330176Y-70481209D01*
X190321435Y-70484829D01*
X190312247Y-70487616D01*
X190273962Y-70495232D01*
X190269275Y-70496165D01*
X190260846Y-70497841D01*
X190257095Y-70498588D01*
X190252350Y-70499292D01*
X190247578Y-70499763D01*
X190242765Y-70500000D01*
X187857234Y-70500000D01*
X187852425Y-70499763D01*
X187847649Y-70499292D01*
X187842911Y-70498589D01*
X187827202Y-70495465D01*
X187787755Y-70487618D01*
X187778565Y-70484830D01*
X187769818Y-70481207D01*
X187761348Y-70476680D01*
X187741021Y-70463098D01*
X187720691Y-70449514D01*
X187713266Y-70443420D01*
X187706578Y-70436732D01*
X187700484Y-70429307D01*
X187673318Y-70388650D01*
X187668793Y-70380186D01*
X187665167Y-70371432D01*
X187662380Y-70362245D01*
X187662379Y-70362242D01*
X187651407Y-70307078D01*
X187650704Y-70302334D01*
X187650234Y-70297558D01*
X187650000Y-70292773D01*
X187650000Y-69507228D01*
X187650235Y-69502438D01*
X187650703Y-69497673D01*
X187651408Y-69492915D01*
X187662382Y-69437746D01*
X187665167Y-69428566D01*
X187668793Y-69419812D01*
X187673317Y-69411350D01*
X187700491Y-69370681D01*
X187706575Y-69363268D01*
X187713268Y-69356575D01*
X187720682Y-69350490D01*
X187761351Y-69323316D01*
X187769820Y-69318790D01*
X187778562Y-69315169D01*
X187787751Y-69312381D01*
X187842915Y-69301408D01*
X187847671Y-69300703D01*
X187848469Y-69300624D01*
X187852438Y-69300235D01*
X187857228Y-69300000D01*
X188949997Y-69300000D01*
X188950000Y-69300000D01*
X189026537Y-69284776D01*
X189091421Y-69241421D01*
X189134776Y-69176537D01*
X189150000Y-69100000D01*
X189150000Y-68557228D01*
X189150235Y-68552438D01*
X189150703Y-68547673D01*
X189151408Y-68542915D01*
X189162382Y-68487746D01*
X189165165Y-68478569D01*
X189168795Y-68469808D01*
X189173311Y-68461358D01*
X189200491Y-68420681D01*
X189206575Y-68413268D01*
X189213268Y-68406575D01*
X189220682Y-68400490D01*
X189261351Y-68373316D01*
X189269820Y-68368790D01*
X189278562Y-68365169D01*
X189287751Y-68362381D01*
X189342915Y-68351408D01*
X189347671Y-68350703D01*
X189348469Y-68350624D01*
X189352438Y-68350235D01*
X189357228Y-68350000D01*
X190265335Y-68350000D01*
X190271728Y-68350419D01*
G37*
%TD.AperFunction*%
%TD*%
%TA.AperFunction,Conductor*%
%TO.N,3V3_AUX*%
G36*
X175956790Y-68888237D02*
G01*
X176012206Y-68897960D01*
X176028129Y-68903725D01*
X176076928Y-68931733D01*
X176085571Y-68942938D01*
X176117358Y-68964743D01*
X176117628Y-68964929D01*
X176119362Y-68966135D01*
X176119373Y-68966144D01*
X176179325Y-69000554D01*
X176247410Y-69012500D01*
X177095177Y-69012500D01*
X177104736Y-69013442D01*
X177166975Y-69025822D01*
X177184640Y-69033138D01*
X177233319Y-69065665D01*
X177246834Y-69079180D01*
X177257634Y-69095343D01*
X177279361Y-69127860D01*
X177286677Y-69145523D01*
X177299058Y-69207763D01*
X177300000Y-69217323D01*
X177300000Y-71662500D01*
X177100000Y-71662500D01*
X175625000Y-71662500D01*
X175425000Y-71662500D01*
X175425000Y-70263739D01*
X175418743Y-70214103D01*
X175400362Y-70167573D01*
X175212500Y-69825000D01*
X175026116Y-69485122D01*
X175023507Y-69479564D01*
X175008526Y-69441641D01*
X175005484Y-69429766D01*
X175000385Y-69389315D01*
X175000000Y-69383187D01*
X175000000Y-69100166D01*
X175000939Y-69090617D01*
X175013323Y-69028361D01*
X175020638Y-69010703D01*
X175055902Y-68957925D01*
X175061987Y-68950512D01*
X175063012Y-68949487D01*
X175070425Y-68943402D01*
X175123204Y-68908137D01*
X175140861Y-68900823D01*
X175203117Y-68888439D01*
X175212666Y-68887500D01*
X175948322Y-68887500D01*
X175956790Y-68888237D01*
G37*
%TD.AperFunction*%
%TD*%
%TA.AperFunction,Conductor*%
%TO.N,GND*%
G36*
X130798016Y-69009223D02*
G01*
X130828802Y-69017472D01*
X130858698Y-69029854D01*
X130886302Y-69045791D01*
X130911977Y-69065494D01*
X130934504Y-69088021D01*
X130954210Y-69113702D01*
X130970139Y-69141292D01*
X130982526Y-69171197D01*
X130990774Y-69201977D01*
X130995000Y-69234072D01*
X130995000Y-69265926D01*
X130990774Y-69298021D01*
X130982526Y-69328801D01*
X130970139Y-69358706D01*
X130954210Y-69386296D01*
X130934504Y-69411977D01*
X130911978Y-69434503D01*
X130886295Y-69454211D01*
X130863287Y-69467494D01*
X130849879Y-69470746D01*
X130850466Y-69472030D01*
X130800056Y-69495051D01*
X130730897Y-69504994D01*
X130700023Y-69496368D01*
X130699672Y-69496218D01*
X130661850Y-69480023D01*
X130661128Y-69479829D01*
X130656487Y-69477856D01*
X130654921Y-69476570D01*
X130643016Y-69471134D01*
X130613700Y-69454208D01*
X130588022Y-69434505D01*
X130565494Y-69411977D01*
X130545791Y-69386302D01*
X130529854Y-69358698D01*
X130517470Y-69328797D01*
X130509224Y-69298017D01*
X130505000Y-69265929D01*
X130505000Y-69234069D01*
X130509224Y-69201981D01*
X130510267Y-69198087D01*
X130517472Y-69171197D01*
X130529853Y-69141302D01*
X130545795Y-69113690D01*
X130565491Y-69088023D01*
X130588022Y-69065492D01*
X130613691Y-69045795D01*
X130641300Y-69029855D01*
X130671200Y-69017472D01*
X130701980Y-69009225D01*
X130734072Y-69005000D01*
X130765931Y-69005000D01*
X130798016Y-69009223D01*
G37*
%TD.AperFunction*%
%TA.AperFunction,Conductor*%
G36*
X168666440Y-66721725D02*
G01*
X168684497Y-66726563D01*
X168714403Y-66738949D01*
X168730595Y-66748298D01*
X168756265Y-66767994D01*
X168769495Y-66781224D01*
X168789200Y-66806904D01*
X168798549Y-66823097D01*
X168810936Y-66853001D01*
X168815774Y-66871055D01*
X168820000Y-66903151D01*
X168820000Y-66921848D01*
X168815774Y-66953944D01*
X168810936Y-66971998D01*
X168798549Y-67001902D01*
X168765006Y-67060000D01*
X168761936Y-67065036D01*
X168749047Y-67085091D01*
X168749046Y-67085093D01*
X168724756Y-67158075D01*
X168724756Y-67158078D01*
X168719774Y-67227742D01*
X168719773Y-67227766D01*
X168719421Y-67235157D01*
X168738398Y-67313381D01*
X168740647Y-67317500D01*
X168747299Y-67329683D01*
X168747393Y-67329854D01*
X168765974Y-67363883D01*
X168766051Y-67363840D01*
X168771865Y-67374431D01*
X168770806Y-67375044D01*
X168799215Y-67424250D01*
X168799859Y-67425422D01*
X168800250Y-67427203D01*
X168810936Y-67452999D01*
X168814196Y-67465166D01*
X168815775Y-67471056D01*
X168820000Y-67503151D01*
X168820000Y-67521848D01*
X168815774Y-67553944D01*
X168810936Y-67571998D01*
X168798549Y-67601903D01*
X168789201Y-67618094D01*
X168769495Y-67643774D01*
X168756274Y-67656995D01*
X168730594Y-67676701D01*
X168714403Y-67686049D01*
X168684501Y-67698435D01*
X168666442Y-67703274D01*
X168634349Y-67707500D01*
X168615654Y-67707500D01*
X168583560Y-67703275D01*
X168548756Y-67693949D01*
X168548757Y-67693949D01*
X168519609Y-67689048D01*
X168519601Y-67689047D01*
X168472801Y-67685701D01*
X168472792Y-67685701D01*
X168400497Y-67697859D01*
X168400489Y-67697862D01*
X168336263Y-67725365D01*
X168329534Y-67728439D01*
X168329528Y-67728442D01*
X168268702Y-67781148D01*
X168268699Y-67781152D01*
X168229556Y-67838985D01*
X168225539Y-67845236D01*
X168202860Y-67922469D01*
X168201197Y-67992320D01*
X168206452Y-68036265D01*
X168215775Y-68071058D01*
X168220000Y-68103151D01*
X168220000Y-68121848D01*
X168215774Y-68153944D01*
X168210936Y-68171998D01*
X168198549Y-68201903D01*
X168189201Y-68218094D01*
X168169495Y-68243774D01*
X168156274Y-68256995D01*
X168130594Y-68276701D01*
X168114403Y-68286049D01*
X168084501Y-68298435D01*
X168066442Y-68303274D01*
X168034349Y-68307500D01*
X168015656Y-68307500D01*
X167983559Y-68303274D01*
X167978829Y-68302006D01*
X167965494Y-68298433D01*
X167935593Y-68286046D01*
X167877501Y-68252507D01*
X167872461Y-68249436D01*
X167852403Y-68236545D01*
X167797207Y-68218175D01*
X167779426Y-68212257D01*
X167779424Y-68212256D01*
X167779422Y-68212256D01*
X167709728Y-68207272D01*
X167702346Y-68206920D01*
X167702341Y-68206921D01*
X167624119Y-68225897D01*
X167607694Y-68234865D01*
X167607344Y-68235057D01*
X167573617Y-68253473D01*
X167573659Y-68253550D01*
X167563072Y-68259362D01*
X167562461Y-68258303D01*
X167513259Y-68286709D01*
X167512076Y-68287359D01*
X167510295Y-68287750D01*
X167484501Y-68298435D01*
X167466442Y-68303274D01*
X167434349Y-68307500D01*
X167415656Y-68307500D01*
X167383561Y-68303274D01*
X167365495Y-68298433D01*
X167335597Y-68286049D01*
X167319399Y-68276697D01*
X167293724Y-68256995D01*
X167280497Y-68243768D01*
X167260799Y-68218094D01*
X167251452Y-68201905D01*
X167239063Y-68171995D01*
X167234225Y-68153938D01*
X167230000Y-68121847D01*
X167230000Y-68103152D01*
X167234225Y-68071059D01*
X167239064Y-68052999D01*
X167251452Y-68023092D01*
X167267010Y-67996145D01*
X167279193Y-67975044D01*
X167279192Y-67975043D01*
X167284949Y-67965073D01*
X167288002Y-67960062D01*
X167300945Y-67939924D01*
X167325232Y-67866975D01*
X167330229Y-67797284D01*
X167330582Y-67789890D01*
X167311619Y-67711663D01*
X167284041Y-67661137D01*
X167283957Y-67661182D01*
X167278130Y-67650566D01*
X167279192Y-67649954D01*
X167250768Y-67600724D01*
X167250140Y-67599579D01*
X167249747Y-67597792D01*
X167239063Y-67571996D01*
X167234224Y-67553933D01*
X167230000Y-67521845D01*
X167230000Y-67503152D01*
X167234224Y-67471064D01*
X167239063Y-67453001D01*
X167251445Y-67423102D01*
X167260804Y-67406892D01*
X167280498Y-67381228D01*
X167293729Y-67367997D01*
X167319398Y-67348300D01*
X167335594Y-67338949D01*
X167365493Y-67326565D01*
X167383566Y-67321722D01*
X167415652Y-67317500D01*
X167434346Y-67317500D01*
X167466434Y-67321724D01*
X167474883Y-67323987D01*
X167484495Y-67326563D01*
X167514398Y-67338947D01*
X167562454Y-67366693D01*
X167562454Y-67366692D01*
X167572446Y-67372461D01*
X167577483Y-67375532D01*
X167597579Y-67388447D01*
X167664752Y-67410810D01*
X167670525Y-67412732D01*
X167740216Y-67417729D01*
X167747611Y-67418082D01*
X167825838Y-67399118D01*
X167825842Y-67399116D01*
X167842179Y-67390199D01*
X167842302Y-67390131D01*
X167876363Y-67371540D01*
X167876317Y-67371457D01*
X167886932Y-67365630D01*
X167887545Y-67366692D01*
X167936780Y-67338264D01*
X167937917Y-67337641D01*
X167939702Y-67337248D01*
X167965497Y-67326564D01*
X167975082Y-67323996D01*
X167983564Y-67321724D01*
X168015652Y-67317500D01*
X168034348Y-67317500D01*
X168066441Y-67321724D01*
X168101232Y-67331047D01*
X168130385Y-67335950D01*
X168177199Y-67339298D01*
X168249505Y-67327139D01*
X168313733Y-67299635D01*
X168320463Y-67296561D01*
X168381296Y-67243850D01*
X168420459Y-67185988D01*
X168424461Y-67179761D01*
X168447139Y-67102529D01*
X168448802Y-67032679D01*
X168443548Y-66988732D01*
X168442491Y-66984786D01*
X168434225Y-66953936D01*
X168430000Y-66921844D01*
X168430000Y-66903152D01*
X168434224Y-66871064D01*
X168439063Y-66853001D01*
X168451445Y-66823102D01*
X168460804Y-66806892D01*
X168480498Y-66781228D01*
X168493729Y-66767997D01*
X168519398Y-66748300D01*
X168535594Y-66738949D01*
X168565493Y-66726565D01*
X168583566Y-66721722D01*
X168615652Y-66717500D01*
X168634349Y-66717500D01*
X168666440Y-66721725D01*
G37*
%TD.AperFunction*%
%TA.AperFunction,Conductor*%
G36*
X139250266Y-55353754D02*
G01*
X139260573Y-55358168D01*
X139292223Y-55371722D01*
X139292077Y-55372061D01*
X139306990Y-55378868D01*
X139336298Y-55395789D01*
X139361977Y-55415494D01*
X139384504Y-55438021D01*
X139404210Y-55463702D01*
X139420139Y-55491292D01*
X139432526Y-55521197D01*
X139440774Y-55551977D01*
X139445000Y-55584072D01*
X139445000Y-55615926D01*
X139440774Y-55648021D01*
X139432526Y-55678801D01*
X139420139Y-55708706D01*
X139404210Y-55736296D01*
X139384504Y-55761977D01*
X139361977Y-55784504D01*
X139336299Y-55804209D01*
X139308709Y-55820139D01*
X139278802Y-55832526D01*
X139248023Y-55840774D01*
X139215930Y-55845000D01*
X139184072Y-55845000D01*
X139151979Y-55840775D01*
X139121200Y-55832528D01*
X139091296Y-55820141D01*
X139063698Y-55804207D01*
X139038021Y-55784504D01*
X139015493Y-55761976D01*
X138995790Y-55736299D01*
X138979855Y-55708699D01*
X138967471Y-55678801D01*
X138961700Y-55657264D01*
X138959224Y-55648019D01*
X138955000Y-55615929D01*
X138955000Y-55584069D01*
X138959224Y-55551981D01*
X138959497Y-55550960D01*
X138967472Y-55521197D01*
X138979853Y-55491302D01*
X138995795Y-55463690D01*
X139015491Y-55438023D01*
X139038021Y-55415493D01*
X139063694Y-55395793D01*
X139093128Y-55378800D01*
X139113167Y-55369503D01*
X139136204Y-55361222D01*
X139149943Y-55354947D01*
X139219098Y-55345004D01*
X139250266Y-55353754D01*
G37*
%TD.AperFunction*%
%TA.AperFunction,Conductor*%
G36*
X139221175Y-54340098D02*
G01*
X139246772Y-54342543D01*
X139260225Y-54350062D01*
X139263953Y-54351014D01*
X139272899Y-54357147D01*
X139274604Y-54358100D01*
X139275960Y-54359107D01*
X139284793Y-54366053D01*
X139287145Y-54367411D01*
X139287148Y-54367413D01*
X139336295Y-54395788D01*
X139361977Y-54415494D01*
X139384504Y-54438021D01*
X139404210Y-54463702D01*
X139420139Y-54491292D01*
X139432526Y-54521197D01*
X139440774Y-54551977D01*
X139445000Y-54584072D01*
X139445000Y-54615926D01*
X139440774Y-54648021D01*
X139432526Y-54678801D01*
X139420139Y-54708706D01*
X139404210Y-54736296D01*
X139384504Y-54761977D01*
X139361978Y-54784503D01*
X139336297Y-54804209D01*
X139306871Y-54821198D01*
X139286823Y-54830499D01*
X139263782Y-54838782D01*
X139250053Y-54845052D01*
X139180894Y-54854993D01*
X139150025Y-54846369D01*
X139149722Y-54846240D01*
X139111850Y-54830023D01*
X139111125Y-54829828D01*
X139106488Y-54827857D01*
X139104921Y-54826569D01*
X139093016Y-54821134D01*
X139063700Y-54804208D01*
X139038022Y-54784505D01*
X139015494Y-54761977D01*
X138995791Y-54736302D01*
X138979854Y-54708698D01*
X138967470Y-54678797D01*
X138961372Y-54656035D01*
X138959224Y-54648017D01*
X138955000Y-54615929D01*
X138955000Y-54584069D01*
X138959224Y-54551981D01*
X138959497Y-54550960D01*
X138967472Y-54521197D01*
X138979853Y-54491302D01*
X138995795Y-54463690D01*
X139015491Y-54438023D01*
X139038021Y-54415493D01*
X139063700Y-54395790D01*
X139115206Y-54366054D01*
X139129966Y-54355805D01*
X139154363Y-54347683D01*
X139177219Y-54335901D01*
X139186962Y-54336831D01*
X139196252Y-54333739D01*
X139221175Y-54340098D01*
G37*
%TD.AperFunction*%
%TA.AperFunction,Conductor*%
G36*
X126895016Y-51520185D02*
G01*
X126940771Y-51572989D01*
X126951901Y-51628821D01*
X126925000Y-52400000D01*
X170124999Y-52400000D01*
X170125000Y-52400000D01*
X170170506Y-51617302D01*
X170194049Y-51551519D01*
X170249419Y-51508906D01*
X170294297Y-51500500D01*
X196857670Y-51500500D01*
X196892606Y-51505523D01*
X196907604Y-51509927D01*
X196966355Y-51547672D01*
X196967542Y-51549041D01*
X196995018Y-51603902D01*
X196996663Y-51611460D01*
X196999500Y-51637831D01*
X196999500Y-75357670D01*
X196994475Y-75392614D01*
X196990070Y-75407612D01*
X196952327Y-75466355D01*
X196950958Y-75467542D01*
X196896097Y-75495018D01*
X196888539Y-75496663D01*
X196862168Y-75499500D01*
X108142330Y-75499500D01*
X108107389Y-75494475D01*
X108092390Y-75490070D01*
X108033644Y-75452327D01*
X108032457Y-75450958D01*
X108004977Y-75396083D01*
X108003332Y-75388521D01*
X108000500Y-75362168D01*
X108000500Y-72905507D01*
X109299500Y-72905507D01*
X109299500Y-73094491D01*
X109324777Y-73254082D01*
X109329059Y-73281118D01*
X109387454Y-73460836D01*
X109473240Y-73629199D01*
X109584310Y-73782073D01*
X109717927Y-73915690D01*
X109786078Y-73965205D01*
X109870796Y-74026757D01*
X109870797Y-74026757D01*
X109870801Y-74026760D01*
X109950347Y-74067290D01*
X110032722Y-74109263D01*
X110034320Y-74110199D01*
X110038037Y-74111999D01*
X110040021Y-74112985D01*
X110043775Y-74114043D01*
X110135497Y-74143846D01*
X110218881Y-74170940D01*
X110405514Y-74200500D01*
X110405519Y-74200500D01*
X110594485Y-74200500D01*
X110594486Y-74200500D01*
X110781118Y-74170940D01*
X110960832Y-74112547D01*
X111129199Y-74026760D01*
X111282073Y-73915690D01*
X111415690Y-73782073D01*
X111526760Y-73629199D01*
X111612547Y-73460832D01*
X111670940Y-73281118D01*
X111678667Y-73232330D01*
X111700500Y-73094486D01*
X111700500Y-72905513D01*
X111670940Y-72718881D01*
X111638889Y-72620240D01*
X111624352Y-72575498D01*
X111624352Y-72575497D01*
X111620099Y-72562412D01*
X111612547Y-72539168D01*
X111612545Y-72539165D01*
X111612545Y-72539163D01*
X111610302Y-72534762D01*
X111609992Y-72533966D01*
X111609260Y-72532716D01*
X111600190Y-72514916D01*
X111541383Y-72399500D01*
X111541383Y-72399499D01*
X111526761Y-72370803D01*
X111526759Y-72370800D01*
X111415690Y-72217927D01*
X111282073Y-72084310D01*
X111129199Y-71973240D01*
X111113443Y-71965212D01*
X110960836Y-71887454D01*
X110781118Y-71829059D01*
X110781112Y-71829058D01*
X110594491Y-71799500D01*
X110594486Y-71799500D01*
X110594481Y-71799500D01*
X110405519Y-71799500D01*
X110405514Y-71799500D01*
X110405509Y-71799500D01*
X110218886Y-71829058D01*
X110218884Y-71829058D01*
X110218881Y-71829059D01*
X110039163Y-71887454D01*
X109948178Y-71933813D01*
X109870807Y-71973236D01*
X109870794Y-71973244D01*
X109792031Y-72030468D01*
X109792032Y-72030469D01*
X109729798Y-72075685D01*
X109722417Y-72079818D01*
X109579819Y-72222416D01*
X109575688Y-72229793D01*
X109545092Y-72271906D01*
X109518032Y-72309150D01*
X109473240Y-72370799D01*
X109447302Y-72421706D01*
X109387454Y-72539163D01*
X109329059Y-72718881D01*
X109329059Y-72718883D01*
X109329058Y-72718886D01*
X109299500Y-72905507D01*
X108000500Y-72905507D01*
X108000500Y-60141829D01*
X117344500Y-60141829D01*
X117344500Y-60792744D01*
X117344500Y-61592744D01*
X117344500Y-62392744D01*
X117344500Y-64474326D01*
X117344500Y-69217744D01*
X117344500Y-71227619D01*
X117344500Y-72227619D01*
X117344500Y-73727619D01*
X117344500Y-74862668D01*
X117345390Y-74879283D01*
X117346036Y-74885290D01*
X117348220Y-74905625D01*
X117350887Y-74922085D01*
X117350888Y-74922087D01*
X117352530Y-74929634D01*
X117365437Y-74966211D01*
X117392914Y-75021081D01*
X117392922Y-75021095D01*
X117414463Y-75053316D01*
X117414472Y-75053328D01*
X117415659Y-75054697D01*
X117440962Y-75076612D01*
X117449091Y-75083653D01*
X117507837Y-75121396D01*
X117548072Y-75139769D01*
X117563071Y-75144174D01*
X117584754Y-75148891D01*
X117619695Y-75153916D01*
X117641830Y-75155500D01*
X177162668Y-75155500D01*
X177179301Y-75154608D01*
X177205672Y-75151771D01*
X177216630Y-75149994D01*
X177222104Y-75149107D01*
X177222109Y-75149106D01*
X177229667Y-75147461D01*
X177266231Y-75134555D01*
X177321092Y-75107079D01*
X177321096Y-75107075D01*
X177321099Y-75107075D01*
X177337073Y-75096394D01*
X177353326Y-75085529D01*
X177354695Y-75084342D01*
X177383651Y-75050911D01*
X177421394Y-74992168D01*
X177439768Y-74951932D01*
X177444173Y-74936934D01*
X177448892Y-74915247D01*
X177453917Y-74880303D01*
X177455500Y-74858170D01*
X177455500Y-71786500D01*
X177451946Y-71753445D01*
X177449014Y-71739967D01*
X177450404Y-71681515D01*
X177455500Y-71662500D01*
X177455500Y-71380348D01*
X178294500Y-71380348D01*
X178294500Y-71619650D01*
X178294503Y-71619674D01*
X178325732Y-71856889D01*
X178325733Y-71856892D01*
X178325734Y-71856900D01*
X178356906Y-71973236D01*
X178387668Y-72088043D01*
X178474703Y-72298164D01*
X178479243Y-72309123D01*
X178479251Y-72309140D01*
X178479256Y-72309150D01*
X178597028Y-72513138D01*
X178597985Y-72514916D01*
X178598886Y-72516357D01*
X178598891Y-72516365D01*
X178598892Y-72516367D01*
X178744569Y-72706216D01*
X178744575Y-72706223D01*
X178913776Y-72875424D01*
X178913783Y-72875430D01*
X179103632Y-73021107D01*
X179103634Y-73021108D01*
X179103649Y-73021116D01*
X179105081Y-73022013D01*
X179106847Y-73022963D01*
X179230730Y-73094486D01*
X179309002Y-73139676D01*
X179310563Y-73140613D01*
X179310845Y-73140739D01*
X179310859Y-73140748D01*
X179310862Y-73140749D01*
X179310870Y-73140754D01*
X179310948Y-73140786D01*
X179312598Y-73141529D01*
X179312599Y-73141530D01*
X179312608Y-73141534D01*
X179313049Y-73141732D01*
X179314892Y-73142420D01*
X179531953Y-73232330D01*
X179763098Y-73294265D01*
X180000350Y-73325500D01*
X180000357Y-73325500D01*
X180239643Y-73325500D01*
X180239650Y-73325500D01*
X180476902Y-73294265D01*
X180708047Y-73232330D01*
X180929130Y-73140754D01*
X181136370Y-73021105D01*
X181326218Y-72875429D01*
X181495429Y-72706218D01*
X181497241Y-72703856D01*
X182399500Y-72703856D01*
X182399500Y-72796144D01*
X182400858Y-72801213D01*
X182400858Y-72801215D01*
X182420741Y-72875421D01*
X182420742Y-72875421D01*
X182420744Y-72875429D01*
X182423387Y-72885290D01*
X182423388Y-72885293D01*
X182469526Y-72965205D01*
X182469529Y-72965209D01*
X182469531Y-72965212D01*
X182534788Y-73030469D01*
X182534791Y-73030470D01*
X182534794Y-73030473D01*
X182541020Y-73034067D01*
X182541684Y-73034730D01*
X182543036Y-73035566D01*
X182545651Y-73036741D01*
X182614706Y-73076611D01*
X182614707Y-73076611D01*
X182614712Y-73076614D01*
X182703856Y-73100500D01*
X182703858Y-73100500D01*
X182757670Y-73100500D01*
X182792606Y-73105523D01*
X182807604Y-73109927D01*
X182866355Y-73147672D01*
X182867542Y-73149041D01*
X182895018Y-73203902D01*
X182896663Y-73211460D01*
X182899500Y-73237831D01*
X182899500Y-73257670D01*
X182894475Y-73292614D01*
X182890070Y-73307612D01*
X182852327Y-73366355D01*
X182850958Y-73367542D01*
X182796097Y-73395018D01*
X182788539Y-73396663D01*
X182762168Y-73399500D01*
X182703856Y-73399500D01*
X182621466Y-73421575D01*
X182621451Y-73421580D01*
X182614712Y-73423386D01*
X182614711Y-73423386D01*
X182614709Y-73423387D01*
X182614706Y-73423388D01*
X182611906Y-73425004D01*
X182611902Y-73425006D01*
X182534804Y-73469519D01*
X182534786Y-73469531D01*
X182469531Y-73534786D01*
X182469519Y-73534804D01*
X182425006Y-73611902D01*
X182425004Y-73611906D01*
X182423388Y-73614706D01*
X182423387Y-73614709D01*
X182423386Y-73614711D01*
X182423386Y-73614712D01*
X182421580Y-73621451D01*
X182421575Y-73621466D01*
X182399500Y-73703856D01*
X182399500Y-73796145D01*
X182420146Y-73873200D01*
X182420147Y-73873200D01*
X182420148Y-73873205D01*
X182423387Y-73885290D01*
X182423388Y-73885293D01*
X182469526Y-73965205D01*
X182469529Y-73965209D01*
X182469531Y-73965212D01*
X182534788Y-74030469D01*
X182534791Y-74030470D01*
X182534794Y-74030473D01*
X182541020Y-74034067D01*
X182541684Y-74034730D01*
X182543036Y-74035566D01*
X182545651Y-74036741D01*
X182614706Y-74076611D01*
X182614707Y-74076611D01*
X182614712Y-74076614D01*
X182703856Y-74100500D01*
X182703858Y-74100500D01*
X182757670Y-74100500D01*
X182792606Y-74105523D01*
X182807604Y-74109927D01*
X182866355Y-74147672D01*
X182867542Y-74149041D01*
X182895018Y-74203902D01*
X182896663Y-74211460D01*
X182899500Y-74237831D01*
X182899500Y-74257670D01*
X182894475Y-74292614D01*
X182890070Y-74307612D01*
X182852327Y-74366355D01*
X182850958Y-74367542D01*
X182796097Y-74395018D01*
X182788539Y-74396663D01*
X182762168Y-74399500D01*
X182703856Y-74399500D01*
X182621466Y-74421575D01*
X182621451Y-74421580D01*
X182614712Y-74423386D01*
X182614711Y-74423386D01*
X182614709Y-74423387D01*
X182614706Y-74423388D01*
X182611906Y-74425004D01*
X182611902Y-74425006D01*
X182534804Y-74469519D01*
X182534786Y-74469531D01*
X182469531Y-74534786D01*
X182469519Y-74534804D01*
X182425006Y-74611902D01*
X182425004Y-74611906D01*
X182423388Y-74614706D01*
X182423387Y-74614709D01*
X182423386Y-74614711D01*
X182423386Y-74614712D01*
X182421579Y-74621455D01*
X182421575Y-74621467D01*
X182407771Y-74672988D01*
X182407771Y-74672989D01*
X182399500Y-74703856D01*
X182399500Y-74796143D01*
X182405191Y-74817385D01*
X182423384Y-74885282D01*
X182423386Y-74885288D01*
X182423387Y-74885290D01*
X182423388Y-74885293D01*
X182444630Y-74922085D01*
X182461862Y-74951932D01*
X182469526Y-74965205D01*
X182469529Y-74965209D01*
X182469531Y-74965212D01*
X182534788Y-75030469D01*
X182534791Y-75030470D01*
X182534794Y-75030473D01*
X182541020Y-75034067D01*
X182541684Y-75034730D01*
X182543036Y-75035566D01*
X182545651Y-75036741D01*
X182614706Y-75076611D01*
X182614707Y-75076611D01*
X182614712Y-75076614D01*
X182703856Y-75100500D01*
X182703858Y-75100500D01*
X182796142Y-75100500D01*
X182796144Y-75100500D01*
X182885288Y-75076614D01*
X182965212Y-75030469D01*
X183030469Y-74965212D01*
X183076614Y-74885288D01*
X183100500Y-74796144D01*
X183100500Y-74742329D01*
X183105523Y-74707393D01*
X183109927Y-74692395D01*
X183147672Y-74633644D01*
X183149041Y-74632457D01*
X183203920Y-74604977D01*
X183211479Y-74603333D01*
X183237832Y-74600500D01*
X183257670Y-74600500D01*
X183292606Y-74605523D01*
X183307604Y-74609927D01*
X183366355Y-74647672D01*
X183367542Y-74649041D01*
X183395018Y-74703902D01*
X183396663Y-74711460D01*
X183399500Y-74737831D01*
X183399500Y-74796143D01*
X183405191Y-74817385D01*
X183423384Y-74885282D01*
X183423386Y-74885288D01*
X183423387Y-74885290D01*
X183423388Y-74885293D01*
X183444630Y-74922085D01*
X183461862Y-74951932D01*
X183469526Y-74965205D01*
X183469529Y-74965209D01*
X183469531Y-74965212D01*
X183534788Y-75030469D01*
X183534791Y-75030470D01*
X183534794Y-75030473D01*
X183541020Y-75034067D01*
X183541684Y-75034730D01*
X183543036Y-75035566D01*
X183545651Y-75036741D01*
X183614706Y-75076611D01*
X183614707Y-75076611D01*
X183614712Y-75076614D01*
X183703856Y-75100500D01*
X183703858Y-75100500D01*
X183796142Y-75100500D01*
X183796144Y-75100500D01*
X183885288Y-75076614D01*
X183965212Y-75030469D01*
X184030469Y-74965212D01*
X184076614Y-74885288D01*
X184100500Y-74796144D01*
X184100500Y-74703856D01*
X184076614Y-74614712D01*
X184076612Y-74614709D01*
X184068409Y-74600500D01*
X184030473Y-74534794D01*
X184030472Y-74534793D01*
X184030470Y-74534789D01*
X183966378Y-74470697D01*
X183965212Y-74469531D01*
X183965209Y-74469529D01*
X183965205Y-74469526D01*
X183899190Y-74431411D01*
X183898835Y-74431204D01*
X183898460Y-74430806D01*
X183892895Y-74426536D01*
X183886999Y-74424094D01*
X183883596Y-74422624D01*
X183883126Y-74422412D01*
X183881234Y-74421706D01*
X183877684Y-74420235D01*
X183869520Y-74419161D01*
X183796144Y-74399500D01*
X183796143Y-74399500D01*
X183742330Y-74399500D01*
X183707389Y-74394475D01*
X183692390Y-74390070D01*
X183633644Y-74352327D01*
X183632457Y-74350958D01*
X183604977Y-74296083D01*
X183603332Y-74288521D01*
X183600500Y-74262168D01*
X183600500Y-74242329D01*
X183605523Y-74207393D01*
X183609927Y-74192395D01*
X183647672Y-74133644D01*
X183649041Y-74132457D01*
X183703920Y-74104977D01*
X183711479Y-74103333D01*
X183737832Y-74100500D01*
X183796142Y-74100500D01*
X183796144Y-74100500D01*
X183885288Y-74076614D01*
X183965212Y-74030469D01*
X184030469Y-73965212D01*
X184076614Y-73885288D01*
X184100500Y-73796144D01*
X184100500Y-73703856D01*
X184076614Y-73614712D01*
X184076183Y-73613966D01*
X184054619Y-73576615D01*
X184054619Y-73576616D01*
X184054618Y-73576614D01*
X184030473Y-73534794D01*
X184030471Y-73534792D01*
X184030469Y-73534788D01*
X184022512Y-73526831D01*
X183965212Y-73469531D01*
X183965209Y-73469529D01*
X183965205Y-73469526D01*
X183926663Y-73447273D01*
X187349500Y-73447273D01*
X187349500Y-73552727D01*
X187376793Y-73654587D01*
X187429520Y-73745913D01*
X187504087Y-73820480D01*
X187595413Y-73873207D01*
X187697273Y-73900500D01*
X187697275Y-73900500D01*
X187802725Y-73900500D01*
X187802727Y-73900500D01*
X187904587Y-73873207D01*
X187995913Y-73820480D01*
X188070480Y-73745913D01*
X188123207Y-73654587D01*
X188150500Y-73552727D01*
X188150500Y-73447273D01*
X188123207Y-73345413D01*
X188070480Y-73254087D01*
X187995913Y-73179520D01*
X187916453Y-73133644D01*
X187904589Y-73126794D01*
X187904588Y-73126793D01*
X187904587Y-73126793D01*
X187802727Y-73099500D01*
X187802726Y-73099500D01*
X187697273Y-73099500D01*
X187595413Y-73126792D01*
X187595408Y-73126795D01*
X187504088Y-73179518D01*
X187504082Y-73179523D01*
X187429523Y-73254082D01*
X187429518Y-73254088D01*
X187376795Y-73345408D01*
X187376792Y-73345413D01*
X187349500Y-73447273D01*
X183926663Y-73447273D01*
X183899190Y-73431411D01*
X183898835Y-73431204D01*
X183898460Y-73430806D01*
X183892895Y-73426536D01*
X183886999Y-73424094D01*
X183883596Y-73422624D01*
X183883126Y-73422412D01*
X183881234Y-73421706D01*
X183877684Y-73420235D01*
X183869520Y-73419161D01*
X183796144Y-73399500D01*
X183796143Y-73399500D01*
X183742330Y-73399500D01*
X183707389Y-73394475D01*
X183692390Y-73390070D01*
X183633644Y-73352327D01*
X183632457Y-73350958D01*
X183604977Y-73296083D01*
X183603332Y-73288521D01*
X183600500Y-73262168D01*
X183600500Y-73242329D01*
X183605523Y-73207393D01*
X183609927Y-73192395D01*
X183647672Y-73133644D01*
X183649041Y-73132457D01*
X183703920Y-73104977D01*
X183711479Y-73103333D01*
X183737832Y-73100500D01*
X183796142Y-73100500D01*
X183796144Y-73100500D01*
X183885288Y-73076614D01*
X183965212Y-73030469D01*
X184030469Y-72965212D01*
X184064940Y-72905507D01*
X193299500Y-72905507D01*
X193299500Y-73094491D01*
X193324777Y-73254082D01*
X193329059Y-73281118D01*
X193387454Y-73460836D01*
X193473240Y-73629199D01*
X193584310Y-73782073D01*
X193717927Y-73915690D01*
X193786078Y-73965205D01*
X193870796Y-74026757D01*
X193870797Y-74026757D01*
X193870801Y-74026760D01*
X193950347Y-74067290D01*
X194032722Y-74109263D01*
X194034320Y-74110199D01*
X194038037Y-74111999D01*
X194040021Y-74112985D01*
X194043775Y-74114043D01*
X194135497Y-74143846D01*
X194218881Y-74170940D01*
X194405514Y-74200500D01*
X194405519Y-74200500D01*
X194594485Y-74200500D01*
X194594486Y-74200500D01*
X194781118Y-74170940D01*
X194960832Y-74112547D01*
X195129199Y-74026760D01*
X195282073Y-73915690D01*
X195415690Y-73782073D01*
X195526760Y-73629199D01*
X195612547Y-73460832D01*
X195670940Y-73281118D01*
X195678667Y-73232330D01*
X195700500Y-73094486D01*
X195700500Y-72905513D01*
X195670940Y-72718881D01*
X195638889Y-72620240D01*
X195624352Y-72575498D01*
X195624352Y-72575497D01*
X195620099Y-72562412D01*
X195612547Y-72539168D01*
X195612545Y-72539165D01*
X195612545Y-72539163D01*
X195610302Y-72534762D01*
X195609992Y-72533966D01*
X195609260Y-72532716D01*
X195600190Y-72514916D01*
X195541383Y-72399500D01*
X195541383Y-72399499D01*
X195526761Y-72370803D01*
X195526759Y-72370800D01*
X195415690Y-72217927D01*
X195282073Y-72084310D01*
X195129199Y-71973240D01*
X195113443Y-71965212D01*
X194960836Y-71887454D01*
X194781118Y-71829059D01*
X194781112Y-71829058D01*
X194594491Y-71799500D01*
X194594486Y-71799500D01*
X194594481Y-71799500D01*
X194405519Y-71799500D01*
X194405514Y-71799500D01*
X194405509Y-71799500D01*
X194218886Y-71829058D01*
X194218884Y-71829058D01*
X194218881Y-71829059D01*
X194039163Y-71887454D01*
X193948178Y-71933813D01*
X193870807Y-71973236D01*
X193870794Y-71973244D01*
X193792031Y-72030468D01*
X193792032Y-72030469D01*
X193729798Y-72075685D01*
X193722417Y-72079818D01*
X193579819Y-72222416D01*
X193575688Y-72229793D01*
X193545092Y-72271906D01*
X193518032Y-72309150D01*
X193473240Y-72370799D01*
X193447302Y-72421706D01*
X193387454Y-72539163D01*
X193329059Y-72718881D01*
X193329059Y-72718883D01*
X193329058Y-72718886D01*
X193299500Y-72905507D01*
X184064940Y-72905507D01*
X184076614Y-72885288D01*
X184100500Y-72796144D01*
X184100500Y-72703856D01*
X184076614Y-72614712D01*
X184076609Y-72614704D01*
X184053974Y-72575499D01*
X184053973Y-72575498D01*
X184036744Y-72545657D01*
X184035565Y-72543033D01*
X184031449Y-72536374D01*
X184030550Y-72534870D01*
X184030469Y-72534789D01*
X184030469Y-72534788D01*
X183965212Y-72469531D01*
X183965209Y-72469529D01*
X183965205Y-72469526D01*
X183899190Y-72431411D01*
X183898835Y-72431204D01*
X183898460Y-72430806D01*
X183892895Y-72426536D01*
X183886999Y-72424094D01*
X183883596Y-72422624D01*
X183883126Y-72422412D01*
X183881234Y-72421706D01*
X183877684Y-72420235D01*
X183869520Y-72419161D01*
X183796144Y-72399500D01*
X183796143Y-72399500D01*
X183703856Y-72399500D01*
X183621466Y-72421575D01*
X183621451Y-72421580D01*
X183614712Y-72423386D01*
X183614711Y-72423386D01*
X183614709Y-72423387D01*
X183614706Y-72423388D01*
X183611906Y-72425004D01*
X183611902Y-72425006D01*
X183534804Y-72469519D01*
X183534786Y-72469531D01*
X183469531Y-72534786D01*
X183469519Y-72534804D01*
X183423389Y-72614704D01*
X183423388Y-72614705D01*
X183423384Y-72614716D01*
X183399500Y-72703856D01*
X183399500Y-72757670D01*
X183394475Y-72792614D01*
X183390070Y-72807612D01*
X183352327Y-72866355D01*
X183350958Y-72867542D01*
X183296097Y-72895018D01*
X183288539Y-72896663D01*
X183262168Y-72899500D01*
X183242330Y-72899500D01*
X183207389Y-72894475D01*
X183192390Y-72890070D01*
X183133644Y-72852327D01*
X183132457Y-72850958D01*
X183104977Y-72796083D01*
X183103332Y-72788521D01*
X183100500Y-72762168D01*
X183100500Y-72703858D01*
X183100500Y-72703856D01*
X183076614Y-72614712D01*
X183076609Y-72614704D01*
X183053974Y-72575499D01*
X183053973Y-72575498D01*
X183036744Y-72545657D01*
X183035565Y-72543033D01*
X183031449Y-72536374D01*
X183030550Y-72534870D01*
X183030469Y-72534789D01*
X183030469Y-72534788D01*
X182965212Y-72469531D01*
X182965209Y-72469529D01*
X182965205Y-72469526D01*
X182899190Y-72431411D01*
X182898835Y-72431204D01*
X182898460Y-72430806D01*
X182892895Y-72426536D01*
X182886999Y-72424094D01*
X182883596Y-72422624D01*
X182883126Y-72422412D01*
X182881234Y-72421706D01*
X182877684Y-72420235D01*
X182869520Y-72419161D01*
X182796144Y-72399500D01*
X182796143Y-72399500D01*
X182703856Y-72399500D01*
X182621466Y-72421575D01*
X182621451Y-72421580D01*
X182614712Y-72423386D01*
X182614711Y-72423386D01*
X182614709Y-72423387D01*
X182614706Y-72423388D01*
X182611906Y-72425004D01*
X182611902Y-72425006D01*
X182534804Y-72469519D01*
X182534786Y-72469531D01*
X182469531Y-72534786D01*
X182469519Y-72534804D01*
X182424549Y-72612694D01*
X182424548Y-72612695D01*
X182423388Y-72614706D01*
X182423387Y-72614709D01*
X182423386Y-72614711D01*
X182423386Y-72614712D01*
X182399500Y-72703856D01*
X181497241Y-72703856D01*
X181641105Y-72516370D01*
X181641945Y-72514916D01*
X181725147Y-72370803D01*
X181760754Y-72309130D01*
X181852330Y-72088047D01*
X181914265Y-71856902D01*
X181945500Y-71619650D01*
X181945500Y-71380350D01*
X181914265Y-71143098D01*
X181852330Y-70911953D01*
X181845090Y-70894475D01*
X181817146Y-70827011D01*
X181795810Y-70775500D01*
X181782423Y-70743181D01*
X181766134Y-70703856D01*
X182399500Y-70703856D01*
X182399500Y-70796145D01*
X182413337Y-70847789D01*
X182413338Y-70847789D01*
X182413339Y-70847793D01*
X182423387Y-70885290D01*
X182423388Y-70885293D01*
X182469526Y-70965205D01*
X182469529Y-70965209D01*
X182469531Y-70965212D01*
X182534788Y-71030469D01*
X182534791Y-71030470D01*
X182534794Y-71030473D01*
X182541020Y-71034067D01*
X182541684Y-71034730D01*
X182543036Y-71035566D01*
X182545651Y-71036741D01*
X182614706Y-71076611D01*
X182614707Y-71076611D01*
X182614712Y-71076614D01*
X182703856Y-71100500D01*
X182703858Y-71100500D01*
X182757670Y-71100500D01*
X182792606Y-71105523D01*
X182807604Y-71109927D01*
X182866355Y-71147672D01*
X182867542Y-71149041D01*
X182895018Y-71203902D01*
X182896663Y-71211460D01*
X182899500Y-71237831D01*
X182899500Y-71257670D01*
X182894475Y-71292612D01*
X182893438Y-71296144D01*
X182890070Y-71307612D01*
X182852327Y-71366355D01*
X182850958Y-71367542D01*
X182796097Y-71395018D01*
X182788539Y-71396663D01*
X182762168Y-71399500D01*
X182703856Y-71399500D01*
X182621466Y-71421575D01*
X182621451Y-71421580D01*
X182614712Y-71423386D01*
X182614711Y-71423386D01*
X182614709Y-71423387D01*
X182614706Y-71423388D01*
X182611906Y-71425004D01*
X182611902Y-71425006D01*
X182534804Y-71469519D01*
X182534786Y-71469531D01*
X182469531Y-71534786D01*
X182469519Y-71534804D01*
X182425006Y-71611902D01*
X182425004Y-71611906D01*
X182423388Y-71614706D01*
X182423387Y-71614709D01*
X182423386Y-71614711D01*
X182423386Y-71614712D01*
X182421580Y-71621451D01*
X182421575Y-71621466D01*
X182399500Y-71703856D01*
X182399500Y-71796145D01*
X182415779Y-71856900D01*
X182423380Y-71885267D01*
X182423385Y-71885284D01*
X182423387Y-71885290D01*
X182423388Y-71885293D01*
X182469526Y-71965205D01*
X182469529Y-71965209D01*
X182469531Y-71965212D01*
X182534788Y-72030469D01*
X182534791Y-72030470D01*
X182534794Y-72030473D01*
X182541020Y-72034067D01*
X182541684Y-72034730D01*
X182543036Y-72035566D01*
X182545651Y-72036741D01*
X182614706Y-72076611D01*
X182614707Y-72076611D01*
X182614712Y-72076614D01*
X182703856Y-72100500D01*
X182703858Y-72100500D01*
X182796142Y-72100500D01*
X182796144Y-72100500D01*
X182885288Y-72076614D01*
X182965212Y-72030469D01*
X183030469Y-71965212D01*
X183076614Y-71885288D01*
X183100500Y-71796144D01*
X183100500Y-71742329D01*
X183105523Y-71707393D01*
X183109927Y-71692395D01*
X183147672Y-71633644D01*
X183149041Y-71632457D01*
X183203920Y-71604977D01*
X183211479Y-71603333D01*
X183237832Y-71600500D01*
X183296142Y-71600500D01*
X183296144Y-71600500D01*
X183385288Y-71576614D01*
X183465212Y-71530469D01*
X183530469Y-71465212D01*
X183576614Y-71385288D01*
X183600500Y-71296144D01*
X183600500Y-71203856D01*
X183576614Y-71114712D01*
X183566558Y-71097294D01*
X183530473Y-71034794D01*
X183530470Y-71034791D01*
X183530469Y-71034788D01*
X183465212Y-70969531D01*
X183465209Y-70969529D01*
X183465205Y-70969526D01*
X183399190Y-70931411D01*
X183398835Y-70931204D01*
X183398460Y-70930806D01*
X183392895Y-70926536D01*
X183386999Y-70924094D01*
X183383596Y-70922624D01*
X183383126Y-70922412D01*
X183381234Y-70921706D01*
X183377684Y-70920235D01*
X183369520Y-70919161D01*
X183296144Y-70899500D01*
X183296143Y-70899500D01*
X183242330Y-70899500D01*
X183207389Y-70894475D01*
X183192390Y-70890070D01*
X183133644Y-70852327D01*
X183132457Y-70850958D01*
X183104977Y-70796083D01*
X183103332Y-70788521D01*
X183100500Y-70762168D01*
X183100500Y-70703858D01*
X183100500Y-70703856D01*
X183076614Y-70614712D01*
X183076612Y-70614709D01*
X183055891Y-70578819D01*
X183030473Y-70534794D01*
X183030472Y-70534793D01*
X183030470Y-70534789D01*
X182966378Y-70470697D01*
X182965212Y-70469531D01*
X182965209Y-70469529D01*
X182965205Y-70469526D01*
X182899190Y-70431411D01*
X182898835Y-70431204D01*
X182898460Y-70430806D01*
X182892895Y-70426536D01*
X182886999Y-70424094D01*
X182883596Y-70422624D01*
X182883126Y-70422412D01*
X182881234Y-70421706D01*
X182877684Y-70420235D01*
X182869520Y-70419161D01*
X182859813Y-70416560D01*
X182796144Y-70399500D01*
X182796143Y-70399500D01*
X182703856Y-70399500D01*
X182621466Y-70421575D01*
X182621451Y-70421580D01*
X182614712Y-70423386D01*
X182614711Y-70423386D01*
X182614709Y-70423387D01*
X182614706Y-70423388D01*
X182611906Y-70425004D01*
X182611902Y-70425006D01*
X182534804Y-70469519D01*
X182534786Y-70469531D01*
X182469531Y-70534786D01*
X182469519Y-70534804D01*
X182425006Y-70611902D01*
X182425004Y-70611906D01*
X182423388Y-70614706D01*
X182423387Y-70614709D01*
X182423386Y-70614711D01*
X182423386Y-70614712D01*
X182421580Y-70621451D01*
X182421575Y-70621466D01*
X182399500Y-70703856D01*
X181766134Y-70703856D01*
X181760757Y-70690876D01*
X181760748Y-70690859D01*
X181642963Y-70486847D01*
X181642013Y-70485081D01*
X181641116Y-70483649D01*
X181641108Y-70483634D01*
X181641107Y-70483632D01*
X181495430Y-70293783D01*
X181495424Y-70293776D01*
X181326223Y-70124575D01*
X181326216Y-70124569D01*
X181136367Y-69978892D01*
X181136365Y-69978891D01*
X181136357Y-69978886D01*
X181134947Y-69978004D01*
X181133237Y-69977085D01*
X181133138Y-69977028D01*
X180929140Y-69859251D01*
X180929132Y-69859247D01*
X180929130Y-69859246D01*
X180870714Y-69835049D01*
X180870713Y-69835048D01*
X180708043Y-69767668D01*
X180592472Y-69736701D01*
X180476900Y-69705734D01*
X180476894Y-69705733D01*
X180476889Y-69705732D01*
X180241528Y-69674747D01*
X180239847Y-69674500D01*
X180239656Y-69674500D01*
X180239650Y-69674500D01*
X180000350Y-69674500D01*
X180000344Y-69674500D01*
X180000342Y-69674500D01*
X179994222Y-69675253D01*
X179993316Y-69675425D01*
X179763109Y-69705732D01*
X179763102Y-69705733D01*
X179763099Y-69705734D01*
X179721673Y-69716834D01*
X179531955Y-69767668D01*
X179310892Y-69859236D01*
X179310883Y-69859239D01*
X179310876Y-69859243D01*
X179310859Y-69859251D01*
X179310842Y-69859259D01*
X179106859Y-69977028D01*
X179105090Y-69977980D01*
X179103632Y-69978892D01*
X178913782Y-70124570D01*
X178913775Y-70124576D01*
X178913767Y-70124583D01*
X178744583Y-70293767D01*
X178744576Y-70293775D01*
X178744575Y-70293776D01*
X178744569Y-70293783D01*
X178615534Y-70461944D01*
X178598892Y-70483632D01*
X178597980Y-70485090D01*
X178597028Y-70486859D01*
X178479259Y-70690842D01*
X178479237Y-70690889D01*
X178387668Y-70911955D01*
X178338823Y-71094249D01*
X178325735Y-71143098D01*
X178325732Y-71143109D01*
X178294503Y-71380324D01*
X178294500Y-71380348D01*
X177455500Y-71380348D01*
X177455500Y-69217323D01*
X177455000Y-69207147D01*
X186424500Y-69207147D01*
X186424500Y-69292853D01*
X186438007Y-69343260D01*
X186440604Y-69352953D01*
X186440605Y-69352961D01*
X186446679Y-69375629D01*
X186446681Y-69375634D01*
X186446682Y-69375637D01*
X186446685Y-69375644D01*
X186489530Y-69449855D01*
X186489534Y-69449860D01*
X186489535Y-69449862D01*
X186490103Y-69450430D01*
X186550141Y-69510468D01*
X186550823Y-69510960D01*
X186553329Y-69512308D01*
X186605141Y-69542221D01*
X186605143Y-69542222D01*
X186605142Y-69542222D01*
X186611063Y-69545640D01*
X186624362Y-69553318D01*
X186707147Y-69575500D01*
X186707149Y-69575500D01*
X186792851Y-69575500D01*
X186792853Y-69575500D01*
X186875638Y-69553318D01*
X186949862Y-69510465D01*
X187010465Y-69449862D01*
X187053318Y-69375638D01*
X187075500Y-69292853D01*
X187075500Y-69207147D01*
X187053318Y-69124362D01*
X187049422Y-69117614D01*
X187010469Y-69050144D01*
X187010463Y-69050136D01*
X187010458Y-69050130D01*
X186949868Y-68989540D01*
X186949866Y-68989539D01*
X186949863Y-68989536D01*
X186949855Y-68989530D01*
X186935457Y-68981217D01*
X186875661Y-68946694D01*
X186875637Y-68946681D01*
X186815034Y-68930443D01*
X186792853Y-68924500D01*
X186792852Y-68924500D01*
X186707147Y-68924500D01*
X186624364Y-68946681D01*
X186624357Y-68946683D01*
X186624356Y-68946684D01*
X186624346Y-68946689D01*
X186550152Y-68989525D01*
X186550148Y-68989527D01*
X186550144Y-68989530D01*
X186550136Y-68989536D01*
X186550132Y-68989539D01*
X186550130Y-68989540D01*
X186489540Y-69050130D01*
X186489539Y-69050132D01*
X186489536Y-69050135D01*
X186489536Y-69050136D01*
X186489530Y-69050144D01*
X186489527Y-69050148D01*
X186489525Y-69050152D01*
X186446689Y-69124346D01*
X186446684Y-69124356D01*
X186446683Y-69124357D01*
X186446681Y-69124364D01*
X186428422Y-69192510D01*
X186424500Y-69207147D01*
X177455000Y-69207147D01*
X177454899Y-69205100D01*
X177454900Y-69205097D01*
X177454899Y-69205090D01*
X177454752Y-69202096D01*
X177454751Y-69202075D01*
X177453809Y-69192515D01*
X177451570Y-69177425D01*
X177439189Y-69115185D01*
X177430341Y-69086017D01*
X177423025Y-69068354D01*
X177408654Y-69041469D01*
X177376127Y-68992789D01*
X177373457Y-68989536D01*
X177356789Y-68969225D01*
X177356412Y-68968848D01*
X177343274Y-68955710D01*
X177319712Y-68936372D01*
X177319491Y-68936224D01*
X177271045Y-68903852D01*
X177271026Y-68903841D01*
X177244145Y-68889474D01*
X177244141Y-68889472D01*
X177226476Y-68882156D01*
X177197312Y-68873310D01*
X177165756Y-68867033D01*
X177135072Y-68860930D01*
X177135068Y-68860929D01*
X177135066Y-68860929D01*
X177120006Y-68858694D01*
X177119997Y-68858693D01*
X177119058Y-68858600D01*
X177110427Y-68857750D01*
X177110411Y-68857749D01*
X177110413Y-68857749D01*
X177105145Y-68857490D01*
X177095177Y-68857000D01*
X177095165Y-68857000D01*
X176274651Y-68857000D01*
X176212916Y-68840540D01*
X176206638Y-68836936D01*
X176198231Y-68831651D01*
X176187321Y-68824167D01*
X176185315Y-68822790D01*
X176173950Y-68813983D01*
X176154333Y-68796868D01*
X176146033Y-68792104D01*
X176105537Y-68768861D01*
X176105529Y-68768857D01*
X176081066Y-68757513D01*
X176081048Y-68757506D01*
X176065153Y-68751751D01*
X176065140Y-68751747D01*
X176039071Y-68744798D01*
X175983667Y-68735077D01*
X175970283Y-68733324D01*
X175970275Y-68733323D01*
X175970273Y-68733323D01*
X175968472Y-68733166D01*
X175961799Y-68732585D01*
X175949738Y-68732061D01*
X175948322Y-68732000D01*
X175948320Y-68732000D01*
X175212654Y-68732000D01*
X175197451Y-68732745D01*
X175197447Y-68732745D01*
X175187913Y-68733683D01*
X175187881Y-68733687D01*
X175174330Y-68735696D01*
X175172779Y-68735927D01*
X175172768Y-68735929D01*
X175172763Y-68735930D01*
X175110525Y-68748310D01*
X175081352Y-68757159D01*
X175069690Y-68761990D01*
X175063695Y-68764474D01*
X175063690Y-68764476D01*
X175063689Y-68764477D01*
X175036815Y-68778842D01*
X175036809Y-68778845D01*
X174984047Y-68814099D01*
X174983995Y-68814136D01*
X174971778Y-68823197D01*
X174971767Y-68823206D01*
X174964358Y-68829287D01*
X174953085Y-68839505D01*
X174953041Y-68839547D01*
X174952049Y-68840540D01*
X174952005Y-68840585D01*
X174941787Y-68851858D01*
X174935725Y-68859243D01*
X174935713Y-68859258D01*
X174935709Y-68859264D01*
X174926607Y-68871536D01*
X174926601Y-68871544D01*
X174926598Y-68871549D01*
X174926589Y-68871560D01*
X174891345Y-68924308D01*
X174891343Y-68924313D01*
X174876985Y-68951173D01*
X174876979Y-68951185D01*
X174876977Y-68951190D01*
X174875105Y-68955710D01*
X174869660Y-68968853D01*
X174869656Y-68968862D01*
X174860816Y-68998002D01*
X174860810Y-68998024D01*
X174848430Y-69060263D01*
X174848425Y-69060293D01*
X174846187Y-69075381D01*
X174846183Y-69075413D01*
X174845245Y-69084947D01*
X174845245Y-69084951D01*
X174844500Y-69100154D01*
X174844500Y-69383186D01*
X174844805Y-69392930D01*
X174845190Y-69399056D01*
X174845191Y-69399065D01*
X174845980Y-69407429D01*
X174846108Y-69408779D01*
X174851205Y-69449219D01*
X174854845Y-69468340D01*
X174854853Y-69468376D01*
X174857886Y-69480216D01*
X174857889Y-69480229D01*
X174863901Y-69498771D01*
X174863908Y-69498789D01*
X174878880Y-69536691D01*
X174882747Y-69545650D01*
X174885342Y-69551177D01*
X174889772Y-69559891D01*
X174913878Y-69603850D01*
X174927329Y-69628377D01*
X174942304Y-69696623D01*
X174918005Y-69762131D01*
X174862147Y-69804103D01*
X174818604Y-69812000D01*
X172306163Y-69812000D01*
X172271227Y-69806977D01*
X172245985Y-69799565D01*
X172193240Y-69768269D01*
X171349426Y-68924455D01*
X171328274Y-68896199D01*
X171315667Y-68873110D01*
X171300500Y-68813685D01*
X171300500Y-67754811D01*
X187494500Y-67754811D01*
X187494500Y-67754823D01*
X187494500Y-68895176D01*
X187494911Y-68903553D01*
X187495248Y-68910417D01*
X187496186Y-68919946D01*
X187498425Y-68935053D01*
X187498426Y-68935056D01*
X187510807Y-68997304D01*
X187510807Y-68997307D01*
X187519662Y-69026494D01*
X187526979Y-69044155D01*
X187541340Y-69071022D01*
X187541343Y-69071027D01*
X187541345Y-69071030D01*
X187573872Y-69119710D01*
X187573875Y-69119714D01*
X187573876Y-69119715D01*
X187573879Y-69119719D01*
X187575195Y-69121323D01*
X187575365Y-69121723D01*
X187575691Y-69122163D01*
X187575585Y-69122241D01*
X187602507Y-69185633D01*
X187590713Y-69254501D01*
X187578941Y-69273847D01*
X187571208Y-69284274D01*
X187571192Y-69284296D01*
X187544023Y-69324959D01*
X187536178Y-69338047D01*
X187531672Y-69346475D01*
X187531649Y-69346520D01*
X187525145Y-69360270D01*
X187525130Y-69360303D01*
X187521502Y-69369064D01*
X187519147Y-69375647D01*
X187516364Y-69383423D01*
X187513579Y-69392603D01*
X187512342Y-69397538D01*
X187509874Y-69407391D01*
X187509866Y-69407429D01*
X187498898Y-69462565D01*
X187497585Y-69470130D01*
X187496879Y-69474898D01*
X187495953Y-69482428D01*
X187495480Y-69487237D01*
X187494922Y-69494806D01*
X187494687Y-69499601D01*
X187494500Y-69507248D01*
X187494500Y-70292768D01*
X187494685Y-70300350D01*
X187494922Y-70305185D01*
X187495480Y-70312771D01*
X187495950Y-70317548D01*
X187496888Y-70325163D01*
X187497580Y-70329836D01*
X187497599Y-70329943D01*
X187498894Y-70337412D01*
X187498897Y-70337426D01*
X187509861Y-70392557D01*
X187509865Y-70392573D01*
X187513451Y-70406886D01*
X187513576Y-70407385D01*
X187516364Y-70416575D01*
X187521456Y-70430806D01*
X187521505Y-70430941D01*
X187525123Y-70439677D01*
X187525138Y-70439710D01*
X187531663Y-70453506D01*
X187531663Y-70453507D01*
X187533880Y-70457653D01*
X187536185Y-70461964D01*
X187536196Y-70461982D01*
X187544032Y-70475054D01*
X187544035Y-70475059D01*
X187571193Y-70515703D01*
X187575844Y-70521973D01*
X187580285Y-70527960D01*
X187580295Y-70527973D01*
X187580301Y-70527980D01*
X187586373Y-70535378D01*
X187586394Y-70535402D01*
X187596623Y-70546688D01*
X187603309Y-70553374D01*
X187614595Y-70563603D01*
X187614613Y-70563619D01*
X187622038Y-70569713D01*
X187634300Y-70578808D01*
X187674957Y-70605974D01*
X187688050Y-70613821D01*
X187696520Y-70618348D01*
X187696538Y-70618356D01*
X187696545Y-70618360D01*
X187710285Y-70624859D01*
X187710298Y-70624864D01*
X187710312Y-70624871D01*
X187719059Y-70628494D01*
X187733422Y-70633633D01*
X187742612Y-70636421D01*
X187757419Y-70640130D01*
X187812575Y-70651101D01*
X187820089Y-70652405D01*
X187824827Y-70653108D01*
X187832388Y-70654041D01*
X187837164Y-70654512D01*
X187837178Y-70654513D01*
X187837198Y-70654515D01*
X187844209Y-70655033D01*
X187844771Y-70655075D01*
X187848257Y-70655246D01*
X187849557Y-70655311D01*
X187849562Y-70655311D01*
X187849580Y-70655312D01*
X187857234Y-70655500D01*
X190242747Y-70655500D01*
X190242765Y-70655500D01*
X190250413Y-70655312D01*
X190255226Y-70655075D01*
X190262852Y-70654511D01*
X190267624Y-70654040D01*
X190272655Y-70653418D01*
X190275172Y-70653108D01*
X190276752Y-70652873D01*
X190279916Y-70652404D01*
X190287466Y-70651093D01*
X190291172Y-70650355D01*
X190299601Y-70648679D01*
X190299616Y-70648676D01*
X190342588Y-70640127D01*
X190357384Y-70636421D01*
X190366572Y-70633634D01*
X190380933Y-70628496D01*
X190380953Y-70628487D01*
X190380958Y-70628486D01*
X190389640Y-70624890D01*
X190389674Y-70624876D01*
X190403479Y-70618347D01*
X190411952Y-70613818D01*
X190425038Y-70605975D01*
X190465693Y-70578811D01*
X190477949Y-70569722D01*
X190485375Y-70563628D01*
X190496685Y-70553377D01*
X190503377Y-70546685D01*
X190513628Y-70535375D01*
X190519722Y-70527949D01*
X190528811Y-70515693D01*
X190555975Y-70475038D01*
X190563815Y-70461959D01*
X190568344Y-70453487D01*
X190574874Y-70439680D01*
X190578496Y-70430935D01*
X190583639Y-70416560D01*
X190586426Y-70407370D01*
X190590130Y-70392581D01*
X190601099Y-70337440D01*
X190602402Y-70329930D01*
X190603107Y-70325180D01*
X190604041Y-70317615D01*
X190604512Y-70312840D01*
X190605075Y-70305229D01*
X190605312Y-70300419D01*
X190605500Y-70292766D01*
X190605500Y-68537736D01*
X190604236Y-68517948D01*
X190602649Y-68505578D01*
X190598877Y-68486111D01*
X190595806Y-68474340D01*
X190589587Y-68455513D01*
X190589586Y-68455512D01*
X190589582Y-68455498D01*
X190585130Y-68444445D01*
X190584929Y-68443945D01*
X190576364Y-68426059D01*
X190575434Y-68424398D01*
X190567520Y-68384611D01*
X190564666Y-68377720D01*
X190550292Y-68350828D01*
X190539669Y-68334930D01*
X190520332Y-68311368D01*
X190486300Y-68277336D01*
X190471007Y-68263924D01*
X190469640Y-68262875D01*
X190459901Y-68247563D01*
X190454936Y-68230359D01*
X190445346Y-68215239D01*
X190445451Y-68197488D01*
X190440530Y-68180432D01*
X190445655Y-68163274D01*
X190445762Y-68145371D01*
X190457144Y-68119010D01*
X190466300Y-68103152D01*
X190476614Y-68085288D01*
X190500500Y-67996144D01*
X190500500Y-67903856D01*
X190476614Y-67814712D01*
X190468198Y-67800136D01*
X190440657Y-67752433D01*
X190427544Y-67719679D01*
X190423107Y-67701390D01*
X190424635Y-67637218D01*
X190426100Y-67632231D01*
X190427571Y-67627218D01*
X190439157Y-67600163D01*
X190476611Y-67535293D01*
X190476610Y-67535293D01*
X190476614Y-67535288D01*
X190476614Y-67535284D01*
X190478333Y-67532309D01*
X190487095Y-67517131D01*
X190485820Y-67511875D01*
X190489903Y-67485692D01*
X190500500Y-67446144D01*
X190500500Y-67353856D01*
X190476614Y-67264712D01*
X190476612Y-67264709D01*
X190465893Y-67246142D01*
X190430473Y-67184794D01*
X190430472Y-67184793D01*
X190430470Y-67184789D01*
X190366378Y-67120697D01*
X190365212Y-67119531D01*
X190365209Y-67119529D01*
X190365205Y-67119526D01*
X190299190Y-67081411D01*
X190298835Y-67081204D01*
X190298460Y-67080806D01*
X190292895Y-67076536D01*
X190286999Y-67074094D01*
X190283596Y-67072624D01*
X190283126Y-67072412D01*
X190281234Y-67071706D01*
X190277684Y-67070235D01*
X190269520Y-67069161D01*
X190252912Y-67064711D01*
X190196144Y-67049500D01*
X190196143Y-67049500D01*
X190103856Y-67049500D01*
X190021466Y-67071575D01*
X190021451Y-67071580D01*
X190014712Y-67073386D01*
X190014711Y-67073386D01*
X190014709Y-67073387D01*
X190014706Y-67073388D01*
X190011906Y-67075004D01*
X190011902Y-67075006D01*
X189934804Y-67119519D01*
X189934786Y-67119531D01*
X189869531Y-67184786D01*
X189869519Y-67184804D01*
X189825006Y-67261902D01*
X189825004Y-67261906D01*
X189823388Y-67264706D01*
X189823387Y-67264709D01*
X189823386Y-67264711D01*
X189823386Y-67264712D01*
X189821580Y-67271451D01*
X189821575Y-67271466D01*
X189799500Y-67353856D01*
X189799500Y-67446146D01*
X189804596Y-67465166D01*
X189804599Y-67465173D01*
X189806800Y-67473387D01*
X189823386Y-67535289D01*
X189863212Y-67604269D01*
X189866221Y-67611408D01*
X189866751Y-67616075D01*
X189872456Y-67630324D01*
X189876892Y-67648608D01*
X189875364Y-67712781D01*
X189872429Y-67722776D01*
X189860840Y-67749840D01*
X189823385Y-67814711D01*
X189823383Y-67814715D01*
X189807405Y-67874353D01*
X189807405Y-67874354D01*
X189799500Y-67903855D01*
X189799500Y-67996145D01*
X189810824Y-68038408D01*
X189809161Y-68108258D01*
X189769997Y-68166120D01*
X189705768Y-68193623D01*
X189691049Y-68194500D01*
X189357228Y-68194500D01*
X189349608Y-68194687D01*
X189349605Y-68194687D01*
X189349570Y-68194688D01*
X189344828Y-68194921D01*
X189337248Y-68195478D01*
X189332479Y-68195946D01*
X189324874Y-68196883D01*
X189320102Y-68197590D01*
X189312583Y-68198894D01*
X189257441Y-68209863D01*
X189257422Y-68209867D01*
X189257414Y-68209869D01*
X189257399Y-68209872D01*
X189257385Y-68209876D01*
X189242624Y-68213573D01*
X189242570Y-68213588D01*
X189233403Y-68216370D01*
X189219074Y-68221497D01*
X189219047Y-68221507D01*
X189210321Y-68225122D01*
X189196533Y-68231643D01*
X189188063Y-68236169D01*
X189174952Y-68244027D01*
X189134280Y-68271203D01*
X189122037Y-68280285D01*
X189122008Y-68280307D01*
X189114621Y-68286370D01*
X189114597Y-68286391D01*
X189103311Y-68296620D01*
X189103304Y-68296628D01*
X189096637Y-68303294D01*
X189087821Y-68313020D01*
X189028211Y-68349467D01*
X188958359Y-68347901D01*
X188900442Y-68308819D01*
X188897768Y-68305474D01*
X188883794Y-68287359D01*
X188854452Y-68249321D01*
X188849885Y-68244027D01*
X188843347Y-68236447D01*
X188843334Y-68236432D01*
X188839286Y-68232229D01*
X188835911Y-68228724D01*
X188823448Y-68217125D01*
X188823444Y-68217122D01*
X188823438Y-68217116D01*
X188700117Y-68114348D01*
X188661218Y-68056308D01*
X188655500Y-68019089D01*
X188655500Y-67754832D01*
X188654752Y-67739608D01*
X188654751Y-67739575D01*
X188653809Y-67730015D01*
X188651570Y-67714925D01*
X188639738Y-67655446D01*
X188645964Y-67585859D01*
X188688826Y-67530680D01*
X188754715Y-67507434D01*
X188822712Y-67523500D01*
X188823158Y-67523756D01*
X188869479Y-67550499D01*
X188874362Y-67553318D01*
X188874364Y-67553318D01*
X188874367Y-67553320D01*
X188922976Y-67566344D01*
X188957147Y-67575500D01*
X188957149Y-67575500D01*
X189042851Y-67575500D01*
X189042853Y-67575500D01*
X189125638Y-67553318D01*
X189199862Y-67510465D01*
X189260465Y-67449862D01*
X189303318Y-67375638D01*
X189325500Y-67292853D01*
X189325500Y-67207147D01*
X189303318Y-67124362D01*
X189300526Y-67119526D01*
X189300525Y-67119524D01*
X189300525Y-67119523D01*
X189273888Y-67073387D01*
X189260469Y-67050144D01*
X189260463Y-67050136D01*
X189260459Y-67050132D01*
X189260458Y-67050130D01*
X189199868Y-66989540D01*
X189199866Y-66989539D01*
X189199863Y-66989536D01*
X189199855Y-66989530D01*
X189185457Y-66981217D01*
X189125661Y-66946694D01*
X189125637Y-66946681D01*
X189065034Y-66930443D01*
X189042853Y-66924500D01*
X189042852Y-66924500D01*
X188957147Y-66924500D01*
X188874364Y-66946681D01*
X188874357Y-66946683D01*
X188874356Y-66946684D01*
X188874346Y-66946689D01*
X188800152Y-66989525D01*
X188800148Y-66989527D01*
X188800144Y-66989530D01*
X188800136Y-66989536D01*
X188800132Y-66989539D01*
X188800130Y-66989540D01*
X188739540Y-67050130D01*
X188739539Y-67050132D01*
X188739538Y-67050134D01*
X188739536Y-67050136D01*
X188739530Y-67050144D01*
X188739527Y-67050148D01*
X188739525Y-67050152D01*
X188696689Y-67124346D01*
X188696684Y-67124356D01*
X188696683Y-67124357D01*
X188696681Y-67124364D01*
X188674500Y-67207147D01*
X188674500Y-67292853D01*
X188682068Y-67321097D01*
X188680405Y-67390947D01*
X188641242Y-67448809D01*
X188577014Y-67476313D01*
X188508112Y-67464726D01*
X188493405Y-67456294D01*
X188478209Y-67446140D01*
X188471035Y-67441346D01*
X188471026Y-67441341D01*
X188444145Y-67426974D01*
X188444141Y-67426972D01*
X188426476Y-67419656D01*
X188397312Y-67410810D01*
X188365756Y-67404533D01*
X188335072Y-67398430D01*
X188335068Y-67398429D01*
X188335066Y-67398429D01*
X188320006Y-67396194D01*
X188319997Y-67396193D01*
X188319058Y-67396100D01*
X188310427Y-67395250D01*
X188310411Y-67395249D01*
X188310413Y-67395249D01*
X188305145Y-67394990D01*
X188295177Y-67394500D01*
X188295165Y-67394500D01*
X187854811Y-67394500D01*
X187839608Y-67395245D01*
X187839604Y-67395245D01*
X187830070Y-67396183D01*
X187830038Y-67396187D01*
X187816487Y-67398196D01*
X187814936Y-67398427D01*
X187814925Y-67398429D01*
X187814920Y-67398430D01*
X187752682Y-67410810D01*
X187723509Y-67419659D01*
X187705849Y-67426975D01*
X187678968Y-67441344D01*
X187630284Y-67473874D01*
X187630280Y-67473878D01*
X187606716Y-67493216D01*
X187593216Y-67506716D01*
X187573874Y-67530285D01*
X187541353Y-67578954D01*
X187541345Y-67578968D01*
X187526980Y-67605840D01*
X187526977Y-67605846D01*
X187519659Y-67623512D01*
X187519656Y-67623519D01*
X187510816Y-67652659D01*
X187510810Y-67652681D01*
X187498431Y-67714917D01*
X187498429Y-67714929D01*
X187498425Y-67714950D01*
X187496187Y-67730038D01*
X187496183Y-67730070D01*
X187495245Y-67739604D01*
X187495245Y-67739608D01*
X187494500Y-67754811D01*
X171300500Y-67754811D01*
X171300500Y-67153856D01*
X185649500Y-67153856D01*
X185649500Y-67246144D01*
X185650858Y-67251213D01*
X185650858Y-67251215D01*
X185670760Y-67325492D01*
X185670761Y-67325492D01*
X185670763Y-67325500D01*
X185673387Y-67335290D01*
X185673388Y-67335293D01*
X185690794Y-67365441D01*
X185708548Y-67396192D01*
X185719526Y-67415205D01*
X185719529Y-67415209D01*
X185719531Y-67415212D01*
X185784788Y-67480469D01*
X185784791Y-67480470D01*
X185784794Y-67480473D01*
X185791020Y-67484067D01*
X185791684Y-67484730D01*
X185793036Y-67485566D01*
X185795651Y-67486741D01*
X185864706Y-67526611D01*
X185864707Y-67526611D01*
X185864712Y-67526614D01*
X185953856Y-67550500D01*
X185953858Y-67550500D01*
X186046142Y-67550500D01*
X186046144Y-67550500D01*
X186135288Y-67526614D01*
X186215212Y-67480469D01*
X186280469Y-67415212D01*
X186326614Y-67335288D01*
X186350500Y-67246144D01*
X186350500Y-67153856D01*
X186326614Y-67064712D01*
X186318200Y-67050138D01*
X186318195Y-67050130D01*
X186290350Y-67001902D01*
X186280473Y-66984794D01*
X186280470Y-66984791D01*
X186280469Y-66984788D01*
X186215212Y-66919531D01*
X186215209Y-66919529D01*
X186215205Y-66919526D01*
X186149190Y-66881411D01*
X186148835Y-66881204D01*
X186148460Y-66880806D01*
X186142895Y-66876536D01*
X186136999Y-66874094D01*
X186133596Y-66872624D01*
X186133126Y-66872412D01*
X186131234Y-66871706D01*
X186127684Y-66870235D01*
X186119520Y-66869161D01*
X186046144Y-66849500D01*
X186046143Y-66849500D01*
X185953856Y-66849500D01*
X185871466Y-66871575D01*
X185871451Y-66871580D01*
X185864712Y-66873386D01*
X185864711Y-66873386D01*
X185864709Y-66873387D01*
X185864706Y-66873388D01*
X185861906Y-66875004D01*
X185861902Y-66875006D01*
X185784804Y-66919519D01*
X185784786Y-66919531D01*
X185719531Y-66984786D01*
X185719519Y-66984804D01*
X185674549Y-67062694D01*
X185674548Y-67062695D01*
X185673388Y-67064706D01*
X185673387Y-67064709D01*
X185673386Y-67064711D01*
X185673386Y-67064712D01*
X185649500Y-67153856D01*
X171300500Y-67153856D01*
X171300500Y-63960441D01*
X171300499Y-63960437D01*
X171290572Y-63923387D01*
X171280021Y-63884011D01*
X171280017Y-63884004D01*
X171240464Y-63815495D01*
X171240458Y-63815487D01*
X171240454Y-63815483D01*
X171240453Y-63815481D01*
X170211672Y-62786701D01*
X170132118Y-62707147D01*
X179674500Y-62707147D01*
X179674500Y-62792853D01*
X179677146Y-62802726D01*
X179680547Y-62815422D01*
X179680548Y-62815425D01*
X179696681Y-62875634D01*
X179696683Y-62875641D01*
X179696684Y-62875642D01*
X179696685Y-62875644D01*
X179739530Y-62949855D01*
X179739534Y-62949860D01*
X179739535Y-62949862D01*
X179740103Y-62950430D01*
X179800137Y-63010464D01*
X179800830Y-63010964D01*
X179803341Y-63012315D01*
X179869481Y-63050500D01*
X179874362Y-63053318D01*
X179957147Y-63075500D01*
X179957149Y-63075500D01*
X180042851Y-63075500D01*
X180042853Y-63075500D01*
X180125638Y-63053318D01*
X180199862Y-63010465D01*
X180260465Y-62949862D01*
X180303318Y-62875638D01*
X180325500Y-62792853D01*
X180325500Y-62707147D01*
X180303318Y-62624362D01*
X180303314Y-62624355D01*
X180260469Y-62550144D01*
X180260463Y-62550136D01*
X180260459Y-62550132D01*
X180260458Y-62550130D01*
X180199868Y-62489540D01*
X180199866Y-62489539D01*
X180199863Y-62489536D01*
X180199855Y-62489530D01*
X180165993Y-62469980D01*
X180125661Y-62446694D01*
X180125637Y-62446681D01*
X180061588Y-62429520D01*
X180042853Y-62424500D01*
X180042852Y-62424500D01*
X179957147Y-62424500D01*
X179874364Y-62446681D01*
X179874357Y-62446683D01*
X179874356Y-62446684D01*
X179874346Y-62446689D01*
X179800152Y-62489525D01*
X179800148Y-62489527D01*
X179800144Y-62489530D01*
X179800136Y-62489536D01*
X179800132Y-62489539D01*
X179800130Y-62489540D01*
X179739540Y-62550130D01*
X179739539Y-62550132D01*
X179739536Y-62550135D01*
X179739536Y-62550136D01*
X179739530Y-62550144D01*
X179739527Y-62550148D01*
X179739525Y-62550152D01*
X179696689Y-62624346D01*
X179696684Y-62624356D01*
X179696683Y-62624357D01*
X179696681Y-62624364D01*
X179674979Y-62705358D01*
X179674500Y-62707147D01*
X170132118Y-62707147D01*
X169934510Y-62509539D01*
X169917188Y-62499537D01*
X169917188Y-62499538D01*
X169900128Y-62489689D01*
X169900123Y-62489686D01*
X169865994Y-62469980D01*
X169862010Y-62468912D01*
X169856960Y-62467559D01*
X169856955Y-62467557D01*
X169809015Y-62454712D01*
X169789562Y-62449500D01*
X169789561Y-62449500D01*
X166580070Y-62449500D01*
X166547974Y-62445274D01*
X166517508Y-62437110D01*
X166487604Y-62424723D01*
X166404589Y-62376794D01*
X166404588Y-62376793D01*
X166404587Y-62376793D01*
X166302727Y-62349500D01*
X166302726Y-62349500D01*
X166197273Y-62349500D01*
X166095413Y-62376792D01*
X166095408Y-62376795D01*
X166004088Y-62429518D01*
X166004082Y-62429523D01*
X165929523Y-62504082D01*
X165929518Y-62504088D01*
X165876795Y-62595408D01*
X165876792Y-62595413D01*
X165849500Y-62697273D01*
X165849500Y-62802727D01*
X165876793Y-62904587D01*
X165929520Y-62995913D01*
X166004087Y-63070480D01*
X166095413Y-63123207D01*
X166197273Y-63150500D01*
X166197275Y-63150500D01*
X166302725Y-63150500D01*
X166302727Y-63150500D01*
X166404587Y-63123207D01*
X166487613Y-63075271D01*
X166517512Y-63062888D01*
X166547978Y-63054725D01*
X166580070Y-63050500D01*
X169556337Y-63050500D01*
X169591269Y-63055521D01*
X169616513Y-63062934D01*
X169669259Y-63094230D01*
X170650573Y-64075544D01*
X170671723Y-64103796D01*
X170684331Y-64126885D01*
X170699500Y-64186314D01*
X170699500Y-69025947D01*
X170694476Y-69060885D01*
X170689174Y-69078940D01*
X170655771Y-69133742D01*
X170648233Y-69140930D01*
X170624662Y-69158576D01*
X170556235Y-69198084D01*
X170556231Y-69198086D01*
X170490975Y-69263343D01*
X170490965Y-69263358D01*
X170446452Y-69340456D01*
X170446450Y-69340460D01*
X170444834Y-69343260D01*
X170444833Y-69343263D01*
X170444832Y-69343265D01*
X170444832Y-69343266D01*
X170443026Y-69350005D01*
X170443021Y-69350020D01*
X170427282Y-69408762D01*
X170420946Y-69432410D01*
X170420946Y-69524698D01*
X170442156Y-69603856D01*
X170444833Y-69613844D01*
X170444834Y-69613847D01*
X170444835Y-69613848D01*
X170487252Y-69687317D01*
X170490972Y-69693759D01*
X170490975Y-69693763D01*
X170490977Y-69693766D01*
X170556234Y-69759023D01*
X170556237Y-69759024D01*
X170556240Y-69759027D01*
X170562466Y-69762621D01*
X170563130Y-69763284D01*
X170564482Y-69764120D01*
X170567097Y-69765295D01*
X170636152Y-69805165D01*
X170636153Y-69805165D01*
X170636158Y-69805168D01*
X170725302Y-69829054D01*
X170725304Y-69829054D01*
X170817588Y-69829054D01*
X170817590Y-69829054D01*
X170906734Y-69805168D01*
X170986658Y-69759023D01*
X171026844Y-69718836D01*
X171028894Y-69716834D01*
X171058511Y-69688582D01*
X171058512Y-69688583D01*
X171073429Y-69674353D01*
X171135522Y-69642326D01*
X171205070Y-69648950D01*
X171212958Y-69652106D01*
X171254583Y-69679554D01*
X171927989Y-70352960D01*
X171996512Y-70392522D01*
X172072938Y-70413000D01*
X172152062Y-70413000D01*
X175145500Y-70413000D01*
X175212539Y-70432685D01*
X175258294Y-70485489D01*
X175269500Y-70537000D01*
X175269500Y-71662499D01*
X175274870Y-71682542D01*
X175276224Y-71738454D01*
X175276480Y-71738491D01*
X175276261Y-71740014D01*
X175276283Y-71740885D01*
X175275853Y-71742865D01*
X175269583Y-71786681D01*
X175269582Y-71786686D01*
X175269848Y-72185322D01*
X175250208Y-72252374D01*
X175197434Y-72298164D01*
X175145931Y-72309404D01*
X170279583Y-72312648D01*
X170212530Y-72293008D01*
X170166740Y-72240235D01*
X170155500Y-72188648D01*
X170155500Y-65124008D01*
X170155499Y-65123991D01*
X170151946Y-65090945D01*
X170140740Y-65039434D01*
X170123545Y-65005084D01*
X170106313Y-64970657D01*
X170060563Y-64917860D01*
X170055577Y-64912376D01*
X169986854Y-64870486D01*
X169986848Y-64870483D01*
X169919812Y-64850799D01*
X169919802Y-64850797D01*
X169876003Y-64844500D01*
X169876000Y-64844500D01*
X165279500Y-64844500D01*
X165212461Y-64824815D01*
X165166706Y-64772011D01*
X165155500Y-64720500D01*
X165155500Y-60391732D01*
X165175185Y-60324693D01*
X165227989Y-60278938D01*
X165297147Y-60268994D01*
X165341582Y-60284393D01*
X165342277Y-60284794D01*
X165374362Y-60303318D01*
X165457147Y-60325500D01*
X165457149Y-60325500D01*
X165542851Y-60325500D01*
X165542853Y-60325500D01*
X165625638Y-60303318D01*
X165699862Y-60260465D01*
X165760465Y-60199862D01*
X165803318Y-60125638D01*
X165825500Y-60042853D01*
X165825500Y-59957147D01*
X165803318Y-59874362D01*
X165784422Y-59841633D01*
X165784395Y-59841586D01*
X165760473Y-59800150D01*
X165760465Y-59800138D01*
X165760458Y-59800130D01*
X165699868Y-59739540D01*
X165699866Y-59739539D01*
X165699863Y-59739536D01*
X165699855Y-59739530D01*
X165651920Y-59711855D01*
X165625661Y-59696694D01*
X165625637Y-59696681D01*
X165565034Y-59680443D01*
X165542853Y-59674500D01*
X165542852Y-59674500D01*
X165457147Y-59674500D01*
X165374364Y-59696681D01*
X165374357Y-59696683D01*
X165374356Y-59696684D01*
X165374346Y-59696689D01*
X165300152Y-59739525D01*
X165300148Y-59739527D01*
X165300144Y-59739530D01*
X165300136Y-59739536D01*
X165300132Y-59739539D01*
X165300130Y-59739540D01*
X165239540Y-59800130D01*
X165239539Y-59800132D01*
X165239536Y-59800135D01*
X165239536Y-59800136D01*
X165239530Y-59800144D01*
X165239527Y-59800148D01*
X165239525Y-59800152D01*
X165196689Y-59874346D01*
X165196684Y-59874356D01*
X165196683Y-59874357D01*
X165195231Y-59878554D01*
X165193312Y-59877889D01*
X165161147Y-59930442D01*
X165098244Y-59960855D01*
X165028884Y-59952432D01*
X165024485Y-59950436D01*
X165018773Y-59947709D01*
X164989020Y-59929575D01*
X164948339Y-59912155D01*
X164939127Y-59909686D01*
X164928823Y-59904767D01*
X164926832Y-59902982D01*
X164920248Y-59900254D01*
X164909758Y-59894198D01*
X164884074Y-59874490D01*
X164875507Y-59865923D01*
X164855804Y-59840246D01*
X164849743Y-59829750D01*
X164837358Y-59799845D01*
X164834224Y-59788147D01*
X164830000Y-59756058D01*
X164830000Y-59743943D01*
X164834224Y-59711855D01*
X164837360Y-59700149D01*
X164849743Y-59670249D01*
X164855806Y-59659747D01*
X164875503Y-59634077D01*
X164884076Y-59625504D01*
X164909751Y-59605803D01*
X164920240Y-59599747D01*
X164946018Y-59589085D01*
X164945872Y-59588618D01*
X164948334Y-59587846D01*
X164948344Y-59587844D01*
X164960704Y-59583973D01*
X164980117Y-59576994D01*
X165029342Y-59548182D01*
X165082146Y-59502427D01*
X165087621Y-59497449D01*
X165129516Y-59428719D01*
X165149201Y-59361680D01*
X165155500Y-59317869D01*
X165155500Y-57288982D01*
X174184500Y-57288982D01*
X174184500Y-57401018D01*
X174205026Y-57477620D01*
X174213497Y-57509236D01*
X174213498Y-57509239D01*
X174232169Y-57541579D01*
X174269515Y-57606263D01*
X174348737Y-57685485D01*
X174445763Y-57741503D01*
X174553982Y-57770500D01*
X174553984Y-57770500D01*
X174666016Y-57770500D01*
X174666018Y-57770500D01*
X174774237Y-57741503D01*
X174871263Y-57685485D01*
X174950485Y-57606263D01*
X175006503Y-57509237D01*
X175035500Y-57401018D01*
X175035500Y-57288982D01*
X179964500Y-57288982D01*
X179964500Y-57401018D01*
X179985026Y-57477620D01*
X179993497Y-57509236D01*
X179993498Y-57509239D01*
X180012169Y-57541579D01*
X180049515Y-57606263D01*
X180128737Y-57685485D01*
X180225763Y-57741503D01*
X180333982Y-57770500D01*
X180333984Y-57770500D01*
X180446016Y-57770500D01*
X180446018Y-57770500D01*
X180554237Y-57741503D01*
X180651263Y-57685485D01*
X180730485Y-57606263D01*
X180786503Y-57509237D01*
X180815500Y-57401018D01*
X180815500Y-57288982D01*
X180786503Y-57180763D01*
X180730485Y-57083737D01*
X180651263Y-57004515D01*
X180651260Y-57004513D01*
X180651256Y-57004510D01*
X180583189Y-56965212D01*
X180583185Y-56965210D01*
X180576209Y-56961183D01*
X180568368Y-56956655D01*
X180568363Y-56956650D01*
X180561844Y-56951648D01*
X180546631Y-56945346D01*
X180538469Y-56944272D01*
X180536659Y-56943787D01*
X180446018Y-56919500D01*
X180446017Y-56919500D01*
X180333982Y-56919500D01*
X180225770Y-56948494D01*
X180225759Y-56948498D01*
X180225758Y-56948499D01*
X180128737Y-57004514D01*
X180128728Y-57004521D01*
X180049521Y-57083728D01*
X180049514Y-57083737D01*
X179993499Y-57180758D01*
X179993498Y-57180759D01*
X179993494Y-57180770D01*
X179972140Y-57260469D01*
X179964500Y-57288982D01*
X175035500Y-57288982D01*
X175006503Y-57180763D01*
X174950485Y-57083737D01*
X174871263Y-57004515D01*
X174871260Y-57004513D01*
X174871256Y-57004510D01*
X174803189Y-56965212D01*
X174803185Y-56965210D01*
X174796209Y-56961183D01*
X174788368Y-56956655D01*
X174788363Y-56956650D01*
X174781844Y-56951648D01*
X174766631Y-56945346D01*
X174758469Y-56944272D01*
X174756659Y-56943787D01*
X174666018Y-56919500D01*
X174666017Y-56919500D01*
X174553982Y-56919500D01*
X174445770Y-56948494D01*
X174445759Y-56948498D01*
X174445758Y-56948499D01*
X174348737Y-57004514D01*
X174348728Y-57004521D01*
X174269521Y-57083728D01*
X174269514Y-57083737D01*
X174213499Y-57180758D01*
X174213498Y-57180759D01*
X174213494Y-57180770D01*
X174192140Y-57260469D01*
X174184500Y-57288982D01*
X165155500Y-57288982D01*
X165155500Y-55398030D01*
X187334500Y-55398030D01*
X187334500Y-55601968D01*
X187366395Y-55803347D01*
X187366398Y-55803363D01*
X187366400Y-55803368D01*
X187429414Y-55997303D01*
X187496712Y-56129381D01*
X187521989Y-56178990D01*
X187641848Y-56343962D01*
X187786038Y-56488152D01*
X187951010Y-56608011D01*
X188132701Y-56700587D01*
X188326636Y-56763601D01*
X188402163Y-56775563D01*
X188528037Y-56795500D01*
X188528042Y-56795500D01*
X188731962Y-56795500D01*
X188731963Y-56795500D01*
X188843850Y-56777778D01*
X188933364Y-56763601D01*
X189127299Y-56700587D01*
X189308990Y-56608011D01*
X189473962Y-56488152D01*
X189618152Y-56343962D01*
X189738011Y-56178990D01*
X189830587Y-55997299D01*
X189893601Y-55803364D01*
X189910833Y-55694566D01*
X189919023Y-55642855D01*
X189919023Y-55642854D01*
X189921182Y-55629223D01*
X189925500Y-55601963D01*
X189925500Y-55398036D01*
X189893601Y-55196639D01*
X189893601Y-55196636D01*
X189830587Y-55002701D01*
X189830585Y-55002698D01*
X189830585Y-55002696D01*
X189755326Y-54854993D01*
X189738011Y-54821010D01*
X189618152Y-54656038D01*
X189473962Y-54511848D01*
X189308990Y-54391989D01*
X189260757Y-54367413D01*
X189127303Y-54299414D01*
X188946890Y-54240793D01*
X188946879Y-54240790D01*
X188933364Y-54236399D01*
X188933362Y-54236398D01*
X188933360Y-54236398D01*
X188918963Y-54234117D01*
X188918956Y-54234116D01*
X188731968Y-54204500D01*
X188731963Y-54204500D01*
X188731958Y-54204500D01*
X188528042Y-54204500D01*
X188528037Y-54204500D01*
X188528032Y-54204500D01*
X188326642Y-54236397D01*
X188326639Y-54236398D01*
X188150078Y-54293767D01*
X188132695Y-54299415D01*
X187951008Y-54391989D01*
X187871765Y-54449563D01*
X187786035Y-54511850D01*
X187786033Y-54511852D01*
X187786032Y-54511852D01*
X187641852Y-54656032D01*
X187641852Y-54656033D01*
X187641850Y-54656035D01*
X187616527Y-54690889D01*
X187521989Y-54821008D01*
X187429415Y-55002695D01*
X187366397Y-55196642D01*
X187334500Y-55398030D01*
X165155500Y-55398030D01*
X165155500Y-54124000D01*
X165151946Y-54090945D01*
X165140740Y-54039434D01*
X165106313Y-53970658D01*
X165106312Y-53970657D01*
X165106311Y-53970655D01*
X165066851Y-53925117D01*
X165060558Y-53917854D01*
X165055580Y-53912379D01*
X165055579Y-53912378D01*
X165055577Y-53912376D01*
X165044308Y-53905507D01*
X193299500Y-53905507D01*
X193299500Y-54094491D01*
X193311460Y-54170000D01*
X193329059Y-54281118D01*
X193387454Y-54460836D01*
X193473240Y-54629199D01*
X193584310Y-54782073D01*
X193717927Y-54915690D01*
X193755219Y-54942784D01*
X193870796Y-55026757D01*
X193870797Y-55026757D01*
X193870801Y-55026760D01*
X193950347Y-55067290D01*
X194032722Y-55109263D01*
X194034320Y-55110199D01*
X194038037Y-55111999D01*
X194040021Y-55112985D01*
X194043781Y-55114045D01*
X194133194Y-55143098D01*
X194218881Y-55170940D01*
X194405514Y-55200500D01*
X194405519Y-55200500D01*
X194594485Y-55200500D01*
X194594486Y-55200500D01*
X194781118Y-55170940D01*
X194960832Y-55112547D01*
X195129199Y-55026760D01*
X195282073Y-54915690D01*
X195415690Y-54782073D01*
X195526760Y-54629199D01*
X195612547Y-54460832D01*
X195670940Y-54281118D01*
X195695734Y-54124575D01*
X195700500Y-54094486D01*
X195700500Y-53905513D01*
X195670940Y-53718881D01*
X195612545Y-53539163D01*
X195526759Y-53370800D01*
X195415690Y-53217927D01*
X195282073Y-53084310D01*
X195129199Y-52973240D01*
X194960836Y-52887454D01*
X194781118Y-52829059D01*
X194781112Y-52829058D01*
X194594491Y-52799500D01*
X194594486Y-52799500D01*
X194594481Y-52799500D01*
X194405519Y-52799500D01*
X194405514Y-52799500D01*
X194405509Y-52799500D01*
X194218886Y-52829058D01*
X194218884Y-52829058D01*
X194218881Y-52829059D01*
X194039163Y-52887454D01*
X193954981Y-52930347D01*
X193870799Y-52973240D01*
X193783579Y-53036610D01*
X193783578Y-53036610D01*
X193729794Y-53075686D01*
X193722419Y-53079816D01*
X193579816Y-53222419D01*
X193575686Y-53229794D01*
X193536610Y-53283578D01*
X193536610Y-53283579D01*
X193473240Y-53370799D01*
X193430347Y-53454981D01*
X193387454Y-53539163D01*
X193329059Y-53718881D01*
X193329058Y-53718884D01*
X193329058Y-53718886D01*
X193299500Y-53905507D01*
X165044308Y-53905507D01*
X164986854Y-53870486D01*
X164986848Y-53870483D01*
X164919812Y-53850799D01*
X164919802Y-53850797D01*
X164876003Y-53844500D01*
X164876000Y-53844500D01*
X153432131Y-53844500D01*
X153426505Y-53844734D01*
X153419179Y-53845039D01*
X153398630Y-53846755D01*
X153343623Y-53861846D01*
X153343620Y-53861847D01*
X153280764Y-53892381D01*
X153274198Y-53895766D01*
X153215944Y-53951309D01*
X153179580Y-54010968D01*
X153179576Y-54010974D01*
X153162153Y-54051662D01*
X153160701Y-54055857D01*
X153160221Y-54055691D01*
X153150250Y-54079758D01*
X153144196Y-54090244D01*
X153124489Y-54115926D01*
X153115926Y-54124489D01*
X153090243Y-54144196D01*
X153079755Y-54150251D01*
X153049857Y-54162636D01*
X153038152Y-54165773D01*
X153006052Y-54170000D01*
X152993946Y-54170000D01*
X152961853Y-54165775D01*
X152950149Y-54162639D01*
X152920246Y-54150253D01*
X152909752Y-54144194D01*
X152884075Y-54124491D01*
X152875505Y-54115921D01*
X152855799Y-54090240D01*
X152849749Y-54079761D01*
X152839087Y-54053983D01*
X152838619Y-54054130D01*
X152833977Y-54039306D01*
X152833974Y-54039296D01*
X152826993Y-54019879D01*
X152798182Y-53970658D01*
X152798181Y-53970657D01*
X152798179Y-53970653D01*
X152752450Y-53917880D01*
X152752432Y-53917860D01*
X152752427Y-53917854D01*
X152747449Y-53912379D01*
X152747448Y-53912378D01*
X152747446Y-53912376D01*
X152678723Y-53870486D01*
X152678717Y-53870483D01*
X152611681Y-53850799D01*
X152611671Y-53850797D01*
X152567872Y-53844500D01*
X152567869Y-53844500D01*
X151432131Y-53844500D01*
X151426505Y-53844734D01*
X151419179Y-53845039D01*
X151398630Y-53846755D01*
X151343623Y-53861846D01*
X151343620Y-53861847D01*
X151280764Y-53892381D01*
X151274198Y-53895766D01*
X151215944Y-53951309D01*
X151179580Y-54010968D01*
X151179576Y-54010974D01*
X151162153Y-54051662D01*
X151160701Y-54055857D01*
X151160221Y-54055691D01*
X151150250Y-54079758D01*
X151144196Y-54090244D01*
X151124489Y-54115926D01*
X151115926Y-54124489D01*
X151090243Y-54144196D01*
X151079755Y-54150251D01*
X151049857Y-54162636D01*
X151038152Y-54165773D01*
X151006052Y-54170000D01*
X150993946Y-54170000D01*
X150961853Y-54165775D01*
X150950149Y-54162639D01*
X150920246Y-54150253D01*
X150909752Y-54144194D01*
X150884075Y-54124491D01*
X150875505Y-54115921D01*
X150855799Y-54090240D01*
X150849749Y-54079761D01*
X150839087Y-54053983D01*
X150838619Y-54054130D01*
X150833977Y-54039306D01*
X150833974Y-54039296D01*
X150826993Y-54019879D01*
X150798182Y-53970658D01*
X150798181Y-53970657D01*
X150798179Y-53970653D01*
X150752450Y-53917880D01*
X150752432Y-53917860D01*
X150752427Y-53917854D01*
X150747449Y-53912379D01*
X150747448Y-53912378D01*
X150747446Y-53912376D01*
X150678723Y-53870486D01*
X150678717Y-53870483D01*
X150611681Y-53850799D01*
X150611671Y-53850797D01*
X150567872Y-53844500D01*
X150567869Y-53844500D01*
X148932131Y-53844500D01*
X148926505Y-53844734D01*
X148919179Y-53845039D01*
X148898630Y-53846755D01*
X148843623Y-53861846D01*
X148843620Y-53861847D01*
X148780764Y-53892381D01*
X148774198Y-53895766D01*
X148715944Y-53951309D01*
X148679580Y-54010968D01*
X148679576Y-54010974D01*
X148662153Y-54051662D01*
X148660701Y-54055857D01*
X148660221Y-54055691D01*
X148650250Y-54079758D01*
X148644196Y-54090244D01*
X148624489Y-54115926D01*
X148615926Y-54124489D01*
X148590243Y-54144196D01*
X148579755Y-54150251D01*
X148549857Y-54162636D01*
X148538152Y-54165773D01*
X148506052Y-54170000D01*
X148493946Y-54170000D01*
X148461853Y-54165775D01*
X148450149Y-54162639D01*
X148420246Y-54150253D01*
X148409752Y-54144194D01*
X148384075Y-54124491D01*
X148375505Y-54115921D01*
X148355799Y-54090240D01*
X148349749Y-54079761D01*
X148339087Y-54053983D01*
X148338619Y-54054130D01*
X148333977Y-54039306D01*
X148333974Y-54039296D01*
X148326993Y-54019879D01*
X148298182Y-53970658D01*
X148298181Y-53970657D01*
X148298179Y-53970653D01*
X148252450Y-53917880D01*
X148252432Y-53917860D01*
X148252427Y-53917854D01*
X148247449Y-53912379D01*
X148247448Y-53912378D01*
X148247446Y-53912376D01*
X148178723Y-53870486D01*
X148178717Y-53870483D01*
X148111681Y-53850799D01*
X148111671Y-53850797D01*
X148067872Y-53844500D01*
X148067869Y-53844500D01*
X146432131Y-53844500D01*
X146426505Y-53844734D01*
X146419179Y-53845039D01*
X146398630Y-53846755D01*
X146343623Y-53861846D01*
X146343620Y-53861847D01*
X146280764Y-53892381D01*
X146274198Y-53895766D01*
X146215944Y-53951309D01*
X146179580Y-54010968D01*
X146179576Y-54010974D01*
X146162153Y-54051662D01*
X146160701Y-54055857D01*
X146160221Y-54055691D01*
X146150250Y-54079758D01*
X146144196Y-54090244D01*
X146124489Y-54115926D01*
X146115926Y-54124489D01*
X146090243Y-54144196D01*
X146079755Y-54150251D01*
X146049857Y-54162636D01*
X146038152Y-54165773D01*
X146006052Y-54170000D01*
X145993946Y-54170000D01*
X145961853Y-54165775D01*
X145950149Y-54162639D01*
X145920246Y-54150253D01*
X145909752Y-54144194D01*
X145884075Y-54124491D01*
X145875505Y-54115921D01*
X145855799Y-54090240D01*
X145849749Y-54079761D01*
X145839087Y-54053983D01*
X145838619Y-54054130D01*
X145833977Y-54039306D01*
X145833974Y-54039296D01*
X145826993Y-54019879D01*
X145798182Y-53970658D01*
X145798181Y-53970657D01*
X145798179Y-53970653D01*
X145752450Y-53917880D01*
X145752432Y-53917860D01*
X145752427Y-53917854D01*
X145747449Y-53912379D01*
X145747448Y-53912378D01*
X145747446Y-53912376D01*
X145678723Y-53870486D01*
X145678717Y-53870483D01*
X145611681Y-53850799D01*
X145611671Y-53850797D01*
X145567872Y-53844500D01*
X145567869Y-53844500D01*
X144432131Y-53844500D01*
X144426505Y-53844734D01*
X144419179Y-53845039D01*
X144398630Y-53846755D01*
X144343623Y-53861846D01*
X144343620Y-53861847D01*
X144280764Y-53892381D01*
X144274198Y-53895766D01*
X144215944Y-53951309D01*
X144179580Y-54010968D01*
X144179576Y-54010974D01*
X144162153Y-54051662D01*
X144160701Y-54055857D01*
X144160221Y-54055691D01*
X144150250Y-54079758D01*
X144144196Y-54090244D01*
X144124489Y-54115926D01*
X144115926Y-54124489D01*
X144090243Y-54144196D01*
X144079755Y-54150251D01*
X144049857Y-54162636D01*
X144038152Y-54165773D01*
X144006052Y-54170000D01*
X143993946Y-54170000D01*
X143961853Y-54165775D01*
X143950149Y-54162639D01*
X143920246Y-54150253D01*
X143909752Y-54144194D01*
X143884075Y-54124491D01*
X143875505Y-54115921D01*
X143855799Y-54090240D01*
X143849749Y-54079761D01*
X143839087Y-54053983D01*
X143838619Y-54054130D01*
X143833977Y-54039306D01*
X143833974Y-54039296D01*
X143826993Y-54019879D01*
X143798182Y-53970658D01*
X143798181Y-53970657D01*
X143798179Y-53970653D01*
X143752450Y-53917880D01*
X143752432Y-53917860D01*
X143752427Y-53917854D01*
X143747449Y-53912379D01*
X143747448Y-53912378D01*
X143747446Y-53912376D01*
X143678723Y-53870486D01*
X143678717Y-53870483D01*
X143611681Y-53850799D01*
X143611671Y-53850797D01*
X143567872Y-53844500D01*
X143567869Y-53844500D01*
X139424544Y-53844500D01*
X139424533Y-53844500D01*
X139400905Y-53846473D01*
X139398757Y-53846653D01*
X139358201Y-53853473D01*
X139358197Y-53853474D01*
X139293788Y-53880153D01*
X139272036Y-53895643D01*
X139206009Y-53918494D01*
X139138109Y-53902020D01*
X139135571Y-53900514D01*
X139124369Y-53893686D01*
X139086306Y-53870484D01*
X139086304Y-53870483D01*
X139019268Y-53850799D01*
X139019258Y-53850797D01*
X138975459Y-53844500D01*
X138975456Y-53844500D01*
X127124000Y-53844500D01*
X127123991Y-53844500D01*
X127090944Y-53848054D01*
X127039433Y-53859260D01*
X126970657Y-53893686D01*
X126917860Y-53939436D01*
X126912376Y-53944422D01*
X126870486Y-54013145D01*
X126870483Y-54013151D01*
X126850799Y-54080187D01*
X126850797Y-54080197D01*
X126844500Y-54123996D01*
X126844500Y-54849071D01*
X126824815Y-54916110D01*
X126772011Y-54961865D01*
X126702853Y-54971809D01*
X126639297Y-54942784D01*
X126605939Y-54896524D01*
X126585164Y-54846369D01*
X126520754Y-54690870D01*
X126500644Y-54656038D01*
X126402963Y-54486847D01*
X126402014Y-54485083D01*
X126401116Y-54483649D01*
X126401108Y-54483634D01*
X126401107Y-54483632D01*
X126255430Y-54293783D01*
X126255424Y-54293776D01*
X126195764Y-54234116D01*
X126086225Y-54124576D01*
X126086180Y-54124537D01*
X126085703Y-54124176D01*
X125922599Y-53999021D01*
X125922599Y-53999020D01*
X125896374Y-53978896D01*
X125894920Y-53977987D01*
X125893138Y-53977028D01*
X125803225Y-53925117D01*
X125691123Y-53860395D01*
X125691117Y-53860392D01*
X125689140Y-53859251D01*
X125689132Y-53859247D01*
X125689130Y-53859246D01*
X125558581Y-53805170D01*
X125558474Y-53805126D01*
X125543108Y-53792690D01*
X125468051Y-53767671D01*
X125468047Y-53767670D01*
X125468048Y-53767670D01*
X125468045Y-53767669D01*
X125468034Y-53767666D01*
X125468031Y-53767665D01*
X125387385Y-53746056D01*
X125236900Y-53705734D01*
X125236894Y-53705733D01*
X125236889Y-53705732D01*
X125001528Y-53674747D01*
X124999847Y-53674500D01*
X124999656Y-53674500D01*
X124999650Y-53674500D01*
X124760350Y-53674500D01*
X124760344Y-53674500D01*
X124760342Y-53674500D01*
X124754222Y-53675253D01*
X124753316Y-53675425D01*
X124523109Y-53705732D01*
X124523102Y-53705733D01*
X124523099Y-53705734D01*
X124474249Y-53718823D01*
X124291955Y-53767668D01*
X124070889Y-53859237D01*
X124070877Y-53859242D01*
X124070876Y-53859243D01*
X124070859Y-53859251D01*
X124070842Y-53859259D01*
X123866859Y-53977028D01*
X123865090Y-53977980D01*
X123863634Y-53978891D01*
X123863632Y-53978892D01*
X123673783Y-54124569D01*
X123673776Y-54124575D01*
X123673772Y-54124579D01*
X123673767Y-54124583D01*
X123504583Y-54293767D01*
X123504576Y-54293775D01*
X123504575Y-54293776D01*
X123504569Y-54293783D01*
X123426296Y-54395790D01*
X123358892Y-54483632D01*
X123357980Y-54485090D01*
X123357028Y-54486859D01*
X123239259Y-54690842D01*
X123239237Y-54690889D01*
X123147668Y-54911955D01*
X123116907Y-55026758D01*
X123085735Y-55143098D01*
X123085732Y-55143109D01*
X123054503Y-55380324D01*
X123054500Y-55380348D01*
X123054500Y-55619650D01*
X123054503Y-55619674D01*
X123085732Y-55856889D01*
X123085733Y-55856894D01*
X123085734Y-55856900D01*
X123094326Y-55888964D01*
X123147668Y-56088043D01*
X123154435Y-56104381D01*
X123239243Y-56309123D01*
X123239251Y-56309140D01*
X123239256Y-56309150D01*
X123357028Y-56513138D01*
X123357985Y-56514916D01*
X123358886Y-56516357D01*
X123358891Y-56516365D01*
X123358892Y-56516367D01*
X123504569Y-56706216D01*
X123504575Y-56706223D01*
X123673776Y-56875424D01*
X123673783Y-56875430D01*
X123863632Y-57021107D01*
X123863634Y-57021108D01*
X123863649Y-57021116D01*
X123865081Y-57022013D01*
X123866847Y-57022963D01*
X123972107Y-57083734D01*
X124069002Y-57139676D01*
X124070563Y-57140613D01*
X124070845Y-57140739D01*
X124070859Y-57140748D01*
X124070862Y-57140749D01*
X124070870Y-57140754D01*
X124070948Y-57140786D01*
X124072598Y-57141529D01*
X124072599Y-57141530D01*
X124072608Y-57141534D01*
X124073049Y-57141732D01*
X124074892Y-57142420D01*
X124291953Y-57232330D01*
X124523098Y-57294265D01*
X124760350Y-57325500D01*
X124760357Y-57325500D01*
X124999643Y-57325500D01*
X124999650Y-57325500D01*
X125020234Y-57322790D01*
X125020235Y-57322790D01*
X125034944Y-57320853D01*
X125236902Y-57294265D01*
X125468047Y-57232330D01*
X125689130Y-57140754D01*
X125858703Y-57042852D01*
X125893172Y-57022951D01*
X125893376Y-57022842D01*
X125896090Y-57021266D01*
X125896365Y-57021108D01*
X125896367Y-57021107D01*
X125896370Y-57021105D01*
X126086218Y-56875429D01*
X126255429Y-56706218D01*
X126401105Y-56516370D01*
X126401945Y-56514916D01*
X126520748Y-56309140D01*
X126520754Y-56309130D01*
X126605939Y-56103473D01*
X126649780Y-56049072D01*
X126716074Y-56027007D01*
X126783773Y-56044286D01*
X126831384Y-56095423D01*
X126844500Y-56150928D01*
X126844500Y-57720500D01*
X126824815Y-57787539D01*
X126772011Y-57833294D01*
X126720500Y-57844500D01*
X120123991Y-57844500D01*
X120090944Y-57848054D01*
X120039433Y-57859260D01*
X119970663Y-57893683D01*
X119970658Y-57893686D01*
X119970658Y-57893687D01*
X119957886Y-57904754D01*
X119957885Y-57904755D01*
X119957884Y-57904754D01*
X119917880Y-57939418D01*
X119912377Y-57944421D01*
X119870486Y-58013145D01*
X119870483Y-58013150D01*
X119861795Y-58042743D01*
X119861794Y-58042746D01*
X119850797Y-58080192D01*
X119844500Y-58123996D01*
X119844500Y-59720500D01*
X119824815Y-59787539D01*
X119772011Y-59833294D01*
X119720500Y-59844500D01*
X117637332Y-59844500D01*
X117620698Y-59845391D01*
X117620695Y-59845392D01*
X117594356Y-59848224D01*
X117594349Y-59848224D01*
X117577949Y-59850881D01*
X117575007Y-59851521D01*
X117570373Y-59852529D01*
X117570369Y-59852530D01*
X117570366Y-59852531D01*
X117570365Y-59852531D01*
X117533794Y-59865435D01*
X117533793Y-59865436D01*
X117478924Y-59892911D01*
X117478913Y-59892917D01*
X117457421Y-59907285D01*
X117446673Y-59914470D01*
X117446670Y-59914472D01*
X117445302Y-59915658D01*
X117416345Y-59949093D01*
X117378601Y-60007840D01*
X117360225Y-60048086D01*
X117355822Y-60063078D01*
X117355822Y-60063082D01*
X117351105Y-60084764D01*
X117346083Y-60119697D01*
X117344500Y-60141829D01*
X108000500Y-60141829D01*
X108000500Y-53905507D01*
X109299500Y-53905507D01*
X109299500Y-54094491D01*
X109311460Y-54170000D01*
X109329059Y-54281118D01*
X109387454Y-54460836D01*
X109473240Y-54629199D01*
X109584310Y-54782073D01*
X109717927Y-54915690D01*
X109755219Y-54942784D01*
X109870796Y-55026757D01*
X109870797Y-55026757D01*
X109870801Y-55026760D01*
X109950347Y-55067290D01*
X110032722Y-55109263D01*
X110034320Y-55110199D01*
X110038037Y-55111999D01*
X110040021Y-55112985D01*
X110043781Y-55114045D01*
X110133194Y-55143098D01*
X110218881Y-55170940D01*
X110405514Y-55200500D01*
X110405519Y-55200500D01*
X110594485Y-55200500D01*
X110594486Y-55200500D01*
X110781118Y-55170940D01*
X110960832Y-55112547D01*
X111129199Y-55026760D01*
X111282073Y-54915690D01*
X111415690Y-54782073D01*
X111526760Y-54629199D01*
X111612547Y-54460832D01*
X111670940Y-54281118D01*
X111695734Y-54124575D01*
X111700500Y-54094486D01*
X111700500Y-53905513D01*
X111670940Y-53718881D01*
X111612545Y-53539163D01*
X111526759Y-53370800D01*
X111415690Y-53217927D01*
X111282073Y-53084310D01*
X111129199Y-52973240D01*
X110960836Y-52887454D01*
X110781118Y-52829059D01*
X110781112Y-52829058D01*
X110594491Y-52799500D01*
X110594486Y-52799500D01*
X110594481Y-52799500D01*
X110405519Y-52799500D01*
X110405514Y-52799500D01*
X110405509Y-52799500D01*
X110218886Y-52829058D01*
X110218884Y-52829058D01*
X110218881Y-52829059D01*
X110039163Y-52887454D01*
X109954981Y-52930347D01*
X109870799Y-52973240D01*
X109783579Y-53036610D01*
X109783578Y-53036610D01*
X109729794Y-53075686D01*
X109722419Y-53079816D01*
X109579816Y-53222419D01*
X109575686Y-53229794D01*
X109536610Y-53283578D01*
X109536610Y-53283579D01*
X109473240Y-53370799D01*
X109430347Y-53454981D01*
X109387454Y-53539163D01*
X109329059Y-53718881D01*
X109329058Y-53718884D01*
X109329058Y-53718886D01*
X109299500Y-53905507D01*
X108000500Y-53905507D01*
X108000500Y-51642329D01*
X108005523Y-51607393D01*
X108009927Y-51592395D01*
X108047672Y-51533644D01*
X108049041Y-51532457D01*
X108103920Y-51504977D01*
X108111479Y-51503333D01*
X108137832Y-51500500D01*
X126827977Y-51500500D01*
X126895016Y-51520185D01*
G37*
%TD.AperFunction*%
%TD*%
%TA.AperFunction,Conductor*%
%TO.N,3V3_AUX*%
G36*
X119878672Y-60019685D02*
G01*
X119905346Y-60042797D01*
X119939458Y-60082165D01*
X119944418Y-60087619D01*
X119944420Y-60087621D01*
X119944422Y-60087622D01*
X119944423Y-60087623D01*
X119976036Y-60106893D01*
X120013150Y-60129516D01*
X120080189Y-60149201D01*
X120124000Y-60155500D01*
X124720500Y-60155500D01*
X124787539Y-60175185D01*
X124833294Y-60227989D01*
X124844500Y-60279500D01*
X124844500Y-69876008D01*
X124848054Y-69909055D01*
X124859260Y-69960566D01*
X124893686Y-70029342D01*
X124939436Y-70082139D01*
X124944422Y-70087623D01*
X124989057Y-70114830D01*
X125013150Y-70129516D01*
X125080189Y-70149201D01*
X125124000Y-70155500D01*
X130382245Y-70155500D01*
X130398868Y-70154609D01*
X130425226Y-70151775D01*
X130483130Y-70133643D01*
X130484837Y-70132710D01*
X130486722Y-70132208D01*
X130527441Y-70114828D01*
X130540170Y-70107089D01*
X130569341Y-70084175D01*
X130597093Y-70056421D01*
X130607829Y-70049400D01*
X130609753Y-70048818D01*
X130613701Y-70045789D01*
X130613839Y-70045709D01*
X130641295Y-70029857D01*
X130671204Y-70017469D01*
X130679007Y-70015379D01*
X130687314Y-70011827D01*
X130691630Y-70009983D01*
X130740375Y-70000000D01*
X130759626Y-70000000D01*
X130808367Y-70009981D01*
X130820993Y-70015379D01*
X130828182Y-70017305D01*
X130828793Y-70017469D01*
X130858699Y-70029855D01*
X130886299Y-70045790D01*
X130911977Y-70065494D01*
X130930656Y-70084173D01*
X130959835Y-70107092D01*
X130959840Y-70107095D01*
X130972563Y-70114830D01*
X130972568Y-70114833D01*
X130987887Y-70121484D01*
X131011401Y-70131695D01*
X131037906Y-70139119D01*
X131075803Y-70149735D01*
X131075808Y-70149735D01*
X131075813Y-70149737D01*
X131117755Y-70155500D01*
X132220498Y-70155500D01*
X132287537Y-70175185D01*
X132333292Y-70227989D01*
X132344498Y-70279500D01*
X132344496Y-72369325D01*
X132344496Y-72369342D01*
X132348050Y-72402389D01*
X132359256Y-72453900D01*
X132393682Y-72522676D01*
X132420736Y-72553897D01*
X132439438Y-72575480D01*
X132444416Y-72580955D01*
X132444418Y-72580957D01*
X132513141Y-72622847D01*
X132513146Y-72622850D01*
X132580185Y-72642535D01*
X132623996Y-72648834D01*
X139525500Y-72648834D01*
X139592539Y-72668519D01*
X139638294Y-72721323D01*
X139649500Y-72772834D01*
X139649500Y-72846143D01*
X139655191Y-72867385D01*
X139673384Y-72935282D01*
X139673386Y-72935288D01*
X139673387Y-72935290D01*
X139673388Y-72935293D01*
X139719526Y-73015205D01*
X139719529Y-73015209D01*
X139719531Y-73015212D01*
X139784788Y-73080469D01*
X139784791Y-73080470D01*
X139784794Y-73080473D01*
X139791020Y-73084067D01*
X139791684Y-73084730D01*
X139793036Y-73085566D01*
X139795651Y-73086741D01*
X139864706Y-73126611D01*
X139864707Y-73126611D01*
X139864712Y-73126614D01*
X139953856Y-73150500D01*
X139953858Y-73150500D01*
X140046142Y-73150500D01*
X140046144Y-73150500D01*
X140135288Y-73126614D01*
X140215212Y-73080469D01*
X140280469Y-73015212D01*
X140326614Y-72935288D01*
X140350500Y-72846144D01*
X140350500Y-72772834D01*
X140370185Y-72705795D01*
X140422989Y-72660040D01*
X140474500Y-72648834D01*
X146525500Y-72648834D01*
X146592539Y-72668519D01*
X146638294Y-72721323D01*
X146649500Y-72772834D01*
X146649500Y-72846143D01*
X146655191Y-72867385D01*
X146673384Y-72935282D01*
X146673386Y-72935288D01*
X146673387Y-72935290D01*
X146673388Y-72935293D01*
X146719526Y-73015205D01*
X146719529Y-73015209D01*
X146719531Y-73015212D01*
X146784788Y-73080469D01*
X146784791Y-73080470D01*
X146784794Y-73080473D01*
X146791020Y-73084067D01*
X146791684Y-73084730D01*
X146793036Y-73085566D01*
X146795651Y-73086741D01*
X146864706Y-73126611D01*
X146864707Y-73126611D01*
X146864712Y-73126614D01*
X146953856Y-73150500D01*
X146953858Y-73150500D01*
X147046142Y-73150500D01*
X147046144Y-73150500D01*
X147135288Y-73126614D01*
X147215212Y-73080469D01*
X147280469Y-73015212D01*
X147326614Y-72935288D01*
X147350500Y-72846144D01*
X147350500Y-72772834D01*
X147370185Y-72705795D01*
X147422989Y-72660040D01*
X147474500Y-72648834D01*
X154525500Y-72648834D01*
X154592539Y-72668519D01*
X154638294Y-72721323D01*
X154649500Y-72772834D01*
X154649500Y-72846143D01*
X154655191Y-72867385D01*
X154673384Y-72935282D01*
X154673386Y-72935288D01*
X154673387Y-72935290D01*
X154673388Y-72935293D01*
X154719526Y-73015205D01*
X154719529Y-73015209D01*
X154719531Y-73015212D01*
X154784788Y-73080469D01*
X154784791Y-73080470D01*
X154784794Y-73080473D01*
X154791020Y-73084067D01*
X154791684Y-73084730D01*
X154793036Y-73085566D01*
X154795651Y-73086741D01*
X154864706Y-73126611D01*
X154864707Y-73126611D01*
X154864712Y-73126614D01*
X154953856Y-73150500D01*
X154953858Y-73150500D01*
X155046142Y-73150500D01*
X155046144Y-73150500D01*
X155135288Y-73126614D01*
X155215212Y-73080469D01*
X155280469Y-73015212D01*
X155326614Y-72935288D01*
X155350500Y-72846144D01*
X155350500Y-72772834D01*
X155370185Y-72705795D01*
X155422989Y-72660040D01*
X155474500Y-72648834D01*
X169875991Y-72648834D01*
X169876000Y-72648834D01*
X169909055Y-72645280D01*
X169960566Y-72634074D01*
X170029342Y-72599647D01*
X170082146Y-72553892D01*
X170087621Y-72548914D01*
X170100578Y-72527658D01*
X170152279Y-72480661D01*
X170206374Y-72468198D01*
X175425535Y-72464719D01*
X175425083Y-71786583D01*
X175444723Y-71719530D01*
X175497496Y-71673740D01*
X175549083Y-71662500D01*
X177176000Y-71662500D01*
X177243039Y-71682185D01*
X177288794Y-71734989D01*
X177300000Y-71786500D01*
X177300000Y-74858170D01*
X177294975Y-74893114D01*
X177290570Y-74908112D01*
X177252827Y-74966855D01*
X177251458Y-74968042D01*
X177196597Y-74995518D01*
X177189039Y-74997163D01*
X177162668Y-75000000D01*
X117641830Y-75000000D01*
X117606889Y-74994975D01*
X117591890Y-74990570D01*
X117533144Y-74952827D01*
X117531957Y-74951458D01*
X117504477Y-74896583D01*
X117502832Y-74889021D01*
X117500000Y-74862668D01*
X117500000Y-73707147D01*
X162174500Y-73707147D01*
X162174500Y-73792852D01*
X162187305Y-73840644D01*
X162196681Y-73875634D01*
X162196683Y-73875641D01*
X162196684Y-73875642D01*
X162196685Y-73875644D01*
X162239530Y-73949855D01*
X162239534Y-73949860D01*
X162239535Y-73949862D01*
X162240103Y-73950430D01*
X162300141Y-74010468D01*
X162300821Y-74010958D01*
X162303316Y-74012300D01*
X162374355Y-74053314D01*
X162374362Y-74053318D01*
X162457147Y-74075500D01*
X162457149Y-74075500D01*
X162542851Y-74075500D01*
X162542853Y-74075500D01*
X162625638Y-74053318D01*
X162699862Y-74010465D01*
X162760465Y-73949862D01*
X162803318Y-73875638D01*
X162825500Y-73792853D01*
X162825500Y-73707147D01*
X162803318Y-73624362D01*
X162803314Y-73624355D01*
X162760469Y-73550144D01*
X162760463Y-73550136D01*
X162760459Y-73550132D01*
X162760458Y-73550130D01*
X162699868Y-73489540D01*
X162699866Y-73489539D01*
X162699863Y-73489536D01*
X162699855Y-73489530D01*
X162685457Y-73481217D01*
X162625661Y-73446694D01*
X162625637Y-73446681D01*
X162565034Y-73430443D01*
X162542853Y-73424500D01*
X162542852Y-73424500D01*
X162457147Y-73424500D01*
X162374364Y-73446681D01*
X162374357Y-73446683D01*
X162374356Y-73446684D01*
X162374346Y-73446689D01*
X162300152Y-73489525D01*
X162300148Y-73489527D01*
X162300144Y-73489530D01*
X162300136Y-73489536D01*
X162300132Y-73489539D01*
X162300130Y-73489540D01*
X162239540Y-73550130D01*
X162239539Y-73550132D01*
X162239536Y-73550135D01*
X162239536Y-73550136D01*
X162239530Y-73550144D01*
X162239527Y-73550148D01*
X162239525Y-73550152D01*
X162196689Y-73624346D01*
X162196684Y-73624356D01*
X162196683Y-73624357D01*
X162196682Y-73624362D01*
X162174500Y-73707147D01*
X117500000Y-73707147D01*
X117500000Y-72207147D01*
X130424500Y-72207147D01*
X130424500Y-72292852D01*
X130437305Y-72340644D01*
X130446681Y-72375634D01*
X130446683Y-72375641D01*
X130446684Y-72375642D01*
X130446685Y-72375644D01*
X130489530Y-72449855D01*
X130489534Y-72449860D01*
X130489535Y-72449862D01*
X130490103Y-72450430D01*
X130550141Y-72510468D01*
X130550823Y-72510959D01*
X130553329Y-72512308D01*
X130620411Y-72551037D01*
X130624362Y-72553318D01*
X130624364Y-72553319D01*
X130665754Y-72564409D01*
X130707147Y-72575500D01*
X130707149Y-72575500D01*
X130792851Y-72575500D01*
X130792853Y-72575500D01*
X130875638Y-72553318D01*
X130949862Y-72510465D01*
X131010465Y-72449862D01*
X131053318Y-72375638D01*
X131075500Y-72292853D01*
X131075500Y-72207147D01*
X131053318Y-72124362D01*
X131053314Y-72124355D01*
X131010469Y-72050144D01*
X131010463Y-72050136D01*
X131010459Y-72050132D01*
X131010458Y-72050130D01*
X130949868Y-71989540D01*
X130949866Y-71989539D01*
X130949863Y-71989536D01*
X130949855Y-71989530D01*
X130935457Y-71981217D01*
X130875661Y-71946694D01*
X130875637Y-71946681D01*
X130815034Y-71930443D01*
X130792853Y-71924500D01*
X130792852Y-71924500D01*
X130707147Y-71924500D01*
X130624364Y-71946681D01*
X130624357Y-71946683D01*
X130624356Y-71946684D01*
X130624346Y-71946689D01*
X130550152Y-71989525D01*
X130550148Y-71989527D01*
X130550144Y-71989530D01*
X130550136Y-71989536D01*
X130550132Y-71989539D01*
X130550130Y-71989540D01*
X130489540Y-72050130D01*
X130489539Y-72050132D01*
X130489536Y-72050135D01*
X130489536Y-72050136D01*
X130489530Y-72050144D01*
X130489527Y-72050148D01*
X130489525Y-72050152D01*
X130446689Y-72124346D01*
X130446684Y-72124356D01*
X130446683Y-72124357D01*
X130446682Y-72124362D01*
X130424500Y-72207147D01*
X117500000Y-72207147D01*
X117500000Y-71207147D01*
X130424500Y-71207147D01*
X130424500Y-71292852D01*
X130437305Y-71340644D01*
X130446681Y-71375634D01*
X130446683Y-71375641D01*
X130446684Y-71375642D01*
X130446685Y-71375644D01*
X130489530Y-71449855D01*
X130489534Y-71449860D01*
X130489535Y-71449862D01*
X130490103Y-71450430D01*
X130550141Y-71510468D01*
X130550821Y-71510958D01*
X130553316Y-71512300D01*
X130624355Y-71553314D01*
X130624362Y-71553318D01*
X130707147Y-71575500D01*
X130707149Y-71575500D01*
X130792851Y-71575500D01*
X130792853Y-71575500D01*
X130875638Y-71553318D01*
X130949862Y-71510465D01*
X131010465Y-71449862D01*
X131053318Y-71375638D01*
X131075500Y-71292853D01*
X131075500Y-71207147D01*
X131053318Y-71124362D01*
X131037687Y-71097288D01*
X131010469Y-71050144D01*
X131010463Y-71050136D01*
X131010458Y-71050130D01*
X130949868Y-70989540D01*
X130949866Y-70989539D01*
X130949863Y-70989536D01*
X130949855Y-70989530D01*
X130935457Y-70981217D01*
X130875661Y-70946694D01*
X130875637Y-70946681D01*
X130815034Y-70930443D01*
X130792853Y-70924500D01*
X130792852Y-70924500D01*
X130707147Y-70924500D01*
X130624364Y-70946681D01*
X130624357Y-70946683D01*
X130624356Y-70946684D01*
X130624346Y-70946689D01*
X130550152Y-70989525D01*
X130550148Y-70989527D01*
X130550144Y-70989530D01*
X130550136Y-70989536D01*
X130550132Y-70989539D01*
X130550130Y-70989540D01*
X130489540Y-71050130D01*
X130489539Y-71050132D01*
X130489536Y-71050135D01*
X130489536Y-71050136D01*
X130489530Y-71050144D01*
X130489527Y-71050148D01*
X130489525Y-71050152D01*
X130446689Y-71124346D01*
X130446684Y-71124356D01*
X130446683Y-71124357D01*
X130446682Y-71124362D01*
X130424500Y-71207147D01*
X117500000Y-71207147D01*
X117500000Y-69197273D01*
X118349500Y-69197273D01*
X118349500Y-69302727D01*
X118376793Y-69404587D01*
X118429520Y-69495913D01*
X118504087Y-69570480D01*
X118595413Y-69623207D01*
X118697273Y-69650500D01*
X118697275Y-69650500D01*
X118802725Y-69650500D01*
X118802727Y-69650500D01*
X118904587Y-69623207D01*
X118995913Y-69570480D01*
X119070480Y-69495913D01*
X119123207Y-69404587D01*
X119150500Y-69302727D01*
X119150500Y-69197273D01*
X119123207Y-69095413D01*
X119070480Y-69004087D01*
X118995913Y-68929520D01*
X118929059Y-68890922D01*
X118904589Y-68876794D01*
X118904588Y-68876793D01*
X118904587Y-68876793D01*
X118802727Y-68849500D01*
X118802726Y-68849500D01*
X118697273Y-68849500D01*
X118595413Y-68876792D01*
X118595408Y-68876795D01*
X118504088Y-68929518D01*
X118504082Y-68929523D01*
X118429523Y-69004082D01*
X118429518Y-69004088D01*
X118376795Y-69095408D01*
X118376792Y-69095413D01*
X118349500Y-69197273D01*
X117500000Y-69197273D01*
X117500000Y-64453856D01*
X119649500Y-64453856D01*
X119649500Y-64546144D01*
X119650858Y-64551213D01*
X119650858Y-64551216D01*
X119657663Y-64576612D01*
X119657664Y-64576614D01*
X119673386Y-64635288D01*
X119673389Y-64635296D01*
X119716151Y-64709360D01*
X119719526Y-64715205D01*
X119719529Y-64715209D01*
X119719531Y-64715212D01*
X119784788Y-64780469D01*
X119784791Y-64780470D01*
X119784794Y-64780473D01*
X119791020Y-64784067D01*
X119791684Y-64784730D01*
X119793036Y-64785566D01*
X119795651Y-64786741D01*
X119864706Y-64826611D01*
X119864707Y-64826611D01*
X119864712Y-64826614D01*
X119953856Y-64850500D01*
X119953858Y-64850500D01*
X120046142Y-64850500D01*
X120046144Y-64850500D01*
X120135288Y-64826614D01*
X120215212Y-64780469D01*
X120280469Y-64715212D01*
X120326614Y-64635288D01*
X120350500Y-64546144D01*
X120350500Y-64453856D01*
X120326614Y-64364712D01*
X120326612Y-64364709D01*
X120321382Y-64355650D01*
X120280473Y-64284794D01*
X120280472Y-64284793D01*
X120280470Y-64284789D01*
X120216378Y-64220697D01*
X120215212Y-64219531D01*
X120215209Y-64219529D01*
X120215205Y-64219526D01*
X120149190Y-64181411D01*
X120148835Y-64181204D01*
X120148460Y-64180806D01*
X120142895Y-64176536D01*
X120136999Y-64174094D01*
X120133596Y-64172624D01*
X120133126Y-64172412D01*
X120131234Y-64171706D01*
X120127684Y-64170235D01*
X120119520Y-64169161D01*
X120046144Y-64149500D01*
X120046143Y-64149500D01*
X119953856Y-64149500D01*
X119871466Y-64171575D01*
X119871451Y-64171580D01*
X119864712Y-64173386D01*
X119864711Y-64173386D01*
X119864709Y-64173387D01*
X119864706Y-64173388D01*
X119861906Y-64175004D01*
X119861902Y-64175006D01*
X119784804Y-64219519D01*
X119784786Y-64219531D01*
X119719531Y-64284786D01*
X119719519Y-64284804D01*
X119674549Y-64362694D01*
X119674548Y-64362695D01*
X119673388Y-64364706D01*
X119673387Y-64364709D01*
X119673386Y-64364711D01*
X119673386Y-64364712D01*
X119649500Y-64453856D01*
X117500000Y-64453856D01*
X117500000Y-62372273D01*
X119424500Y-62372273D01*
X119424500Y-62477727D01*
X119451793Y-62579587D01*
X119504520Y-62670913D01*
X119579087Y-62745480D01*
X119670413Y-62798207D01*
X119772273Y-62825500D01*
X119772275Y-62825500D01*
X119877725Y-62825500D01*
X119877727Y-62825500D01*
X119979587Y-62798207D01*
X120070913Y-62745480D01*
X120145480Y-62670913D01*
X120198207Y-62579587D01*
X120225500Y-62477727D01*
X120225500Y-62372273D01*
X120198207Y-62270413D01*
X120145480Y-62179087D01*
X120070913Y-62104520D01*
X120004059Y-62065922D01*
X119979589Y-62051794D01*
X119979588Y-62051793D01*
X119979587Y-62051793D01*
X119877727Y-62024500D01*
X119877726Y-62024500D01*
X119772273Y-62024500D01*
X119670413Y-62051792D01*
X119670408Y-62051795D01*
X119579088Y-62104518D01*
X119579082Y-62104523D01*
X119504523Y-62179082D01*
X119504518Y-62179088D01*
X119451795Y-62270408D01*
X119451792Y-62270413D01*
X119424500Y-62372273D01*
X117500000Y-62372273D01*
X117500000Y-61572273D01*
X121474500Y-61572273D01*
X121474500Y-61677727D01*
X121501793Y-61779587D01*
X121554520Y-61870913D01*
X121629087Y-61945480D01*
X121720413Y-61998207D01*
X121822273Y-62025500D01*
X121822275Y-62025500D01*
X121927725Y-62025500D01*
X121927727Y-62025500D01*
X122029587Y-61998207D01*
X122120913Y-61945480D01*
X122195480Y-61870913D01*
X122248207Y-61779587D01*
X122275500Y-61677727D01*
X122275500Y-61572273D01*
X122248207Y-61470413D01*
X122195480Y-61379087D01*
X122120913Y-61304520D01*
X122054059Y-61265922D01*
X122029589Y-61251794D01*
X122029588Y-61251793D01*
X122029587Y-61251793D01*
X121927727Y-61224500D01*
X121927726Y-61224500D01*
X121822273Y-61224500D01*
X121720413Y-61251792D01*
X121720408Y-61251795D01*
X121629088Y-61304518D01*
X121629082Y-61304523D01*
X121554523Y-61379082D01*
X121554518Y-61379088D01*
X121501795Y-61470408D01*
X121501792Y-61470413D01*
X121474500Y-61572273D01*
X117500000Y-61572273D01*
X117500000Y-60772273D01*
X119424500Y-60772273D01*
X119424500Y-60877727D01*
X119451793Y-60979587D01*
X119504520Y-61070913D01*
X119579087Y-61145480D01*
X119670413Y-61198207D01*
X119772273Y-61225500D01*
X119772275Y-61225500D01*
X119877725Y-61225500D01*
X119877727Y-61225500D01*
X119979587Y-61198207D01*
X120070913Y-61145480D01*
X120145480Y-61070913D01*
X120198207Y-60979587D01*
X120225500Y-60877727D01*
X120225500Y-60772273D01*
X120198207Y-60670413D01*
X120145480Y-60579087D01*
X120070913Y-60504520D01*
X120004059Y-60465922D01*
X119979589Y-60451794D01*
X119979588Y-60451793D01*
X119979587Y-60451793D01*
X119877727Y-60424500D01*
X119877726Y-60424500D01*
X119772273Y-60424500D01*
X119670413Y-60451792D01*
X119670408Y-60451795D01*
X119579088Y-60504518D01*
X119579082Y-60504523D01*
X119504523Y-60579082D01*
X119504518Y-60579088D01*
X119451795Y-60670408D01*
X119451792Y-60670413D01*
X119424500Y-60772273D01*
X117500000Y-60772273D01*
X117500000Y-60141829D01*
X117505023Y-60106893D01*
X117509427Y-60091895D01*
X117547172Y-60033144D01*
X117548541Y-60031957D01*
X117603420Y-60004477D01*
X117610979Y-60002833D01*
X117637332Y-60000000D01*
X119811633Y-60000000D01*
X119878672Y-60019685D01*
G37*
%TD.AperFunction*%
%TD*%
%TA.AperFunction,Conductor*%
%TO.N,3V3_MCU*%
G36*
X139042495Y-54019685D02*
G01*
X139088250Y-54072489D01*
X139098194Y-54141647D01*
X139069169Y-54205203D01*
X139037456Y-54231387D01*
X138954085Y-54279521D01*
X138879521Y-54354085D01*
X138826794Y-54445410D01*
X138826793Y-54445413D01*
X138799500Y-54547273D01*
X138799500Y-54652727D01*
X138826793Y-54754587D01*
X138879520Y-54845913D01*
X138954087Y-54920480D01*
X139045413Y-54973207D01*
X139071606Y-54980225D01*
X139131267Y-55016590D01*
X139161796Y-55079437D01*
X139153501Y-55148812D01*
X139109016Y-55202690D01*
X139071607Y-55219774D01*
X139045417Y-55226792D01*
X139045413Y-55226793D01*
X139045410Y-55226794D01*
X138954085Y-55279521D01*
X138879521Y-55354085D01*
X138826794Y-55445410D01*
X138826793Y-55445413D01*
X138799500Y-55547273D01*
X138799500Y-55652727D01*
X138811279Y-55696685D01*
X138826793Y-55754586D01*
X138826794Y-55754589D01*
X138832536Y-55764535D01*
X138879520Y-55845913D01*
X138954087Y-55920480D01*
X139045413Y-55973207D01*
X139147273Y-56000500D01*
X139147275Y-56000500D01*
X139252725Y-56000500D01*
X139252727Y-56000500D01*
X139354587Y-55973207D01*
X139382404Y-55957147D01*
X143674500Y-55957147D01*
X143674500Y-56042853D01*
X143681199Y-56067852D01*
X143696682Y-56125637D01*
X143696685Y-56125644D01*
X143739530Y-56199855D01*
X143739534Y-56199860D01*
X143739535Y-56199862D01*
X143800138Y-56260465D01*
X143800140Y-56260466D01*
X143800144Y-56260469D01*
X143868854Y-56300138D01*
X143874362Y-56303318D01*
X143957147Y-56325500D01*
X143957149Y-56325500D01*
X144042851Y-56325500D01*
X144042853Y-56325500D01*
X144125638Y-56303318D01*
X144199862Y-56260465D01*
X144260465Y-56199862D01*
X144303318Y-56125638D01*
X144325500Y-56042853D01*
X144325500Y-55982147D01*
X146224500Y-55982147D01*
X146224500Y-56067853D01*
X146239984Y-56125638D01*
X146246682Y-56150637D01*
X146246685Y-56150644D01*
X146289530Y-56224855D01*
X146289534Y-56224860D01*
X146289535Y-56224862D01*
X146350138Y-56285465D01*
X146350140Y-56285466D01*
X146350144Y-56285469D01*
X146381060Y-56303318D01*
X146424362Y-56328318D01*
X146507147Y-56350500D01*
X146507149Y-56350500D01*
X146592851Y-56350500D01*
X146592853Y-56350500D01*
X146675638Y-56328318D01*
X146749862Y-56285465D01*
X146810465Y-56224862D01*
X146853318Y-56150638D01*
X146875500Y-56067853D01*
X146875500Y-55982147D01*
X148199500Y-55982147D01*
X148199500Y-56067853D01*
X148214984Y-56125638D01*
X148221682Y-56150637D01*
X148221685Y-56150644D01*
X148264530Y-56224855D01*
X148264534Y-56224860D01*
X148264535Y-56224862D01*
X148325138Y-56285465D01*
X148325140Y-56285466D01*
X148325144Y-56285469D01*
X148356060Y-56303318D01*
X148399362Y-56328318D01*
X148482147Y-56350500D01*
X148482149Y-56350500D01*
X148567851Y-56350500D01*
X148567853Y-56350500D01*
X148650638Y-56328318D01*
X148724862Y-56285465D01*
X148785465Y-56224862D01*
X148828318Y-56150638D01*
X148850500Y-56067853D01*
X148850500Y-55982147D01*
X150174500Y-55982147D01*
X150174500Y-56067853D01*
X150189984Y-56125638D01*
X150196682Y-56150637D01*
X150196685Y-56150644D01*
X150239530Y-56224855D01*
X150239534Y-56224860D01*
X150239535Y-56224862D01*
X150300138Y-56285465D01*
X150300140Y-56285466D01*
X150300144Y-56285469D01*
X150331060Y-56303318D01*
X150374362Y-56328318D01*
X150457147Y-56350500D01*
X150457149Y-56350500D01*
X150542851Y-56350500D01*
X150542853Y-56350500D01*
X150625638Y-56328318D01*
X150699862Y-56285465D01*
X150760465Y-56224862D01*
X150803318Y-56150638D01*
X150825500Y-56067853D01*
X150825500Y-55982147D01*
X150818801Y-55957147D01*
X152674500Y-55957147D01*
X152674500Y-56042853D01*
X152681199Y-56067852D01*
X152696682Y-56125637D01*
X152696685Y-56125644D01*
X152739530Y-56199855D01*
X152739534Y-56199860D01*
X152739535Y-56199862D01*
X152800138Y-56260465D01*
X152800140Y-56260466D01*
X152800144Y-56260469D01*
X152868854Y-56300138D01*
X152874362Y-56303318D01*
X152957147Y-56325500D01*
X152957149Y-56325500D01*
X153042851Y-56325500D01*
X153042853Y-56325500D01*
X153125638Y-56303318D01*
X153199862Y-56260465D01*
X153260465Y-56199862D01*
X153303318Y-56125638D01*
X153325500Y-56042853D01*
X153325500Y-55957147D01*
X153303318Y-55874362D01*
X153286893Y-55845913D01*
X153260469Y-55800144D01*
X153260463Y-55800136D01*
X153199863Y-55739536D01*
X153199855Y-55739530D01*
X153125644Y-55696685D01*
X153125640Y-55696683D01*
X153125638Y-55696682D01*
X153042853Y-55674500D01*
X152957147Y-55674500D01*
X152874362Y-55696682D01*
X152874355Y-55696685D01*
X152800144Y-55739530D01*
X152800136Y-55739536D01*
X152739536Y-55800136D01*
X152739530Y-55800144D01*
X152696685Y-55874355D01*
X152696682Y-55874362D01*
X152674500Y-55957147D01*
X150818801Y-55957147D01*
X150803318Y-55899362D01*
X150803314Y-55899355D01*
X150760469Y-55825144D01*
X150760463Y-55825136D01*
X150699863Y-55764536D01*
X150699855Y-55764530D01*
X150625644Y-55721685D01*
X150625640Y-55721683D01*
X150625638Y-55721682D01*
X150542853Y-55699500D01*
X150457147Y-55699500D01*
X150374362Y-55721682D01*
X150374355Y-55721685D01*
X150300144Y-55764530D01*
X150300136Y-55764536D01*
X150239536Y-55825136D01*
X150239530Y-55825144D01*
X150196685Y-55899355D01*
X150196683Y-55899360D01*
X150196682Y-55899362D01*
X150174500Y-55982147D01*
X148850500Y-55982147D01*
X148828318Y-55899362D01*
X148828314Y-55899355D01*
X148785469Y-55825144D01*
X148785463Y-55825136D01*
X148724863Y-55764536D01*
X148724855Y-55764530D01*
X148650644Y-55721685D01*
X148650640Y-55721683D01*
X148650638Y-55721682D01*
X148567853Y-55699500D01*
X148482147Y-55699500D01*
X148399362Y-55721682D01*
X148399355Y-55721685D01*
X148325144Y-55764530D01*
X148325136Y-55764536D01*
X148264536Y-55825136D01*
X148264530Y-55825144D01*
X148221685Y-55899355D01*
X148221683Y-55899360D01*
X148221682Y-55899362D01*
X148199500Y-55982147D01*
X146875500Y-55982147D01*
X146853318Y-55899362D01*
X146853314Y-55899355D01*
X146810469Y-55825144D01*
X146810463Y-55825136D01*
X146749863Y-55764536D01*
X146749855Y-55764530D01*
X146675644Y-55721685D01*
X146675640Y-55721683D01*
X146675638Y-55721682D01*
X146592853Y-55699500D01*
X146507147Y-55699500D01*
X146424362Y-55721682D01*
X146424355Y-55721685D01*
X146350144Y-55764530D01*
X146350136Y-55764536D01*
X146289536Y-55825136D01*
X146289530Y-55825144D01*
X146246685Y-55899355D01*
X146246683Y-55899360D01*
X146246682Y-55899362D01*
X146224500Y-55982147D01*
X144325500Y-55982147D01*
X144325500Y-55957147D01*
X144303318Y-55874362D01*
X144286893Y-55845913D01*
X144260469Y-55800144D01*
X144260463Y-55800136D01*
X144199863Y-55739536D01*
X144199855Y-55739530D01*
X144125644Y-55696685D01*
X144125640Y-55696683D01*
X144125638Y-55696682D01*
X144042853Y-55674500D01*
X143957147Y-55674500D01*
X143874362Y-55696682D01*
X143874355Y-55696685D01*
X143800144Y-55739530D01*
X143800136Y-55739536D01*
X143739536Y-55800136D01*
X143739530Y-55800144D01*
X143696685Y-55874355D01*
X143696682Y-55874362D01*
X143674500Y-55957147D01*
X139382404Y-55957147D01*
X139445913Y-55920480D01*
X139520480Y-55845913D01*
X139573207Y-55754587D01*
X139600500Y-55652727D01*
X139600500Y-55547273D01*
X139573207Y-55445413D01*
X139520480Y-55354087D01*
X139445913Y-55279520D01*
X139354587Y-55226793D01*
X139354585Y-55226792D01*
X139338979Y-55222611D01*
X139328393Y-55219774D01*
X139268733Y-55183411D01*
X139238203Y-55120564D01*
X139246497Y-55051188D01*
X139290982Y-54997310D01*
X139328392Y-54980225D01*
X139354587Y-54973207D01*
X139445913Y-54920480D01*
X139520480Y-54845913D01*
X139573207Y-54754587D01*
X139600500Y-54652727D01*
X139600500Y-54547273D01*
X139573207Y-54445413D01*
X139520480Y-54354087D01*
X139445913Y-54279520D01*
X139362543Y-54231386D01*
X139314328Y-54180820D01*
X139301106Y-54112213D01*
X139327074Y-54047348D01*
X139383988Y-54006820D01*
X139424544Y-54000000D01*
X143567869Y-54000000D01*
X143634908Y-54019685D01*
X143680663Y-54072489D01*
X143687644Y-54091906D01*
X143696682Y-54125639D01*
X143696685Y-54125644D01*
X143739530Y-54199855D01*
X143739534Y-54199860D01*
X143739535Y-54199862D01*
X143800138Y-54260465D01*
X143800140Y-54260466D01*
X143800144Y-54260469D01*
X143833142Y-54279520D01*
X143874362Y-54303318D01*
X143957147Y-54325500D01*
X143957149Y-54325500D01*
X144042851Y-54325500D01*
X144042853Y-54325500D01*
X144125638Y-54303318D01*
X144199862Y-54260465D01*
X144260465Y-54199862D01*
X144303318Y-54125638D01*
X144312356Y-54091904D01*
X144348721Y-54032246D01*
X144411568Y-54001717D01*
X144432131Y-54000000D01*
X145567869Y-54000000D01*
X145634908Y-54019685D01*
X145680663Y-54072489D01*
X145687644Y-54091906D01*
X145696682Y-54125639D01*
X145696685Y-54125644D01*
X145739530Y-54199855D01*
X145739534Y-54199860D01*
X145739535Y-54199862D01*
X145800138Y-54260465D01*
X145800140Y-54260466D01*
X145800144Y-54260469D01*
X145833142Y-54279520D01*
X145874362Y-54303318D01*
X145957147Y-54325500D01*
X145957149Y-54325500D01*
X146042851Y-54325500D01*
X146042853Y-54325500D01*
X146125638Y-54303318D01*
X146199862Y-54260465D01*
X146260465Y-54199862D01*
X146303318Y-54125638D01*
X146312356Y-54091904D01*
X146348721Y-54032246D01*
X146411568Y-54001717D01*
X146432131Y-54000000D01*
X148067869Y-54000000D01*
X148134908Y-54019685D01*
X148180663Y-54072489D01*
X148187644Y-54091906D01*
X148196682Y-54125639D01*
X148196685Y-54125644D01*
X148239530Y-54199855D01*
X148239534Y-54199860D01*
X148239535Y-54199862D01*
X148300138Y-54260465D01*
X148300140Y-54260466D01*
X148300144Y-54260469D01*
X148333142Y-54279520D01*
X148374362Y-54303318D01*
X148457147Y-54325500D01*
X148457149Y-54325500D01*
X148542851Y-54325500D01*
X148542853Y-54325500D01*
X148625638Y-54303318D01*
X148699862Y-54260465D01*
X148760465Y-54199862D01*
X148803318Y-54125638D01*
X148812356Y-54091904D01*
X148848721Y-54032246D01*
X148911568Y-54001717D01*
X148932131Y-54000000D01*
X150567869Y-54000000D01*
X150634908Y-54019685D01*
X150680663Y-54072489D01*
X150687644Y-54091906D01*
X150696682Y-54125639D01*
X150696685Y-54125644D01*
X150739530Y-54199855D01*
X150739534Y-54199860D01*
X150739535Y-54199862D01*
X150800138Y-54260465D01*
X150800140Y-54260466D01*
X150800144Y-54260469D01*
X150833142Y-54279520D01*
X150874362Y-54303318D01*
X150957147Y-54325500D01*
X150957149Y-54325500D01*
X151042851Y-54325500D01*
X151042853Y-54325500D01*
X151125638Y-54303318D01*
X151199862Y-54260465D01*
X151260465Y-54199862D01*
X151303318Y-54125638D01*
X151312356Y-54091904D01*
X151348721Y-54032246D01*
X151411568Y-54001717D01*
X151432131Y-54000000D01*
X152567869Y-54000000D01*
X152634908Y-54019685D01*
X152680663Y-54072489D01*
X152687644Y-54091906D01*
X152696682Y-54125639D01*
X152696685Y-54125644D01*
X152739530Y-54199855D01*
X152739534Y-54199860D01*
X152739535Y-54199862D01*
X152800138Y-54260465D01*
X152800140Y-54260466D01*
X152800144Y-54260469D01*
X152833142Y-54279520D01*
X152874362Y-54303318D01*
X152957147Y-54325500D01*
X152957149Y-54325500D01*
X153042851Y-54325500D01*
X153042853Y-54325500D01*
X153125638Y-54303318D01*
X153199862Y-54260465D01*
X153260465Y-54199862D01*
X153303318Y-54125638D01*
X153312356Y-54091904D01*
X153348721Y-54032246D01*
X153411568Y-54001717D01*
X153432131Y-54000000D01*
X164876000Y-54000000D01*
X164943039Y-54019685D01*
X164988794Y-54072489D01*
X165000000Y-54124000D01*
X165000000Y-59317869D01*
X164980315Y-59384908D01*
X164927511Y-59430663D01*
X164908098Y-59437642D01*
X164893857Y-59441458D01*
X164874360Y-59446682D01*
X164874355Y-59446685D01*
X164800144Y-59489530D01*
X164800136Y-59489536D01*
X164739536Y-59550136D01*
X164739530Y-59550144D01*
X164696685Y-59624355D01*
X164696682Y-59624362D01*
X164674500Y-59707147D01*
X164674500Y-59792853D01*
X164689642Y-59849362D01*
X164696682Y-59875637D01*
X164696685Y-59875644D01*
X164739530Y-59949855D01*
X164739534Y-59949860D01*
X164739535Y-59949862D01*
X164800138Y-60010465D01*
X164800140Y-60010466D01*
X164800144Y-60010469D01*
X164856234Y-60042852D01*
X164874362Y-60053318D01*
X164908092Y-60062356D01*
X164967752Y-60098718D01*
X164998283Y-60161565D01*
X165000000Y-60182130D01*
X165000000Y-65000000D01*
X169876000Y-65000000D01*
X169943039Y-65019685D01*
X169988794Y-65072489D01*
X170000000Y-65124000D01*
X170000000Y-72369334D01*
X169980315Y-72436373D01*
X169927511Y-72482128D01*
X169876000Y-72493334D01*
X155203063Y-72493334D01*
X155141064Y-72476721D01*
X155135288Y-72473386D01*
X155046144Y-72449500D01*
X154953856Y-72449500D01*
X154864715Y-72473385D01*
X154864714Y-72473385D01*
X154864712Y-72473386D01*
X154858935Y-72476721D01*
X154796937Y-72493334D01*
X147203063Y-72493334D01*
X147141064Y-72476721D01*
X147135288Y-72473386D01*
X147046144Y-72449500D01*
X146953856Y-72449500D01*
X146864715Y-72473385D01*
X146864714Y-72473385D01*
X146864712Y-72473386D01*
X146858935Y-72476721D01*
X146796937Y-72493334D01*
X140203063Y-72493334D01*
X140141064Y-72476721D01*
X140135288Y-72473386D01*
X140046144Y-72449500D01*
X139953856Y-72449500D01*
X139864715Y-72473385D01*
X139864714Y-72473385D01*
X139864712Y-72473386D01*
X139858935Y-72476721D01*
X139796937Y-72493334D01*
X132623996Y-72493334D01*
X132556957Y-72473649D01*
X132511202Y-72420845D01*
X132499996Y-72369334D01*
X132499998Y-70000000D01*
X131117755Y-70000000D01*
X131053343Y-69981958D01*
X131040611Y-69974218D01*
X131023540Y-69957147D01*
X152674500Y-69957147D01*
X152674500Y-70042853D01*
X152688584Y-70095413D01*
X152696682Y-70125637D01*
X152696685Y-70125644D01*
X152739530Y-70199855D01*
X152739534Y-70199860D01*
X152739535Y-70199862D01*
X152800138Y-70260465D01*
X152800140Y-70260466D01*
X152800144Y-70260469D01*
X152863438Y-70297011D01*
X152874362Y-70303318D01*
X152957147Y-70325500D01*
X152957149Y-70325500D01*
X153042851Y-70325500D01*
X153042853Y-70325500D01*
X153125638Y-70303318D01*
X153199862Y-70260465D01*
X153260465Y-70199862D01*
X153303318Y-70125638D01*
X153325500Y-70042853D01*
X153325500Y-69957147D01*
X153303318Y-69874362D01*
X153270453Y-69817437D01*
X153260469Y-69800144D01*
X153260463Y-69800136D01*
X153199863Y-69739536D01*
X153199855Y-69739530D01*
X153125644Y-69696685D01*
X153125640Y-69696683D01*
X153125638Y-69696682D01*
X153042853Y-69674500D01*
X152957147Y-69674500D01*
X152874362Y-69696682D01*
X152874355Y-69696685D01*
X152800144Y-69739530D01*
X152800136Y-69739536D01*
X152739536Y-69800136D01*
X152739530Y-69800144D01*
X152696685Y-69874355D01*
X152696682Y-69874362D01*
X152674500Y-69957147D01*
X131023540Y-69957147D01*
X130995913Y-69929520D01*
X130904587Y-69876793D01*
X130861242Y-69865178D01*
X130846074Y-69855958D01*
X130834017Y-69842727D01*
X130818733Y-69833411D01*
X130810973Y-69817437D01*
X130799014Y-69804313D01*
X130796024Y-69786665D01*
X130788203Y-69770564D01*
X130790311Y-69752930D01*
X130787346Y-69735425D01*
X130794371Y-69718964D01*
X130796497Y-69701188D01*
X130807804Y-69687493D01*
X130814774Y-69671164D01*
X130829583Y-69661114D01*
X130840982Y-69647310D01*
X130868342Y-69634815D01*
X130872590Y-69631933D01*
X130874773Y-69631878D01*
X130878392Y-69630225D01*
X130904587Y-69623207D01*
X130995913Y-69570480D01*
X131070480Y-69495913D01*
X131123207Y-69404587D01*
X131150500Y-69302727D01*
X131150500Y-69197273D01*
X131123207Y-69095413D01*
X131070480Y-69004087D01*
X130995913Y-68929520D01*
X130904587Y-68876793D01*
X130802727Y-68849500D01*
X130697273Y-68849500D01*
X130595413Y-68876793D01*
X130595410Y-68876794D01*
X130504085Y-68929521D01*
X130429521Y-69004085D01*
X130376794Y-69095410D01*
X130376793Y-69095413D01*
X130349500Y-69197273D01*
X130349500Y-69302727D01*
X130376793Y-69404587D01*
X130429520Y-69495913D01*
X130504087Y-69570480D01*
X130595413Y-69623207D01*
X130621606Y-69630225D01*
X130681267Y-69666590D01*
X130711796Y-69729437D01*
X130703501Y-69798812D01*
X130659016Y-69852690D01*
X130653926Y-69855958D01*
X130638757Y-69865178D01*
X130595413Y-69876793D01*
X130504087Y-69929520D01*
X130459387Y-69974219D01*
X130446658Y-69981958D01*
X130426714Y-69987276D01*
X130408603Y-69997166D01*
X130382245Y-70000000D01*
X125124000Y-70000000D01*
X125056961Y-69980315D01*
X125011206Y-69927511D01*
X125000000Y-69876000D01*
X125000000Y-68707147D01*
X137674500Y-68707147D01*
X137674500Y-68792853D01*
X137689679Y-68849500D01*
X137696682Y-68875637D01*
X137696685Y-68875644D01*
X137739530Y-68949855D01*
X137739534Y-68949860D01*
X137739535Y-68949862D01*
X137800138Y-69010465D01*
X137800140Y-69010466D01*
X137800144Y-69010469D01*
X137874355Y-69053314D01*
X137874362Y-69053318D01*
X137957147Y-69075500D01*
X137957149Y-69075500D01*
X138042851Y-69075500D01*
X138042853Y-69075500D01*
X138125638Y-69053318D01*
X138199862Y-69010465D01*
X138260465Y-68949862D01*
X138303318Y-68875638D01*
X138325500Y-68792853D01*
X138325500Y-68707147D01*
X138303318Y-68624362D01*
X138303314Y-68624355D01*
X138260469Y-68550144D01*
X138260463Y-68550136D01*
X138199863Y-68489536D01*
X138199855Y-68489530D01*
X138143765Y-68457147D01*
X144174500Y-68457147D01*
X144174500Y-68542853D01*
X144176452Y-68550136D01*
X144196682Y-68625637D01*
X144196685Y-68625644D01*
X144239530Y-68699855D01*
X144239534Y-68699860D01*
X144239535Y-68699862D01*
X144300138Y-68760465D01*
X144300140Y-68760466D01*
X144300144Y-68760469D01*
X144356234Y-68792852D01*
X144374362Y-68803318D01*
X144457147Y-68825500D01*
X144457149Y-68825500D01*
X144542851Y-68825500D01*
X144542853Y-68825500D01*
X144625638Y-68803318D01*
X144699862Y-68760465D01*
X144760465Y-68699862D01*
X144803318Y-68625638D01*
X144825500Y-68542853D01*
X144825500Y-68457147D01*
X144803318Y-68374362D01*
X144799276Y-68367361D01*
X144760469Y-68300144D01*
X144760463Y-68300136D01*
X144699863Y-68239536D01*
X144699855Y-68239530D01*
X144625644Y-68196685D01*
X144625640Y-68196683D01*
X144625638Y-68196682D01*
X144542853Y-68174500D01*
X144457147Y-68174500D01*
X144374362Y-68196682D01*
X144374355Y-68196685D01*
X144300144Y-68239530D01*
X144300136Y-68239536D01*
X144239536Y-68300136D01*
X144239530Y-68300144D01*
X144196685Y-68374355D01*
X144196682Y-68374362D01*
X144174500Y-68457147D01*
X138143765Y-68457147D01*
X138125644Y-68446685D01*
X138125640Y-68446683D01*
X138125638Y-68446682D01*
X138042853Y-68424500D01*
X137957147Y-68424500D01*
X137874362Y-68446682D01*
X137874355Y-68446685D01*
X137800144Y-68489530D01*
X137800136Y-68489536D01*
X137739536Y-68550136D01*
X137739530Y-68550144D01*
X137696685Y-68624355D01*
X137696682Y-68624362D01*
X137674500Y-68707147D01*
X125000000Y-68707147D01*
X125000000Y-67957147D01*
X150924500Y-67957147D01*
X150924500Y-68042852D01*
X150946682Y-68125637D01*
X150946685Y-68125644D01*
X150989530Y-68199855D01*
X150989534Y-68199860D01*
X150989535Y-68199862D01*
X151050138Y-68260465D01*
X151050140Y-68260466D01*
X151050144Y-68260469D01*
X151118854Y-68300138D01*
X151124362Y-68303318D01*
X151207147Y-68325500D01*
X151207149Y-68325500D01*
X151292851Y-68325500D01*
X151292853Y-68325500D01*
X151375638Y-68303318D01*
X151449862Y-68260465D01*
X151510465Y-68199862D01*
X151553318Y-68125638D01*
X151575500Y-68042853D01*
X151575500Y-67957147D01*
X151553318Y-67874362D01*
X151546758Y-67862999D01*
X151510469Y-67800144D01*
X151510463Y-67800136D01*
X151449863Y-67739536D01*
X151449855Y-67739530D01*
X151375644Y-67696685D01*
X151375640Y-67696683D01*
X151375638Y-67696682D01*
X151292853Y-67674500D01*
X151207147Y-67674500D01*
X151124362Y-67696682D01*
X151124355Y-67696685D01*
X151050144Y-67739530D01*
X151050136Y-67739536D01*
X150989536Y-67800136D01*
X150989530Y-67800144D01*
X150946685Y-67874355D01*
X150946682Y-67874362D01*
X150924500Y-67957147D01*
X125000000Y-67957147D01*
X125000000Y-67566356D01*
X164724500Y-67566356D01*
X164724500Y-67658644D01*
X164746173Y-67739530D01*
X164748387Y-67747790D01*
X164748388Y-67747793D01*
X164794526Y-67827705D01*
X164794529Y-67827709D01*
X164794531Y-67827712D01*
X164859788Y-67892969D01*
X164859791Y-67892970D01*
X164859794Y-67892973D01*
X164939706Y-67939111D01*
X164939707Y-67939111D01*
X164939712Y-67939114D01*
X165028856Y-67963000D01*
X165028858Y-67963000D01*
X165121142Y-67963000D01*
X165121144Y-67963000D01*
X165210288Y-67939114D01*
X165290212Y-67892969D01*
X165355469Y-67827712D01*
X165401614Y-67747788D01*
X165425500Y-67658644D01*
X165425500Y-67566356D01*
X165401614Y-67477212D01*
X165401611Y-67477206D01*
X165395347Y-67466356D01*
X167074500Y-67466356D01*
X167074500Y-67558644D01*
X167076566Y-67566356D01*
X167098387Y-67647790D01*
X167098388Y-67647793D01*
X167144526Y-67727705D01*
X167149478Y-67734158D01*
X167147549Y-67735637D01*
X167175127Y-67786163D01*
X167170130Y-67855854D01*
X167148250Y-67889900D01*
X167149478Y-67890842D01*
X167144526Y-67897294D01*
X167098388Y-67977206D01*
X167098387Y-67977209D01*
X167098386Y-67977211D01*
X167098386Y-67977212D01*
X167074500Y-68066356D01*
X167074500Y-68158644D01*
X167096173Y-68239530D01*
X167098387Y-68247790D01*
X167098388Y-68247793D01*
X167144526Y-68327705D01*
X167144529Y-68327709D01*
X167144531Y-68327712D01*
X167209788Y-68392969D01*
X167209791Y-68392970D01*
X167209794Y-68392973D01*
X167289706Y-68439111D01*
X167289707Y-68439111D01*
X167289712Y-68439114D01*
X167378856Y-68463000D01*
X167378858Y-68463000D01*
X167471142Y-68463000D01*
X167471144Y-68463000D01*
X167560288Y-68439114D01*
X167640212Y-68392969D01*
X167640217Y-68392963D01*
X167646658Y-68388022D01*
X167648139Y-68389953D01*
X167698642Y-68362377D01*
X167768334Y-68367361D01*
X167802397Y-68389252D01*
X167803342Y-68388022D01*
X167809785Y-68392966D01*
X167809788Y-68392969D01*
X167809791Y-68392970D01*
X167809794Y-68392973D01*
X167889706Y-68439111D01*
X167889707Y-68439111D01*
X167889712Y-68439114D01*
X167978856Y-68463000D01*
X167978858Y-68463000D01*
X168071142Y-68463000D01*
X168071144Y-68463000D01*
X168160288Y-68439114D01*
X168240212Y-68392969D01*
X168305469Y-68327712D01*
X168351614Y-68247788D01*
X168375500Y-68158644D01*
X168375500Y-68066356D01*
X168356653Y-67996018D01*
X168358316Y-67926172D01*
X168397478Y-67868310D01*
X168461706Y-67840805D01*
X168508516Y-67844152D01*
X168578856Y-67863000D01*
X168578859Y-67863000D01*
X168671142Y-67863000D01*
X168671144Y-67863000D01*
X168760288Y-67839114D01*
X168840212Y-67792969D01*
X168905469Y-67727712D01*
X168951614Y-67647788D01*
X168975500Y-67558644D01*
X168975500Y-67466356D01*
X168951614Y-67377212D01*
X168951611Y-67377206D01*
X168905473Y-67297294D01*
X168905470Y-67297291D01*
X168905469Y-67297288D01*
X168905466Y-67297285D01*
X168900522Y-67290842D01*
X168902453Y-67289360D01*
X168874877Y-67238858D01*
X168879861Y-67169166D01*
X168901752Y-67135102D01*
X168900522Y-67134158D01*
X168905463Y-67127717D01*
X168905469Y-67127712D01*
X168951614Y-67047788D01*
X168975500Y-66958644D01*
X168975500Y-66866356D01*
X168951614Y-66777212D01*
X168951611Y-66777206D01*
X168905473Y-66697294D01*
X168905470Y-66697291D01*
X168905469Y-66697288D01*
X168840212Y-66632031D01*
X168840209Y-66632029D01*
X168840205Y-66632026D01*
X168760293Y-66585888D01*
X168760290Y-66585887D01*
X168760289Y-66585886D01*
X168760288Y-66585886D01*
X168671144Y-66562000D01*
X168578856Y-66562000D01*
X168489712Y-66585886D01*
X168489711Y-66585886D01*
X168489709Y-66585887D01*
X168489706Y-66585888D01*
X168409794Y-66632026D01*
X168409785Y-66632033D01*
X168344533Y-66697285D01*
X168344526Y-66697294D01*
X168298388Y-66777206D01*
X168298387Y-66777209D01*
X168298386Y-66777211D01*
X168298386Y-66777212D01*
X168291392Y-66803314D01*
X168274500Y-66866356D01*
X168274500Y-66958643D01*
X168293346Y-67028978D01*
X168291683Y-67098828D01*
X168252520Y-67156690D01*
X168188292Y-67184194D01*
X168141478Y-67180846D01*
X168071144Y-67162000D01*
X167978856Y-67162000D01*
X167889712Y-67185886D01*
X167889711Y-67185886D01*
X167889709Y-67185887D01*
X167889706Y-67185888D01*
X167809794Y-67232026D01*
X167803342Y-67236978D01*
X167801862Y-67235049D01*
X167751337Y-67262627D01*
X167681646Y-67257630D01*
X167647599Y-67235750D01*
X167646658Y-67236978D01*
X167640205Y-67232026D01*
X167560293Y-67185888D01*
X167560290Y-67185887D01*
X167560289Y-67185886D01*
X167560288Y-67185886D01*
X167471144Y-67162000D01*
X167378856Y-67162000D01*
X167289712Y-67185886D01*
X167289711Y-67185886D01*
X167289709Y-67185887D01*
X167289706Y-67185888D01*
X167209794Y-67232026D01*
X167209785Y-67232033D01*
X167144533Y-67297285D01*
X167144526Y-67297294D01*
X167098388Y-67377206D01*
X167098387Y-67377209D01*
X167098386Y-67377211D01*
X167098386Y-67377212D01*
X167074500Y-67466356D01*
X165395347Y-67466356D01*
X165355473Y-67397294D01*
X165355470Y-67397291D01*
X165355469Y-67397288D01*
X165290212Y-67332031D01*
X165290209Y-67332029D01*
X165290205Y-67332026D01*
X165210293Y-67285888D01*
X165210290Y-67285887D01*
X165210289Y-67285886D01*
X165210288Y-67285886D01*
X165121144Y-67262000D01*
X165028856Y-67262000D01*
X164939712Y-67285886D01*
X164939711Y-67285886D01*
X164939709Y-67285887D01*
X164939706Y-67285888D01*
X164859794Y-67332026D01*
X164859785Y-67332033D01*
X164794533Y-67397285D01*
X164794526Y-67397294D01*
X164748388Y-67477206D01*
X164748387Y-67477209D01*
X164748386Y-67477211D01*
X164748386Y-67477212D01*
X164724500Y-67566356D01*
X125000000Y-67566356D01*
X125000000Y-66957147D01*
X153924500Y-66957147D01*
X153924500Y-67042853D01*
X153939499Y-67098828D01*
X153946682Y-67125637D01*
X153946685Y-67125644D01*
X153989530Y-67199855D01*
X153989534Y-67199860D01*
X153989535Y-67199862D01*
X154050138Y-67260465D01*
X154050140Y-67260466D01*
X154050144Y-67260469D01*
X154113928Y-67297294D01*
X154124362Y-67303318D01*
X154207147Y-67325500D01*
X154207149Y-67325500D01*
X154292851Y-67325500D01*
X154292853Y-67325500D01*
X154375638Y-67303318D01*
X154449862Y-67260465D01*
X154510465Y-67199862D01*
X154553318Y-67125638D01*
X154575500Y-67042853D01*
X154575500Y-66957147D01*
X154553318Y-66874362D01*
X154512301Y-66803318D01*
X154510469Y-66800144D01*
X154510463Y-66800136D01*
X154449863Y-66739536D01*
X154449855Y-66739530D01*
X154375644Y-66696685D01*
X154375640Y-66696683D01*
X154375638Y-66696682D01*
X154292853Y-66674500D01*
X154207147Y-66674500D01*
X154124362Y-66696682D01*
X154124355Y-66696685D01*
X154050144Y-66739530D01*
X154050136Y-66739536D01*
X153989536Y-66800136D01*
X153989530Y-66800144D01*
X153946685Y-66874355D01*
X153946682Y-66874362D01*
X153924500Y-66957147D01*
X125000000Y-66957147D01*
X125000000Y-66457147D01*
X149424500Y-66457147D01*
X149424500Y-66542853D01*
X149429631Y-66562000D01*
X149446682Y-66625637D01*
X149446685Y-66625644D01*
X149489530Y-66699855D01*
X149489534Y-66699860D01*
X149489535Y-66699862D01*
X149550138Y-66760465D01*
X149550140Y-66760466D01*
X149550144Y-66760469D01*
X149618854Y-66800138D01*
X149624362Y-66803318D01*
X149707147Y-66825500D01*
X149707149Y-66825500D01*
X149792851Y-66825500D01*
X149792853Y-66825500D01*
X149875638Y-66803318D01*
X149949862Y-66760465D01*
X150010465Y-66699862D01*
X150053318Y-66625638D01*
X150075500Y-66542853D01*
X150075500Y-66457147D01*
X150053318Y-66374362D01*
X150053314Y-66374355D01*
X150010469Y-66300144D01*
X150010463Y-66300136D01*
X149949863Y-66239536D01*
X149949855Y-66239530D01*
X149875644Y-66196685D01*
X149875640Y-66196683D01*
X149875638Y-66196682D01*
X149792853Y-66174500D01*
X149707147Y-66174500D01*
X149624362Y-66196682D01*
X149624355Y-66196685D01*
X149550144Y-66239530D01*
X149550136Y-66239536D01*
X149489536Y-66300136D01*
X149489530Y-66300144D01*
X149446685Y-66374355D01*
X149446682Y-66374362D01*
X149424500Y-66457147D01*
X125000000Y-66457147D01*
X125000000Y-65953856D01*
X165899500Y-65953856D01*
X165899500Y-66046143D01*
X165923387Y-66135290D01*
X165923388Y-66135293D01*
X165969526Y-66215205D01*
X165969529Y-66215209D01*
X165969531Y-66215212D01*
X166034788Y-66280469D01*
X166034791Y-66280470D01*
X166034794Y-66280473D01*
X166114706Y-66326611D01*
X166114707Y-66326611D01*
X166114712Y-66326614D01*
X166203856Y-66350500D01*
X166203858Y-66350500D01*
X166296142Y-66350500D01*
X166296144Y-66350500D01*
X166385288Y-66326614D01*
X166465212Y-66280469D01*
X166530469Y-66215212D01*
X166576614Y-66135288D01*
X166600500Y-66046144D01*
X166600500Y-65953856D01*
X166576614Y-65864712D01*
X166576611Y-65864706D01*
X166530473Y-65784794D01*
X166530470Y-65784791D01*
X166530469Y-65784788D01*
X166465212Y-65719531D01*
X166465209Y-65719529D01*
X166465205Y-65719526D01*
X166385293Y-65673388D01*
X166385290Y-65673387D01*
X166385289Y-65673386D01*
X166385288Y-65673386D01*
X166296144Y-65649500D01*
X166203856Y-65649500D01*
X166114712Y-65673386D01*
X166114711Y-65673386D01*
X166114709Y-65673387D01*
X166114706Y-65673388D01*
X166034794Y-65719526D01*
X166034785Y-65719533D01*
X165969533Y-65784785D01*
X165969526Y-65784794D01*
X165923388Y-65864706D01*
X165923387Y-65864709D01*
X165899500Y-65953856D01*
X125000000Y-65953856D01*
X125000000Y-64203856D01*
X143399500Y-64203856D01*
X143399500Y-64296143D01*
X143423387Y-64385290D01*
X143423388Y-64385293D01*
X143469526Y-64465205D01*
X143469529Y-64465209D01*
X143469531Y-64465212D01*
X143534788Y-64530469D01*
X143534791Y-64530470D01*
X143534794Y-64530473D01*
X143614706Y-64576611D01*
X143614707Y-64576611D01*
X143614712Y-64576614D01*
X143703856Y-64600500D01*
X143703858Y-64600500D01*
X143796142Y-64600500D01*
X143796144Y-64600500D01*
X143885288Y-64576614D01*
X143965212Y-64530469D01*
X144030469Y-64465212D01*
X144076614Y-64385288D01*
X144100500Y-64296144D01*
X144100500Y-64203856D01*
X144076614Y-64114712D01*
X144076611Y-64114706D01*
X144030473Y-64034794D01*
X144030470Y-64034791D01*
X144030469Y-64034788D01*
X143965212Y-63969531D01*
X143965209Y-63969529D01*
X143965205Y-63969526D01*
X143885293Y-63923388D01*
X143885290Y-63923387D01*
X143885289Y-63923386D01*
X143885288Y-63923386D01*
X143796144Y-63899500D01*
X143703856Y-63899500D01*
X143614712Y-63923386D01*
X143614711Y-63923386D01*
X143614709Y-63923387D01*
X143614706Y-63923388D01*
X143534794Y-63969526D01*
X143534785Y-63969533D01*
X143469533Y-64034785D01*
X143469526Y-64034794D01*
X143423388Y-64114706D01*
X143423387Y-64114709D01*
X143399500Y-64203856D01*
X125000000Y-64203856D01*
X125000000Y-63567984D01*
X129949500Y-63567984D01*
X129949500Y-63673438D01*
X129976793Y-63775298D01*
X130029520Y-63866624D01*
X130104087Y-63941191D01*
X130195413Y-63993918D01*
X130297273Y-64021211D01*
X130297275Y-64021211D01*
X130402725Y-64021211D01*
X130402727Y-64021211D01*
X130504587Y-63993918D01*
X130595913Y-63941191D01*
X130670480Y-63866624D01*
X130723207Y-63775298D01*
X130750500Y-63673438D01*
X130750500Y-63567984D01*
X130723207Y-63466124D01*
X130670480Y-63374798D01*
X130595913Y-63300231D01*
X130504587Y-63247504D01*
X130402727Y-63220211D01*
X130297273Y-63220211D01*
X130195413Y-63247504D01*
X130195410Y-63247505D01*
X130104085Y-63300232D01*
X130029521Y-63374796D01*
X129976794Y-63466121D01*
X129976793Y-63466124D01*
X129949500Y-63567984D01*
X125000000Y-63567984D01*
X125000000Y-61957147D01*
X143674500Y-61957147D01*
X143674500Y-62042853D01*
X143691024Y-62104520D01*
X143696682Y-62125637D01*
X143696685Y-62125644D01*
X143739530Y-62199855D01*
X143739534Y-62199860D01*
X143739535Y-62199862D01*
X143800138Y-62260465D01*
X143800140Y-62260466D01*
X143800144Y-62260469D01*
X143856234Y-62292852D01*
X143874362Y-62303318D01*
X143957147Y-62325500D01*
X143957149Y-62325500D01*
X144042851Y-62325500D01*
X144042853Y-62325500D01*
X144125638Y-62303318D01*
X144199862Y-62260465D01*
X144260465Y-62199862D01*
X144303318Y-62125638D01*
X144325500Y-62042853D01*
X144325500Y-61957147D01*
X145674500Y-61957147D01*
X145674500Y-62042853D01*
X145691024Y-62104520D01*
X145696682Y-62125637D01*
X145696685Y-62125644D01*
X145739530Y-62199855D01*
X145739534Y-62199860D01*
X145739535Y-62199862D01*
X145800138Y-62260465D01*
X145800140Y-62260466D01*
X145800144Y-62260469D01*
X145856234Y-62292852D01*
X145874362Y-62303318D01*
X145957147Y-62325500D01*
X145957149Y-62325500D01*
X146042851Y-62325500D01*
X146042853Y-62325500D01*
X146125638Y-62303318D01*
X146199862Y-62260465D01*
X146260465Y-62199862D01*
X146303318Y-62125638D01*
X146325500Y-62042853D01*
X146325500Y-61957147D01*
X148174500Y-61957147D01*
X148174500Y-62042853D01*
X148191024Y-62104520D01*
X148196682Y-62125637D01*
X148196685Y-62125644D01*
X148239530Y-62199855D01*
X148239534Y-62199860D01*
X148239535Y-62199862D01*
X148300138Y-62260465D01*
X148300140Y-62260466D01*
X148300144Y-62260469D01*
X148356234Y-62292852D01*
X148374362Y-62303318D01*
X148457147Y-62325500D01*
X148457149Y-62325500D01*
X148542851Y-62325500D01*
X148542853Y-62325500D01*
X148625638Y-62303318D01*
X148699862Y-62260465D01*
X148760465Y-62199862D01*
X148803318Y-62125638D01*
X148825500Y-62042853D01*
X148825500Y-61957147D01*
X150674500Y-61957147D01*
X150674500Y-62042853D01*
X150691024Y-62104520D01*
X150696682Y-62125637D01*
X150696685Y-62125644D01*
X150739530Y-62199855D01*
X150739534Y-62199860D01*
X150739535Y-62199862D01*
X150800138Y-62260465D01*
X150800140Y-62260466D01*
X150800144Y-62260469D01*
X150856234Y-62292852D01*
X150874362Y-62303318D01*
X150957147Y-62325500D01*
X150957149Y-62325500D01*
X151042851Y-62325500D01*
X151042853Y-62325500D01*
X151125638Y-62303318D01*
X151199862Y-62260465D01*
X151260465Y-62199862D01*
X151303318Y-62125638D01*
X151325500Y-62042853D01*
X151325500Y-61957147D01*
X152674500Y-61957147D01*
X152674500Y-62042853D01*
X152691024Y-62104520D01*
X152696682Y-62125637D01*
X152696685Y-62125644D01*
X152739530Y-62199855D01*
X152739534Y-62199860D01*
X152739535Y-62199862D01*
X152800138Y-62260465D01*
X152800140Y-62260466D01*
X152800144Y-62260469D01*
X152856234Y-62292852D01*
X152874362Y-62303318D01*
X152957147Y-62325500D01*
X152957149Y-62325500D01*
X153042851Y-62325500D01*
X153042853Y-62325500D01*
X153125638Y-62303318D01*
X153199862Y-62260465D01*
X153260465Y-62199862D01*
X153303318Y-62125638D01*
X153325500Y-62042853D01*
X153325500Y-61957147D01*
X163174500Y-61957147D01*
X163174500Y-62042853D01*
X163191024Y-62104520D01*
X163196682Y-62125637D01*
X163196685Y-62125644D01*
X163239530Y-62199855D01*
X163239534Y-62199860D01*
X163239535Y-62199862D01*
X163300138Y-62260465D01*
X163300140Y-62260466D01*
X163300144Y-62260469D01*
X163356234Y-62292852D01*
X163374362Y-62303318D01*
X163457147Y-62325500D01*
X163457149Y-62325500D01*
X163542849Y-62325500D01*
X163542853Y-62325500D01*
X163559098Y-62321147D01*
X163628942Y-62322807D01*
X163686806Y-62361968D01*
X163698577Y-62378921D01*
X163739532Y-62449858D01*
X163739534Y-62449861D01*
X163739535Y-62449862D01*
X163800138Y-62510465D01*
X163800140Y-62510466D01*
X163800144Y-62510469D01*
X163874355Y-62553314D01*
X163874362Y-62553318D01*
X163957147Y-62575500D01*
X163957149Y-62575500D01*
X164042851Y-62575500D01*
X164042853Y-62575500D01*
X164125638Y-62553318D01*
X164199862Y-62510465D01*
X164260465Y-62449862D01*
X164303318Y-62375638D01*
X164325500Y-62292853D01*
X164325500Y-62207147D01*
X164303318Y-62124362D01*
X164291862Y-62104520D01*
X164260469Y-62050144D01*
X164260463Y-62050136D01*
X164199863Y-61989536D01*
X164199855Y-61989530D01*
X164125644Y-61946685D01*
X164125640Y-61946683D01*
X164125638Y-61946682D01*
X164042853Y-61924500D01*
X163957147Y-61924500D01*
X163957145Y-61924500D01*
X163940901Y-61928853D01*
X163871052Y-61927190D01*
X163813189Y-61888027D01*
X163801421Y-61871077D01*
X163760465Y-61800138D01*
X163699862Y-61739535D01*
X163699860Y-61739534D01*
X163699855Y-61739530D01*
X163625644Y-61696685D01*
X163625640Y-61696683D01*
X163625638Y-61696682D01*
X163542853Y-61674500D01*
X163457147Y-61674500D01*
X163374362Y-61696682D01*
X163374355Y-61696685D01*
X163300144Y-61739530D01*
X163300136Y-61739536D01*
X163239536Y-61800136D01*
X163239530Y-61800144D01*
X163196685Y-61874355D01*
X163196682Y-61874362D01*
X163174500Y-61957147D01*
X153325500Y-61957147D01*
X153303318Y-61874362D01*
X153261960Y-61802727D01*
X153260469Y-61800144D01*
X153260466Y-61800140D01*
X153260465Y-61800138D01*
X153199862Y-61739535D01*
X153199860Y-61739534D01*
X153199855Y-61739530D01*
X153125644Y-61696685D01*
X153125640Y-61696683D01*
X153125638Y-61696682D01*
X153042853Y-61674500D01*
X152957147Y-61674500D01*
X152874362Y-61696682D01*
X152874355Y-61696685D01*
X152800144Y-61739530D01*
X152800136Y-61739536D01*
X152739536Y-61800136D01*
X152739530Y-61800144D01*
X152696685Y-61874355D01*
X152696682Y-61874362D01*
X152674500Y-61957147D01*
X151325500Y-61957147D01*
X151303318Y-61874362D01*
X151261960Y-61802727D01*
X151260469Y-61800144D01*
X151260466Y-61800140D01*
X151260465Y-61800138D01*
X151199862Y-61739535D01*
X151199860Y-61739534D01*
X151199855Y-61739530D01*
X151125644Y-61696685D01*
X151125640Y-61696683D01*
X151125638Y-61696682D01*
X151042853Y-61674500D01*
X150957147Y-61674500D01*
X150874362Y-61696682D01*
X150874355Y-61696685D01*
X150800144Y-61739530D01*
X150800136Y-61739536D01*
X150739536Y-61800136D01*
X150739530Y-61800144D01*
X150696685Y-61874355D01*
X150696682Y-61874362D01*
X150674500Y-61957147D01*
X148825500Y-61957147D01*
X148803318Y-61874362D01*
X148761960Y-61802727D01*
X148760469Y-61800144D01*
X148760466Y-61800140D01*
X148760465Y-61800138D01*
X148699862Y-61739535D01*
X148699860Y-61739534D01*
X148699855Y-61739530D01*
X148625644Y-61696685D01*
X148625640Y-61696683D01*
X148625638Y-61696682D01*
X148542853Y-61674500D01*
X148457147Y-61674500D01*
X148374362Y-61696682D01*
X148374355Y-61696685D01*
X148300144Y-61739530D01*
X148300136Y-61739536D01*
X148239536Y-61800136D01*
X148239530Y-61800144D01*
X148196685Y-61874355D01*
X148196682Y-61874362D01*
X148174500Y-61957147D01*
X146325500Y-61957147D01*
X146303318Y-61874362D01*
X146261960Y-61802727D01*
X146260469Y-61800144D01*
X146260466Y-61800140D01*
X146260465Y-61800138D01*
X146199862Y-61739535D01*
X146199860Y-61739534D01*
X146199855Y-61739530D01*
X146125644Y-61696685D01*
X146125640Y-61696683D01*
X146125638Y-61696682D01*
X146042853Y-61674500D01*
X145957147Y-61674500D01*
X145874362Y-61696682D01*
X145874355Y-61696685D01*
X145800144Y-61739530D01*
X145800136Y-61739536D01*
X145739536Y-61800136D01*
X145739530Y-61800144D01*
X145696685Y-61874355D01*
X145696682Y-61874362D01*
X145674500Y-61957147D01*
X144325500Y-61957147D01*
X144303318Y-61874362D01*
X144261960Y-61802727D01*
X144260469Y-61800144D01*
X144260466Y-61800140D01*
X144260465Y-61800138D01*
X144199862Y-61739535D01*
X144199860Y-61739534D01*
X144199855Y-61739530D01*
X144125644Y-61696685D01*
X144125640Y-61696683D01*
X144125638Y-61696682D01*
X144042853Y-61674500D01*
X143957147Y-61674500D01*
X143874362Y-61696682D01*
X143874355Y-61696685D01*
X143800144Y-61739530D01*
X143800136Y-61739536D01*
X143739536Y-61800136D01*
X143739530Y-61800144D01*
X143696685Y-61874355D01*
X143696682Y-61874362D01*
X143674500Y-61957147D01*
X125000000Y-61957147D01*
X125000000Y-60772273D01*
X125474500Y-60772273D01*
X125474500Y-60877727D01*
X125501793Y-60979587D01*
X125554520Y-61070913D01*
X125629087Y-61145480D01*
X125720413Y-61198207D01*
X125822273Y-61225500D01*
X125822275Y-61225500D01*
X125927725Y-61225500D01*
X125927727Y-61225500D01*
X126029587Y-61198207D01*
X126120913Y-61145480D01*
X126195480Y-61070913D01*
X126248207Y-60979587D01*
X126275500Y-60877727D01*
X126275500Y-60772273D01*
X126248207Y-60670413D01*
X126195480Y-60579087D01*
X126120913Y-60504520D01*
X126029587Y-60451793D01*
X126012718Y-60447273D01*
X134349500Y-60447273D01*
X134349500Y-60552727D01*
X134376793Y-60654587D01*
X134429520Y-60745913D01*
X134504087Y-60820480D01*
X134595413Y-60873207D01*
X134697273Y-60900500D01*
X134697275Y-60900500D01*
X134802725Y-60900500D01*
X134802727Y-60900500D01*
X134904587Y-60873207D01*
X134995913Y-60820480D01*
X135070480Y-60745913D01*
X135123207Y-60654587D01*
X135150500Y-60552727D01*
X135150500Y-60447273D01*
X135123207Y-60345413D01*
X135070480Y-60254087D01*
X134995913Y-60179520D01*
X134904587Y-60126793D01*
X134802727Y-60099500D01*
X134697273Y-60099500D01*
X134595413Y-60126793D01*
X134595410Y-60126794D01*
X134504085Y-60179521D01*
X134429521Y-60254085D01*
X134376794Y-60345410D01*
X134376793Y-60345413D01*
X134349500Y-60447273D01*
X126012718Y-60447273D01*
X125927727Y-60424500D01*
X125822273Y-60424500D01*
X125720413Y-60451793D01*
X125720410Y-60451794D01*
X125629085Y-60504521D01*
X125554521Y-60579085D01*
X125501794Y-60670410D01*
X125501793Y-60670413D01*
X125474500Y-60772273D01*
X125000000Y-60772273D01*
X125000000Y-60000000D01*
X120124000Y-60000000D01*
X120056961Y-59980315D01*
X120036886Y-59957147D01*
X139674500Y-59957147D01*
X139674500Y-60042853D01*
X139689984Y-60100638D01*
X139696682Y-60125637D01*
X139696685Y-60125644D01*
X139739530Y-60199855D01*
X139739534Y-60199860D01*
X139739535Y-60199862D01*
X139800138Y-60260465D01*
X139800140Y-60260466D01*
X139800144Y-60260469D01*
X139869479Y-60300499D01*
X139874362Y-60303318D01*
X139957147Y-60325500D01*
X139957149Y-60325500D01*
X140042851Y-60325500D01*
X140042853Y-60325500D01*
X140125638Y-60303318D01*
X140199862Y-60260465D01*
X140260465Y-60199862D01*
X140303318Y-60125638D01*
X140325500Y-60042853D01*
X140325500Y-59957147D01*
X143674500Y-59957147D01*
X143674500Y-60042853D01*
X143689984Y-60100638D01*
X143696682Y-60125637D01*
X143696685Y-60125644D01*
X143739530Y-60199855D01*
X143739534Y-60199860D01*
X143739535Y-60199862D01*
X143800138Y-60260465D01*
X143800140Y-60260466D01*
X143800144Y-60260469D01*
X143869479Y-60300499D01*
X143874362Y-60303318D01*
X143957147Y-60325500D01*
X143957149Y-60325500D01*
X144042851Y-60325500D01*
X144042853Y-60325500D01*
X144125638Y-60303318D01*
X144199862Y-60260465D01*
X144260465Y-60199862D01*
X144303318Y-60125638D01*
X144325500Y-60042853D01*
X144325500Y-59957147D01*
X144318801Y-59932147D01*
X146224500Y-59932147D01*
X146224500Y-60017853D01*
X146239947Y-60075500D01*
X146246682Y-60100637D01*
X146246685Y-60100644D01*
X146289530Y-60174855D01*
X146289534Y-60174860D01*
X146289535Y-60174862D01*
X146350138Y-60235465D01*
X146350140Y-60235466D01*
X146350144Y-60235469D01*
X146393446Y-60260469D01*
X146424362Y-60278318D01*
X146507147Y-60300500D01*
X146507149Y-60300500D01*
X146592851Y-60300500D01*
X146592853Y-60300500D01*
X146675638Y-60278318D01*
X146749862Y-60235465D01*
X146810465Y-60174862D01*
X146853318Y-60100638D01*
X146875500Y-60017853D01*
X146875500Y-59932147D01*
X148199500Y-59932147D01*
X148199500Y-60017853D01*
X148214947Y-60075500D01*
X148221682Y-60100637D01*
X148221685Y-60100644D01*
X148264530Y-60174855D01*
X148264534Y-60174860D01*
X148264535Y-60174862D01*
X148325138Y-60235465D01*
X148325140Y-60235466D01*
X148325144Y-60235469D01*
X148368446Y-60260469D01*
X148399362Y-60278318D01*
X148482147Y-60300500D01*
X148482149Y-60300500D01*
X148567851Y-60300500D01*
X148567853Y-60300500D01*
X148650638Y-60278318D01*
X148724862Y-60235465D01*
X148785465Y-60174862D01*
X148828318Y-60100638D01*
X148850500Y-60017853D01*
X148850500Y-59932147D01*
X150174500Y-59932147D01*
X150174500Y-60017853D01*
X150189947Y-60075500D01*
X150196682Y-60100637D01*
X150196685Y-60100644D01*
X150239530Y-60174855D01*
X150239534Y-60174860D01*
X150239535Y-60174862D01*
X150300138Y-60235465D01*
X150300140Y-60235466D01*
X150300144Y-60235469D01*
X150343446Y-60260469D01*
X150374362Y-60278318D01*
X150457147Y-60300500D01*
X150457149Y-60300500D01*
X150542851Y-60300500D01*
X150542853Y-60300500D01*
X150625638Y-60278318D01*
X150699862Y-60235465D01*
X150760465Y-60174862D01*
X150803318Y-60100638D01*
X150825500Y-60017853D01*
X150825500Y-59957147D01*
X152674500Y-59957147D01*
X152674500Y-60042853D01*
X152689984Y-60100638D01*
X152696682Y-60125637D01*
X152696685Y-60125644D01*
X152739530Y-60199855D01*
X152739534Y-60199860D01*
X152739535Y-60199862D01*
X152800138Y-60260465D01*
X152800140Y-60260466D01*
X152800144Y-60260469D01*
X152869479Y-60300499D01*
X152874362Y-60303318D01*
X152957147Y-60325500D01*
X152957149Y-60325500D01*
X153042851Y-60325500D01*
X153042853Y-60325500D01*
X153125638Y-60303318D01*
X153199862Y-60260465D01*
X153260465Y-60199862D01*
X153303318Y-60125638D01*
X153325500Y-60042853D01*
X153325500Y-59957147D01*
X153303318Y-59874362D01*
X153303314Y-59874355D01*
X153260469Y-59800144D01*
X153260463Y-59800136D01*
X153199863Y-59739536D01*
X153199855Y-59739530D01*
X153125644Y-59696685D01*
X153125640Y-59696683D01*
X153125638Y-59696682D01*
X153042853Y-59674500D01*
X152957147Y-59674500D01*
X152874362Y-59696682D01*
X152874355Y-59696685D01*
X152800144Y-59739530D01*
X152800136Y-59739536D01*
X152739536Y-59800136D01*
X152739530Y-59800144D01*
X152696685Y-59874355D01*
X152696683Y-59874360D01*
X152696682Y-59874362D01*
X152674500Y-59957147D01*
X150825500Y-59957147D01*
X150825500Y-59932147D01*
X150803318Y-59849362D01*
X150803314Y-59849355D01*
X150760469Y-59775144D01*
X150760463Y-59775136D01*
X150699863Y-59714536D01*
X150699855Y-59714530D01*
X150625644Y-59671685D01*
X150625640Y-59671683D01*
X150625638Y-59671682D01*
X150542853Y-59649500D01*
X150457147Y-59649500D01*
X150374362Y-59671682D01*
X150374355Y-59671685D01*
X150300144Y-59714530D01*
X150300136Y-59714536D01*
X150239536Y-59775136D01*
X150239530Y-59775144D01*
X150196685Y-59849355D01*
X150196682Y-59849362D01*
X150174500Y-59932147D01*
X148850500Y-59932147D01*
X148828318Y-59849362D01*
X148828314Y-59849355D01*
X148785469Y-59775144D01*
X148785463Y-59775136D01*
X148724863Y-59714536D01*
X148724855Y-59714530D01*
X148650644Y-59671685D01*
X148650640Y-59671683D01*
X148650638Y-59671682D01*
X148567853Y-59649500D01*
X148482147Y-59649500D01*
X148399362Y-59671682D01*
X148399355Y-59671685D01*
X148325144Y-59714530D01*
X148325136Y-59714536D01*
X148264536Y-59775136D01*
X148264530Y-59775144D01*
X148221685Y-59849355D01*
X148221682Y-59849362D01*
X148199500Y-59932147D01*
X146875500Y-59932147D01*
X146853318Y-59849362D01*
X146853314Y-59849355D01*
X146810469Y-59775144D01*
X146810463Y-59775136D01*
X146749863Y-59714536D01*
X146749855Y-59714530D01*
X146675644Y-59671685D01*
X146675640Y-59671683D01*
X146675638Y-59671682D01*
X146592853Y-59649500D01*
X146507147Y-59649500D01*
X146424362Y-59671682D01*
X146424355Y-59671685D01*
X146350144Y-59714530D01*
X146350136Y-59714536D01*
X146289536Y-59775136D01*
X146289530Y-59775144D01*
X146246685Y-59849355D01*
X146246682Y-59849362D01*
X146224500Y-59932147D01*
X144318801Y-59932147D01*
X144303318Y-59874362D01*
X144303314Y-59874355D01*
X144260469Y-59800144D01*
X144260463Y-59800136D01*
X144199863Y-59739536D01*
X144199855Y-59739530D01*
X144125644Y-59696685D01*
X144125640Y-59696683D01*
X144125638Y-59696682D01*
X144042853Y-59674500D01*
X143957147Y-59674500D01*
X143874362Y-59696682D01*
X143874355Y-59696685D01*
X143800144Y-59739530D01*
X143800136Y-59739536D01*
X143739536Y-59800136D01*
X143739530Y-59800144D01*
X143696685Y-59874355D01*
X143696683Y-59874360D01*
X143696682Y-59874362D01*
X143674500Y-59957147D01*
X140325500Y-59957147D01*
X140303318Y-59874362D01*
X140303314Y-59874355D01*
X140260469Y-59800144D01*
X140260463Y-59800136D01*
X140199863Y-59739536D01*
X140199855Y-59739530D01*
X140125644Y-59696685D01*
X140125640Y-59696683D01*
X140125638Y-59696682D01*
X140042853Y-59674500D01*
X139957147Y-59674500D01*
X139874362Y-59696682D01*
X139874355Y-59696685D01*
X139800144Y-59739530D01*
X139800136Y-59739536D01*
X139739536Y-59800136D01*
X139739530Y-59800144D01*
X139696685Y-59874355D01*
X139696683Y-59874360D01*
X139696682Y-59874362D01*
X139674500Y-59957147D01*
X120036886Y-59957147D01*
X120011206Y-59927511D01*
X120000000Y-59876000D01*
X120000000Y-58124000D01*
X120019685Y-58056961D01*
X120059717Y-58022273D01*
X129949500Y-58022273D01*
X129949500Y-58127727D01*
X129968829Y-58199862D01*
X129976793Y-58229586D01*
X129976794Y-58229589D01*
X129982536Y-58239535D01*
X130029520Y-58320913D01*
X130104087Y-58395480D01*
X130195413Y-58448207D01*
X130297273Y-58475500D01*
X130297275Y-58475500D01*
X130402725Y-58475500D01*
X130402727Y-58475500D01*
X130471222Y-58457147D01*
X137674500Y-58457147D01*
X137674500Y-58542852D01*
X137696682Y-58625637D01*
X137696685Y-58625644D01*
X137739530Y-58699855D01*
X137739534Y-58699860D01*
X137739535Y-58699862D01*
X137800138Y-58760465D01*
X137800140Y-58760466D01*
X137800144Y-58760469D01*
X137874355Y-58803314D01*
X137874362Y-58803318D01*
X137957147Y-58825500D01*
X137957149Y-58825500D01*
X138042851Y-58825500D01*
X138042853Y-58825500D01*
X138125638Y-58803318D01*
X138199862Y-58760465D01*
X138260465Y-58699862D01*
X138303318Y-58625638D01*
X138325500Y-58542853D01*
X138325500Y-58457147D01*
X138303318Y-58374362D01*
X138272460Y-58320914D01*
X138260469Y-58300144D01*
X138260463Y-58300136D01*
X138199863Y-58239536D01*
X138199855Y-58239530D01*
X138125644Y-58196685D01*
X138125640Y-58196683D01*
X138125638Y-58196682D01*
X138042853Y-58174500D01*
X137957147Y-58174500D01*
X137874362Y-58196682D01*
X137874355Y-58196685D01*
X137800144Y-58239530D01*
X137800136Y-58239536D01*
X137739536Y-58300136D01*
X137739530Y-58300144D01*
X137696685Y-58374355D01*
X137696682Y-58374362D01*
X137674500Y-58457147D01*
X130471222Y-58457147D01*
X130504587Y-58448207D01*
X130595913Y-58395480D01*
X130670480Y-58320913D01*
X130723207Y-58229587D01*
X130750500Y-58127727D01*
X130750500Y-58022273D01*
X130733050Y-57957147D01*
X143674500Y-57957147D01*
X143674500Y-58042852D01*
X143696682Y-58125637D01*
X143696685Y-58125644D01*
X143739530Y-58199855D01*
X143739534Y-58199860D01*
X143739535Y-58199862D01*
X143800138Y-58260465D01*
X143800140Y-58260466D01*
X143800144Y-58260469D01*
X143868854Y-58300138D01*
X143874362Y-58303318D01*
X143957147Y-58325500D01*
X143957149Y-58325500D01*
X144042851Y-58325500D01*
X144042853Y-58325500D01*
X144125638Y-58303318D01*
X144199862Y-58260465D01*
X144260465Y-58199862D01*
X144303318Y-58125638D01*
X144325500Y-58042853D01*
X144325500Y-57957147D01*
X146224500Y-57957147D01*
X146224500Y-58042852D01*
X146246682Y-58125637D01*
X146246685Y-58125644D01*
X146289530Y-58199855D01*
X146289534Y-58199860D01*
X146289535Y-58199862D01*
X146350138Y-58260465D01*
X146350140Y-58260466D01*
X146350144Y-58260469D01*
X146418854Y-58300138D01*
X146424362Y-58303318D01*
X146507147Y-58325500D01*
X146507149Y-58325500D01*
X146592851Y-58325500D01*
X146592853Y-58325500D01*
X146675638Y-58303318D01*
X146749862Y-58260465D01*
X146810465Y-58199862D01*
X146853318Y-58125638D01*
X146875500Y-58042853D01*
X146875500Y-57957147D01*
X148199500Y-57957147D01*
X148199500Y-58042852D01*
X148221682Y-58125637D01*
X148221685Y-58125644D01*
X148264530Y-58199855D01*
X148264534Y-58199860D01*
X148264535Y-58199862D01*
X148325138Y-58260465D01*
X148325140Y-58260466D01*
X148325144Y-58260469D01*
X148393854Y-58300138D01*
X148399362Y-58303318D01*
X148482147Y-58325500D01*
X148482149Y-58325500D01*
X148567851Y-58325500D01*
X148567853Y-58325500D01*
X148650638Y-58303318D01*
X148724862Y-58260465D01*
X148785465Y-58199862D01*
X148828318Y-58125638D01*
X148850500Y-58042853D01*
X148850500Y-57957147D01*
X150174500Y-57957147D01*
X150174500Y-58042852D01*
X150196682Y-58125637D01*
X150196685Y-58125644D01*
X150239530Y-58199855D01*
X150239534Y-58199860D01*
X150239535Y-58199862D01*
X150300138Y-58260465D01*
X150300140Y-58260466D01*
X150300144Y-58260469D01*
X150368854Y-58300138D01*
X150374362Y-58303318D01*
X150457147Y-58325500D01*
X150457149Y-58325500D01*
X150542851Y-58325500D01*
X150542853Y-58325500D01*
X150625638Y-58303318D01*
X150699862Y-58260465D01*
X150760465Y-58199862D01*
X150803318Y-58125638D01*
X150825500Y-58042853D01*
X150825500Y-57957147D01*
X152674500Y-57957147D01*
X152674500Y-58042852D01*
X152696682Y-58125637D01*
X152696685Y-58125644D01*
X152739530Y-58199855D01*
X152739534Y-58199860D01*
X152739535Y-58199862D01*
X152800138Y-58260465D01*
X152800140Y-58260466D01*
X152800144Y-58260469D01*
X152868854Y-58300138D01*
X152874362Y-58303318D01*
X152957147Y-58325500D01*
X152957149Y-58325500D01*
X153042851Y-58325500D01*
X153042853Y-58325500D01*
X153125638Y-58303318D01*
X153199862Y-58260465D01*
X153260465Y-58199862D01*
X153303318Y-58125638D01*
X153325500Y-58042853D01*
X153325500Y-57957147D01*
X153303318Y-57874362D01*
X153277179Y-57829087D01*
X153260469Y-57800144D01*
X153260463Y-57800136D01*
X153199863Y-57739536D01*
X153199855Y-57739530D01*
X153125644Y-57696685D01*
X153125640Y-57696683D01*
X153125638Y-57696682D01*
X153042853Y-57674500D01*
X152957147Y-57674500D01*
X152874362Y-57696682D01*
X152874355Y-57696685D01*
X152800144Y-57739530D01*
X152800136Y-57739536D01*
X152739536Y-57800136D01*
X152739530Y-57800144D01*
X152696685Y-57874355D01*
X152696682Y-57874362D01*
X152674500Y-57957147D01*
X150825500Y-57957147D01*
X150803318Y-57874362D01*
X150777179Y-57829087D01*
X150760469Y-57800144D01*
X150760463Y-57800136D01*
X150699863Y-57739536D01*
X150699855Y-57739530D01*
X150625644Y-57696685D01*
X150625640Y-57696683D01*
X150625638Y-57696682D01*
X150542853Y-57674500D01*
X150457147Y-57674500D01*
X150374362Y-57696682D01*
X150374355Y-57696685D01*
X150300144Y-57739530D01*
X150300136Y-57739536D01*
X150239536Y-57800136D01*
X150239530Y-57800144D01*
X150196685Y-57874355D01*
X150196682Y-57874362D01*
X150174500Y-57957147D01*
X148850500Y-57957147D01*
X148828318Y-57874362D01*
X148802179Y-57829087D01*
X148785469Y-57800144D01*
X148785463Y-57800136D01*
X148724863Y-57739536D01*
X148724855Y-57739530D01*
X148650644Y-57696685D01*
X148650640Y-57696683D01*
X148650638Y-57696682D01*
X148567853Y-57674500D01*
X148482147Y-57674500D01*
X148399362Y-57696682D01*
X148399355Y-57696685D01*
X148325144Y-57739530D01*
X148325136Y-57739536D01*
X148264536Y-57800136D01*
X148264530Y-57800144D01*
X148221685Y-57874355D01*
X148221682Y-57874362D01*
X148199500Y-57957147D01*
X146875500Y-57957147D01*
X146853318Y-57874362D01*
X146827179Y-57829087D01*
X146810469Y-57800144D01*
X146810463Y-57800136D01*
X146749863Y-57739536D01*
X146749855Y-57739530D01*
X146675644Y-57696685D01*
X146675640Y-57696683D01*
X146675638Y-57696682D01*
X146592853Y-57674500D01*
X146507147Y-57674500D01*
X146424362Y-57696682D01*
X146424355Y-57696685D01*
X146350144Y-57739530D01*
X146350136Y-57739536D01*
X146289536Y-57800136D01*
X146289530Y-57800144D01*
X146246685Y-57874355D01*
X146246682Y-57874362D01*
X146224500Y-57957147D01*
X144325500Y-57957147D01*
X144303318Y-57874362D01*
X144277179Y-57829087D01*
X144260469Y-57800144D01*
X144260463Y-57800136D01*
X144199863Y-57739536D01*
X144199855Y-57739530D01*
X144125644Y-57696685D01*
X144125640Y-57696683D01*
X144125638Y-57696682D01*
X144042853Y-57674500D01*
X143957147Y-57674500D01*
X143874362Y-57696682D01*
X143874355Y-57696685D01*
X143800144Y-57739530D01*
X143800136Y-57739536D01*
X143739536Y-57800136D01*
X143739530Y-57800144D01*
X143696685Y-57874355D01*
X143696682Y-57874362D01*
X143674500Y-57957147D01*
X130733050Y-57957147D01*
X130723207Y-57920413D01*
X130670480Y-57829087D01*
X130595913Y-57754520D01*
X130504587Y-57701793D01*
X130402727Y-57674500D01*
X130297273Y-57674500D01*
X130195413Y-57701793D01*
X130195410Y-57701794D01*
X130104085Y-57754521D01*
X130029521Y-57829085D01*
X129976794Y-57920410D01*
X129976793Y-57920413D01*
X129949500Y-58022273D01*
X120059717Y-58022273D01*
X120072489Y-58011206D01*
X120124000Y-58000000D01*
X127000000Y-58000000D01*
X127000000Y-57457147D01*
X161674500Y-57457147D01*
X161674500Y-57542852D01*
X161696682Y-57625637D01*
X161696685Y-57625644D01*
X161739530Y-57699855D01*
X161739534Y-57699860D01*
X161739535Y-57699862D01*
X161800138Y-57760465D01*
X161800140Y-57760466D01*
X161800144Y-57760469D01*
X161868854Y-57800138D01*
X161874362Y-57803318D01*
X161957147Y-57825500D01*
X161957149Y-57825500D01*
X162042851Y-57825500D01*
X162042853Y-57825500D01*
X162125638Y-57803318D01*
X162199862Y-57760465D01*
X162260465Y-57699862D01*
X162303318Y-57625638D01*
X162325500Y-57542853D01*
X162325500Y-57457147D01*
X162321147Y-57440901D01*
X162322808Y-57371056D01*
X162361969Y-57313192D01*
X162378913Y-57301426D01*
X162449862Y-57260465D01*
X162510465Y-57199862D01*
X162553318Y-57125638D01*
X162575500Y-57042853D01*
X162575500Y-56957147D01*
X162553318Y-56874362D01*
X162511206Y-56801421D01*
X162510469Y-56800144D01*
X162510463Y-56800136D01*
X162449863Y-56739536D01*
X162449855Y-56739530D01*
X162375644Y-56696685D01*
X162375640Y-56696683D01*
X162375638Y-56696682D01*
X162292853Y-56674500D01*
X162207147Y-56674500D01*
X162124362Y-56696682D01*
X162124355Y-56696685D01*
X162050144Y-56739530D01*
X162050136Y-56739536D01*
X161989536Y-56800136D01*
X161989530Y-56800144D01*
X161946685Y-56874355D01*
X161946682Y-56874362D01*
X161924500Y-56957147D01*
X161924500Y-57042853D01*
X161928852Y-57059098D01*
X161927190Y-57128946D01*
X161888028Y-57186809D01*
X161871078Y-57198577D01*
X161800141Y-57239532D01*
X161800136Y-57239536D01*
X161739536Y-57300136D01*
X161739530Y-57300144D01*
X161696685Y-57374355D01*
X161696682Y-57374362D01*
X161674500Y-57457147D01*
X127000000Y-57457147D01*
X127000000Y-56703856D01*
X136149500Y-56703856D01*
X136149500Y-56796144D01*
X136170744Y-56875429D01*
X136173387Y-56885290D01*
X136173388Y-56885293D01*
X136219526Y-56965205D01*
X136219529Y-56965209D01*
X136219531Y-56965212D01*
X136284788Y-57030469D01*
X136284791Y-57030470D01*
X136284794Y-57030473D01*
X136364706Y-57076611D01*
X136364707Y-57076611D01*
X136364712Y-57076614D01*
X136453856Y-57100500D01*
X136453858Y-57100500D01*
X136546142Y-57100500D01*
X136546144Y-57100500D01*
X136635288Y-57076614D01*
X136715212Y-57030469D01*
X136780469Y-56965212D01*
X136785125Y-56957147D01*
X158924500Y-56957147D01*
X158924500Y-57042853D01*
X158939947Y-57100500D01*
X158946682Y-57125637D01*
X158946685Y-57125644D01*
X158989530Y-57199855D01*
X158989534Y-57199860D01*
X158989535Y-57199862D01*
X159050138Y-57260465D01*
X159050140Y-57260466D01*
X159050144Y-57260469D01*
X159118854Y-57300138D01*
X159124362Y-57303318D01*
X159207147Y-57325500D01*
X159207149Y-57325500D01*
X159292851Y-57325500D01*
X159292853Y-57325500D01*
X159375638Y-57303318D01*
X159449862Y-57260465D01*
X159510465Y-57199862D01*
X159553318Y-57125638D01*
X159575500Y-57042853D01*
X159575500Y-56957147D01*
X159571147Y-56940901D01*
X159572808Y-56871056D01*
X159611969Y-56813192D01*
X159628913Y-56801426D01*
X159699862Y-56760465D01*
X159760465Y-56699862D01*
X159803318Y-56625638D01*
X159825500Y-56542853D01*
X159825500Y-56457147D01*
X159803318Y-56374362D01*
X159803314Y-56374355D01*
X159760469Y-56300144D01*
X159760463Y-56300136D01*
X159699863Y-56239536D01*
X159699855Y-56239530D01*
X159625644Y-56196685D01*
X159625640Y-56196683D01*
X159625638Y-56196682D01*
X159542853Y-56174500D01*
X159457147Y-56174500D01*
X159374362Y-56196682D01*
X159374355Y-56196685D01*
X159300144Y-56239530D01*
X159300136Y-56239536D01*
X159239536Y-56300136D01*
X159239530Y-56300144D01*
X159196685Y-56374355D01*
X159196682Y-56374362D01*
X159174500Y-56457147D01*
X159174500Y-56542853D01*
X159178852Y-56559098D01*
X159177190Y-56628946D01*
X159138028Y-56686809D01*
X159121078Y-56698577D01*
X159050141Y-56739532D01*
X159050136Y-56739536D01*
X158989536Y-56800136D01*
X158989530Y-56800144D01*
X158946685Y-56874355D01*
X158946682Y-56874362D01*
X158924500Y-56957147D01*
X136785125Y-56957147D01*
X136826614Y-56885288D01*
X136850500Y-56796144D01*
X136850500Y-56703856D01*
X136826614Y-56614712D01*
X136794503Y-56559096D01*
X136780472Y-56534793D01*
X136780471Y-56534792D01*
X136780469Y-56534788D01*
X136715212Y-56469531D01*
X136715209Y-56469529D01*
X136715205Y-56469526D01*
X136635293Y-56423388D01*
X136635290Y-56423387D01*
X136635289Y-56423386D01*
X136635288Y-56423386D01*
X136546144Y-56399500D01*
X136453856Y-56399500D01*
X136364712Y-56423386D01*
X136364711Y-56423386D01*
X136364709Y-56423387D01*
X136364706Y-56423388D01*
X136284794Y-56469526D01*
X136284785Y-56469533D01*
X136219533Y-56534785D01*
X136219528Y-56534793D01*
X136173388Y-56614706D01*
X136173387Y-56614709D01*
X136173386Y-56614711D01*
X136173386Y-56614712D01*
X136149500Y-56703856D01*
X127000000Y-56703856D01*
X127000000Y-54124000D01*
X127019685Y-54056961D01*
X127072489Y-54011206D01*
X127124000Y-54000000D01*
X138975456Y-54000000D01*
X139042495Y-54019685D01*
G37*
%TD.AperFunction*%
%TD*%
M02*
