%TF.GenerationSoftware,KiCad,Pcbnew,10.0.0*%
%TF.CreationDate,2026-04-01T20:06:14+02:00*%
%TF.ProjectId,esp_home_sensor,6573705f-686f-46d6-955f-73656e736f72,rev?*%
%TF.SameCoordinates,Original*%
%TF.FileFunction,Soldermask,Top*%
%TF.FilePolarity,Negative*%
%FSLAX46Y46*%
G04 Gerber Fmt 4.6, Leading zero omitted, Abs format (unit mm)*
G04 Created by KiCad (PCBNEW 10.0.0) date 2026-04-01 20:06:14*
%MOMM*%
%LPD*%
G01*
G04 APERTURE LIST*
G04 Aperture macros list*
%AMRoundRect*
0 Rectangle with rounded corners*
0 $1 Rounding radius*
0 $2 $3 $4 $5 $6 $7 $8 $9 X,Y pos of 4 corners*
0 Add a 4 corners polygon primitive as box body*
4,1,4,$2,$3,$4,$5,$6,$7,$8,$9,$2,$3,0*
0 Add four circle primitives for the rounded corners*
1,1,$1+$1,$2,$3*
1,1,$1+$1,$4,$5*
1,1,$1+$1,$6,$7*
1,1,$1+$1,$8,$9*
0 Add four rect primitives between the rounded corners*
20,1,$1+$1,$2,$3,$4,$5,0*
20,1,$1+$1,$4,$5,$6,$7,0*
20,1,$1+$1,$6,$7,$8,$9,0*
20,1,$1+$1,$8,$9,$2,$3,0*%
%AMFreePoly0*
4,1,14,0.760355,0.760355,0.775000,0.725000,0.775000,-0.725000,0.760355,-0.760355,0.725000,-0.775000,-0.725000,-0.775000,-0.760355,-0.760355,-0.775000,-0.725000,-0.775000,0.130500,-0.760355,0.165855,-0.165855,0.760355,-0.130500,0.775000,0.725000,0.775000,0.760355,0.760355,0.760355,0.760355,$1*%
G04 Aperture macros list end*
%ADD10C,0.000000*%
%ADD11RoundRect,0.050000X0.750000X-0.500000X0.750000X0.500000X-0.750000X0.500000X-0.750000X-0.500000X0*%
%ADD12RoundRect,0.243750X-0.243750X-0.406250X0.243750X-0.406250X0.243750X0.406250X-0.243750X0.406250X0*%
%ADD13RoundRect,0.160000X-0.210000X0.160000X-0.210000X-0.160000X0.210000X-0.160000X0.210000X0.160000X0*%
%ADD14C,1.100000*%
%ADD15RoundRect,0.050000X0.300000X-0.100000X0.300000X0.100000X-0.300000X0.100000X-0.300000X-0.100000X0*%
%ADD16RoundRect,0.050000X-0.475000X-0.800000X0.475000X-0.800000X0.475000X0.800000X-0.475000X0.800000X0*%
%ADD17C,2.600000*%
%ADD18RoundRect,0.165000X0.165000X0.195000X-0.165000X0.195000X-0.165000X-0.195000X0.165000X-0.195000X0*%
%ADD19RoundRect,0.175000X0.537500X0.175000X-0.537500X0.175000X-0.537500X-0.175000X0.537500X-0.175000X0*%
%ADD20RoundRect,0.160000X-0.160000X-0.210000X0.160000X-0.210000X0.160000X0.210000X-0.160000X0.210000X0*%
%ADD21RoundRect,0.175000X0.650000X-0.175000X0.650000X0.175000X-0.650000X0.175000X-0.650000X-0.175000X0*%
%ADD22RoundRect,0.270833X0.679167X-0.379167X0.679167X0.379167X-0.679167X0.379167X-0.679167X-0.379167X0*%
%ADD23RoundRect,0.175000X-0.650000X0.175000X-0.650000X-0.175000X0.650000X-0.175000X0.650000X0.175000X0*%
%ADD24RoundRect,0.270833X-0.679167X0.379167X-0.679167X-0.379167X0.679167X-0.379167X0.679167X0.379167X0*%
%ADD25RoundRect,0.160000X0.160000X0.210000X-0.160000X0.210000X-0.160000X-0.210000X0.160000X-0.210000X0*%
%ADD26RoundRect,0.050000X-0.400000X-0.200000X0.400000X-0.200000X0.400000X0.200000X-0.400000X0.200000X0*%
%ADD27RoundRect,0.050000X0.200000X-0.400000X0.200000X0.400000X-0.200000X0.400000X-0.200000X-0.400000X0*%
%ADD28FreePoly0,0.000000*%
%ADD29RoundRect,0.050000X-0.725000X-0.725000X0.725000X-0.725000X0.725000X0.725000X-0.725000X0.725000X0*%
%ADD30RoundRect,0.050000X-0.350000X-0.350000X0.350000X-0.350000X0.350000X0.350000X-0.350000X0.350000X0*%
%ADD31RoundRect,0.172500X-0.172500X-0.197500X0.172500X-0.197500X0.172500X0.197500X-0.172500X0.197500X0*%
%ADD32RoundRect,0.160000X0.210000X-0.160000X0.210000X0.160000X-0.210000X0.160000X-0.210000X-0.160000X0*%
%ADD33RoundRect,0.050000X0.450000X0.500000X-0.450000X0.500000X-0.450000X-0.500000X0.450000X-0.500000X0*%
%ADD34RoundRect,0.165000X0.195000X-0.165000X0.195000X0.165000X-0.195000X0.165000X-0.195000X-0.165000X0*%
%ADD35RoundRect,0.165000X-0.165000X-0.195000X0.165000X-0.195000X0.165000X0.195000X-0.165000X0.195000X0*%
%ADD36RoundRect,0.050000X0.137324X0.300080X-0.137324X0.300080X-0.137324X-0.300080X0.137324X-0.300080X0*%
%ADD37RoundRect,0.050000X0.125000X0.300000X-0.125000X0.300000X-0.125000X-0.300000X0.125000X-0.300000X0*%
%ADD38RoundRect,0.050000X0.137500X0.300000X-0.137500X0.300000X-0.137500X-0.300000X0.137500X-0.300000X0*%
%ADD39RoundRect,0.050000X-0.300000X0.175000X-0.300000X-0.175000X0.300000X-0.175000X0.300000X0.175000X0*%
%ADD40RoundRect,0.050000X0.135176X0.300877X-0.135176X0.300877X-0.135176X-0.300877X0.135176X-0.300877X0*%
%ADD41RoundRect,0.050000X0.135568X0.295223X-0.135568X0.295223X-0.135568X-0.295223X0.135568X-0.295223X0*%
%ADD42RoundRect,0.172500X0.172500X0.197500X-0.172500X0.197500X-0.172500X-0.197500X0.172500X-0.197500X0*%
%ADD43RoundRect,0.165000X-0.195000X0.165000X-0.195000X-0.165000X0.195000X-0.165000X0.195000X0.165000X0*%
%ADD44RoundRect,0.050000X-0.750000X0.500000X-0.750000X-0.500000X0.750000X-0.500000X0.750000X0.500000X0*%
%ADD45RoundRect,0.150000X-0.162500X0.150000X-0.162500X-0.150000X0.162500X-0.150000X0.162500X0.150000X0*%
%ADD46RoundRect,0.050000X0.200000X-0.275000X0.200000X0.275000X-0.200000X0.275000X-0.200000X-0.275000X0*%
%ADD47RoundRect,0.050000X-0.150000X-0.300000X0.150000X-0.300000X0.150000X0.300000X-0.150000X0.300000X0*%
%ADD48RoundRect,0.050000X-0.312500X0.450000X-0.312500X-0.450000X0.312500X-0.450000X0.312500X0.450000X0*%
%ADD49C,0.350000*%
%ADD50C,2.300000*%
%ADD51C,0.750000*%
%ADD52RoundRect,0.175000X0.175000X0.450000X-0.175000X0.450000X-0.175000X-0.450000X0.175000X-0.450000X0*%
%ADD53RoundRect,0.100000X0.100000X0.525000X-0.100000X0.525000X-0.100000X-0.525000X0.100000X-0.525000X0*%
%ADD54RoundRect,0.262500X0.877500X0.787500X-0.877500X0.787500X-0.877500X-0.787500X0.877500X-0.787500X0*%
%ADD55RoundRect,0.172500X-0.197500X0.172500X-0.197500X-0.172500X0.197500X-0.172500X0.197500X0.172500X0*%
%ADD56RoundRect,0.050000X0.500000X0.750000X-0.500000X0.750000X-0.500000X-0.750000X0.500000X-0.750000X0*%
%ADD57C,1.900000*%
G04 APERTURE END LIST*
%TO.C,JP5*%
G36*
X117750000Y-62450000D02*
G01*
X119250000Y-62450000D01*
X119250000Y-64050000D01*
X117750000Y-64050000D01*
X117750000Y-62450000D01*
G37*
%TO.C,JP3*%
G36*
X170250000Y-67350000D02*
G01*
X171750000Y-67350000D01*
X171750000Y-67650000D01*
X170250000Y-67650000D01*
X170250000Y-67350000D01*
G37*
%TO.C,JP2*%
G36*
X188750000Y-61350000D02*
G01*
X190250000Y-61350000D01*
X190250000Y-61650000D01*
X188750000Y-61650000D01*
X188750000Y-61350000D01*
G37*
D10*
%TO.C,G\u002A\u002A\u002A*%
G36*
X133875254Y-54161031D02*
G01*
X133895058Y-54174708D01*
X133922793Y-54194723D01*
X133948307Y-54213621D01*
X134081322Y-54324287D01*
X134203958Y-54449441D01*
X134316116Y-54588986D01*
X134350475Y-54637682D01*
X134384653Y-54687941D01*
X134409954Y-54726232D01*
X134427668Y-54755256D01*
X134439078Y-54777711D01*
X134445492Y-54796302D01*
X134448189Y-54813722D01*
X134448466Y-54832680D01*
X134448164Y-54841940D01*
X134444955Y-54878467D01*
X134438450Y-54920231D01*
X134429563Y-54963664D01*
X134419234Y-55005189D01*
X134408374Y-55041231D01*
X134397909Y-55068203D01*
X134388758Y-55082544D01*
X134385657Y-55083939D01*
X134376170Y-55077988D01*
X134359772Y-55062989D01*
X134351937Y-55054932D01*
X134328905Y-55028784D01*
X134297712Y-54990978D01*
X134260609Y-54944378D01*
X134219821Y-54891829D01*
X134177588Y-54836213D01*
X134136143Y-54780375D01*
X134119963Y-54758177D01*
X134085027Y-54710594D01*
X134045349Y-54657579D01*
X134006298Y-54606252D01*
X133978756Y-54570749D01*
X133926762Y-54503113D01*
X133886253Y-54447039D01*
X133856392Y-54401153D01*
X133836352Y-54364096D01*
X133825314Y-54334496D01*
X133822366Y-54313643D01*
X133824596Y-54291880D01*
X133830419Y-54262291D01*
X133838550Y-54229497D01*
X133847696Y-54198104D01*
X133856565Y-54172697D01*
X133863872Y-54157906D01*
X133866520Y-54155930D01*
X133875254Y-54161031D01*
G37*
G36*
X133127291Y-53960008D02*
G01*
X133205200Y-53962082D01*
X133272721Y-53965893D01*
X133333552Y-53971712D01*
X133391400Y-53979847D01*
X133449985Y-53990569D01*
X133456443Y-53991879D01*
X133502611Y-54002427D01*
X133550263Y-54015213D01*
X133596075Y-54029101D01*
X133636715Y-54042978D01*
X133668836Y-54055739D01*
X133689111Y-54066265D01*
X133694378Y-54071433D01*
X133694844Y-54086579D01*
X133691258Y-54113970D01*
X133684654Y-54148733D01*
X133676058Y-54185994D01*
X133666506Y-54220891D01*
X133657047Y-54248546D01*
X133656388Y-54250145D01*
X133650027Y-54262313D01*
X133640483Y-54273908D01*
X133626074Y-54285792D01*
X133605126Y-54298828D01*
X133575956Y-54313882D01*
X133536902Y-54331800D01*
X133486269Y-54353470D01*
X133422391Y-54379738D01*
X133343591Y-54411467D01*
X133339655Y-54413041D01*
X133278381Y-54437623D01*
X133217825Y-54462049D01*
X133161539Y-54484868D01*
X133113079Y-54504638D01*
X133076017Y-54519918D01*
X133063742Y-54525054D01*
X133004138Y-54546276D01*
X132950212Y-54555938D01*
X132894912Y-54554989D01*
X132867392Y-54551298D01*
X132765493Y-54533742D01*
X132665163Y-54514654D01*
X132568383Y-54494520D01*
X132477167Y-54473840D01*
X132393522Y-54453112D01*
X132319448Y-54432844D01*
X132256943Y-54413517D01*
X132208035Y-54395641D01*
X132174699Y-54379706D01*
X132173609Y-54379049D01*
X132157108Y-54365459D01*
X132135548Y-54343109D01*
X132112220Y-54316056D01*
X132090428Y-54288360D01*
X132073490Y-54264094D01*
X132064693Y-54247322D01*
X132064134Y-54244336D01*
X132071843Y-54232911D01*
X132093247Y-54215640D01*
X132125740Y-54193963D01*
X132166734Y-54169342D01*
X132213626Y-54143224D01*
X132263822Y-54117059D01*
X132314723Y-54092303D01*
X132363734Y-54070417D01*
X132403285Y-54054649D01*
X132487742Y-54025702D01*
X132569654Y-54002747D01*
X132652509Y-53985265D01*
X132739791Y-53972709D01*
X132834982Y-53964579D01*
X132941564Y-53960332D01*
X133035275Y-53959385D01*
X133127291Y-53960008D01*
G37*
G36*
X133688039Y-54463051D02*
G01*
X133702859Y-54472412D01*
X133722888Y-54491245D01*
X133736606Y-54505289D01*
X133758056Y-54529496D01*
X133786591Y-54564627D01*
X133819238Y-54606874D01*
X133853016Y-54652419D01*
X133871514Y-54678211D01*
X133904273Y-54724460D01*
X133944246Y-54780718D01*
X133988220Y-54842505D01*
X134033001Y-54905324D01*
X134075396Y-54964684D01*
X134082234Y-54974247D01*
X134138941Y-55054551D01*
X134184911Y-55122002D01*
X134220753Y-55177558D01*
X134247049Y-55222174D01*
X134264394Y-55256797D01*
X134273163Y-55281435D01*
X134271945Y-55309258D01*
X134258238Y-55345771D01*
X134233722Y-55388863D01*
X134200121Y-55436437D01*
X134159129Y-55486363D01*
X134112446Y-55536536D01*
X134061778Y-55584833D01*
X134008833Y-55629143D01*
X133970289Y-55657375D01*
X133915341Y-55689697D01*
X133846805Y-55721675D01*
X133768916Y-55752031D01*
X133685901Y-55779427D01*
X133601999Y-55802568D01*
X133521448Y-55820157D01*
X133448466Y-55830886D01*
X133399008Y-55833642D01*
X133366379Y-55832835D01*
X133346528Y-55829471D01*
X133334413Y-55822120D01*
X133327575Y-55813412D01*
X133317953Y-55796691D01*
X133308274Y-55775257D01*
X133298186Y-55747788D01*
X133287369Y-55712958D01*
X133275498Y-55669440D01*
X133262230Y-55615917D01*
X133247239Y-55551071D01*
X133230196Y-55473573D01*
X133210764Y-55382096D01*
X133188603Y-55275324D01*
X133171321Y-55190906D01*
X133154391Y-55106546D01*
X133139101Y-55027758D01*
X133125795Y-54956509D01*
X133114819Y-54894783D01*
X133106541Y-54844557D01*
X133101294Y-54807803D01*
X133099441Y-54786504D01*
X133099441Y-54786361D01*
X133100616Y-54754924D01*
X133105748Y-54734217D01*
X133117220Y-54717185D01*
X133126087Y-54707842D01*
X133146189Y-54692552D01*
X133180123Y-54672044D01*
X133225119Y-54647599D01*
X133278402Y-54620501D01*
X133337184Y-54592033D01*
X133398696Y-54563478D01*
X133460143Y-54536127D01*
X133518755Y-54511251D01*
X133571748Y-54490157D01*
X133616344Y-54474104D01*
X133649765Y-54464395D01*
X133655670Y-54463173D01*
X133673842Y-54460769D01*
X133688039Y-54463051D01*
G37*
G36*
X131950783Y-54395291D02*
G01*
X131973782Y-54420560D01*
X131993558Y-54447541D01*
X131998061Y-54455160D01*
X132007812Y-54475331D01*
X132009395Y-54490349D01*
X132002836Y-54509038D01*
X131998157Y-54519059D01*
X131984840Y-54543018D01*
X131964722Y-54574673D01*
X131941899Y-54607590D01*
X131939476Y-54610910D01*
X131911424Y-54651063D01*
X131885614Y-54691544D01*
X131863443Y-54729727D01*
X131846317Y-54762947D01*
X131835606Y-54788581D01*
X131832710Y-54803977D01*
X131835946Y-54807264D01*
X131850601Y-54810571D01*
X131876587Y-54819364D01*
X131908926Y-54831896D01*
X131917250Y-54835347D01*
X131948535Y-54847924D01*
X131972865Y-54856652D01*
X131986157Y-54860104D01*
X131987392Y-54859893D01*
X131992680Y-54850726D01*
X132003622Y-54829866D01*
X132017956Y-54801618D01*
X132019595Y-54798331D01*
X132043616Y-54753028D01*
X132069424Y-54708997D01*
X132094877Y-54669488D01*
X132117832Y-54637740D01*
X132136132Y-54617000D01*
X132143291Y-54611537D01*
X132173034Y-54603598D01*
X132217730Y-54603109D01*
X132276174Y-54609974D01*
X132347135Y-54624126D01*
X132363349Y-54627972D01*
X132413800Y-54639938D01*
X132474473Y-54653857D01*
X132538101Y-54668086D01*
X132597406Y-54680997D01*
X132603270Y-54682243D01*
X132681985Y-54699438D01*
X132745136Y-54714706D01*
X132794747Y-54729137D01*
X132832844Y-54743848D01*
X132861453Y-54759937D01*
X132882594Y-54778514D01*
X132898296Y-54800694D01*
X132910580Y-54827571D01*
X132919949Y-54855238D01*
X132930838Y-54894030D01*
X132944129Y-54947057D01*
X132959311Y-55011840D01*
X132975881Y-55085852D01*
X132993329Y-55166582D01*
X133011142Y-55251530D01*
X133028819Y-55338174D01*
X133045843Y-55424016D01*
X133061720Y-55506530D01*
X133075937Y-55583219D01*
X133087977Y-55651567D01*
X133097341Y-55709061D01*
X133103525Y-55753198D01*
X133105507Y-55772417D01*
X133107551Y-55802971D01*
X133106771Y-55825783D01*
X133101012Y-55841887D01*
X133088107Y-55852315D01*
X133065889Y-55858097D01*
X133032194Y-55860266D01*
X132984864Y-55859858D01*
X132925977Y-55858041D01*
X132868542Y-55855795D01*
X132823940Y-55852954D01*
X132787143Y-55848809D01*
X132753131Y-55842635D01*
X132716893Y-55833733D01*
X132678750Y-55822947D01*
X132574900Y-55792630D01*
X132588252Y-55837682D01*
X132608519Y-55901450D01*
X132626722Y-55948665D01*
X132643374Y-55980440D01*
X132658996Y-55997864D01*
X132662900Y-56000168D01*
X132699445Y-56012621D01*
X132751303Y-56023005D01*
X132816021Y-56031315D01*
X132891177Y-56037506D01*
X132974339Y-56041584D01*
X133063071Y-56043525D01*
X133154954Y-56043313D01*
X133247535Y-56040923D01*
X133338401Y-56036354D01*
X133425120Y-56029579D01*
X133505251Y-56020578D01*
X133576361Y-56009338D01*
X133590316Y-56006617D01*
X133664934Y-55988322D01*
X133745701Y-55963245D01*
X133824189Y-55934228D01*
X133882319Y-55908792D01*
X133978383Y-55855442D01*
X134074491Y-55788610D01*
X134166699Y-55711730D01*
X134251071Y-55628230D01*
X134323688Y-55541532D01*
X134355384Y-55496479D01*
X134391359Y-55435500D01*
X134428220Y-55362073D01*
X134463709Y-55281318D01*
X134495600Y-55198372D01*
X134521639Y-55118341D01*
X134522647Y-55114869D01*
X134533032Y-55078892D01*
X134541684Y-55049196D01*
X134547329Y-55030127D01*
X134548628Y-55025923D01*
X134551833Y-55029025D01*
X134557284Y-55045895D01*
X134563253Y-55070547D01*
X134570266Y-55099896D01*
X134576711Y-55121910D01*
X134580482Y-55130655D01*
X134590013Y-55129190D01*
X134611560Y-55120210D01*
X134641765Y-55105236D01*
X134671643Y-55089001D01*
X134732348Y-55056702D01*
X134784838Y-55032636D01*
X134827086Y-55017633D01*
X134856777Y-55012537D01*
X134874730Y-55017835D01*
X134896179Y-55030698D01*
X134897645Y-55031832D01*
X134912704Y-55045766D01*
X134918612Y-55060381D01*
X134917740Y-55083060D01*
X134916644Y-55091529D01*
X134909298Y-55123788D01*
X134894956Y-55161580D01*
X134872812Y-55206305D01*
X134842053Y-55259373D01*
X134801902Y-55322179D01*
X134751559Y-55396131D01*
X134707310Y-55458790D01*
X134669496Y-55512060D01*
X134634315Y-55562324D01*
X134603369Y-55607222D01*
X134578272Y-55644410D01*
X134560634Y-55671526D01*
X134552642Y-55685038D01*
X134546864Y-55696634D01*
X134542637Y-55707461D01*
X134540244Y-55719597D01*
X134539934Y-55735126D01*
X134541968Y-55756129D01*
X134546620Y-55784675D01*
X134554140Y-55822864D01*
X134564794Y-55872759D01*
X134578852Y-55936447D01*
X134591735Y-55994295D01*
X134609661Y-56077141D01*
X134622966Y-56144989D01*
X134631805Y-56200030D01*
X134636353Y-56244447D01*
X134636767Y-56280430D01*
X134633220Y-56310180D01*
X134625870Y-56335889D01*
X134618691Y-56352378D01*
X134596691Y-56387059D01*
X134564603Y-56425563D01*
X134527538Y-56462360D01*
X134490618Y-56491936D01*
X134487095Y-56494310D01*
X134433506Y-56520999D01*
X134368094Y-56539865D01*
X134295257Y-56550508D01*
X134219405Y-56552516D01*
X134144946Y-56545493D01*
X134084204Y-56531550D01*
X134036149Y-56513125D01*
X134003123Y-56490629D01*
X133982333Y-56461131D01*
X133971008Y-56421684D01*
X133969424Y-56410766D01*
X133964941Y-56381969D01*
X133959906Y-56359993D01*
X133957097Y-56352682D01*
X133946965Y-56352036D01*
X133923360Y-56361582D01*
X133885945Y-56381460D01*
X133853085Y-56400577D01*
X133813563Y-56423339D01*
X133762546Y-56451574D01*
X133704520Y-56482839D01*
X133644007Y-56514717D01*
X133585851Y-56544592D01*
X133535605Y-56570064D01*
X133491011Y-56592745D01*
X133454442Y-56611424D01*
X133428248Y-56624900D01*
X133414798Y-56631956D01*
X133413537Y-56632688D01*
X133414105Y-56641775D01*
X133417604Y-56665046D01*
X133423478Y-56699189D01*
X133431183Y-56740863D01*
X133432875Y-56749712D01*
X133446210Y-56824736D01*
X133456992Y-56897031D01*
X133464907Y-56963556D01*
X133469628Y-57021259D01*
X133470844Y-57067098D01*
X133469051Y-57093290D01*
X133452248Y-57148027D01*
X133419861Y-57199180D01*
X133374113Y-57244356D01*
X133317231Y-57281151D01*
X133280193Y-57297636D01*
X133201812Y-57320813D01*
X133115392Y-57335310D01*
X133027165Y-57340615D01*
X132943376Y-57336228D01*
X132897632Y-57328689D01*
X132831718Y-57308872D01*
X132778900Y-57280301D01*
X132744170Y-57250339D01*
X132729058Y-57230514D01*
X132716747Y-57204364D01*
X132706867Y-57169895D01*
X132699046Y-57125088D01*
X132692912Y-57067964D01*
X132688096Y-56996512D01*
X132685104Y-56931815D01*
X132683045Y-56882757D01*
X132681075Y-56840481D01*
X132679340Y-56807966D01*
X132678008Y-56788194D01*
X132677377Y-56783520D01*
X132668346Y-56782643D01*
X132643745Y-56780859D01*
X132605835Y-56778310D01*
X132556875Y-56775155D01*
X132499112Y-56771536D01*
X132434802Y-56767599D01*
X132421140Y-56766773D01*
X132345430Y-56761956D01*
X132266448Y-56756498D01*
X132188605Y-56750723D01*
X132116306Y-56744970D01*
X132053969Y-56739581D01*
X132015049Y-56735839D01*
X131965158Y-56730823D01*
X131921864Y-56726686D01*
X131888110Y-56723697D01*
X131866831Y-56722111D01*
X131860774Y-56722028D01*
X131860681Y-56731046D01*
X131862526Y-56753798D01*
X131865969Y-56786336D01*
X131868486Y-56807536D01*
X131874566Y-56885303D01*
X131872918Y-56953683D01*
X131863716Y-57010217D01*
X131850537Y-57046271D01*
X131821887Y-57083066D01*
X131777803Y-57112434D01*
X131719180Y-57134092D01*
X131646945Y-57147759D01*
X131562003Y-57153168D01*
X131501856Y-57152182D01*
X131404594Y-57142226D01*
X131321139Y-57121355D01*
X131251037Y-57089389D01*
X131193833Y-57046144D01*
X131167844Y-57017649D01*
X131153400Y-56997606D01*
X131144729Y-56978269D01*
X131140007Y-56953574D01*
X131137459Y-56917466D01*
X131137334Y-56914697D01*
X131136597Y-56887159D01*
X131137651Y-56862726D01*
X131141288Y-56837553D01*
X131148279Y-56807779D01*
X131159388Y-56769550D01*
X131175401Y-56719021D01*
X131178979Y-56707978D01*
X131198982Y-56645624D01*
X131213664Y-56597975D01*
X131223540Y-56562865D01*
X131229135Y-56538136D01*
X131230966Y-56521637D01*
X131229564Y-56511180D01*
X131227398Y-56506952D01*
X131217183Y-56498418D01*
X131195373Y-56483449D01*
X131165815Y-56464605D01*
X131149320Y-56454533D01*
X131066921Y-56400836D01*
X130990675Y-56343102D01*
X130923795Y-56284037D01*
X130869486Y-56226360D01*
X130851855Y-56204084D01*
X130813341Y-56144828D01*
X130776007Y-56073750D01*
X130742650Y-55996809D01*
X130716056Y-55919952D01*
X130711685Y-55904727D01*
X130697625Y-55839307D01*
X130688582Y-55770198D01*
X131166102Y-55770198D01*
X131172870Y-55803455D01*
X131187417Y-55831589D01*
X131205480Y-55852465D01*
X131234893Y-55879318D01*
X131271640Y-55909073D01*
X131311683Y-55938635D01*
X131351015Y-55964923D01*
X131385601Y-55984847D01*
X131390299Y-55987177D01*
X131429625Y-56003177D01*
X131463521Y-56008556D01*
X131497904Y-56003081D01*
X131538697Y-55986514D01*
X131550174Y-55980829D01*
X131587699Y-55959537D01*
X131628391Y-55932767D01*
X131668899Y-55903168D01*
X131705882Y-55873361D01*
X131735980Y-55845990D01*
X131755838Y-55823697D01*
X131761075Y-55814848D01*
X131766862Y-55782958D01*
X131757339Y-55757231D01*
X131734322Y-55740863D01*
X131716993Y-55737057D01*
X131701598Y-55737497D01*
X131683867Y-55742794D01*
X131660680Y-55754487D01*
X131628914Y-55774097D01*
X131594173Y-55797224D01*
X131556750Y-55821882D01*
X131522899Y-55842921D01*
X131496270Y-55858166D01*
X131480485Y-55865432D01*
X131480132Y-55865528D01*
X131452864Y-55864296D01*
X131417816Y-55848559D01*
X131374373Y-55818003D01*
X131351576Y-55799029D01*
X131310690Y-55764587D01*
X131279581Y-55740989D01*
X131255371Y-55726475D01*
X131235189Y-55719286D01*
X131218949Y-55717616D01*
X131189931Y-55724415D01*
X131172049Y-55742890D01*
X131166102Y-55770198D01*
X130688582Y-55770198D01*
X130687651Y-55763103D01*
X130682121Y-55682409D01*
X130681389Y-55603499D01*
X130685800Y-55532655D01*
X130689186Y-55507345D01*
X130708112Y-55427671D01*
X130990900Y-55427671D01*
X130995375Y-55477825D01*
X131010333Y-55517785D01*
X131038048Y-55553218D01*
X131043653Y-55558683D01*
X131086349Y-55587958D01*
X131133717Y-55600726D01*
X131182940Y-55596567D01*
X131215493Y-55584131D01*
X131261515Y-55551615D01*
X131293210Y-55508735D01*
X131310148Y-55456291D01*
X131310940Y-55429321D01*
X131645625Y-55429321D01*
X131650390Y-55479131D01*
X131666238Y-55526322D01*
X131693213Y-55567530D01*
X131731353Y-55599418D01*
X131733036Y-55600407D01*
X131769087Y-55613795D01*
X131812272Y-55619126D01*
X131854741Y-55616083D01*
X131885017Y-55606374D01*
X131925270Y-55576257D01*
X131953745Y-55535743D01*
X131970000Y-55488217D01*
X131973598Y-55437060D01*
X131964097Y-55385655D01*
X131941060Y-55337398D01*
X131922969Y-55313992D01*
X131880487Y-55276879D01*
X131835642Y-55257398D01*
X131787905Y-55255426D01*
X131736754Y-55270854D01*
X131736733Y-55270862D01*
X131697513Y-55297654D01*
X131669223Y-55335230D01*
X131651922Y-55380236D01*
X131645625Y-55429321D01*
X131310940Y-55429321D01*
X131311940Y-55395080D01*
X131311940Y-55395061D01*
X131300542Y-55339169D01*
X131277170Y-55295693D01*
X131243787Y-55264921D01*
X131197863Y-55243245D01*
X131151340Y-55237647D01*
X131106607Y-55246608D01*
X131066031Y-55268590D01*
X131031972Y-55302094D01*
X131006809Y-55345569D01*
X130992896Y-55397500D01*
X130990900Y-55427671D01*
X130708112Y-55427671D01*
X130714318Y-55401512D01*
X130754544Y-55296293D01*
X130807664Y-55196718D01*
X130853599Y-55130133D01*
X130885020Y-55092832D01*
X130925009Y-55050435D01*
X130969094Y-55007246D01*
X131012808Y-54967589D01*
X131051678Y-54935776D01*
X131065223Y-54925958D01*
X131162374Y-54869821D01*
X131271742Y-54826106D01*
X131392456Y-54795082D01*
X131523642Y-54777016D01*
X131550243Y-54775039D01*
X131645433Y-54768883D01*
X131681751Y-54705515D01*
X131713742Y-54651577D01*
X131749269Y-54594851D01*
X131785907Y-54538954D01*
X131821224Y-54487480D01*
X131852815Y-54444022D01*
X131878256Y-54412207D01*
X131880107Y-54410101D01*
X131919682Y-54365467D01*
X131950783Y-54395291D01*
G37*
%TO.C,JP4*%
G36*
X121925000Y-58025000D02*
G01*
X123525000Y-58025000D01*
X123525000Y-59525000D01*
X121925000Y-59525000D01*
X121925000Y-58025000D01*
G37*
%TO.C,JP6*%
G36*
X127257500Y-58975000D02*
G01*
X128757500Y-58975000D01*
X128757500Y-60575000D01*
X127257500Y-60575000D01*
X127257500Y-58975000D01*
G37*
%TO.C,JP1*%
G36*
X177950000Y-63450000D02*
G01*
X179450000Y-63450000D01*
X179450000Y-63750000D01*
X177950000Y-63750000D01*
X177950000Y-63450000D01*
G37*
%TD*%
D11*
%TO.C,JP5*%
X118500000Y-64550000D03*
X118500000Y-63250000D03*
X118500000Y-61950000D03*
%TD*%
D12*
%TO.C,L2*%
X174725000Y-71062500D03*
X176850000Y-71062500D03*
%TD*%
D13*
%TO.C,R16*%
X137685000Y-65230000D03*
X137685000Y-66250000D03*
%TD*%
D14*
%TO.C,TP11*%
X138000000Y-58500000D03*
%TD*%
%TO.C,TP10*%
X140000000Y-57250000D03*
%TD*%
%TO.C,TP19*%
X159000000Y-55425000D03*
%TD*%
D15*
%TO.C,U1*%
X183250000Y-61500000D03*
X183250000Y-62000000D03*
X183250000Y-62500000D03*
X183250000Y-63000000D03*
D16*
X184250000Y-62250000D03*
D15*
X185250000Y-63000000D03*
X185250000Y-62500000D03*
X185250000Y-62000000D03*
X185250000Y-61500000D03*
%TD*%
D17*
%TO.C,TP3*%
X167750000Y-73750000D03*
%TD*%
D18*
%TO.C,C12*%
X140980000Y-55600000D03*
X140020000Y-55600000D03*
%TD*%
D14*
%TO.C,TP22*%
X149775000Y-65425000D03*
%TD*%
%TO.C,TP27*%
X157275000Y-59925000D03*
%TD*%
%TO.C,TP12*%
X138000000Y-61500000D03*
%TD*%
%TO.C,TP24*%
X155775000Y-65425000D03*
%TD*%
D19*
%TO.C,U9*%
X175137500Y-64200000D03*
X175137500Y-63250000D03*
X175137500Y-62300000D03*
X172862500Y-62300000D03*
X172862500Y-63250000D03*
X172862500Y-64200000D03*
%TD*%
D20*
%TO.C,R5*%
X186740000Y-63750000D03*
X187760000Y-63750000D03*
%TD*%
D13*
%TO.C,R13*%
X165075000Y-68302500D03*
X165075000Y-69322500D03*
%TD*%
D18*
%TO.C,C10*%
X136480000Y-60500000D03*
X135520000Y-60500000D03*
%TD*%
D21*
%TO.C,J1*%
X117250000Y-72250000D03*
X117250000Y-71250000D03*
X117250000Y-70250000D03*
X117250000Y-69250000D03*
D22*
X121125000Y-73550000D03*
X121125000Y-67950000D03*
%TD*%
D23*
%TO.C,J3*%
X167750000Y-55750000D03*
X167750000Y-56750000D03*
X167750000Y-57750000D03*
X167750000Y-58750000D03*
X167750000Y-59750000D03*
X167750000Y-60750000D03*
X167750000Y-61750000D03*
X167750000Y-62750000D03*
D24*
X163875000Y-54450000D03*
X163875000Y-64050000D03*
%TD*%
D25*
%TO.C,R6*%
X183760000Y-64500000D03*
X182740000Y-64500000D03*
%TD*%
%TO.C,R4*%
X181760000Y-62750000D03*
X180740000Y-62750000D03*
%TD*%
%TO.C,R1*%
X138260000Y-56750000D03*
X137240000Y-56750000D03*
%TD*%
D11*
%TO.C,JP3*%
X171000000Y-68150000D03*
X171000000Y-66850000D03*
%TD*%
D26*
%TO.C,U6*%
X142625000Y-54000000D03*
X142625000Y-54800000D03*
X142625000Y-55600000D03*
X142625000Y-56400000D03*
X142625000Y-57200000D03*
X142625000Y-58000000D03*
X142625000Y-58800000D03*
X142625000Y-59600000D03*
X142625000Y-60400000D03*
X142625000Y-61200000D03*
X142625000Y-62000000D03*
D27*
X143725000Y-62900000D03*
X144525000Y-62900000D03*
X145325000Y-62900000D03*
X146125000Y-62900000D03*
X146925000Y-62900000D03*
X147725000Y-62900000D03*
X148525000Y-62900000D03*
X149325000Y-62900000D03*
X150125000Y-62900000D03*
X150925000Y-62900000D03*
X151725000Y-62900000D03*
X152525000Y-62900000D03*
X153325000Y-62900000D03*
D26*
X154425000Y-62000000D03*
X154425000Y-61200000D03*
X154425000Y-60400000D03*
X154425000Y-59600000D03*
X154425000Y-58800000D03*
X154425000Y-58000000D03*
X154425000Y-57200000D03*
X154425000Y-56400000D03*
X154425000Y-55600000D03*
X154425000Y-54800000D03*
X154425000Y-54000000D03*
D27*
X153325000Y-53100000D03*
X152525000Y-53100000D03*
X151725000Y-53100000D03*
X150925000Y-53100000D03*
X150125000Y-53100000D03*
X149325000Y-53100000D03*
X148525000Y-53100000D03*
X147725000Y-53100000D03*
X146925000Y-53100000D03*
X146125000Y-53100000D03*
X145325000Y-53100000D03*
X144525000Y-53100000D03*
X143725000Y-53100000D03*
D28*
X146550000Y-56025000D03*
D29*
X146550000Y-58000000D03*
X146550000Y-59975000D03*
X148525000Y-56025000D03*
X148525000Y-58000000D03*
X148525000Y-59975000D03*
X150500000Y-56025000D03*
X150500000Y-58000000D03*
X150500000Y-59975000D03*
D30*
X154475000Y-53050000D03*
X154475000Y-62950000D03*
X142575000Y-62950000D03*
X142575000Y-53050000D03*
%TD*%
D17*
%TO.C,TP4*%
X115500000Y-54000000D03*
%TD*%
D31*
%TO.C,D1*%
X186765000Y-62750000D03*
X187735000Y-62750000D03*
%TD*%
D17*
%TO.C,TP6*%
X193000000Y-60750000D03*
%TD*%
D32*
%TO.C,R8*%
X184850000Y-73860000D03*
X184850000Y-72840000D03*
%TD*%
D18*
%TO.C,C14*%
X121605000Y-62425000D03*
X120645000Y-62425000D03*
%TD*%
D14*
%TO.C,TP26*%
X159000000Y-61425000D03*
%TD*%
%TO.C,TP29*%
X157275000Y-56925000D03*
%TD*%
D33*
%TO.C,SW1*%
X157050000Y-72800000D03*
X152950000Y-72800000D03*
X157050000Y-71200000D03*
X152950000Y-71200000D03*
%TD*%
D34*
%TO.C,C7*%
X168575000Y-69292500D03*
X168575000Y-68332500D03*
%TD*%
%TO.C,C4*%
X183800000Y-68830000D03*
X183800000Y-67870000D03*
%TD*%
D32*
%TO.C,R9*%
X183800000Y-71860000D03*
X183800000Y-70840000D03*
%TD*%
D14*
%TO.C,TP8*%
X140775000Y-65425000D03*
%TD*%
D32*
%TO.C,R11*%
X184850000Y-68860000D03*
X184850000Y-67840000D03*
%TD*%
D35*
%TO.C,C6*%
X174725000Y-66912500D03*
X175685000Y-66912500D03*
%TD*%
D18*
%TO.C,C13*%
X140980000Y-54600000D03*
X140020000Y-54600000D03*
%TD*%
D25*
%TO.C,R2*%
X181760000Y-61750000D03*
X180740000Y-61750000D03*
%TD*%
D36*
%TO.C,U2*%
X186362324Y-71550080D03*
D37*
X185850000Y-71550000D03*
D38*
X185337500Y-71550000D03*
D39*
X185275000Y-70850000D03*
D40*
X185339824Y-70149123D03*
D37*
X185850000Y-70150000D03*
D41*
X186360568Y-70154777D03*
D39*
X186425000Y-70850000D03*
%TD*%
D17*
%TO.C,TP1*%
X193000000Y-66250000D03*
%TD*%
D42*
%TO.C,D2*%
X185735000Y-64500000D03*
X184765000Y-64500000D03*
%TD*%
D13*
%TO.C,R17*%
X178750000Y-59990000D03*
X178750000Y-61010000D03*
%TD*%
D14*
%TO.C,TP18*%
X157275000Y-53925000D03*
%TD*%
D43*
%TO.C,C3*%
X185850000Y-72870000D03*
X185850000Y-73830000D03*
%TD*%
%TO.C,C11*%
X136500000Y-71520000D03*
X136500000Y-72480000D03*
%TD*%
D14*
%TO.C,TP16*%
X152775000Y-65425000D03*
%TD*%
D34*
%TO.C,C8*%
X176475000Y-69292500D03*
X176475000Y-68332500D03*
%TD*%
D44*
%TO.C,JP2*%
X189500000Y-60850000D03*
X189500000Y-62150000D03*
%TD*%
D14*
%TO.C,TP23*%
X151275000Y-67000000D03*
%TD*%
D45*
%TO.C,U7*%
X125062500Y-60825000D03*
X125062500Y-61625000D03*
X125062500Y-62425000D03*
X125062500Y-63225000D03*
X122687500Y-63225000D03*
X122687500Y-62425000D03*
X122687500Y-61625000D03*
X122687500Y-60825000D03*
%TD*%
D46*
%TO.C,U8*%
X130350000Y-62875000D03*
X131000000Y-62875000D03*
X131650000Y-62875000D03*
X131650000Y-61125000D03*
X131000000Y-61125000D03*
X130350000Y-61125000D03*
%TD*%
D33*
%TO.C,SW2*%
X149050000Y-72800000D03*
X144950000Y-72800000D03*
X149050000Y-71200000D03*
X144950000Y-71200000D03*
%TD*%
D12*
%TO.C,L1*%
X166825000Y-71062500D03*
X168950000Y-71062500D03*
%TD*%
D18*
%TO.C,C1*%
X181730000Y-60750000D03*
X180770000Y-60750000D03*
%TD*%
D47*
%TO.C,U3*%
X189650000Y-67850000D03*
X189000000Y-67850000D03*
X188350000Y-67850000D03*
D48*
X188500000Y-68850000D03*
D47*
X188350000Y-69850000D03*
X189000000Y-69850000D03*
D48*
X189500000Y-68850000D03*
D47*
X189650000Y-69850000D03*
%TD*%
D14*
%TO.C,TP17*%
X154275000Y-67000000D03*
%TD*%
D49*
%TO.C,U5*%
X175125000Y-68612500D03*
X174725000Y-68612500D03*
X174325000Y-68612500D03*
X175125000Y-69012500D03*
X174725000Y-69012500D03*
X174325000Y-69012500D03*
%TD*%
D17*
%TO.C,TP2*%
X162500000Y-73750000D03*
%TD*%
D20*
%TO.C,R7*%
X186740000Y-61750000D03*
X187760000Y-61750000D03*
%TD*%
D33*
%TO.C,SW3*%
X142050000Y-72800000D03*
X137950000Y-72800000D03*
X142050000Y-71200000D03*
X137950000Y-71200000D03*
%TD*%
D17*
%TO.C,TP5*%
X176000000Y-73750000D03*
%TD*%
D50*
%TO.C,H3*%
X110500000Y-73000000D03*
%TD*%
D51*
%TO.C,J4*%
X180390000Y-57345000D03*
X174610000Y-57345000D03*
D52*
X180700000Y-58420000D03*
X179900000Y-58420000D03*
D53*
X178750000Y-58420000D03*
X177750000Y-58420000D03*
X177250000Y-58420000D03*
X176250000Y-58420000D03*
D52*
X175100000Y-58420000D03*
X174300000Y-58420000D03*
X174300000Y-58420000D03*
X175100000Y-58420000D03*
D53*
X175750000Y-58420000D03*
X176750000Y-58420000D03*
X178250000Y-58420000D03*
X179250000Y-58420000D03*
D52*
X179900000Y-58420000D03*
X180700000Y-58420000D03*
D54*
X182610000Y-57845000D03*
X182610000Y-53915000D03*
X172390000Y-57845000D03*
X172390000Y-53915000D03*
%TD*%
D43*
%TO.C,C9*%
X151500000Y-71520000D03*
X151500000Y-72480000D03*
%TD*%
D14*
%TO.C,TP7*%
X140000000Y-60000000D03*
%TD*%
D55*
%TO.C,D3*%
X138740000Y-65255000D03*
X138740000Y-66225000D03*
%TD*%
D35*
%TO.C,C2*%
X186770000Y-60750000D03*
X187730000Y-60750000D03*
%TD*%
D34*
%TO.C,C16*%
X130350000Y-59800711D03*
X130350000Y-58840711D03*
%TD*%
D14*
%TO.C,TP25*%
X157275000Y-62925000D03*
%TD*%
D21*
%TO.C,J2*%
X129250000Y-72250000D03*
X129250000Y-71250000D03*
X129250000Y-70250000D03*
X129250000Y-69250000D03*
D22*
X133125000Y-73550000D03*
X133125000Y-67950000D03*
%TD*%
D13*
%TO.C,R12*%
X185850000Y-67840000D03*
X185850000Y-68860000D03*
%TD*%
D14*
%TO.C,TP28*%
X159000000Y-58425000D03*
%TD*%
D20*
%TO.C,R15*%
X135490000Y-59500000D03*
X136510000Y-59500000D03*
%TD*%
D17*
%TO.C,TP30*%
X186250000Y-53500000D03*
%TD*%
D50*
%TO.C,H4*%
X110500000Y-54000000D03*
%TD*%
D14*
%TO.C,TP21*%
X148275000Y-67000000D03*
%TD*%
D20*
%TO.C,R3*%
X180740000Y-63750000D03*
X181760000Y-63750000D03*
%TD*%
D56*
%TO.C,JP4*%
X124025000Y-58775000D03*
X122725000Y-58775000D03*
X121425000Y-58775000D03*
%TD*%
D13*
%TO.C,R14*%
X172975000Y-68302500D03*
X172975000Y-69322500D03*
%TD*%
%TO.C,R18*%
X175750000Y-59990000D03*
X175750000Y-61010000D03*
%TD*%
D14*
%TO.C,TP9*%
X142275000Y-67000000D03*
%TD*%
%TO.C,TP15*%
X145275000Y-67000000D03*
%TD*%
D11*
%TO.C,JP6*%
X128007500Y-61075000D03*
X128007500Y-59775000D03*
X128007500Y-58475000D03*
%TD*%
D14*
%TO.C,TP20*%
X146775000Y-65425000D03*
%TD*%
D50*
%TO.C,H2*%
X194500000Y-73000000D03*
%TD*%
D11*
%TO.C,JP1*%
X178700000Y-64250000D03*
X178700000Y-62950000D03*
%TD*%
D14*
%TO.C,TP14*%
X143775000Y-65425000D03*
%TD*%
D18*
%TO.C,C15*%
X121585000Y-60825000D03*
X120625000Y-60825000D03*
%TD*%
D50*
%TO.C,H1*%
X194500000Y-54000000D03*
%TD*%
D32*
%TO.C,R10*%
X186850000Y-73860000D03*
X186850000Y-72840000D03*
%TD*%
D35*
%TO.C,C5*%
X166845000Y-67000000D03*
X167805000Y-67000000D03*
%TD*%
D14*
%TO.C,TP13*%
X139775000Y-63000000D03*
%TD*%
D49*
%TO.C,U4*%
X167225000Y-68612500D03*
X166825000Y-68612500D03*
X166425000Y-68612500D03*
X167225000Y-69012500D03*
X166825000Y-69012500D03*
X166425000Y-69012500D03*
%TD*%
D57*
%TO.C,BT1*%
X188500000Y-55650000D03*
%TD*%
M02*
