%TF.GenerationSoftware,KiCad,Pcbnew,10.0.0*%
%TF.CreationDate,2026-03-31T00:41:15+02:00*%
%TF.ProjectId,esp_home_sensor,6573705f-686f-46d6-955f-73656e736f72,rev?*%
%TF.SameCoordinates,Original*%
%TF.FileFunction,Legend,Bot*%
%TF.FilePolarity,Positive*%
%FSLAX46Y46*%
G04 Gerber Fmt 4.6, Leading zero omitted, Abs format (unit mm)*
G04 Created by KiCad (PCBNEW 10.0.0) date 2026-03-31 00:41:15*
%MOMM*%
%LPD*%
G01*
G04 APERTURE LIST*
%ADD10C,0.150000*%
%ADD11C,0.120000*%
G04 APERTURE END LIST*
D10*
X153285714Y-51901009D02*
X153142857Y-51948628D01*
X153142857Y-51948628D02*
X153095238Y-51996247D01*
X153095238Y-51996247D02*
X153047619Y-52091485D01*
X153047619Y-52091485D02*
X153047619Y-52234342D01*
X153047619Y-52234342D02*
X153095238Y-52329580D01*
X153095238Y-52329580D02*
X153142857Y-52377200D01*
X153142857Y-52377200D02*
X153238095Y-52424819D01*
X153238095Y-52424819D02*
X153619047Y-52424819D01*
X153619047Y-52424819D02*
X153619047Y-51424819D01*
X153619047Y-51424819D02*
X153285714Y-51424819D01*
X153285714Y-51424819D02*
X153190476Y-51472438D01*
X153190476Y-51472438D02*
X153142857Y-51520057D01*
X153142857Y-51520057D02*
X153095238Y-51615295D01*
X153095238Y-51615295D02*
X153095238Y-51710533D01*
X153095238Y-51710533D02*
X153142857Y-51805771D01*
X153142857Y-51805771D02*
X153190476Y-51853390D01*
X153190476Y-51853390D02*
X153285714Y-51901009D01*
X153285714Y-51901009D02*
X153619047Y-51901009D01*
X152761904Y-51424819D02*
X152190476Y-51424819D01*
X152476190Y-52424819D02*
X152476190Y-51424819D01*
X151333333Y-52424819D02*
X151904761Y-52424819D01*
X151619047Y-52424819D02*
X151619047Y-51424819D01*
X151619047Y-51424819D02*
X151714285Y-51567676D01*
X151714285Y-51567676D02*
X151809523Y-51662914D01*
X151809523Y-51662914D02*
X151904761Y-51710533D01*
X193261904Y-58655533D02*
X191738095Y-58655533D01*
X192499999Y-59417438D02*
X192499999Y-57893628D01*
X178785713Y-62274819D02*
X178214285Y-62274819D01*
X178499999Y-63274819D02*
X178499999Y-62274819D01*
X177880951Y-63274819D02*
X177880951Y-62274819D01*
X177880951Y-62751009D02*
X177309523Y-62751009D01*
X177309523Y-63274819D02*
X177309523Y-62274819D01*
X176309523Y-63274819D02*
X176880951Y-63274819D01*
X176595237Y-63274819D02*
X176595237Y-62274819D01*
X176595237Y-62274819D02*
X176690475Y-62417676D01*
X176690475Y-62417676D02*
X176785713Y-62512914D01*
X176785713Y-62512914D02*
X176880951Y-62560533D01*
%TO.C,BT1*%
D11*
X113610000Y-52815000D02*
X113610000Y-59990000D01*
X113610000Y-67010000D02*
X113610000Y-74185000D01*
X113610000Y-74185000D02*
X191390000Y-74185000D01*
X191390000Y-52815000D02*
X113610000Y-52815000D01*
X191390000Y-59990000D02*
X191390000Y-52815000D01*
X191390000Y-74185000D02*
X191390000Y-67010000D01*
%TO.C,TH1*%
X177737258Y-63727500D02*
X177262742Y-63727500D01*
X177737258Y-64772500D02*
X177262742Y-64772500D01*
%TD*%
M02*
