%TF.GenerationSoftware,KiCad,Pcbnew,10.0.0*%
%TF.CreationDate,2026-04-01T20:06:14+02:00*%
%TF.ProjectId,esp_home_sensor,6573705f-686f-46d6-955f-73656e736f72,rev?*%
%TF.SameCoordinates,Original*%
%TF.FileFunction,Copper,L4,Bot*%
%TF.FilePolarity,Positive*%
%FSLAX46Y46*%
G04 Gerber Fmt 4.6, Leading zero omitted, Abs format (unit mm)*
G04 Created by KiCad (PCBNEW 10.0.0) date 2026-04-01 20:06:14*
%MOMM*%
%LPD*%
G01*
G04 APERTURE LIST*
G04 Aperture macros list*
%AMRoundRect*
0 Rectangle with rounded corners*
0 $1 Rounding radius*
0 $2 $3 $4 $5 $6 $7 $8 $9 X,Y pos of 4 corners*
0 Add a 4 corners polygon primitive as box body*
4,1,4,$2,$3,$4,$5,$6,$7,$8,$9,$2,$3,0*
0 Add four circle primitives for the rounded corners*
1,1,$1+$1,$2,$3*
1,1,$1+$1,$4,$5*
1,1,$1+$1,$6,$7*
1,1,$1+$1,$8,$9*
0 Add four rect primitives between the rounded corners*
20,1,$1+$1,$2,$3,$4,$5,0*
20,1,$1+$1,$4,$5,$6,$7,0*
20,1,$1+$1,$6,$7,$8,$9,0*
20,1,$1+$1,$8,$9,$2,$3,0*%
G04 Aperture macros list end*
%TA.AperFunction,SMDPad,CuDef*%
%ADD10R,5.300000X7.500000*%
%TD*%
%TA.AperFunction,SMDPad,CuDef*%
%ADD11RoundRect,0.200000X0.200000X0.275000X-0.200000X0.275000X-0.200000X-0.275000X0.200000X-0.275000X0*%
%TD*%
%TA.AperFunction,ViaPad*%
%ADD12C,0.450000*%
%TD*%
%TA.AperFunction,Conductor*%
%ADD13C,0.300000*%
%TD*%
%TA.AperFunction,Conductor*%
%ADD14C,0.200000*%
%TD*%
%TA.AperFunction,Conductor*%
%ADD15C,0.150000*%
%TD*%
G04 APERTURE END LIST*
D10*
%TO.P,BT1,1,+_1*%
%TO.N,/Protection/BAT+*%
X193650000Y-63250000D03*
%TO.P,BT1,2,-_2*%
%TO.N,/Protection/BAT-*%
X111350000Y-63500000D03*
%TD*%
D11*
%TO.P,TH1,1*%
%TO.N,Net-(JP1-B)*%
X178325000Y-64250000D03*
%TO.P,TH1,2*%
%TO.N,GND*%
X176675000Y-64250000D03*
%TD*%
D12*
%TO.N,GND*%
X164900000Y-59500000D03*
X119825000Y-60825000D03*
X193000000Y-58750000D03*
X180000000Y-61750000D03*
X130350000Y-58075000D03*
X155000000Y-72800000D03*
X187650000Y-60050000D03*
X151000000Y-62000000D03*
X115500000Y-54000000D03*
X183750000Y-63750000D03*
X130750000Y-69250000D03*
X167425000Y-68112500D03*
X180000000Y-63750000D03*
X167425000Y-67512500D03*
X175325000Y-67512500D03*
X148525000Y-59975000D03*
X183900000Y-60450000D03*
X118750000Y-69250000D03*
X162500000Y-73750000D03*
X181250000Y-59250000D03*
X183000000Y-63750000D03*
X180000000Y-60750000D03*
X184000000Y-61750000D03*
X175925000Y-67512500D03*
X172390000Y-57845000D03*
X121875000Y-61625000D03*
X184000000Y-62750000D03*
X130350000Y-63620711D03*
X144000000Y-58000000D03*
X146550000Y-59975000D03*
X119950000Y-64550000D03*
X148525000Y-56025000D03*
X131100000Y-55400000D03*
X182610000Y-57845000D03*
X184500000Y-61750000D03*
X176525000Y-66912500D03*
X144000000Y-56000000D03*
X131800000Y-55400000D03*
X153000000Y-60000000D03*
X172975000Y-67612500D03*
X182610000Y-53915000D03*
X175925000Y-68112500D03*
X159700000Y-56300000D03*
X178750000Y-61750000D03*
X146000000Y-54000000D03*
X174000000Y-64000000D03*
X184750000Y-71450000D03*
X150500000Y-59975000D03*
X164100000Y-62500000D03*
X153000000Y-56000000D03*
X148500000Y-54000000D03*
X168625000Y-66912500D03*
X146000000Y-62000000D03*
X144000000Y-62000000D03*
X148500000Y-62000000D03*
X176525000Y-67512500D03*
X175325000Y-68112500D03*
X172390000Y-53915000D03*
X176700000Y-65250000D03*
X184500000Y-63750000D03*
X175000000Y-61000000D03*
X151000000Y-54000000D03*
X185250000Y-63750000D03*
X139200000Y-54600000D03*
X150500000Y-58000000D03*
X153000000Y-54000000D03*
X139200000Y-55600000D03*
X125875000Y-60825000D03*
X153000000Y-58000000D03*
X168025000Y-67512500D03*
X147000000Y-72800000D03*
X184750000Y-72000000D03*
X150500000Y-56025000D03*
X140000000Y-72800000D03*
X119825000Y-62425000D03*
X185850000Y-74450000D03*
X185400000Y-60450000D03*
X168625000Y-67512500D03*
X184500000Y-62750000D03*
X183150000Y-60450000D03*
X144000000Y-54000000D03*
X146550000Y-58000000D03*
X134750000Y-60500000D03*
X153000000Y-62000000D03*
X144000000Y-60000000D03*
X165075000Y-67612500D03*
X166250000Y-61750000D03*
X146550000Y-56025000D03*
X174000000Y-59500000D03*
X184650000Y-60450000D03*
X168025000Y-68112500D03*
X161700000Y-57600000D03*
X148525000Y-58000000D03*
%TO.N,3V3_AUX*%
X176225000Y-70712500D03*
X176225000Y-70112500D03*
X176825000Y-70112500D03*
X166250000Y-62750000D03*
X175625000Y-70112500D03*
X130750000Y-70250000D03*
X175625000Y-71312500D03*
X176225000Y-71312500D03*
X118750000Y-70250000D03*
X124000000Y-60500000D03*
X175625000Y-70712500D03*
%TO.N,3V3_MCU*%
X167725000Y-70112500D03*
X141750000Y-55600000D03*
X120500000Y-59000000D03*
X128000000Y-57500000D03*
X167725000Y-70712500D03*
X168325000Y-71312500D03*
X168325000Y-70712500D03*
X168325000Y-70112500D03*
X134750000Y-59500000D03*
X168925000Y-70112500D03*
X167725000Y-71312500D03*
X136990000Y-66240000D03*
%TO.N,/MCU/USER_SW*%
X138000000Y-58500000D03*
X138000000Y-68750000D03*
%TO.N,/Env_sensor/I2C.SDA*%
X149750000Y-66500000D03*
X130750000Y-71250000D03*
%TO.N,/MCU/DISP_IF.CLK*%
X165500000Y-60000000D03*
X163500000Y-62000000D03*
%TO.N,/MCU/EN*%
X144500000Y-68500000D03*
X140000000Y-60000000D03*
%TO.N,/Env_sensor/I2C.SCL*%
X130750000Y-72250000D03*
X151250000Y-68000000D03*
%TO.N,/MCU/DISP_IF.RST*%
X159250000Y-57000000D03*
X162250000Y-57000000D03*
%TO.N,Net-(JP1-B)*%
X180000000Y-62750000D03*
%TO.N,VBAT*%
X187750000Y-73500000D03*
X187900000Y-68300000D03*
X136500000Y-56750000D03*
X187900000Y-68800000D03*
X166250000Y-66000000D03*
X187900000Y-67800000D03*
%TO.N,/DC_DC/EN*%
X170300000Y-69478554D03*
X143750000Y-64250000D03*
%TO.N,/MCU/BOOT*%
X153000000Y-70000000D03*
X154250000Y-67000000D03*
%TO.N,/Protection/BAT-*%
X183750000Y-73750000D03*
X182750000Y-72750000D03*
X182750000Y-74750000D03*
X183250000Y-74250000D03*
X183750000Y-72750000D03*
X182750000Y-70750000D03*
X183250000Y-73250000D03*
X182750000Y-71750000D03*
X183250000Y-71250000D03*
X183750000Y-74750000D03*
X182750000Y-73750000D03*
%TO.N,/Protection/DSG*%
X186750000Y-69250000D03*
X189000000Y-67250000D03*
%TO.N,/Protection/BAT+*%
X190150000Y-67400000D03*
X186000000Y-67200000D03*
X190150000Y-67950000D03*
%TO.N,Net-(U3-Pad4)*%
X190150000Y-69400000D03*
X187900000Y-69650000D03*
X190150000Y-68650000D03*
X187900000Y-70150000D03*
X190150000Y-70150000D03*
%TD*%
%TO.N,GND*%
D13*
X176675000Y-64250000D02*
X176675000Y-65225000D01*
X176675000Y-65225000D02*
X176700000Y-65250000D01*
%TO.N,/MCU/USER_SW*%
D14*
X138000000Y-68750000D02*
X138000000Y-58500000D01*
%TO.N,/Env_sensor/I2C.SDA*%
X149750000Y-66500000D02*
X149750000Y-69250000D01*
X132250000Y-69750000D02*
X130750000Y-71250000D01*
X149250000Y-69750000D02*
X132250000Y-69750000D01*
X149750000Y-69250000D02*
X149250000Y-69750000D01*
%TO.N,/MCU/DISP_IF.CLK*%
X163500000Y-62000000D02*
X165500000Y-60000000D01*
%TO.N,/MCU/EN*%
X144500000Y-68500000D02*
X140000000Y-64000000D01*
X140000000Y-64000000D02*
X140000000Y-60000000D01*
%TO.N,/Env_sensor/I2C.SCL*%
X132750000Y-70250000D02*
X130750000Y-72250000D01*
X151250000Y-68000000D02*
X151250000Y-68750000D01*
X151250000Y-68750000D02*
X149750000Y-70250000D01*
X149750000Y-70250000D02*
X132750000Y-70250000D01*
%TO.N,/MCU/DISP_IF.RST*%
X159250000Y-57000000D02*
X162250000Y-57000000D01*
%TO.N,Net-(JP1-B)*%
X179825000Y-62750000D02*
X178325000Y-64250000D01*
X180000000Y-62750000D02*
X179825000Y-62750000D01*
%TO.N,VBAT*%
D15*
X136500000Y-56750000D02*
X156250000Y-56750000D01*
D13*
X187250000Y-69450000D02*
X187900000Y-68800000D01*
D15*
X156250000Y-56750000D02*
X165500000Y-66000000D01*
X165500000Y-66000000D02*
X166250000Y-66000000D01*
D13*
X187750000Y-72750000D02*
X187250000Y-72250000D01*
X187750000Y-73500000D02*
X187750000Y-72750000D01*
X187250000Y-72250000D02*
X187250000Y-69450000D01*
%TO.N,/DC_DC/EN*%
D15*
X160500000Y-64250000D02*
X143750000Y-64250000D01*
X165728554Y-69478554D02*
X160500000Y-64250000D01*
X170300000Y-69478554D02*
X165728554Y-69478554D01*
%TO.N,/MCU/BOOT*%
D14*
X153000000Y-70000000D02*
X154250000Y-68750000D01*
X154250000Y-68750000D02*
X154250000Y-67000000D01*
%TO.N,/Protection/DSG*%
X187000000Y-67250000D02*
X186750000Y-67500000D01*
X189000000Y-67250000D02*
X187000000Y-67250000D01*
X186750000Y-67500000D02*
X186750000Y-69250000D01*
%TO.N,/Protection/BAT+*%
X186500000Y-66500000D02*
X189750000Y-66500000D01*
X189750000Y-66500000D02*
X190150000Y-66900000D01*
X186000000Y-67000000D02*
X186500000Y-66500000D01*
X186000000Y-67200000D02*
X186000000Y-67000000D01*
X190150000Y-66900000D02*
X190150000Y-67400000D01*
%TD*%
%TA.AperFunction,Conductor*%
%TO.N,/Protection/BAT+*%
G36*
X196193039Y-66269685D02*
G01*
X196238794Y-66322489D01*
X196250000Y-66374000D01*
X196250000Y-68026000D01*
X196230315Y-68093039D01*
X196177511Y-68138794D01*
X196126000Y-68150000D01*
X189624000Y-68150000D01*
X189556961Y-68130315D01*
X189511206Y-68077511D01*
X189500000Y-68026000D01*
X189500000Y-66374000D01*
X189519685Y-66306961D01*
X189572489Y-66261206D01*
X189624000Y-66250000D01*
X196126000Y-66250000D01*
X196193039Y-66269685D01*
G37*
%TD.AperFunction*%
%TD*%
%TA.AperFunction,Conductor*%
%TO.N,/Protection/BAT-*%
G36*
X184054736Y-70500942D02*
G01*
X184116975Y-70513322D01*
X184134640Y-70520638D01*
X184183319Y-70553165D01*
X184196834Y-70566680D01*
X184213098Y-70591021D01*
X184229361Y-70615360D01*
X184236677Y-70633023D01*
X184249058Y-70695263D01*
X184250000Y-70704823D01*
X184250000Y-74662333D01*
X184249058Y-74671893D01*
X184236677Y-74734133D01*
X184229361Y-74751796D01*
X184194101Y-74804567D01*
X184188007Y-74811992D01*
X183558580Y-75441419D01*
X183558577Y-75441423D01*
X183501256Y-75498743D01*
X183500000Y-75498865D01*
X183500000Y-70500000D01*
X184045177Y-70500000D01*
X184054736Y-70500942D01*
G37*
%TD.AperFunction*%
%TD*%
%TA.AperFunction,Conductor*%
%TO.N,VBAT*%
G36*
X188297566Y-67550236D02*
G01*
X188301750Y-67550647D01*
X188302343Y-67550706D01*
X188307086Y-67551409D01*
X188362244Y-67562381D01*
X188371426Y-67565165D01*
X188380182Y-67568791D01*
X188388645Y-67573314D01*
X188429310Y-67600486D01*
X188436732Y-67606578D01*
X188443420Y-67613266D01*
X188449514Y-67620691D01*
X188463098Y-67641021D01*
X188476680Y-67661348D01*
X188481209Y-67669821D01*
X188484831Y-67678566D01*
X188487618Y-67687756D01*
X188498587Y-67742897D01*
X188499292Y-67747647D01*
X188499763Y-67752422D01*
X188500000Y-67757232D01*
X188500000Y-68056335D01*
X188500001Y-68056339D01*
X188518879Y-68141150D01*
X188518879Y-68141151D01*
X188518880Y-68141152D01*
X188518883Y-68141157D01*
X188571961Y-68209967D01*
X188703987Y-68319990D01*
X188721836Y-68334864D01*
X188725754Y-68338510D01*
X188729475Y-68342374D01*
X188732959Y-68346412D01*
X188771168Y-68395946D01*
X188776742Y-68405088D01*
X188781203Y-68414615D01*
X188784656Y-68424747D01*
X188798245Y-68485794D01*
X188799122Y-68491081D01*
X188799706Y-68496388D01*
X188800000Y-68501748D01*
X188800000Y-68892766D01*
X188799763Y-68897576D01*
X188799292Y-68902351D01*
X188798587Y-68907101D01*
X188787618Y-68962242D01*
X188784831Y-68971432D01*
X188781209Y-68980177D01*
X188776680Y-68988649D01*
X188749516Y-69029304D01*
X188743422Y-69036730D01*
X188736730Y-69043422D01*
X188729304Y-69049516D01*
X188688649Y-69076680D01*
X188680176Y-69081209D01*
X188671435Y-69084829D01*
X188662247Y-69087616D01*
X188623962Y-69095232D01*
X188619275Y-69096165D01*
X188610846Y-69097841D01*
X188607095Y-69098588D01*
X188602350Y-69099292D01*
X188597578Y-69099763D01*
X188592765Y-69100000D01*
X187857234Y-69100000D01*
X187852425Y-69099763D01*
X187847649Y-69099292D01*
X187842911Y-69098589D01*
X187827202Y-69095465D01*
X187787755Y-69087618D01*
X187778565Y-69084830D01*
X187769818Y-69081207D01*
X187761348Y-69076680D01*
X187741021Y-69063098D01*
X187720691Y-69049514D01*
X187713266Y-69043420D01*
X187706578Y-69036732D01*
X187700484Y-69029307D01*
X187673318Y-68988650D01*
X187668793Y-68980186D01*
X187665167Y-68971432D01*
X187662380Y-68962245D01*
X187662379Y-68962242D01*
X187651407Y-68907078D01*
X187650704Y-68902334D01*
X187650234Y-68897558D01*
X187650000Y-68892773D01*
X187650000Y-67757228D01*
X187650235Y-67752438D01*
X187650703Y-67747673D01*
X187651408Y-67742915D01*
X187662382Y-67687746D01*
X187665167Y-67678566D01*
X187668793Y-67669812D01*
X187673317Y-67661350D01*
X187700491Y-67620681D01*
X187706578Y-67613266D01*
X187713268Y-67606575D01*
X187720682Y-67600490D01*
X187761351Y-67573316D01*
X187769820Y-67568790D01*
X187778562Y-67565169D01*
X187787751Y-67562381D01*
X187842915Y-67551408D01*
X187847671Y-67550703D01*
X187848469Y-67550624D01*
X187852438Y-67550235D01*
X187857228Y-67550000D01*
X188292767Y-67550000D01*
X188297566Y-67550236D01*
G37*
%TD.AperFunction*%
%TD*%
%TA.AperFunction,Conductor*%
%TO.N,Net-(U3-Pad4)*%
G36*
X190271728Y-68350419D02*
G01*
X190278050Y-68351251D01*
X190284331Y-68352500D01*
X190343588Y-68368377D01*
X190355403Y-68373272D01*
X190366198Y-68379505D01*
X190376345Y-68387291D01*
X190410377Y-68421323D01*
X190421000Y-68437221D01*
X190423854Y-68444112D01*
X190423855Y-68464930D01*
X190425489Y-68464834D01*
X190426150Y-68476069D01*
X190440684Y-68502027D01*
X190445342Y-68513595D01*
X190448413Y-68525366D01*
X190450000Y-68537736D01*
X190450000Y-70292766D01*
X190449763Y-70297576D01*
X190449292Y-70302351D01*
X190448587Y-70307101D01*
X190437618Y-70362242D01*
X190434831Y-70371432D01*
X190431209Y-70380177D01*
X190426680Y-70388649D01*
X190399516Y-70429304D01*
X190393422Y-70436730D01*
X190386730Y-70443422D01*
X190379304Y-70449516D01*
X190338649Y-70476680D01*
X190330176Y-70481209D01*
X190321435Y-70484829D01*
X190312247Y-70487616D01*
X190273962Y-70495232D01*
X190269275Y-70496165D01*
X190260846Y-70497841D01*
X190257095Y-70498588D01*
X190252350Y-70499292D01*
X190247578Y-70499763D01*
X190242765Y-70500000D01*
X187857234Y-70500000D01*
X187852425Y-70499763D01*
X187847649Y-70499292D01*
X187842911Y-70498589D01*
X187827202Y-70495465D01*
X187787755Y-70487618D01*
X187778565Y-70484830D01*
X187769818Y-70481207D01*
X187761348Y-70476680D01*
X187741021Y-70463098D01*
X187720691Y-70449514D01*
X187713266Y-70443420D01*
X187706578Y-70436732D01*
X187700484Y-70429307D01*
X187673318Y-70388650D01*
X187668793Y-70380186D01*
X187665167Y-70371432D01*
X187662380Y-70362245D01*
X187662379Y-70362242D01*
X187651407Y-70307078D01*
X187650704Y-70302334D01*
X187650234Y-70297558D01*
X187650000Y-70292773D01*
X187650000Y-69507231D01*
X187650235Y-69502438D01*
X187650706Y-69497653D01*
X187651414Y-69492889D01*
X187651789Y-69491008D01*
X187651789Y-69491003D01*
X187651904Y-69490423D01*
X187656738Y-69476928D01*
X187663296Y-69464656D01*
X187671859Y-69453110D01*
X187803110Y-69321859D01*
X187814654Y-69313298D01*
X187826929Y-69306737D01*
X187840423Y-69301904D01*
X187840997Y-69301790D01*
X187841008Y-69301792D01*
X187841008Y-69301789D01*
X187842081Y-69301574D01*
X187842898Y-69301412D01*
X187847655Y-69300706D01*
X187852440Y-69300235D01*
X187857232Y-69300000D01*
X188949997Y-69300000D01*
X188950000Y-69300000D01*
X189026537Y-69284776D01*
X189091421Y-69241421D01*
X189134776Y-69176537D01*
X189150000Y-69100000D01*
X189150000Y-68557228D01*
X189150235Y-68552438D01*
X189150703Y-68547673D01*
X189151408Y-68542915D01*
X189162382Y-68487746D01*
X189165165Y-68478569D01*
X189168795Y-68469808D01*
X189173311Y-68461358D01*
X189200491Y-68420681D01*
X189206575Y-68413268D01*
X189213268Y-68406575D01*
X189220682Y-68400490D01*
X189261351Y-68373316D01*
X189269820Y-68368790D01*
X189278562Y-68365169D01*
X189287751Y-68362381D01*
X189342915Y-68351408D01*
X189347671Y-68350703D01*
X189348469Y-68350624D01*
X189352438Y-68350235D01*
X189357228Y-68350000D01*
X190265335Y-68350000D01*
X190271728Y-68350419D01*
G37*
%TD.AperFunction*%
%TD*%
%TA.AperFunction,Conductor*%
%TO.N,/Protection/BAT-*%
G36*
X116416266Y-60001065D02*
G01*
X116443135Y-60006759D01*
X116482209Y-60015039D01*
X116500780Y-60023280D01*
X116555389Y-60062806D01*
X116575042Y-60094748D01*
X116573367Y-60101777D01*
X125940431Y-70434164D01*
X125940445Y-70434176D01*
X125940451Y-70434183D01*
X125940457Y-70434187D01*
X126007628Y-70482806D01*
X126007629Y-70482806D01*
X126007630Y-70482807D01*
X126043189Y-70490342D01*
X126088752Y-70499999D01*
X126088754Y-70499999D01*
X126088758Y-70500000D01*
X130448667Y-70500000D01*
X130483315Y-70514352D01*
X130519438Y-70550475D01*
X130543238Y-70564216D01*
X130605059Y-70599909D01*
X130605061Y-70599909D01*
X130605062Y-70599910D01*
X130628937Y-70606307D01*
X130700562Y-70625500D01*
X130700565Y-70625500D01*
X130799437Y-70625500D01*
X130847186Y-70612705D01*
X130894938Y-70599910D01*
X130929624Y-70579883D01*
X130966804Y-70574988D01*
X130996558Y-70597818D01*
X131001454Y-70635000D01*
X130988771Y-70656967D01*
X130785591Y-70860148D01*
X130750943Y-70874500D01*
X130700562Y-70874500D01*
X130605063Y-70900089D01*
X130605059Y-70900090D01*
X130519437Y-70949525D01*
X130519437Y-70949526D01*
X130449526Y-71019437D01*
X130449525Y-71019437D01*
X130400090Y-71105059D01*
X130400089Y-71105063D01*
X130374500Y-71200562D01*
X130374500Y-71299437D01*
X130400089Y-71394936D01*
X130400090Y-71394940D01*
X130449525Y-71480562D01*
X130519438Y-71550475D01*
X130542575Y-71563833D01*
X130605059Y-71599909D01*
X130605061Y-71599909D01*
X130605062Y-71599910D01*
X130628937Y-71606307D01*
X130700562Y-71625500D01*
X130700565Y-71625500D01*
X130799437Y-71625500D01*
X130847186Y-71612705D01*
X130894938Y-71599910D01*
X130929624Y-71579883D01*
X130966804Y-71574988D01*
X130996558Y-71597818D01*
X131001454Y-71635000D01*
X130988771Y-71656967D01*
X130785591Y-71860148D01*
X130750943Y-71874500D01*
X130700562Y-71874500D01*
X130605063Y-71900089D01*
X130605059Y-71900090D01*
X130519437Y-71949525D01*
X130519437Y-71949526D01*
X130449526Y-72019437D01*
X130449525Y-72019437D01*
X130400090Y-72105059D01*
X130400089Y-72105063D01*
X130374500Y-72200562D01*
X130374500Y-72299437D01*
X130400089Y-72394936D01*
X130400090Y-72394940D01*
X130431931Y-72450089D01*
X130449525Y-72480562D01*
X130519438Y-72550475D01*
X130550776Y-72568568D01*
X130605059Y-72599909D01*
X130605061Y-72599909D01*
X130605062Y-72599910D01*
X130628937Y-72606307D01*
X130700562Y-72625500D01*
X130700565Y-72625500D01*
X130799437Y-72625500D01*
X130847186Y-72612705D01*
X130894938Y-72599910D01*
X130980562Y-72550475D01*
X131050475Y-72480562D01*
X131099910Y-72394938D01*
X131112705Y-72347186D01*
X131125500Y-72299437D01*
X131125500Y-72249057D01*
X131139852Y-72214409D01*
X132839409Y-70514852D01*
X132874057Y-70500500D01*
X149802089Y-70500500D01*
X149807168Y-70500000D01*
X167329742Y-70500000D01*
X167364390Y-70514352D01*
X167378742Y-70549000D01*
X167375678Y-70564395D01*
X167375921Y-70564460D01*
X167349500Y-70663062D01*
X167349500Y-70761937D01*
X167375089Y-70857436D01*
X167375090Y-70857440D01*
X167424525Y-70943062D01*
X167459315Y-70977852D01*
X167473667Y-71012500D01*
X167459315Y-71047148D01*
X167424526Y-71081937D01*
X167424525Y-71081937D01*
X167375090Y-71167559D01*
X167375089Y-71167563D01*
X167349500Y-71263062D01*
X167349500Y-71361937D01*
X167375089Y-71457436D01*
X167375090Y-71457440D01*
X167401466Y-71503123D01*
X167424525Y-71543062D01*
X167494438Y-71612975D01*
X167516132Y-71625500D01*
X167580059Y-71662409D01*
X167580061Y-71662409D01*
X167580062Y-71662410D01*
X167603937Y-71668807D01*
X167675562Y-71688000D01*
X167675565Y-71688000D01*
X167774437Y-71688000D01*
X167822186Y-71675205D01*
X167869938Y-71662410D01*
X167955562Y-71612975D01*
X167990352Y-71578185D01*
X168025000Y-71563833D01*
X168059648Y-71578185D01*
X168094438Y-71612975D01*
X168116132Y-71625500D01*
X168180059Y-71662409D01*
X168180061Y-71662409D01*
X168180062Y-71662410D01*
X168203937Y-71668807D01*
X168275562Y-71688000D01*
X168275565Y-71688000D01*
X168374437Y-71688000D01*
X168422186Y-71675205D01*
X168469938Y-71662410D01*
X168555562Y-71612975D01*
X168625475Y-71543062D01*
X168674910Y-71457438D01*
X168691657Y-71394938D01*
X168700500Y-71361937D01*
X168700500Y-71263062D01*
X168674910Y-71167563D01*
X168674909Y-71167559D01*
X168625474Y-71081937D01*
X168590685Y-71047148D01*
X168576333Y-71012500D01*
X168590685Y-70977852D01*
X168625474Y-70943063D01*
X168625475Y-70943062D01*
X168668286Y-70868911D01*
X168674909Y-70857440D01*
X168674909Y-70857439D01*
X168674910Y-70857438D01*
X168687705Y-70809686D01*
X168700500Y-70761937D01*
X168700500Y-70663062D01*
X168674079Y-70564460D01*
X168674989Y-70564216D01*
X168674986Y-70530253D01*
X168701502Y-70503732D01*
X168720258Y-70500000D01*
X175229742Y-70500000D01*
X175264390Y-70514352D01*
X175278742Y-70549000D01*
X175275678Y-70564395D01*
X175275921Y-70564460D01*
X175249500Y-70663062D01*
X175249500Y-70761937D01*
X175275089Y-70857436D01*
X175275090Y-70857440D01*
X175324525Y-70943062D01*
X175359315Y-70977852D01*
X175373667Y-71012500D01*
X175359315Y-71047148D01*
X175324526Y-71081937D01*
X175324525Y-71081937D01*
X175275090Y-71167559D01*
X175275089Y-71167563D01*
X175249500Y-71263062D01*
X175249500Y-71361937D01*
X175275089Y-71457436D01*
X175275090Y-71457440D01*
X175301466Y-71503123D01*
X175324525Y-71543062D01*
X175394438Y-71612975D01*
X175416132Y-71625500D01*
X175480059Y-71662409D01*
X175480061Y-71662409D01*
X175480062Y-71662410D01*
X175503937Y-71668807D01*
X175575562Y-71688000D01*
X175575565Y-71688000D01*
X175674437Y-71688000D01*
X175722186Y-71675205D01*
X175769938Y-71662410D01*
X175855562Y-71612975D01*
X175890352Y-71578185D01*
X175925000Y-71563833D01*
X175959648Y-71578185D01*
X175994438Y-71612975D01*
X176016132Y-71625500D01*
X176080059Y-71662409D01*
X176080061Y-71662409D01*
X176080062Y-71662410D01*
X176103937Y-71668807D01*
X176175562Y-71688000D01*
X176175565Y-71688000D01*
X176274437Y-71688000D01*
X176322186Y-71675205D01*
X176369938Y-71662410D01*
X176455562Y-71612975D01*
X176525475Y-71543062D01*
X176574910Y-71457438D01*
X176591657Y-71394938D01*
X176600500Y-71361937D01*
X176600500Y-71263062D01*
X176574910Y-71167563D01*
X176574909Y-71167559D01*
X176525474Y-71081937D01*
X176490685Y-71047148D01*
X176476333Y-71012500D01*
X176490685Y-70977852D01*
X176525474Y-70943063D01*
X176525475Y-70943062D01*
X176568286Y-70868911D01*
X176574909Y-70857440D01*
X176574909Y-70857439D01*
X176574910Y-70857438D01*
X176587705Y-70809686D01*
X176600500Y-70761937D01*
X176600500Y-70663062D01*
X176574079Y-70564460D01*
X176574989Y-70564216D01*
X176574986Y-70530253D01*
X176601502Y-70503732D01*
X176620258Y-70500000D01*
X183500000Y-70500000D01*
X183500000Y-75498866D01*
X183499197Y-75498945D01*
X183498664Y-75499235D01*
X183498065Y-75499057D01*
X183493580Y-75499499D01*
X110501471Y-75499499D01*
X110498512Y-75499410D01*
X110201671Y-75481454D01*
X110195798Y-75480740D01*
X109904747Y-75427403D01*
X109899001Y-75425987D01*
X109616494Y-75337954D01*
X109610962Y-75335856D01*
X109341125Y-75214412D01*
X109335886Y-75211662D01*
X109082661Y-75058583D01*
X109077791Y-75055222D01*
X109018781Y-75008990D01*
X109000357Y-74976324D01*
X109000000Y-74970418D01*
X109000000Y-72905519D01*
X109299500Y-72905519D01*
X109299500Y-73094480D01*
X109329059Y-73281115D01*
X109329060Y-73281118D01*
X109387453Y-73460833D01*
X109473236Y-73629193D01*
X109473239Y-73629197D01*
X109473240Y-73629199D01*
X109584310Y-73782073D01*
X109584312Y-73782075D01*
X109584315Y-73782079D01*
X109717920Y-73915684D01*
X109717923Y-73915686D01*
X109717927Y-73915690D01*
X109870801Y-74026760D01*
X109870803Y-74026761D01*
X109870806Y-74026763D01*
X109917342Y-74050474D01*
X110039168Y-74112547D01*
X110218882Y-74170940D01*
X110405519Y-74200500D01*
X110405520Y-74200500D01*
X110594480Y-74200500D01*
X110594481Y-74200500D01*
X110781118Y-74170940D01*
X110960832Y-74112547D01*
X111129199Y-74026760D01*
X111282073Y-73915690D01*
X111415690Y-73782073D01*
X111474911Y-73700562D01*
X162124500Y-73700562D01*
X162124500Y-73799437D01*
X162150089Y-73894936D01*
X162150090Y-73894940D01*
X162199525Y-73980562D01*
X162269438Y-74050475D01*
X162300776Y-74068568D01*
X162355059Y-74099909D01*
X162355061Y-74099909D01*
X162355062Y-74099910D01*
X162378937Y-74106307D01*
X162450562Y-74125500D01*
X162450565Y-74125500D01*
X162549437Y-74125500D01*
X162597780Y-74112546D01*
X162644938Y-74099910D01*
X162730562Y-74050475D01*
X162800475Y-73980562D01*
X162849910Y-73894938D01*
X162862705Y-73847186D01*
X162875500Y-73799437D01*
X162875500Y-73700562D01*
X162849910Y-73605063D01*
X162849909Y-73605059D01*
X162800474Y-73519437D01*
X162730562Y-73449525D01*
X162644940Y-73400090D01*
X162644936Y-73400089D01*
X162549438Y-73374500D01*
X162549435Y-73374500D01*
X162450565Y-73374500D01*
X162450562Y-73374500D01*
X162355063Y-73400089D01*
X162355059Y-73400090D01*
X162269437Y-73449525D01*
X162269437Y-73449526D01*
X162199526Y-73519437D01*
X162199525Y-73519437D01*
X162150090Y-73605059D01*
X162150089Y-73605063D01*
X162124500Y-73700562D01*
X111474911Y-73700562D01*
X111526760Y-73629199D01*
X111612547Y-73460832D01*
X111670940Y-73281118D01*
X111700500Y-73094481D01*
X111700500Y-72905519D01*
X111675958Y-72750562D01*
X139624500Y-72750562D01*
X139624500Y-72849437D01*
X139650089Y-72944936D01*
X139650090Y-72944940D01*
X139681880Y-73000000D01*
X139699525Y-73030562D01*
X139769438Y-73100475D01*
X139800776Y-73118568D01*
X139855059Y-73149909D01*
X139855061Y-73149909D01*
X139855062Y-73149910D01*
X139878937Y-73156307D01*
X139950562Y-73175500D01*
X139950565Y-73175500D01*
X140049437Y-73175500D01*
X140097186Y-73162705D01*
X140144938Y-73149910D01*
X140230562Y-73100475D01*
X140300475Y-73030562D01*
X140349910Y-72944938D01*
X140362705Y-72897186D01*
X140375500Y-72849437D01*
X140375500Y-72750562D01*
X146624500Y-72750562D01*
X146624500Y-72849437D01*
X146650089Y-72944936D01*
X146650090Y-72944940D01*
X146681880Y-73000000D01*
X146699525Y-73030562D01*
X146769438Y-73100475D01*
X146800776Y-73118568D01*
X146855059Y-73149909D01*
X146855061Y-73149909D01*
X146855062Y-73149910D01*
X146878937Y-73156307D01*
X146950562Y-73175500D01*
X146950565Y-73175500D01*
X147049437Y-73175500D01*
X147097186Y-73162705D01*
X147144938Y-73149910D01*
X147230562Y-73100475D01*
X147300475Y-73030562D01*
X147349910Y-72944938D01*
X147362705Y-72897186D01*
X147375500Y-72849437D01*
X147375500Y-72750562D01*
X154624500Y-72750562D01*
X154624500Y-72849437D01*
X154650089Y-72944936D01*
X154650090Y-72944940D01*
X154681880Y-73000000D01*
X154699525Y-73030562D01*
X154769438Y-73100475D01*
X154800776Y-73118568D01*
X154855059Y-73149909D01*
X154855061Y-73149909D01*
X154855062Y-73149910D01*
X154878937Y-73156307D01*
X154950562Y-73175500D01*
X154950565Y-73175500D01*
X155049437Y-73175500D01*
X155097186Y-73162705D01*
X155144938Y-73149910D01*
X155230562Y-73100475D01*
X155300475Y-73030562D01*
X155349910Y-72944938D01*
X155362705Y-72897186D01*
X155375500Y-72849437D01*
X155375500Y-72750562D01*
X155349910Y-72655063D01*
X155349909Y-72655059D01*
X155300474Y-72569437D01*
X155230562Y-72499525D01*
X155144940Y-72450090D01*
X155144936Y-72450089D01*
X155049438Y-72424500D01*
X155049435Y-72424500D01*
X154950565Y-72424500D01*
X154950562Y-72424500D01*
X154855063Y-72450089D01*
X154855059Y-72450090D01*
X154769437Y-72499525D01*
X154769437Y-72499526D01*
X154699526Y-72569437D01*
X154699525Y-72569437D01*
X154650090Y-72655059D01*
X154650089Y-72655063D01*
X154624500Y-72750562D01*
X147375500Y-72750562D01*
X147349910Y-72655063D01*
X147349909Y-72655059D01*
X147300474Y-72569437D01*
X147230562Y-72499525D01*
X147144940Y-72450090D01*
X147144936Y-72450089D01*
X147049438Y-72424500D01*
X147049435Y-72424500D01*
X146950565Y-72424500D01*
X146950562Y-72424500D01*
X146855063Y-72450089D01*
X146855059Y-72450090D01*
X146769437Y-72499525D01*
X146769437Y-72499526D01*
X146699526Y-72569437D01*
X146699525Y-72569437D01*
X146650090Y-72655059D01*
X146650089Y-72655063D01*
X146624500Y-72750562D01*
X140375500Y-72750562D01*
X140349910Y-72655063D01*
X140349909Y-72655059D01*
X140300474Y-72569437D01*
X140230562Y-72499525D01*
X140144940Y-72450090D01*
X140144936Y-72450089D01*
X140049438Y-72424500D01*
X140049435Y-72424500D01*
X139950565Y-72424500D01*
X139950562Y-72424500D01*
X139855063Y-72450089D01*
X139855059Y-72450090D01*
X139769437Y-72499525D01*
X139769437Y-72499526D01*
X139699526Y-72569437D01*
X139699525Y-72569437D01*
X139650090Y-72655059D01*
X139650089Y-72655063D01*
X139624500Y-72750562D01*
X111675958Y-72750562D01*
X111670940Y-72718882D01*
X111612547Y-72539168D01*
X111609714Y-72533608D01*
X111526763Y-72370806D01*
X111526761Y-72370803D01*
X111526760Y-72370801D01*
X111415690Y-72217927D01*
X111415686Y-72217923D01*
X111415684Y-72217920D01*
X111282079Y-72084315D01*
X111282080Y-72084315D01*
X111129193Y-71973236D01*
X110960833Y-71887453D01*
X110781118Y-71829060D01*
X110781115Y-71829059D01*
X110637744Y-71806352D01*
X110594481Y-71799500D01*
X110405519Y-71799500D01*
X110370397Y-71805062D01*
X110218884Y-71829059D01*
X110218881Y-71829060D01*
X110039166Y-71887453D01*
X109870806Y-71973236D01*
X109717920Y-72084315D01*
X109584315Y-72217920D01*
X109473236Y-72370806D01*
X109387453Y-72539166D01*
X109329060Y-72718881D01*
X109329059Y-72718884D01*
X109299500Y-72905519D01*
X109000000Y-72905519D01*
X109000000Y-70200562D01*
X118374500Y-70200562D01*
X118374500Y-70299437D01*
X118400089Y-70394936D01*
X118400090Y-70394940D01*
X118422750Y-70434187D01*
X118449525Y-70480562D01*
X118519438Y-70550475D01*
X118543238Y-70564216D01*
X118605059Y-70599909D01*
X118605061Y-70599909D01*
X118605062Y-70599910D01*
X118628937Y-70606307D01*
X118700562Y-70625500D01*
X118700565Y-70625500D01*
X118799437Y-70625500D01*
X118847186Y-70612705D01*
X118894938Y-70599910D01*
X118898562Y-70597818D01*
X118906411Y-70593286D01*
X118980562Y-70550475D01*
X119050475Y-70480562D01*
X119099910Y-70394938D01*
X119113810Y-70343062D01*
X119125500Y-70299437D01*
X119125500Y-70200562D01*
X119099910Y-70105063D01*
X119099909Y-70105059D01*
X119067794Y-70049435D01*
X119050475Y-70019438D01*
X118980562Y-69949525D01*
X118894940Y-69900090D01*
X118894936Y-69900089D01*
X118799438Y-69874500D01*
X118799435Y-69874500D01*
X118700565Y-69874500D01*
X118700562Y-69874500D01*
X118605063Y-69900089D01*
X118605059Y-69900090D01*
X118519437Y-69949525D01*
X118519437Y-69949526D01*
X118449526Y-70019437D01*
X118449525Y-70019437D01*
X118400090Y-70105059D01*
X118400089Y-70105063D01*
X118374500Y-70200562D01*
X109000000Y-70200562D01*
X109000000Y-69200562D01*
X118374500Y-69200562D01*
X118374500Y-69299437D01*
X118400089Y-69394936D01*
X118400090Y-69394940D01*
X118419824Y-69429119D01*
X118449525Y-69480562D01*
X118519438Y-69550475D01*
X118550776Y-69568568D01*
X118605059Y-69599909D01*
X118605061Y-69599909D01*
X118605062Y-69599910D01*
X118628865Y-69606288D01*
X118700562Y-69625500D01*
X118700565Y-69625500D01*
X118799437Y-69625500D01*
X118847186Y-69612705D01*
X118894938Y-69599910D01*
X118980562Y-69550475D01*
X119050475Y-69480562D01*
X119099910Y-69394938D01*
X119125395Y-69299828D01*
X119125500Y-69299437D01*
X119125500Y-69200562D01*
X119099910Y-69105063D01*
X119099909Y-69105059D01*
X119050474Y-69019437D01*
X118980562Y-68949525D01*
X118894940Y-68900090D01*
X118894936Y-68900089D01*
X118799438Y-68874500D01*
X118799435Y-68874500D01*
X118700565Y-68874500D01*
X118700562Y-68874500D01*
X118605063Y-68900089D01*
X118605059Y-68900090D01*
X118519437Y-68949525D01*
X118519437Y-68949526D01*
X118449526Y-69019437D01*
X118449525Y-69019437D01*
X118400090Y-69105059D01*
X118400089Y-69105063D01*
X118374500Y-69200562D01*
X109000000Y-69200562D01*
X109000000Y-64500562D01*
X119574500Y-64500562D01*
X119574500Y-64599437D01*
X119600089Y-64694936D01*
X119600090Y-64694940D01*
X119621189Y-64731483D01*
X119649525Y-64780562D01*
X119719438Y-64850475D01*
X119745589Y-64865573D01*
X119805059Y-64899909D01*
X119805061Y-64899909D01*
X119805062Y-64899910D01*
X119828937Y-64906307D01*
X119900562Y-64925500D01*
X119900565Y-64925500D01*
X119999437Y-64925500D01*
X120047186Y-64912705D01*
X120094938Y-64899910D01*
X120180562Y-64850475D01*
X120250475Y-64780562D01*
X120299910Y-64694938D01*
X120325373Y-64599910D01*
X120325500Y-64599437D01*
X120325500Y-64500562D01*
X120299910Y-64405063D01*
X120299909Y-64405059D01*
X120250474Y-64319437D01*
X120180562Y-64249525D01*
X120094940Y-64200090D01*
X120094936Y-64200089D01*
X119999438Y-64174500D01*
X119999435Y-64174500D01*
X119900565Y-64174500D01*
X119900562Y-64174500D01*
X119805063Y-64200089D01*
X119805059Y-64200090D01*
X119719437Y-64249525D01*
X119719437Y-64249526D01*
X119649526Y-64319437D01*
X119649525Y-64319437D01*
X119600090Y-64405059D01*
X119600089Y-64405063D01*
X119574500Y-64500562D01*
X109000000Y-64500562D01*
X109000000Y-60204823D01*
X109000939Y-60195274D01*
X109013323Y-60133018D01*
X109020638Y-60115360D01*
X109029714Y-60101777D01*
X109053167Y-60066677D01*
X109066677Y-60053167D01*
X109115361Y-60020637D01*
X109133018Y-60013323D01*
X109195274Y-60000939D01*
X109204823Y-60000000D01*
X116406108Y-60000000D01*
X116416266Y-60001065D01*
G37*
%TD.AperFunction*%
%TD*%
%TA.AperFunction,Conductor*%
%TO.N,GND*%
G36*
X126868039Y-51520185D02*
G01*
X126913794Y-51572989D01*
X126925000Y-51624500D01*
X126925000Y-52400000D01*
X170124999Y-52400000D01*
X170125000Y-52400000D01*
X170170506Y-51617302D01*
X170194049Y-51551519D01*
X170249419Y-51508906D01*
X170294297Y-51500500D01*
X194494363Y-51500500D01*
X194498084Y-51500556D01*
X194501848Y-51500669D01*
X194505575Y-51500837D01*
X194790069Y-51518045D01*
X194797505Y-51518721D01*
X194804951Y-51519625D01*
X194812324Y-51520747D01*
X195087134Y-51571108D01*
X195094431Y-51572675D01*
X195101691Y-51574465D01*
X195101703Y-51574468D01*
X195108909Y-51576477D01*
X195375613Y-51659586D01*
X195382663Y-51662018D01*
X195389671Y-51664675D01*
X195396567Y-51667532D01*
X195651322Y-51782188D01*
X195658048Y-51785464D01*
X195664684Y-51788947D01*
X195671191Y-51792617D01*
X195910260Y-51937137D01*
X195916534Y-51941194D01*
X195922686Y-51945440D01*
X195928711Y-51949872D01*
X196148621Y-52122161D01*
X196154379Y-52126960D01*
X196159984Y-52131926D01*
X196165434Y-52137057D01*
X196362941Y-52334564D01*
X196368072Y-52340014D01*
X196373038Y-52345619D01*
X196377837Y-52351377D01*
X196550117Y-52571275D01*
X196554538Y-52577283D01*
X196558817Y-52583483D01*
X196562854Y-52589727D01*
X196707389Y-52828820D01*
X196711063Y-52835335D01*
X196714547Y-52841975D01*
X196717820Y-52848697D01*
X196823860Y-53084308D01*
X196832451Y-53103394D01*
X196835325Y-53110333D01*
X196837983Y-53117344D01*
X196840421Y-53124412D01*
X196923520Y-53391087D01*
X196925526Y-53398282D01*
X196927322Y-53405566D01*
X196928893Y-53412881D01*
X196979247Y-53687655D01*
X196980373Y-53695051D01*
X196981275Y-53702475D01*
X196981954Y-53709944D01*
X196999160Y-53994384D01*
X196999329Y-53998117D01*
X196999443Y-54001881D01*
X196999500Y-54005635D01*
X196999500Y-72994363D01*
X196999443Y-72998117D01*
X196999329Y-73001881D01*
X196999160Y-73005614D01*
X196981954Y-73290054D01*
X196981275Y-73297523D01*
X196980373Y-73304947D01*
X196979247Y-73312343D01*
X196928893Y-73587117D01*
X196927319Y-73594449D01*
X196925530Y-73601705D01*
X196923520Y-73608911D01*
X196840421Y-73875586D01*
X196837980Y-73882663D01*
X196835321Y-73889675D01*
X196832452Y-73896600D01*
X196717816Y-74151308D01*
X196714543Y-74158031D01*
X196711062Y-74164665D01*
X196707381Y-74171192D01*
X196584352Y-74374708D01*
X196562863Y-74410257D01*
X196558807Y-74416530D01*
X196554549Y-74422699D01*
X196550117Y-74428723D01*
X196377837Y-74648621D01*
X196373038Y-74654379D01*
X196368072Y-74659984D01*
X196362941Y-74665434D01*
X196165434Y-74862941D01*
X196159984Y-74868072D01*
X196154379Y-74873038D01*
X196148621Y-74877837D01*
X195928723Y-75050117D01*
X195922699Y-75054549D01*
X195916530Y-75058807D01*
X195910255Y-75062863D01*
X195671192Y-75207381D01*
X195664665Y-75211062D01*
X195658031Y-75214543D01*
X195651308Y-75217816D01*
X195396600Y-75332452D01*
X195389675Y-75335321D01*
X195382663Y-75337980D01*
X195375586Y-75340421D01*
X195108911Y-75423520D01*
X195101708Y-75425529D01*
X195094439Y-75427321D01*
X195087117Y-75428893D01*
X194812343Y-75479247D01*
X194804949Y-75480373D01*
X194799371Y-75481050D01*
X194797520Y-75481275D01*
X194790054Y-75481954D01*
X194514450Y-75498624D01*
X194510370Y-75498871D01*
X194505620Y-75499158D01*
X194501881Y-75499328D01*
X194498107Y-75499442D01*
X194494363Y-75499499D01*
X184019772Y-75499499D01*
X183952733Y-75479814D01*
X183906978Y-75427010D01*
X183897034Y-75357852D01*
X183926059Y-75294296D01*
X183932091Y-75287818D01*
X184297961Y-74921948D01*
X184297962Y-74921947D01*
X184308206Y-74910645D01*
X184314300Y-74903220D01*
X184323395Y-74890957D01*
X184358655Y-74838186D01*
X184373025Y-74811302D01*
X184380341Y-74793639D01*
X184389189Y-74764471D01*
X184401570Y-74702231D01*
X184403809Y-74687141D01*
X184404751Y-74677581D01*
X184405500Y-74662333D01*
X184405500Y-70704823D01*
X184404751Y-70689575D01*
X184403809Y-70680015D01*
X184401570Y-70664925D01*
X184389189Y-70602685D01*
X184380341Y-70573517D01*
X184373025Y-70555854D01*
X184358654Y-70528968D01*
X184342391Y-70504629D01*
X184326128Y-70480289D01*
X184306789Y-70456725D01*
X184293274Y-70443210D01*
X184269712Y-70423872D01*
X184245013Y-70407368D01*
X184221045Y-70391352D01*
X184221026Y-70391341D01*
X184194145Y-70376974D01*
X184194141Y-70376972D01*
X184176476Y-70369656D01*
X184147312Y-70360810D01*
X184102044Y-70351806D01*
X184085072Y-70348430D01*
X184085068Y-70348429D01*
X184085066Y-70348429D01*
X184070006Y-70346194D01*
X184069997Y-70346193D01*
X184069058Y-70346100D01*
X184060427Y-70345250D01*
X184060411Y-70345249D01*
X184060413Y-70345249D01*
X184055145Y-70344990D01*
X184045177Y-70344500D01*
X184045165Y-70344500D01*
X177313181Y-70344500D01*
X177246142Y-70324815D01*
X177200387Y-70272011D01*
X177190443Y-70202853D01*
X177193407Y-70188405D01*
X177200500Y-70161935D01*
X177200500Y-70063065D01*
X177174910Y-69967562D01*
X177125475Y-69881938D01*
X177055562Y-69812025D01*
X176969938Y-69762590D01*
X176874435Y-69737000D01*
X176874433Y-69737000D01*
X176775565Y-69737000D01*
X176687203Y-69760676D01*
X176687200Y-69760677D01*
X176680062Y-69762590D01*
X176680060Y-69762591D01*
X176680059Y-69762591D01*
X176649453Y-69780262D01*
X176647195Y-69781565D01*
X176647179Y-69781574D01*
X176614583Y-69800394D01*
X176597126Y-69808731D01*
X176569114Y-69819513D01*
X176499486Y-69825225D01*
X176489281Y-69823117D01*
X176447327Y-69805997D01*
X176435848Y-69798620D01*
X176419257Y-69791064D01*
X176369940Y-69762591D01*
X176369939Y-69762590D01*
X176369938Y-69762590D01*
X176274435Y-69737000D01*
X176274433Y-69737000D01*
X176175565Y-69737000D01*
X176087203Y-69760676D01*
X176087200Y-69760677D01*
X176080062Y-69762590D01*
X176080060Y-69762591D01*
X176080059Y-69762591D01*
X176049453Y-69780262D01*
X176047195Y-69781565D01*
X176047179Y-69781574D01*
X176014583Y-69800394D01*
X175997126Y-69808731D01*
X175969114Y-69819513D01*
X175899486Y-69825225D01*
X175889281Y-69823117D01*
X175847327Y-69805997D01*
X175835848Y-69798620D01*
X175819257Y-69791064D01*
X175769940Y-69762591D01*
X175769939Y-69762590D01*
X175769938Y-69762590D01*
X175674435Y-69737000D01*
X175674433Y-69737000D01*
X175575565Y-69737000D01*
X175480060Y-69762590D01*
X175394439Y-69812023D01*
X175394433Y-69812028D01*
X175324528Y-69881933D01*
X175324523Y-69881939D01*
X175275090Y-69967560D01*
X175258327Y-70030121D01*
X175249500Y-70063065D01*
X175249500Y-70161935D01*
X175255939Y-70185967D01*
X175256593Y-70188405D01*
X175254932Y-70258255D01*
X175215770Y-70316118D01*
X175151542Y-70343623D01*
X175136819Y-70344500D01*
X169413181Y-70344500D01*
X169346142Y-70324815D01*
X169300387Y-70272011D01*
X169290443Y-70202853D01*
X169293407Y-70188405D01*
X169300500Y-70161935D01*
X169300500Y-70063065D01*
X169274910Y-69967562D01*
X169236013Y-69900191D01*
X169231464Y-69886059D01*
X169231003Y-69885544D01*
X169221633Y-69855515D01*
X169220012Y-69850476D01*
X169219896Y-69849320D01*
X169219708Y-69846975D01*
X169219632Y-69846664D01*
X169219223Y-69842549D01*
X169225030Y-69811754D01*
X169228969Y-69780660D01*
X169231453Y-69777692D01*
X169232171Y-69773890D01*
X169253704Y-69751123D01*
X169268653Y-69733274D01*
X169267485Y-69731791D01*
X169268501Y-69730991D01*
X169271609Y-69729744D01*
X169273829Y-69727094D01*
X169273936Y-69727024D01*
X169275519Y-69725971D01*
X169276335Y-69727198D01*
X169280183Y-69723130D01*
X169300778Y-69718046D01*
X169329282Y-69706614D01*
X169329127Y-69705523D01*
X169330788Y-69705287D01*
X169332979Y-69705132D01*
X169333349Y-69704984D01*
X169333846Y-69704937D01*
X169335204Y-69704812D01*
X169335218Y-69704973D01*
X169348231Y-69704054D01*
X169925270Y-69704054D01*
X169960205Y-69709077D01*
X169985448Y-69716489D01*
X170038194Y-69747785D01*
X170069438Y-69779029D01*
X170155062Y-69828464D01*
X170250565Y-69854054D01*
X170349432Y-69854054D01*
X170349435Y-69854054D01*
X170444938Y-69828464D01*
X170530562Y-69779029D01*
X170600475Y-69709116D01*
X170649910Y-69623492D01*
X170675500Y-69527989D01*
X170675500Y-69429119D01*
X170649910Y-69333616D01*
X170600475Y-69247992D01*
X170530562Y-69178079D01*
X170444938Y-69128644D01*
X170349435Y-69103054D01*
X170349433Y-69103054D01*
X170250565Y-69103054D01*
X170168316Y-69125092D01*
X170168314Y-69125093D01*
X170155062Y-69128644D01*
X170155060Y-69128645D01*
X170155059Y-69128645D01*
X170069436Y-69178080D01*
X170034415Y-69213100D01*
X170023813Y-69220069D01*
X170020913Y-69220952D01*
X170015137Y-69225277D01*
X170000319Y-69233369D01*
X169992049Y-69237884D01*
X169932620Y-69253054D01*
X165891151Y-69253054D01*
X165856215Y-69248031D01*
X165830973Y-69240619D01*
X165778228Y-69209323D01*
X163719470Y-67150565D01*
X185624500Y-67150565D01*
X185624500Y-67249435D01*
X185650090Y-67344938D01*
X185650091Y-67344939D01*
X185650091Y-67344940D01*
X185657691Y-67358103D01*
X185699525Y-67430562D01*
X185769438Y-67500475D01*
X185855062Y-67549910D01*
X185950565Y-67575500D01*
X185950567Y-67575500D01*
X186049432Y-67575500D01*
X186049435Y-67575500D01*
X186144938Y-67549910D01*
X186230562Y-67500475D01*
X186275213Y-67455823D01*
X186303457Y-67434678D01*
X186313391Y-67429254D01*
X186381661Y-67414401D01*
X186447126Y-67438815D01*
X186488999Y-67494747D01*
X186489001Y-67494751D01*
X186491682Y-67501939D01*
X186499500Y-67545273D01*
X186499500Y-68900271D01*
X186494476Y-68935210D01*
X186487064Y-68960450D01*
X186455769Y-69013192D01*
X186449527Y-69019433D01*
X186449524Y-69019437D01*
X186400090Y-69105059D01*
X186384856Y-69161916D01*
X186374500Y-69200565D01*
X186374500Y-69299435D01*
X186400090Y-69394938D01*
X186449525Y-69480562D01*
X186519438Y-69550475D01*
X186605062Y-69599910D01*
X186700565Y-69625500D01*
X186700567Y-69625500D01*
X186758190Y-69625500D01*
X186762712Y-69625582D01*
X186807857Y-69627229D01*
X186807889Y-69627467D01*
X186825975Y-69627890D01*
X186826677Y-69627916D01*
X186859120Y-69638741D01*
X186891616Y-69649115D01*
X186892152Y-69649764D01*
X186892954Y-69650032D01*
X186914361Y-69676638D01*
X186936122Y-69702972D01*
X186939467Y-69710774D01*
X186949500Y-69759636D01*
X186949500Y-72289562D01*
X186969979Y-72365989D01*
X186974893Y-72374500D01*
X186974894Y-72374501D01*
X186974894Y-72374502D01*
X186986694Y-72394940D01*
X186986695Y-72394941D01*
X187009539Y-72434510D01*
X187009541Y-72434512D01*
X187009545Y-72434517D01*
X187400573Y-72825544D01*
X187421723Y-72853796D01*
X187434331Y-72876885D01*
X187449500Y-72936314D01*
X187449500Y-73219930D01*
X187445275Y-73252025D01*
X187437113Y-73282485D01*
X187424726Y-73312389D01*
X187400091Y-73355058D01*
X187400090Y-73355060D01*
X187400090Y-73355061D01*
X187391560Y-73386896D01*
X187374500Y-73450565D01*
X187374500Y-73549435D01*
X187400090Y-73644938D01*
X187449525Y-73730562D01*
X187519438Y-73800475D01*
X187605062Y-73849910D01*
X187700565Y-73875500D01*
X187700567Y-73875500D01*
X187799432Y-73875500D01*
X187799435Y-73875500D01*
X187894938Y-73849910D01*
X187980562Y-73800475D01*
X188050475Y-73730562D01*
X188099910Y-73644938D01*
X188125500Y-73549435D01*
X188125500Y-73450565D01*
X188099910Y-73355062D01*
X188099908Y-73355058D01*
X188099908Y-73355057D01*
X188099907Y-73355056D01*
X188075274Y-73312391D01*
X188062886Y-73282485D01*
X188054723Y-73252017D01*
X188050500Y-73219933D01*
X188050500Y-72905507D01*
X193299500Y-72905507D01*
X193299500Y-73094491D01*
X193324451Y-73252023D01*
X193329059Y-73281118D01*
X193387454Y-73460836D01*
X193387455Y-73460837D01*
X193387456Y-73460841D01*
X193422695Y-73530000D01*
X193461081Y-73605335D01*
X193473238Y-73629195D01*
X193473242Y-73629203D01*
X193499308Y-73665079D01*
X193584310Y-73782073D01*
X193717927Y-73915690D01*
X193773555Y-73956106D01*
X193870796Y-74026757D01*
X193870797Y-74026757D01*
X193870801Y-74026760D01*
X193950347Y-74067290D01*
X194032722Y-74109263D01*
X194034320Y-74110199D01*
X194038037Y-74111999D01*
X194040021Y-74112985D01*
X194043775Y-74114043D01*
X194135497Y-74143846D01*
X194218881Y-74170940D01*
X194405514Y-74200500D01*
X194405519Y-74200500D01*
X194594485Y-74200500D01*
X194594486Y-74200500D01*
X194781118Y-74170940D01*
X194809940Y-74161575D01*
X194960832Y-74112547D01*
X195129199Y-74026760D01*
X195282073Y-73915690D01*
X195415690Y-73782073D01*
X195526760Y-73629199D01*
X195612547Y-73460832D01*
X195670940Y-73281118D01*
X195678046Y-73236255D01*
X195700500Y-73094486D01*
X195700500Y-72905513D01*
X195670940Y-72718881D01*
X195612545Y-72539163D01*
X195528645Y-72374501D01*
X195528645Y-72374500D01*
X195526761Y-72370803D01*
X195526760Y-72370801D01*
X195415690Y-72217927D01*
X195282073Y-72084310D01*
X195129199Y-71973240D01*
X195082656Y-71949525D01*
X194960836Y-71887454D01*
X194781118Y-71829059D01*
X194781112Y-71829058D01*
X194594491Y-71799500D01*
X194594486Y-71799500D01*
X194594481Y-71799500D01*
X194405519Y-71799500D01*
X194405514Y-71799500D01*
X194405509Y-71799500D01*
X194218886Y-71829058D01*
X194218884Y-71829058D01*
X194218881Y-71829059D01*
X194039163Y-71887454D01*
X193982334Y-71916410D01*
X193870800Y-71973239D01*
X193807218Y-72019436D01*
X193807217Y-72019436D01*
X193729797Y-72075685D01*
X193722418Y-72079817D01*
X193579816Y-72222419D01*
X193575685Y-72229796D01*
X193473241Y-72370796D01*
X193473241Y-72370797D01*
X193460940Y-72394940D01*
X193387454Y-72539163D01*
X193329059Y-72718881D01*
X193329058Y-72718884D01*
X193329058Y-72718886D01*
X193299500Y-72905507D01*
X188050500Y-72905507D01*
X188050500Y-72710440D01*
X188050500Y-72710438D01*
X188030022Y-72634012D01*
X187990460Y-72565489D01*
X187599426Y-72174455D01*
X187578274Y-72146199D01*
X187565667Y-72123110D01*
X187550500Y-72063685D01*
X187550500Y-70744211D01*
X187570185Y-70677172D01*
X187622989Y-70631417D01*
X187692147Y-70621473D01*
X187717577Y-70628115D01*
X187717626Y-70627981D01*
X187719052Y-70628491D01*
X187719059Y-70628494D01*
X187733422Y-70633633D01*
X187742612Y-70636421D01*
X187757417Y-70640130D01*
X187795688Y-70647743D01*
X187799011Y-70648404D01*
X187799043Y-70648409D01*
X187812581Y-70651102D01*
X187820089Y-70652405D01*
X187820101Y-70652407D01*
X187821763Y-70652653D01*
X187824827Y-70653108D01*
X187832388Y-70654041D01*
X187837164Y-70654512D01*
X187837178Y-70654513D01*
X187837198Y-70654515D01*
X187844209Y-70655033D01*
X187844771Y-70655075D01*
X187848257Y-70655246D01*
X187849557Y-70655311D01*
X187849562Y-70655311D01*
X187849580Y-70655312D01*
X187857234Y-70655500D01*
X190242747Y-70655500D01*
X190242765Y-70655500D01*
X190250413Y-70655312D01*
X190255226Y-70655075D01*
X190262852Y-70654511D01*
X190267624Y-70654040D01*
X190275171Y-70653108D01*
X190279916Y-70652404D01*
X190287466Y-70651093D01*
X190291172Y-70650355D01*
X190299601Y-70648679D01*
X190299633Y-70648673D01*
X190301736Y-70648254D01*
X190304300Y-70647743D01*
X190304301Y-70647744D01*
X190342586Y-70640128D01*
X190357384Y-70636421D01*
X190366572Y-70633634D01*
X190380933Y-70628496D01*
X190380953Y-70628487D01*
X190380958Y-70628486D01*
X190389640Y-70624890D01*
X190389674Y-70624876D01*
X190403479Y-70618347D01*
X190411952Y-70613818D01*
X190425038Y-70605975D01*
X190465693Y-70578811D01*
X190477949Y-70569722D01*
X190485375Y-70563628D01*
X190496685Y-70553377D01*
X190503377Y-70546685D01*
X190513628Y-70535375D01*
X190519722Y-70527949D01*
X190528811Y-70515693D01*
X190555975Y-70475038D01*
X190563815Y-70461959D01*
X190568344Y-70453487D01*
X190574874Y-70439680D01*
X190578496Y-70430935D01*
X190583639Y-70416560D01*
X190586426Y-70407370D01*
X190590130Y-70392581D01*
X190601099Y-70337440D01*
X190602402Y-70329930D01*
X190603107Y-70325180D01*
X190604041Y-70317615D01*
X190604512Y-70312840D01*
X190605075Y-70305229D01*
X190605312Y-70300419D01*
X190605500Y-70292766D01*
X190605500Y-68537736D01*
X190604236Y-68517948D01*
X190602649Y-68505578D01*
X190598877Y-68486111D01*
X190595806Y-68474340D01*
X190593840Y-68468391D01*
X190591506Y-68398561D01*
X190627295Y-68338553D01*
X190689845Y-68307420D01*
X190711584Y-68305500D01*
X196125991Y-68305500D01*
X196126000Y-68305500D01*
X196159055Y-68301946D01*
X196210566Y-68290740D01*
X196279342Y-68256313D01*
X196332146Y-68210558D01*
X196337621Y-68205580D01*
X196379516Y-68136850D01*
X196399201Y-68069811D01*
X196405500Y-68026000D01*
X196405500Y-67150614D01*
X196415539Y-67101739D01*
X196420045Y-67091230D01*
X196441767Y-67058722D01*
X196445961Y-67037637D01*
X196450500Y-67014822D01*
X196450500Y-59485177D01*
X196441768Y-59441282D01*
X196441767Y-59441281D01*
X196441767Y-59441278D01*
X196408504Y-59391496D01*
X196408503Y-59391494D01*
X196408501Y-59391493D01*
X196358728Y-59358236D01*
X196358717Y-59358230D01*
X196358715Y-59358230D01*
X196314826Y-59349500D01*
X196314822Y-59349500D01*
X196314820Y-59349500D01*
X190985180Y-59349500D01*
X190985178Y-59349500D01*
X190985174Y-59349500D01*
X190941283Y-59358230D01*
X190941281Y-59358230D01*
X190941270Y-59358236D01*
X190891497Y-59391493D01*
X190891493Y-59391497D01*
X190858236Y-59441270D01*
X190858230Y-59441281D01*
X190858230Y-59441283D01*
X190849500Y-59485172D01*
X190849500Y-65970500D01*
X190829815Y-66037539D01*
X190777011Y-66083294D01*
X190725500Y-66094500D01*
X189623991Y-66094500D01*
X189590944Y-66098054D01*
X189539433Y-66109260D01*
X189470657Y-66143686D01*
X189417860Y-66189436D01*
X189412381Y-66194418D01*
X189406738Y-66201254D01*
X189404630Y-66199514D01*
X189363335Y-66237044D01*
X189309169Y-66249500D01*
X186564270Y-66249500D01*
X186564262Y-66249499D01*
X186549828Y-66249499D01*
X186450172Y-66249499D01*
X186450170Y-66249499D01*
X186450168Y-66249500D01*
X186427192Y-66259016D01*
X186427187Y-66259017D01*
X186379713Y-66278681D01*
X186379714Y-66278682D01*
X186379702Y-66278687D01*
X186379472Y-66278782D01*
X186358107Y-66287633D01*
X186358103Y-66287635D01*
X186358102Y-66287637D01*
X186358097Y-66287640D01*
X186287635Y-66358104D01*
X186287634Y-66358104D01*
X185844681Y-66801056D01*
X185844676Y-66801062D01*
X185840662Y-66805076D01*
X185787637Y-66858100D01*
X185787636Y-66858101D01*
X185780653Y-66874961D01*
X185770260Y-66890514D01*
X185770252Y-66890525D01*
X185760557Y-66905036D01*
X185745136Y-66923826D01*
X185699528Y-66969434D01*
X185699525Y-66969438D01*
X185653340Y-67049432D01*
X185650091Y-67055059D01*
X185650091Y-67055060D01*
X185650090Y-67055062D01*
X185624500Y-67150565D01*
X163719470Y-67150565D01*
X160708612Y-64139707D01*
X160708610Y-64139705D01*
X160691170Y-64122264D01*
X160627736Y-64058830D01*
X160627735Y-64058829D01*
X160627734Y-64058828D01*
X160627733Y-64058827D01*
X160627726Y-64058823D01*
X160548926Y-64026185D01*
X160545632Y-64024681D01*
X160544857Y-64024499D01*
X160544856Y-64024499D01*
X160544855Y-64024499D01*
X160455145Y-64024499D01*
X160440711Y-64024499D01*
X160436871Y-64024499D01*
X160436839Y-64024500D01*
X144124730Y-64024500D01*
X144089795Y-64019477D01*
X144064552Y-64012065D01*
X144011807Y-63980770D01*
X143980563Y-63949526D01*
X143980562Y-63949525D01*
X143894938Y-63900090D01*
X143799435Y-63874500D01*
X143799433Y-63874500D01*
X143700565Y-63874500D01*
X143605060Y-63900090D01*
X143519439Y-63949523D01*
X143519433Y-63949528D01*
X143449528Y-64019433D01*
X143449523Y-64019439D01*
X143400090Y-64105060D01*
X143374500Y-64200565D01*
X143374500Y-64299435D01*
X143400090Y-64394938D01*
X143449525Y-64480562D01*
X143519438Y-64550475D01*
X143605062Y-64599910D01*
X143700565Y-64625500D01*
X143700567Y-64625500D01*
X143799432Y-64625500D01*
X143799435Y-64625500D01*
X143894938Y-64599910D01*
X143980562Y-64550475D01*
X143980565Y-64550472D01*
X144006612Y-64524425D01*
X144034865Y-64503274D01*
X144057955Y-64490666D01*
X144117380Y-64475500D01*
X160337403Y-64475500D01*
X160372335Y-64480521D01*
X160397579Y-64487934D01*
X160450325Y-64519230D01*
X165537383Y-69606288D01*
X165537384Y-69606290D01*
X165600818Y-69669724D01*
X165625093Y-69679779D01*
X165683699Y-69704055D01*
X165683700Y-69704055D01*
X165787843Y-69704055D01*
X165791683Y-69704055D01*
X165791715Y-69704054D01*
X167294623Y-69704054D01*
X167329555Y-69709075D01*
X167342874Y-69712986D01*
X167401652Y-69750760D01*
X167430678Y-69814315D01*
X167430682Y-69814342D01*
X167430913Y-69815951D01*
X167425349Y-69874136D01*
X167423712Y-69878865D01*
X167413922Y-69900300D01*
X167375092Y-69967557D01*
X167375090Y-69967560D01*
X167375090Y-69967562D01*
X167349500Y-70063065D01*
X167349500Y-70161935D01*
X167355939Y-70185967D01*
X167356593Y-70188405D01*
X167354932Y-70258255D01*
X167315770Y-70316118D01*
X167251542Y-70343623D01*
X167236819Y-70344500D01*
X153449467Y-70344500D01*
X153382428Y-70324815D01*
X153336673Y-70272011D01*
X153326729Y-70202853D01*
X153330373Y-70185967D01*
X153334561Y-70171522D01*
X153349910Y-70144938D01*
X153375500Y-70049435D01*
X153375500Y-70030336D01*
X153380406Y-70013417D01*
X153380482Y-70013297D01*
X153380523Y-70013015D01*
X153387935Y-69987772D01*
X153419229Y-69935028D01*
X154374449Y-68979809D01*
X154374455Y-68979805D01*
X154391896Y-68962364D01*
X154391897Y-68962364D01*
X154462364Y-68891897D01*
X154500500Y-68799828D01*
X154500500Y-67349728D01*
X154505522Y-67314795D01*
X154512934Y-67289550D01*
X154544230Y-67236806D01*
X154550475Y-67230562D01*
X154599910Y-67144938D01*
X154625500Y-67049435D01*
X154625500Y-66950565D01*
X154599910Y-66855062D01*
X154550475Y-66769438D01*
X154480562Y-66699525D01*
X154394938Y-66650090D01*
X154299435Y-66624500D01*
X154299433Y-66624500D01*
X154200565Y-66624500D01*
X154105060Y-66650090D01*
X154019439Y-66699523D01*
X154019433Y-66699528D01*
X153949528Y-66769433D01*
X153949523Y-66769439D01*
X153900090Y-66855060D01*
X153890153Y-66892147D01*
X153874500Y-66950565D01*
X153874500Y-67049435D01*
X153888515Y-67101739D01*
X153900090Y-67144939D01*
X153932205Y-67200564D01*
X153932207Y-67200567D01*
X153949525Y-67230562D01*
X153949528Y-67230566D01*
X153950574Y-67231612D01*
X153971724Y-67259864D01*
X153984331Y-67282951D01*
X153999500Y-67342380D01*
X153999500Y-68577047D01*
X153994476Y-68611984D01*
X153987064Y-68637225D01*
X153955769Y-68689969D01*
X153070165Y-69575573D01*
X153041914Y-69596722D01*
X153018826Y-69609330D01*
X152959396Y-69624500D01*
X152950565Y-69624500D01*
X152855060Y-69650090D01*
X152769439Y-69699523D01*
X152769433Y-69699528D01*
X152699528Y-69769433D01*
X152699523Y-69769439D01*
X152650090Y-69855060D01*
X152638024Y-69900091D01*
X152624500Y-69950565D01*
X152624500Y-70049435D01*
X152650090Y-70144938D01*
X152650091Y-70144939D01*
X152650091Y-70144940D01*
X152657920Y-70158500D01*
X152674393Y-70226400D01*
X152651540Y-70292427D01*
X152596619Y-70335618D01*
X152550533Y-70344500D01*
X150309123Y-70344500D01*
X150242084Y-70324815D01*
X150196329Y-70272011D01*
X150186385Y-70202853D01*
X150215410Y-70139297D01*
X150221442Y-70132819D01*
X150826275Y-69527986D01*
X151462364Y-68891897D01*
X151500500Y-68799828D01*
X151500500Y-68700173D01*
X151500500Y-68700172D01*
X151500500Y-68349728D01*
X151505522Y-68314795D01*
X151512934Y-68289550D01*
X151544230Y-68236806D01*
X151550475Y-68230562D01*
X151599910Y-68144938D01*
X151625500Y-68049435D01*
X151625500Y-67950565D01*
X151599910Y-67855062D01*
X151550475Y-67769438D01*
X151480562Y-67699525D01*
X151394938Y-67650090D01*
X151299435Y-67624500D01*
X151299433Y-67624500D01*
X151200565Y-67624500D01*
X151105060Y-67650090D01*
X151019439Y-67699523D01*
X151019433Y-67699528D01*
X150949528Y-67769433D01*
X150949523Y-67769439D01*
X150900090Y-67855060D01*
X150874500Y-67950565D01*
X150874500Y-68049434D01*
X150900089Y-68144937D01*
X150903062Y-68150086D01*
X150908250Y-68159071D01*
X150908252Y-68159076D01*
X150937975Y-68210558D01*
X150938992Y-68212319D01*
X150949525Y-68230562D01*
X150949528Y-68230565D01*
X150950573Y-68231610D01*
X150971723Y-68259862D01*
X150984331Y-68282951D01*
X150999500Y-68342380D01*
X150999500Y-68577047D01*
X150994476Y-68611984D01*
X150987064Y-68637225D01*
X150955769Y-68689969D01*
X150209667Y-69436070D01*
X150181419Y-69457218D01*
X150171877Y-69462429D01*
X150103605Y-69477285D01*
X150038139Y-69452871D01*
X149996265Y-69396940D01*
X149991276Y-69327248D01*
X149997886Y-69306140D01*
X150000501Y-69299827D01*
X150000501Y-69190183D01*
X150000500Y-69190169D01*
X150000500Y-66849728D01*
X150005522Y-66814795D01*
X150012934Y-66789550D01*
X150044230Y-66736806D01*
X150050475Y-66730562D01*
X150099910Y-66644938D01*
X150125500Y-66549435D01*
X150125500Y-66450565D01*
X150099910Y-66355062D01*
X150050475Y-66269438D01*
X149980562Y-66199525D01*
X149894938Y-66150090D01*
X149799435Y-66124500D01*
X149799433Y-66124500D01*
X149700565Y-66124500D01*
X149605060Y-66150090D01*
X149519439Y-66199523D01*
X149519433Y-66199528D01*
X149449528Y-66269433D01*
X149449523Y-66269439D01*
X149400090Y-66355060D01*
X149374500Y-66450565D01*
X149374500Y-66549434D01*
X149400090Y-66644938D01*
X149407011Y-66656928D01*
X149407026Y-66656952D01*
X149431606Y-66699526D01*
X149449526Y-66730563D01*
X149460351Y-66741388D01*
X149467736Y-66753081D01*
X149468406Y-66755432D01*
X149471724Y-66759864D01*
X149484331Y-66782951D01*
X149499500Y-66842380D01*
X149499500Y-69077047D01*
X149494476Y-69111984D01*
X149487064Y-69137225D01*
X149455769Y-69189969D01*
X149195165Y-69450573D01*
X149166914Y-69471722D01*
X149143826Y-69484330D01*
X149084396Y-69499500D01*
X132200169Y-69499500D01*
X132108100Y-69537637D01*
X131349788Y-70295950D01*
X131321538Y-70317099D01*
X131311611Y-70322520D01*
X131243338Y-70337374D01*
X131177873Y-70312960D01*
X131136000Y-70257028D01*
X131133313Y-70249822D01*
X131125500Y-70206502D01*
X131125500Y-70200567D01*
X131125500Y-70200565D01*
X131099910Y-70105062D01*
X131050475Y-70019438D01*
X130980562Y-69949525D01*
X130894938Y-69900090D01*
X130799435Y-69874500D01*
X130799433Y-69874500D01*
X130700565Y-69874500D01*
X130605060Y-69900090D01*
X130519439Y-69949523D01*
X130519433Y-69949528D01*
X130449528Y-70019433D01*
X130449523Y-70019439D01*
X130401035Y-70103423D01*
X130401034Y-70103424D01*
X130400091Y-70105059D01*
X130400091Y-70105060D01*
X130400090Y-70105062D01*
X130374500Y-70200565D01*
X130374500Y-70233059D01*
X130371981Y-70245366D01*
X130361261Y-70265584D01*
X130354815Y-70287539D01*
X130345208Y-70295863D01*
X130339253Y-70307096D01*
X130319303Y-70318310D01*
X130302011Y-70333294D01*
X130286735Y-70336617D01*
X130278346Y-70341333D01*
X130267899Y-70340714D01*
X130250500Y-70344500D01*
X126123990Y-70344500D01*
X126056951Y-70324815D01*
X126032122Y-70303785D01*
X122371324Y-66265723D01*
X122303188Y-66190565D01*
X136614500Y-66190565D01*
X136614500Y-66289435D01*
X136640090Y-66384938D01*
X136689525Y-66470562D01*
X136759438Y-66540475D01*
X136845062Y-66589910D01*
X136940565Y-66615500D01*
X136940567Y-66615500D01*
X137039432Y-66615500D01*
X137039435Y-66615500D01*
X137134938Y-66589910D01*
X137220562Y-66540475D01*
X137290475Y-66470562D01*
X137339910Y-66384938D01*
X137365500Y-66289435D01*
X137365500Y-66190565D01*
X137339910Y-66095062D01*
X137290475Y-66009438D01*
X137220562Y-65939525D01*
X137134938Y-65890090D01*
X137039435Y-65864500D01*
X137039433Y-65864500D01*
X136940565Y-65864500D01*
X136845060Y-65890090D01*
X136759439Y-65939523D01*
X136759433Y-65939528D01*
X136689528Y-66009433D01*
X136689523Y-66009439D01*
X136642568Y-66090767D01*
X136642567Y-66090769D01*
X136640091Y-66095059D01*
X136640091Y-66095060D01*
X136640090Y-66095062D01*
X136614500Y-66190565D01*
X122303188Y-66190565D01*
X117167595Y-60525723D01*
X117099459Y-60450565D01*
X123624500Y-60450565D01*
X123624500Y-60549435D01*
X123650090Y-60644938D01*
X123699525Y-60730562D01*
X123769438Y-60800475D01*
X123855062Y-60849910D01*
X123950565Y-60875500D01*
X123950567Y-60875500D01*
X124049432Y-60875500D01*
X124049435Y-60875500D01*
X124144938Y-60849910D01*
X124230562Y-60800475D01*
X124300475Y-60730562D01*
X124349910Y-60644938D01*
X124375500Y-60549435D01*
X124375500Y-60450565D01*
X124349910Y-60355062D01*
X124300475Y-60269438D01*
X124230562Y-60199525D01*
X124144938Y-60150090D01*
X124049435Y-60124500D01*
X124049433Y-60124500D01*
X123950565Y-60124500D01*
X123855060Y-60150090D01*
X123769439Y-60199523D01*
X123769433Y-60199528D01*
X123699528Y-60269433D01*
X123699523Y-60269439D01*
X123652568Y-60350767D01*
X123652567Y-60350769D01*
X123650091Y-60355059D01*
X123650091Y-60355060D01*
X123650090Y-60355062D01*
X123624500Y-60450565D01*
X117099459Y-60450565D01*
X116871873Y-60199526D01*
X116724643Y-60037123D01*
X116710901Y-60018818D01*
X116687832Y-59981323D01*
X116687830Y-59981321D01*
X116646566Y-59936843D01*
X116646557Y-59936835D01*
X116591957Y-59897316D01*
X116591954Y-59897314D01*
X116563858Y-59881148D01*
X116563849Y-59881144D01*
X116563441Y-59880962D01*
X116563427Y-59880957D01*
X116545282Y-59872905D01*
X116514445Y-59862917D01*
X116509618Y-59861894D01*
X116509555Y-59861880D01*
X116509475Y-59861863D01*
X116448506Y-59848943D01*
X116448503Y-59848942D01*
X116432490Y-59846414D01*
X116422354Y-59845350D01*
X116422325Y-59845348D01*
X116418847Y-59845166D01*
X116406108Y-59844500D01*
X116406097Y-59844500D01*
X114273655Y-59844500D01*
X114206616Y-59824815D01*
X114160861Y-59772011D01*
X114151842Y-59743688D01*
X114150500Y-59736638D01*
X114150500Y-59735177D01*
X114144041Y-59702711D01*
X114143954Y-59702251D01*
X114144002Y-59701757D01*
X114143549Y-59697156D01*
X114143536Y-59697113D01*
X114142258Y-59692014D01*
X114141767Y-59691279D01*
X114141767Y-59691278D01*
X114108504Y-59641496D01*
X114108503Y-59641494D01*
X114108501Y-59641493D01*
X114058728Y-59608236D01*
X114058717Y-59608230D01*
X114058715Y-59608230D01*
X114014826Y-59599500D01*
X114014822Y-59599500D01*
X114014820Y-59599500D01*
X108685180Y-59599500D01*
X108685178Y-59599500D01*
X108685174Y-59599500D01*
X108641283Y-59608230D01*
X108641281Y-59608230D01*
X108641270Y-59608236D01*
X108591497Y-59641493D01*
X108591493Y-59641497D01*
X108558236Y-59691270D01*
X108558230Y-59691281D01*
X108558230Y-59691283D01*
X108549500Y-59735172D01*
X108549500Y-67220453D01*
X108544237Y-67238374D01*
X108558230Y-67308714D01*
X108558236Y-67308728D01*
X108591224Y-67358099D01*
X108591225Y-67358099D01*
X108591493Y-67358501D01*
X108591495Y-67358502D01*
X108591496Y-67358504D01*
X108641278Y-67391767D01*
X108642014Y-67392259D01*
X108647113Y-67393536D01*
X108647156Y-67393549D01*
X108653255Y-67394149D01*
X108668326Y-67397148D01*
X108685176Y-67400500D01*
X108685177Y-67400500D01*
X108685180Y-67400500D01*
X108720500Y-67400500D01*
X108787539Y-67420185D01*
X108833294Y-67472989D01*
X108844500Y-67524500D01*
X108844500Y-74572969D01*
X108824815Y-74640008D01*
X108772011Y-74685763D01*
X108702853Y-74695707D01*
X108639297Y-74666682D01*
X108627734Y-74655252D01*
X108627004Y-74654429D01*
X108622161Y-74648621D01*
X108588033Y-74605060D01*
X108449872Y-74428711D01*
X108445444Y-74422691D01*
X108441192Y-74416532D01*
X108437147Y-74410275D01*
X108292602Y-74171167D01*
X108288943Y-74164678D01*
X108287315Y-74161576D01*
X108285455Y-74158031D01*
X108282198Y-74151345D01*
X108261368Y-74105062D01*
X108261366Y-74105058D01*
X108261366Y-74105055D01*
X108167538Y-73896579D01*
X108164672Y-73889662D01*
X108162018Y-73882663D01*
X108159581Y-73875599D01*
X108159550Y-73875500D01*
X108076477Y-73608909D01*
X108074468Y-73601703D01*
X108072677Y-73594437D01*
X108071107Y-73587127D01*
X108036832Y-73400091D01*
X108020750Y-73312343D01*
X108019624Y-73304943D01*
X108018812Y-73298253D01*
X108018719Y-73297491D01*
X108018046Y-73290076D01*
X108000837Y-73005575D01*
X108000669Y-73001848D01*
X108000556Y-72998084D01*
X108000500Y-72994363D01*
X108000500Y-59450565D01*
X134374500Y-59450565D01*
X134374500Y-59549435D01*
X134379145Y-59566769D01*
X134400089Y-59644937D01*
X134403062Y-59650086D01*
X134404860Y-59653201D01*
X134408253Y-59659077D01*
X134449525Y-59730562D01*
X134519438Y-59800475D01*
X134605062Y-59849910D01*
X134700565Y-59875500D01*
X134700567Y-59875500D01*
X134799432Y-59875500D01*
X134799435Y-59875500D01*
X134894938Y-59849910D01*
X134980562Y-59800475D01*
X135050475Y-59730562D01*
X135099910Y-59644938D01*
X135125500Y-59549435D01*
X135125500Y-59450565D01*
X135099910Y-59355062D01*
X135050475Y-59269438D01*
X134980562Y-59199525D01*
X134894938Y-59150090D01*
X134799435Y-59124500D01*
X134799433Y-59124500D01*
X134700565Y-59124500D01*
X134605060Y-59150090D01*
X134519439Y-59199523D01*
X134519433Y-59199528D01*
X134449528Y-59269433D01*
X134449523Y-59269439D01*
X134402568Y-59350767D01*
X134402567Y-59350769D01*
X134400091Y-59355059D01*
X134400091Y-59355060D01*
X134400090Y-59355062D01*
X134374500Y-59450565D01*
X108000500Y-59450565D01*
X108000500Y-58950565D01*
X120124500Y-58950565D01*
X120124500Y-59049435D01*
X120136035Y-59092487D01*
X120150089Y-59144937D01*
X120153062Y-59150086D01*
X120154860Y-59153201D01*
X120158253Y-59159077D01*
X120199525Y-59230562D01*
X120269438Y-59300475D01*
X120355062Y-59349910D01*
X120450565Y-59375500D01*
X120450567Y-59375500D01*
X120549432Y-59375500D01*
X120549435Y-59375500D01*
X120644938Y-59349910D01*
X120730562Y-59300475D01*
X120800475Y-59230562D01*
X120849910Y-59144938D01*
X120875500Y-59049435D01*
X120875500Y-58950565D01*
X120849910Y-58855062D01*
X120800475Y-58769438D01*
X120730562Y-58699525D01*
X120644938Y-58650090D01*
X120549435Y-58624500D01*
X120549433Y-58624500D01*
X120450565Y-58624500D01*
X120355060Y-58650090D01*
X120269439Y-58699523D01*
X120269433Y-58699528D01*
X120199528Y-58769433D01*
X120199523Y-58769439D01*
X120152568Y-58850767D01*
X120152567Y-58850769D01*
X120150091Y-58855059D01*
X120150091Y-58855060D01*
X120150090Y-58855062D01*
X120124500Y-58950565D01*
X108000500Y-58950565D01*
X108000500Y-58450565D01*
X137624500Y-58450565D01*
X137624500Y-58549435D01*
X137644614Y-58624500D01*
X137650090Y-58644938D01*
X137657011Y-58656928D01*
X137657026Y-58656952D01*
X137681606Y-58699526D01*
X137699526Y-58730563D01*
X137710351Y-58741388D01*
X137717736Y-58753081D01*
X137718406Y-58755432D01*
X137721724Y-58759864D01*
X137734331Y-58782951D01*
X137749500Y-58842380D01*
X137749500Y-68400271D01*
X137744476Y-68435210D01*
X137737064Y-68460450D01*
X137705769Y-68513192D01*
X137699527Y-68519433D01*
X137699524Y-68519437D01*
X137650090Y-68605059D01*
X137634856Y-68661916D01*
X137624500Y-68700565D01*
X137624500Y-68799435D01*
X137650090Y-68894938D01*
X137650091Y-68894939D01*
X137650091Y-68894940D01*
X137657411Y-68907619D01*
X137699525Y-68980562D01*
X137769438Y-69050475D01*
X137855062Y-69099910D01*
X137950565Y-69125500D01*
X137950567Y-69125500D01*
X138049432Y-69125500D01*
X138049435Y-69125500D01*
X138144938Y-69099910D01*
X138230562Y-69050475D01*
X138300475Y-68980562D01*
X138349910Y-68894938D01*
X138375500Y-68799435D01*
X138375500Y-68700565D01*
X138349910Y-68605062D01*
X138300475Y-68519438D01*
X138299426Y-68518389D01*
X138278274Y-68490133D01*
X138265667Y-68467044D01*
X138250500Y-68407619D01*
X138250500Y-59950565D01*
X139624500Y-59950565D01*
X139624500Y-60049435D01*
X139644614Y-60124500D01*
X139650090Y-60144938D01*
X139657011Y-60156928D01*
X139657026Y-60156952D01*
X139681606Y-60199526D01*
X139699526Y-60230563D01*
X139710351Y-60241388D01*
X139717736Y-60253081D01*
X139718406Y-60255432D01*
X139721724Y-60259864D01*
X139734331Y-60282951D01*
X139749500Y-60342380D01*
X139749500Y-64049829D01*
X139787636Y-64141897D01*
X139787637Y-64141898D01*
X144075573Y-68429834D01*
X144096723Y-68458086D01*
X144109331Y-68481175D01*
X144124500Y-68540604D01*
X144124500Y-68549435D01*
X144150090Y-68644938D01*
X144199525Y-68730562D01*
X144269438Y-68800475D01*
X144355062Y-68849910D01*
X144450565Y-68875500D01*
X144450567Y-68875500D01*
X144549432Y-68875500D01*
X144549435Y-68875500D01*
X144644938Y-68849910D01*
X144730562Y-68800475D01*
X144800475Y-68730562D01*
X144849910Y-68644938D01*
X144875500Y-68549435D01*
X144875500Y-68450565D01*
X144849910Y-68355062D01*
X144800475Y-68269438D01*
X144730562Y-68199525D01*
X144644938Y-68150090D01*
X144549435Y-68124500D01*
X144549433Y-68124500D01*
X144547953Y-68124500D01*
X144513017Y-68119477D01*
X144487775Y-68112065D01*
X144435030Y-68080769D01*
X140299426Y-63945165D01*
X140278274Y-63916909D01*
X140265667Y-63893820D01*
X140250500Y-63834395D01*
X140250500Y-60349728D01*
X140255522Y-60314795D01*
X140262934Y-60289550D01*
X140294230Y-60236806D01*
X140300475Y-60230562D01*
X140349910Y-60144938D01*
X140375500Y-60049435D01*
X140375500Y-59950565D01*
X140349910Y-59855062D01*
X140300475Y-59769438D01*
X140230562Y-59699525D01*
X140144938Y-59650090D01*
X140049435Y-59624500D01*
X140049433Y-59624500D01*
X139950565Y-59624500D01*
X139855060Y-59650090D01*
X139769439Y-59699523D01*
X139769433Y-59699528D01*
X139699528Y-59769433D01*
X139699523Y-59769439D01*
X139650090Y-59855060D01*
X139638768Y-59897316D01*
X139624500Y-59950565D01*
X138250500Y-59950565D01*
X138250500Y-58849728D01*
X138255522Y-58814795D01*
X138262934Y-58789550D01*
X138294230Y-58736806D01*
X138300475Y-58730562D01*
X138349910Y-58644938D01*
X138375500Y-58549435D01*
X138375500Y-58450565D01*
X138349910Y-58355062D01*
X138300475Y-58269438D01*
X138230562Y-58199525D01*
X138144938Y-58150090D01*
X138049435Y-58124500D01*
X138049433Y-58124500D01*
X137950565Y-58124500D01*
X137855060Y-58150090D01*
X137769439Y-58199523D01*
X137769433Y-58199528D01*
X137699528Y-58269433D01*
X137699523Y-58269439D01*
X137652568Y-58350767D01*
X137652567Y-58350769D01*
X137650091Y-58355059D01*
X137650091Y-58355060D01*
X137650090Y-58355062D01*
X137624500Y-58450565D01*
X108000500Y-58450565D01*
X108000500Y-57450565D01*
X127624500Y-57450565D01*
X127624500Y-57549435D01*
X127650090Y-57644938D01*
X127699525Y-57730562D01*
X127769438Y-57800475D01*
X127855062Y-57849910D01*
X127950565Y-57875500D01*
X127950567Y-57875500D01*
X128049432Y-57875500D01*
X128049435Y-57875500D01*
X128144938Y-57849910D01*
X128230562Y-57800475D01*
X128300475Y-57730562D01*
X128349910Y-57644938D01*
X128375500Y-57549435D01*
X128375500Y-57450565D01*
X128349910Y-57355062D01*
X128300475Y-57269438D01*
X128230562Y-57199525D01*
X128144938Y-57150090D01*
X128049435Y-57124500D01*
X128049433Y-57124500D01*
X127950565Y-57124500D01*
X127855060Y-57150090D01*
X127769439Y-57199523D01*
X127769433Y-57199528D01*
X127699528Y-57269433D01*
X127699523Y-57269439D01*
X127652568Y-57350767D01*
X127652567Y-57350769D01*
X127650091Y-57355059D01*
X127650091Y-57355060D01*
X127650090Y-57355062D01*
X127624500Y-57450565D01*
X108000500Y-57450565D01*
X108000500Y-56700565D01*
X136124500Y-56700565D01*
X136124500Y-56799435D01*
X136150090Y-56894938D01*
X136199525Y-56980562D01*
X136269438Y-57050475D01*
X136355062Y-57099910D01*
X136450565Y-57125500D01*
X136450567Y-57125500D01*
X136549432Y-57125500D01*
X136549435Y-57125500D01*
X136644938Y-57099910D01*
X136730562Y-57050475D01*
X136750918Y-57030119D01*
X136756623Y-57024413D01*
X136756638Y-57024405D01*
X136784862Y-57003276D01*
X136807957Y-56990665D01*
X136867380Y-56975500D01*
X156087403Y-56975500D01*
X156122335Y-56980521D01*
X156147579Y-56987934D01*
X156200324Y-57019229D01*
X165308829Y-66127735D01*
X165372266Y-66191172D01*
X165436365Y-66217721D01*
X165448774Y-66222861D01*
X165448777Y-66222863D01*
X165455140Y-66225498D01*
X165455145Y-66225500D01*
X165875270Y-66225500D01*
X165910204Y-66230523D01*
X165935444Y-66237934D01*
X165988189Y-66269227D01*
X165997644Y-66278681D01*
X166006599Y-66287636D01*
X166019438Y-66300475D01*
X166105062Y-66349910D01*
X166200565Y-66375500D01*
X166200567Y-66375500D01*
X166299432Y-66375500D01*
X166299435Y-66375500D01*
X166394938Y-66349910D01*
X166480562Y-66300475D01*
X166550475Y-66230562D01*
X166599910Y-66144938D01*
X166625500Y-66049435D01*
X166625500Y-65950565D01*
X166599910Y-65855062D01*
X166550475Y-65769438D01*
X166480562Y-65699525D01*
X166394938Y-65650090D01*
X166299435Y-65624500D01*
X166299433Y-65624500D01*
X166200565Y-65624500D01*
X166118316Y-65646538D01*
X166118314Y-65646539D01*
X166105062Y-65650090D01*
X166105060Y-65650091D01*
X166105059Y-65650091D01*
X166019436Y-65699526D01*
X165984415Y-65734546D01*
X165973813Y-65741515D01*
X165970913Y-65742398D01*
X165965137Y-65746723D01*
X165950319Y-65754815D01*
X165942049Y-65759330D01*
X165882620Y-65774500D01*
X165662598Y-65774500D01*
X165627662Y-65769477D01*
X165602420Y-65762065D01*
X165549675Y-65730769D01*
X164400496Y-64581590D01*
X175775001Y-64581590D01*
X175781406Y-64652087D01*
X175781407Y-64652099D01*
X175781409Y-64652108D01*
X175781412Y-64652118D01*
X175831979Y-64814391D01*
X175831981Y-64814397D01*
X175919922Y-64959871D01*
X175919923Y-64959872D01*
X175919925Y-64959874D01*
X175919927Y-64959877D01*
X176040122Y-65080072D01*
X176040123Y-65080073D01*
X176078402Y-65103213D01*
X176185604Y-65168019D01*
X176185603Y-65168019D01*
X176264067Y-65192469D01*
X176271201Y-65195727D01*
X176291691Y-65213482D01*
X176347891Y-65218589D01*
X176347894Y-65218590D01*
X176347893Y-65218590D01*
X176418408Y-65224998D01*
X176418426Y-65224999D01*
X176424999Y-65224998D01*
X176425000Y-65224998D01*
X176425000Y-64500000D01*
X175775001Y-64500000D01*
X175775001Y-64581590D01*
X164400496Y-64581590D01*
X163737333Y-63918427D01*
X175775000Y-63918427D01*
X175775000Y-64000000D01*
X176425000Y-64000000D01*
X176425000Y-63275000D01*
X176925000Y-63275000D01*
X176925000Y-65224999D01*
X176931580Y-65224999D01*
X176931581Y-65224999D01*
X176949185Y-65223399D01*
X177002094Y-65218592D01*
X177002095Y-65218591D01*
X177002102Y-65218591D01*
X177002107Y-65218590D01*
X177164396Y-65168018D01*
X177241424Y-65121453D01*
X177309871Y-65080076D01*
X177309872Y-65080075D01*
X177309871Y-65080075D01*
X177309877Y-65080072D01*
X177430072Y-64959877D01*
X177518019Y-64814396D01*
X177559408Y-64681573D01*
X177574590Y-64649728D01*
X177576418Y-64646984D01*
X177580861Y-64640313D01*
X177634408Y-64595432D01*
X177703720Y-64586625D01*
X177766788Y-64616687D01*
X177771700Y-64621087D01*
X177800359Y-64658984D01*
X177835802Y-64731484D01*
X177835803Y-64731485D01*
X177918514Y-64814196D01*
X177918515Y-64814196D01*
X177918517Y-64814198D01*
X178023607Y-64865573D01*
X178057673Y-64870536D01*
X178091739Y-64875500D01*
X178091740Y-64875500D01*
X178091741Y-64875500D01*
X178558261Y-64875500D01*
X178558262Y-64875500D01*
X178562803Y-64874838D01*
X178580971Y-64872191D01*
X178626393Y-64865573D01*
X178731483Y-64814198D01*
X178814198Y-64731483D01*
X178865573Y-64626393D01*
X178875500Y-64558260D01*
X178875500Y-64122951D01*
X178880522Y-64088018D01*
X178887934Y-64062773D01*
X178919228Y-64010031D01*
X179771557Y-63157701D01*
X179799801Y-63136557D01*
X179816325Y-63127534D01*
X179878698Y-63112403D01*
X179889118Y-63112651D01*
X179918251Y-63116840D01*
X179950565Y-63125500D01*
X179950567Y-63125500D01*
X180049432Y-63125500D01*
X180049435Y-63125500D01*
X180144938Y-63099910D01*
X180230562Y-63050475D01*
X180300475Y-62980562D01*
X180349910Y-62894938D01*
X180375500Y-62799435D01*
X180375500Y-62700565D01*
X180349910Y-62605062D01*
X180300475Y-62519438D01*
X180230562Y-62449525D01*
X180144938Y-62400090D01*
X180049435Y-62374500D01*
X180049433Y-62374500D01*
X179950565Y-62374500D01*
X179855060Y-62400090D01*
X179769439Y-62449523D01*
X179769433Y-62449528D01*
X179699528Y-62519433D01*
X179697803Y-62521401D01*
X179695924Y-62523690D01*
X179690598Y-62529763D01*
X179685052Y-62535684D01*
X178645164Y-63575573D01*
X178616913Y-63596722D01*
X178593825Y-63609330D01*
X178534395Y-63624500D01*
X178091739Y-63624500D01*
X178033341Y-63633008D01*
X178023607Y-63634426D01*
X177918511Y-63685804D01*
X177835803Y-63768512D01*
X177802323Y-63836995D01*
X177782474Y-63866166D01*
X177774848Y-63874514D01*
X177715099Y-63910734D01*
X177645254Y-63908901D01*
X177587486Y-63869598D01*
X177587484Y-63869594D01*
X177583309Y-63864512D01*
X177560737Y-63822689D01*
X177518021Y-63685610D01*
X177518020Y-63685609D01*
X177518019Y-63685604D01*
X177430072Y-63540122D01*
X177430071Y-63540120D01*
X177309878Y-63419927D01*
X177241422Y-63378544D01*
X177241418Y-63378542D01*
X177164395Y-63331980D01*
X177164396Y-63331980D01*
X177085938Y-63307532D01*
X177078796Y-63304270D01*
X177058306Y-63286515D01*
X176949381Y-63276618D01*
X176931572Y-63275000D01*
X176931571Y-63275000D01*
X176925000Y-63275000D01*
X176425000Y-63275000D01*
X176425000Y-63274999D01*
X176424999Y-63274998D01*
X176418456Y-63274999D01*
X176418413Y-63275000D01*
X176418407Y-63275001D01*
X176347911Y-63281406D01*
X176347899Y-63281407D01*
X176347890Y-63281409D01*
X176347880Y-63281412D01*
X176185607Y-63331979D01*
X176185601Y-63331981D01*
X176040127Y-63419922D01*
X176040126Y-63419923D01*
X175919925Y-63540123D01*
X175831980Y-63685603D01*
X175781407Y-63847900D01*
X175775699Y-63910734D01*
X175775000Y-63918427D01*
X163737333Y-63918427D01*
X162519471Y-62700565D01*
X165874500Y-62700565D01*
X165874500Y-62799435D01*
X165900090Y-62894938D01*
X165949525Y-62980562D01*
X166019438Y-63050475D01*
X166105062Y-63099910D01*
X166200565Y-63125500D01*
X166200567Y-63125500D01*
X166299432Y-63125500D01*
X166299435Y-63125500D01*
X166394938Y-63099910D01*
X166480562Y-63050475D01*
X166550475Y-62980562D01*
X166599910Y-62894938D01*
X166625500Y-62799435D01*
X166625500Y-62700565D01*
X166599910Y-62605062D01*
X166550475Y-62519438D01*
X166480562Y-62449525D01*
X166394938Y-62400090D01*
X166299435Y-62374500D01*
X166299433Y-62374500D01*
X166200565Y-62374500D01*
X166105060Y-62400090D01*
X166019439Y-62449523D01*
X166019433Y-62449528D01*
X165949528Y-62519433D01*
X165949523Y-62519439D01*
X165902568Y-62600767D01*
X165902567Y-62600769D01*
X165900091Y-62605059D01*
X165900091Y-62605060D01*
X165900090Y-62605062D01*
X165874500Y-62700565D01*
X162519471Y-62700565D01*
X161769471Y-61950565D01*
X163124500Y-61950565D01*
X163124500Y-62049435D01*
X163150090Y-62144938D01*
X163199525Y-62230562D01*
X163269438Y-62300475D01*
X163355062Y-62349910D01*
X163450565Y-62375500D01*
X163450567Y-62375500D01*
X163549432Y-62375500D01*
X163549435Y-62375500D01*
X163644938Y-62349910D01*
X163730562Y-62300475D01*
X163800475Y-62230562D01*
X163849910Y-62144938D01*
X163875500Y-62049435D01*
X163875500Y-62047952D01*
X163880522Y-62013019D01*
X163887934Y-61987774D01*
X163919228Y-61935032D01*
X165429837Y-60424423D01*
X165458087Y-60403275D01*
X165481179Y-60390667D01*
X165540604Y-60375500D01*
X165549432Y-60375500D01*
X165549435Y-60375500D01*
X165644938Y-60349910D01*
X165730562Y-60300475D01*
X165800475Y-60230562D01*
X165849910Y-60144938D01*
X165875500Y-60049435D01*
X165875500Y-59950565D01*
X165849910Y-59855062D01*
X165800475Y-59769438D01*
X165730562Y-59699525D01*
X165644938Y-59650090D01*
X165549435Y-59624500D01*
X165549433Y-59624500D01*
X165450565Y-59624500D01*
X165355060Y-59650090D01*
X165269439Y-59699523D01*
X165269433Y-59699528D01*
X165199528Y-59769433D01*
X165199523Y-59769439D01*
X165150566Y-59854234D01*
X165150565Y-59854237D01*
X165150091Y-59855059D01*
X165150091Y-59855060D01*
X165150090Y-59855062D01*
X165124500Y-59950565D01*
X165124500Y-59950567D01*
X165124500Y-59966281D01*
X165121275Y-59980144D01*
X165120181Y-59982080D01*
X165119476Y-59986984D01*
X165112064Y-60012225D01*
X165080769Y-60064969D01*
X163570165Y-61575573D01*
X163541914Y-61596722D01*
X163518826Y-61609330D01*
X163459396Y-61624500D01*
X163450565Y-61624500D01*
X163355060Y-61650090D01*
X163269439Y-61699523D01*
X163269433Y-61699528D01*
X163199528Y-61769433D01*
X163199523Y-61769439D01*
X163152568Y-61850767D01*
X163152567Y-61850769D01*
X163150091Y-61855059D01*
X163150091Y-61855060D01*
X163150090Y-61855062D01*
X163124500Y-61950565D01*
X161769471Y-61950565D01*
X159385675Y-59566769D01*
X156849024Y-57030119D01*
X156769470Y-56950565D01*
X158874500Y-56950565D01*
X158874500Y-57049435D01*
X158883691Y-57083737D01*
X158900089Y-57144937D01*
X158903062Y-57150086D01*
X158904860Y-57153201D01*
X158908253Y-57159077D01*
X158949525Y-57230562D01*
X159019438Y-57300475D01*
X159105062Y-57349910D01*
X159200565Y-57375500D01*
X159200567Y-57375500D01*
X159299432Y-57375500D01*
X159299435Y-57375500D01*
X159394938Y-57349910D01*
X159480562Y-57300475D01*
X159481610Y-57299426D01*
X159509863Y-57278275D01*
X159532955Y-57265667D01*
X159592380Y-57250500D01*
X161900271Y-57250500D01*
X161935203Y-57255521D01*
X161960447Y-57262934D01*
X162013193Y-57294230D01*
X162019438Y-57300475D01*
X162105062Y-57349910D01*
X162200565Y-57375500D01*
X162200567Y-57375500D01*
X162299432Y-57375500D01*
X162299435Y-57375500D01*
X162394938Y-57349910D01*
X162480562Y-57300475D01*
X162492055Y-57288982D01*
X174184500Y-57288982D01*
X174184500Y-57401018D01*
X174213497Y-57509237D01*
X174269515Y-57606263D01*
X174348737Y-57685485D01*
X174445763Y-57741503D01*
X174553982Y-57770500D01*
X174553984Y-57770500D01*
X174666016Y-57770500D01*
X174666018Y-57770500D01*
X174774237Y-57741503D01*
X174871263Y-57685485D01*
X174950485Y-57606263D01*
X175006503Y-57509237D01*
X175035500Y-57401018D01*
X175035500Y-57288982D01*
X179964500Y-57288982D01*
X179964500Y-57401018D01*
X179993497Y-57509237D01*
X180049515Y-57606263D01*
X180128737Y-57685485D01*
X180225763Y-57741503D01*
X180333982Y-57770500D01*
X180333984Y-57770500D01*
X180446016Y-57770500D01*
X180446018Y-57770500D01*
X180554237Y-57741503D01*
X180651263Y-57685485D01*
X180730485Y-57606263D01*
X180786503Y-57509237D01*
X180815500Y-57401018D01*
X180815500Y-57288982D01*
X180786503Y-57180763D01*
X180730485Y-57083737D01*
X180651263Y-57004515D01*
X180586579Y-56967169D01*
X180586578Y-56967168D01*
X180568373Y-56956657D01*
X180561845Y-56951648D01*
X180546631Y-56945346D01*
X180538469Y-56944272D01*
X180536659Y-56943787D01*
X180446018Y-56919500D01*
X180446017Y-56919500D01*
X180333982Y-56919500D01*
X180225770Y-56948494D01*
X180225759Y-56948498D01*
X180225758Y-56948499D01*
X180128737Y-57004514D01*
X180128728Y-57004521D01*
X180049521Y-57083728D01*
X180049514Y-57083737D01*
X179993499Y-57180758D01*
X179993498Y-57180759D01*
X179993494Y-57180770D01*
X179967369Y-57278274D01*
X179964500Y-57288982D01*
X175035500Y-57288982D01*
X175006503Y-57180763D01*
X174950485Y-57083737D01*
X174871263Y-57004515D01*
X174806579Y-56967169D01*
X174806578Y-56967168D01*
X174788373Y-56956657D01*
X174781845Y-56951648D01*
X174766631Y-56945346D01*
X174758469Y-56944272D01*
X174756659Y-56943787D01*
X174666018Y-56919500D01*
X174666017Y-56919500D01*
X174553982Y-56919500D01*
X174445770Y-56948494D01*
X174445759Y-56948498D01*
X174445758Y-56948499D01*
X174348737Y-57004514D01*
X174348728Y-57004521D01*
X174269521Y-57083728D01*
X174269514Y-57083737D01*
X174213499Y-57180758D01*
X174213498Y-57180759D01*
X174213494Y-57180770D01*
X174187369Y-57278274D01*
X174184500Y-57288982D01*
X162492055Y-57288982D01*
X162550475Y-57230562D01*
X162599910Y-57144938D01*
X162625500Y-57049435D01*
X162625500Y-56950565D01*
X162599910Y-56855062D01*
X162550475Y-56769438D01*
X162480562Y-56699525D01*
X162394938Y-56650090D01*
X162299435Y-56624500D01*
X162299433Y-56624500D01*
X162200565Y-56624500D01*
X162115550Y-56647279D01*
X162115547Y-56647280D01*
X162105062Y-56650090D01*
X162105060Y-56650091D01*
X162105059Y-56650091D01*
X162019436Y-56699526D01*
X162007409Y-56711553D01*
X161994060Y-56719488D01*
X161992634Y-56719852D01*
X161990134Y-56721725D01*
X161967049Y-56734331D01*
X161907620Y-56749500D01*
X159599729Y-56749500D01*
X159564793Y-56744477D01*
X159539551Y-56737065D01*
X159486806Y-56705769D01*
X159480563Y-56699526D01*
X159480562Y-56699525D01*
X159394938Y-56650090D01*
X159299435Y-56624500D01*
X159299433Y-56624500D01*
X159200565Y-56624500D01*
X159105060Y-56650090D01*
X159019439Y-56699523D01*
X159019433Y-56699528D01*
X158949528Y-56769433D01*
X158949523Y-56769439D01*
X158902568Y-56850767D01*
X158902567Y-56850769D01*
X158900091Y-56855059D01*
X158900091Y-56855060D01*
X158900090Y-56855062D01*
X158874500Y-56950565D01*
X156769470Y-56950565D01*
X156458612Y-56639707D01*
X156458610Y-56639705D01*
X156441170Y-56622264D01*
X156377736Y-56558830D01*
X156377735Y-56558829D01*
X156377734Y-56558828D01*
X156377733Y-56558827D01*
X156377726Y-56558823D01*
X156353457Y-56548771D01*
X156298924Y-56526184D01*
X156295632Y-56524681D01*
X156294857Y-56524499D01*
X156294856Y-56524499D01*
X156294855Y-56524499D01*
X156205145Y-56524499D01*
X156190711Y-56524499D01*
X156186871Y-56524499D01*
X156186839Y-56524500D01*
X136874730Y-56524500D01*
X136839795Y-56519477D01*
X136814552Y-56512065D01*
X136761807Y-56480770D01*
X136730563Y-56449526D01*
X136730562Y-56449525D01*
X136644938Y-56400090D01*
X136549435Y-56374500D01*
X136549433Y-56374500D01*
X136450565Y-56374500D01*
X136355060Y-56400090D01*
X136269439Y-56449523D01*
X136269433Y-56449528D01*
X136199528Y-56519433D01*
X136199523Y-56519439D01*
X136152568Y-56600767D01*
X136152567Y-56600769D01*
X136150091Y-56605059D01*
X136150091Y-56605060D01*
X136150090Y-56605062D01*
X136124500Y-56700565D01*
X108000500Y-56700565D01*
X108000500Y-55550565D01*
X141374500Y-55550565D01*
X141374500Y-55649435D01*
X141400090Y-55744938D01*
X141449525Y-55830562D01*
X141519438Y-55900475D01*
X141605062Y-55949910D01*
X141700565Y-55975500D01*
X141700567Y-55975500D01*
X141799432Y-55975500D01*
X141799435Y-55975500D01*
X141894938Y-55949910D01*
X141980562Y-55900475D01*
X142050475Y-55830562D01*
X142097829Y-55748543D01*
X187499499Y-55748543D01*
X187537947Y-55941829D01*
X187537950Y-55941839D01*
X187538316Y-55942723D01*
X187538317Y-55942728D01*
X187613360Y-56123900D01*
X187613365Y-56123909D01*
X187613375Y-56123926D01*
X187722861Y-56287783D01*
X187722862Y-56287784D01*
X187722867Y-56287790D01*
X187862208Y-56427131D01*
X187862214Y-56427136D01*
X187862218Y-56427139D01*
X188026079Y-56536628D01*
X188026092Y-56536635D01*
X188026094Y-56536635D01*
X188026098Y-56536638D01*
X188079676Y-56558830D01*
X188191287Y-56605060D01*
X188202564Y-56609731D01*
X188206965Y-56611812D01*
X188208163Y-56612050D01*
X188208165Y-56612051D01*
X188208166Y-56612051D01*
X188208169Y-56612051D01*
X188208170Y-56612052D01*
X188259498Y-56622262D01*
X188401453Y-56650500D01*
X188598543Y-56650500D01*
X188598544Y-56650500D01*
X188634030Y-56643441D01*
X188740491Y-56622264D01*
X188791835Y-56612051D01*
X188973914Y-56536632D01*
X189137782Y-56427139D01*
X189277139Y-56287782D01*
X189386632Y-56123914D01*
X189462051Y-55941835D01*
X189500500Y-55748541D01*
X189500500Y-55551459D01*
X189500500Y-55551456D01*
X189500500Y-55551453D01*
X189461812Y-55356962D01*
X189459725Y-55352550D01*
X189417286Y-55250091D01*
X189386635Y-55176092D01*
X189386628Y-55176079D01*
X189277139Y-55012218D01*
X189277136Y-55012214D01*
X189277131Y-55012208D01*
X189137790Y-54872867D01*
X189137784Y-54872862D01*
X189137783Y-54872861D01*
X188973926Y-54763375D01*
X188973925Y-54763374D01*
X188973920Y-54763371D01*
X188973907Y-54763364D01*
X188973900Y-54763360D01*
X188791861Y-54687958D01*
X188791847Y-54687953D01*
X188791839Y-54687950D01*
X188791829Y-54687947D01*
X188791826Y-54687946D01*
X188791822Y-54687945D01*
X188598546Y-54649500D01*
X188598543Y-54649500D01*
X188598541Y-54649500D01*
X188401459Y-54649500D01*
X188401457Y-54649500D01*
X188401453Y-54649500D01*
X188208176Y-54687945D01*
X188208170Y-54687947D01*
X188208160Y-54687950D01*
X188208155Y-54687951D01*
X188208137Y-54687958D01*
X188026098Y-54763360D01*
X188026089Y-54763365D01*
X188026072Y-54763375D01*
X187862215Y-54872861D01*
X187862214Y-54872862D01*
X187862208Y-54872867D01*
X187722867Y-55012208D01*
X187722862Y-55012214D01*
X187722861Y-55012215D01*
X187613375Y-55176072D01*
X187613365Y-55176089D01*
X187613360Y-55176098D01*
X187537958Y-55358137D01*
X187537945Y-55358176D01*
X187499500Y-55551451D01*
X187499500Y-55551456D01*
X187499500Y-55551459D01*
X187499500Y-55748541D01*
X187499500Y-55748543D01*
X187499499Y-55748543D01*
X142097829Y-55748543D01*
X142099910Y-55744938D01*
X142125500Y-55649435D01*
X142125500Y-55550565D01*
X142099910Y-55455062D01*
X142050475Y-55369438D01*
X141980562Y-55299525D01*
X141894938Y-55250090D01*
X141799435Y-55224500D01*
X141799433Y-55224500D01*
X141700565Y-55224500D01*
X141605060Y-55250090D01*
X141519439Y-55299523D01*
X141519433Y-55299528D01*
X141449528Y-55369433D01*
X141449523Y-55369439D01*
X141402568Y-55450767D01*
X141402567Y-55450769D01*
X141400091Y-55455059D01*
X141400091Y-55455060D01*
X141400090Y-55455062D01*
X141374500Y-55550565D01*
X108000500Y-55550565D01*
X108000500Y-54005637D01*
X108000556Y-54001900D01*
X108000670Y-53998119D01*
X108000844Y-53994313D01*
X108000906Y-53993286D01*
X108006216Y-53905507D01*
X109299500Y-53905507D01*
X109299500Y-54094491D01*
X109329058Y-54281112D01*
X109329059Y-54281118D01*
X109387454Y-54460836D01*
X109473240Y-54629199D01*
X109584310Y-54782073D01*
X109717927Y-54915690D01*
X109804229Y-54978393D01*
X109870796Y-55026757D01*
X109870797Y-55026757D01*
X109870801Y-55026760D01*
X109950347Y-55067290D01*
X110032722Y-55109263D01*
X110034320Y-55110199D01*
X110038037Y-55111999D01*
X110040021Y-55112985D01*
X110043775Y-55114043D01*
X110135497Y-55143846D01*
X110218881Y-55170940D01*
X110405514Y-55200500D01*
X110405519Y-55200500D01*
X110594485Y-55200500D01*
X110594486Y-55200500D01*
X110781118Y-55170940D01*
X110960832Y-55112547D01*
X111129199Y-55026760D01*
X111282073Y-54915690D01*
X111415690Y-54782073D01*
X111526760Y-54629199D01*
X111612547Y-54460832D01*
X111670940Y-54281118D01*
X111700500Y-54094486D01*
X111700500Y-53905513D01*
X111700499Y-53905507D01*
X193299500Y-53905507D01*
X193299500Y-54094491D01*
X193329058Y-54281112D01*
X193329059Y-54281118D01*
X193387454Y-54460836D01*
X193473240Y-54629199D01*
X193584310Y-54782073D01*
X193717927Y-54915690D01*
X193804229Y-54978393D01*
X193870796Y-55026757D01*
X193870797Y-55026757D01*
X193870801Y-55026760D01*
X193950347Y-55067290D01*
X194032722Y-55109263D01*
X194034320Y-55110199D01*
X194038037Y-55111999D01*
X194040021Y-55112985D01*
X194043775Y-55114043D01*
X194135497Y-55143846D01*
X194218881Y-55170940D01*
X194405514Y-55200500D01*
X194405519Y-55200500D01*
X194594485Y-55200500D01*
X194594486Y-55200500D01*
X194781118Y-55170940D01*
X194960832Y-55112547D01*
X195129199Y-55026760D01*
X195282073Y-54915690D01*
X195415690Y-54782073D01*
X195526760Y-54629199D01*
X195612547Y-54460832D01*
X195670940Y-54281118D01*
X195700500Y-54094486D01*
X195700500Y-53905513D01*
X195670940Y-53718881D01*
X195612545Y-53539163D01*
X195546326Y-53409202D01*
X195526760Y-53370801D01*
X195526759Y-53370800D01*
X195526757Y-53370796D01*
X195463388Y-53283578D01*
X195415690Y-53217927D01*
X195282073Y-53084310D01*
X195129199Y-52973240D01*
X194960836Y-52887454D01*
X194781118Y-52829059D01*
X194779470Y-52828798D01*
X194594491Y-52799500D01*
X194594486Y-52799500D01*
X194594481Y-52799500D01*
X194405519Y-52799500D01*
X194405514Y-52799500D01*
X194405509Y-52799500D01*
X194218886Y-52829058D01*
X194218884Y-52829058D01*
X194218881Y-52829059D01*
X194039163Y-52887454D01*
X193954981Y-52930347D01*
X193870799Y-52973240D01*
X193783579Y-53036610D01*
X193783578Y-53036610D01*
X193729794Y-53075686D01*
X193722419Y-53079816D01*
X193579816Y-53222419D01*
X193575686Y-53229794D01*
X193536610Y-53283578D01*
X193536610Y-53283579D01*
X193473240Y-53370800D01*
X193387454Y-53539163D01*
X193329059Y-53718881D01*
X193329058Y-53718884D01*
X193329058Y-53718886D01*
X193299500Y-53905507D01*
X111700499Y-53905507D01*
X111670940Y-53718881D01*
X111612545Y-53539163D01*
X111546326Y-53409202D01*
X111526760Y-53370801D01*
X111526759Y-53370800D01*
X111526757Y-53370796D01*
X111463388Y-53283578D01*
X111415690Y-53217927D01*
X111282073Y-53084310D01*
X111129199Y-52973240D01*
X110960836Y-52887454D01*
X110781118Y-52829059D01*
X110779470Y-52828798D01*
X110594491Y-52799500D01*
X110594486Y-52799500D01*
X110594481Y-52799500D01*
X110405519Y-52799500D01*
X110405514Y-52799500D01*
X110405509Y-52799500D01*
X110218886Y-52829058D01*
X110218884Y-52829058D01*
X110218881Y-52829059D01*
X110039163Y-52887454D01*
X109954981Y-52930347D01*
X109870799Y-52973240D01*
X109783579Y-53036610D01*
X109783578Y-53036610D01*
X109729794Y-53075686D01*
X109722419Y-53079816D01*
X109579816Y-53222419D01*
X109575686Y-53229794D01*
X109536610Y-53283578D01*
X109536610Y-53283579D01*
X109473240Y-53370800D01*
X109387454Y-53539163D01*
X109329059Y-53718881D01*
X109329058Y-53718884D01*
X109329058Y-53718886D01*
X109299500Y-53905507D01*
X108006216Y-53905507D01*
X108006963Y-53893154D01*
X108006963Y-53893153D01*
X108017504Y-53718881D01*
X108018045Y-53709927D01*
X108018720Y-53702502D01*
X108019627Y-53695033D01*
X108020749Y-53687665D01*
X108047963Y-53539164D01*
X108071110Y-53412855D01*
X108072668Y-53405598D01*
X108074479Y-53398251D01*
X108076471Y-53391110D01*
X108082800Y-53370801D01*
X108159603Y-53124328D01*
X108162014Y-53117344D01*
X108164686Y-53110297D01*
X108167515Y-53103467D01*
X108282210Y-52848627D01*
X108285450Y-52841975D01*
X108288963Y-52835282D01*
X108292602Y-52828832D01*
X108330959Y-52765381D01*
X108437147Y-52589722D01*
X108441201Y-52583453D01*
X108445449Y-52577297D01*
X108449874Y-52571285D01*
X108449882Y-52571275D01*
X108622185Y-52351347D01*
X108626938Y-52345643D01*
X108631946Y-52339990D01*
X108637032Y-52334589D01*
X108834589Y-52137032D01*
X108839990Y-52131946D01*
X108845643Y-52126938D01*
X108851347Y-52122185D01*
X109071290Y-51949869D01*
X109077311Y-51945440D01*
X109083463Y-51941194D01*
X109089719Y-51937149D01*
X109328846Y-51792593D01*
X109335282Y-51788963D01*
X109341984Y-51785445D01*
X109348627Y-51782210D01*
X109603467Y-51667515D01*
X109610297Y-51664686D01*
X109617354Y-51662010D01*
X109624358Y-51659593D01*
X109891106Y-51576471D01*
X109898267Y-51574474D01*
X109905582Y-51572671D01*
X109912856Y-51571109D01*
X110187673Y-51520747D01*
X110195042Y-51519625D01*
X110202500Y-51518720D01*
X110209909Y-51518046D01*
X110494427Y-51500837D01*
X110498152Y-51500669D01*
X110501917Y-51500556D01*
X110505637Y-51500500D01*
X126801000Y-51500500D01*
X126868039Y-51520185D01*
G37*
%TD.AperFunction*%
%TD*%
M02*
