%TF.GenerationSoftware,KiCad,Pcbnew,10.0.0*%
%TF.CreationDate,2026-03-31T00:41:15+02:00*%
%TF.ProjectId,esp_home_sensor,6573705f-686f-46d6-955f-73656e736f72,rev?*%
%TF.SameCoordinates,Original*%
%TF.FileFunction,Paste,Top*%
%TF.FilePolarity,Positive*%
%FSLAX46Y46*%
G04 Gerber Fmt 4.6, Leading zero omitted, Abs format (unit mm)*
G04 Created by KiCad (PCBNEW 10.0.0) date 2026-03-31 00:41:15*
%MOMM*%
%LPD*%
G01*
G04 APERTURE LIST*
G04 Aperture macros list*
%AMRoundRect*
0 Rectangle with rounded corners*
0 $1 Rounding radius*
0 $2 $3 $4 $5 $6 $7 $8 $9 X,Y pos of 4 corners*
0 Add a 4 corners polygon primitive as box body*
4,1,4,$2,$3,$4,$5,$6,$7,$8,$9,$2,$3,0*
0 Add four circle primitives for the rounded corners*
1,1,$1+$1,$2,$3*
1,1,$1+$1,$4,$5*
1,1,$1+$1,$6,$7*
1,1,$1+$1,$8,$9*
0 Add four rect primitives between the rounded corners*
20,1,$1+$1,$2,$3,$4,$5,0*
20,1,$1+$1,$4,$5,$6,$7,0*
20,1,$1+$1,$6,$7,$8,$9,0*
20,1,$1+$1,$8,$9,$2,$3,0*%
%AMOutline5P*
0 Free polygon, 5 corners , with rotation*
0 The origin of the aperture is its center*
0 number of corners: always 5*
0 $1 to $10 corner X, Y*
0 $11 Rotation angle, in degrees counterclockwise*
0 create outline with 5 corners*
4,1,5,$1,$2,$3,$4,$5,$6,$7,$8,$9,$10,$1,$2,$11*%
%AMOutline6P*
0 Free polygon, 6 corners , with rotation*
0 The origin of the aperture is its center*
0 number of corners: always 6*
0 $1 to $12 corner X, Y*
0 $13 Rotation angle, in degrees counterclockwise*
0 create outline with 6 corners*
4,1,6,$1,$2,$3,$4,$5,$6,$7,$8,$9,$10,$11,$12,$1,$2,$13*%
%AMOutline7P*
0 Free polygon, 7 corners , with rotation*
0 The origin of the aperture is its center*
0 number of corners: always 7*
0 $1 to $14 corner X, Y*
0 $15 Rotation angle, in degrees counterclockwise*
0 create outline with 7 corners*
4,1,7,$1,$2,$3,$4,$5,$6,$7,$8,$9,$10,$11,$12,$13,$14,$1,$2,$15*%
%AMOutline8P*
0 Free polygon, 8 corners , with rotation*
0 The origin of the aperture is its center*
0 number of corners: always 8*
0 $1 to $16 corner X, Y*
0 $17 Rotation angle, in degrees counterclockwise*
0 create outline with 8 corners*
4,1,8,$1,$2,$3,$4,$5,$6,$7,$8,$9,$10,$11,$12,$13,$14,$15,$16,$1,$2,$17*%
G04 Aperture macros list end*
%ADD10RoundRect,0.135000X0.135000X0.185000X-0.135000X0.185000X-0.135000X-0.185000X0.135000X-0.185000X0*%
%ADD11RoundRect,0.147500X0.147500X0.172500X-0.147500X0.172500X-0.147500X-0.172500X0.147500X-0.172500X0*%
%ADD12RoundRect,0.218750X-0.218750X-0.381250X0.218750X-0.381250X0.218750X0.381250X-0.218750X0.381250X0*%
%ADD13RoundRect,0.135000X-0.185000X0.135000X-0.185000X-0.135000X0.185000X-0.135000X0.185000X0.135000X0*%
%ADD14R,0.000001X0.162501*%
%ADD15R,0.600000X0.200000*%
%ADD16RoundRect,0.140000X0.140000X0.170000X-0.140000X0.170000X-0.140000X-0.170000X0.140000X-0.170000X0*%
%ADD17RoundRect,0.150000X0.512500X0.150000X-0.512500X0.150000X-0.512500X-0.150000X0.512500X-0.150000X0*%
%ADD18RoundRect,0.135000X-0.135000X-0.185000X0.135000X-0.185000X0.135000X0.185000X-0.135000X0.185000X0*%
%ADD19RoundRect,0.150000X0.625000X-0.150000X0.625000X0.150000X-0.625000X0.150000X-0.625000X-0.150000X0*%
%ADD20RoundRect,0.250000X0.650000X-0.350000X0.650000X0.350000X-0.650000X0.350000X-0.650000X-0.350000X0*%
%ADD21RoundRect,0.150000X-0.625000X0.150000X-0.625000X-0.150000X0.625000X-0.150000X0.625000X0.150000X0*%
%ADD22RoundRect,0.250000X-0.650000X0.350000X-0.650000X-0.350000X0.650000X-0.350000X0.650000X0.350000X0*%
%ADD23R,0.800000X0.400000*%
%ADD24R,0.400000X0.800000*%
%ADD25Outline5P,-0.725000X0.130500X-0.130500X0.725000X0.725000X0.725000X0.725000X-0.725000X-0.725000X-0.725000X0.000000*%
%ADD26R,1.450000X1.450000*%
%ADD27R,0.700000X0.700000*%
%ADD28RoundRect,0.147500X-0.147500X-0.172500X0.147500X-0.172500X0.147500X0.172500X-0.147500X0.172500X0*%
%ADD29RoundRect,0.135000X0.185000X-0.135000X0.185000X0.135000X-0.185000X0.135000X-0.185000X-0.135000X0*%
%ADD30R,0.900000X1.000000*%
%ADD31RoundRect,0.140000X0.170000X-0.140000X0.170000X0.140000X-0.170000X0.140000X-0.170000X-0.140000X0*%
%ADD32RoundRect,0.140000X-0.140000X-0.170000X0.140000X-0.170000X0.140000X0.170000X-0.140000X0.170000X0*%
%ADD33R,0.274649X0.600161*%
%ADD34R,0.250000X0.600000*%
%ADD35R,0.275000X0.600000*%
%ADD36R,0.600000X0.350000*%
%ADD37R,0.270352X0.601755*%
%ADD38R,0.271137X0.590447*%
%ADD39RoundRect,0.140000X-0.170000X0.140000X-0.170000X-0.140000X0.170000X-0.140000X0.170000X0.140000X0*%
%ADD40RoundRect,0.125000X-0.137500X0.125000X-0.137500X-0.125000X0.137500X-0.125000X0.137500X0.125000X0*%
%ADD41R,0.400000X0.550000*%
%ADD42R,0.300000X0.600000*%
%ADD43R,0.625000X0.900000*%
%ADD44C,0.250000*%
%ADD45RoundRect,0.150000X0.150000X0.425000X-0.150000X0.425000X-0.150000X-0.425000X0.150000X-0.425000X0*%
%ADD46RoundRect,0.075000X0.075000X0.500000X-0.075000X0.500000X-0.075000X-0.500000X0.075000X-0.500000X0*%
%ADD47RoundRect,0.250000X0.840000X0.750000X-0.840000X0.750000X-0.840000X-0.750000X0.840000X-0.750000X0*%
%ADD48RoundRect,0.147500X-0.172500X0.147500X-0.172500X-0.147500X0.172500X-0.147500X0.172500X0.147500X0*%
G04 APERTURE END LIST*
D10*
%TO.C,R6*%
X182740000Y-64500000D03*
X183760000Y-64500000D03*
%TD*%
D11*
%TO.C,D2*%
X184765000Y-64500000D03*
X185735000Y-64500000D03*
%TD*%
D12*
%TO.C,L2*%
X174725000Y-71062500D03*
X176850000Y-71062500D03*
%TD*%
D13*
%TO.C,R16*%
X137685000Y-65230000D03*
X137685000Y-66250000D03*
%TD*%
D14*
%TO.C,U1*%
X183893750Y-61650000D03*
X183893750Y-62050000D03*
X183893750Y-62450000D03*
X183893750Y-62850000D03*
X184131250Y-61650000D03*
X184131250Y-62050000D03*
X184131250Y-62450000D03*
X184131250Y-62850000D03*
X184368750Y-61650000D03*
X184368750Y-62050000D03*
X184368750Y-62450000D03*
X184368750Y-62850000D03*
X184606250Y-61650000D03*
X184606250Y-62050000D03*
X184606250Y-62450000D03*
X184606250Y-62850000D03*
D15*
X183250000Y-61500000D03*
X183250000Y-62000000D03*
X183250000Y-62500000D03*
X183250000Y-63000000D03*
X185250000Y-63000000D03*
X185250000Y-62500000D03*
X185250000Y-62000000D03*
X185250000Y-61500000D03*
%TD*%
D16*
%TO.C,C12*%
X140980000Y-55600000D03*
X140020000Y-55600000D03*
%TD*%
D17*
%TO.C,U9*%
X175137500Y-64200000D03*
X175137500Y-63250000D03*
X175137500Y-62300000D03*
X172862500Y-62300000D03*
X172862500Y-63250000D03*
X172862500Y-64200000D03*
%TD*%
D18*
%TO.C,R5*%
X186740000Y-63750000D03*
X187760000Y-63750000D03*
%TD*%
D13*
%TO.C,R13*%
X165075000Y-68302500D03*
X165075000Y-69322500D03*
%TD*%
D16*
%TO.C,C10*%
X136480000Y-60500000D03*
X135520000Y-60500000D03*
%TD*%
D19*
%TO.C,J1*%
X117250000Y-72250000D03*
X117250000Y-71250000D03*
X117250000Y-70250000D03*
X117250000Y-69250000D03*
D20*
X121125000Y-73550000D03*
X121125000Y-67950000D03*
%TD*%
D21*
%TO.C,J3*%
X167750000Y-55750000D03*
X167750000Y-56750000D03*
X167750000Y-57750000D03*
X167750000Y-58750000D03*
X167750000Y-59750000D03*
X167750000Y-60750000D03*
X167750000Y-61750000D03*
X167750000Y-62750000D03*
D22*
X163875000Y-54450000D03*
X163875000Y-64050000D03*
%TD*%
D10*
%TO.C,R4*%
X181760000Y-62750000D03*
X180740000Y-62750000D03*
%TD*%
%TO.C,R1*%
X138260000Y-56750000D03*
X137240000Y-56750000D03*
%TD*%
D23*
%TO.C,U6*%
X142625000Y-54000000D03*
X142625000Y-54800000D03*
X142625000Y-55600000D03*
X142625000Y-56400000D03*
X142625000Y-57200000D03*
X142625000Y-58000000D03*
X142625000Y-58800000D03*
X142625000Y-59600000D03*
X142625000Y-60400000D03*
X142625000Y-61200000D03*
X142625000Y-62000000D03*
D24*
X143725000Y-62900000D03*
X144525000Y-62900000D03*
X145325000Y-62900000D03*
X146125000Y-62900000D03*
X146925000Y-62900000D03*
X147725000Y-62900000D03*
X148525000Y-62900000D03*
X149325000Y-62900000D03*
X150125000Y-62900000D03*
X150925000Y-62900000D03*
X151725000Y-62900000D03*
X152525000Y-62900000D03*
X153325000Y-62900000D03*
D23*
X154425000Y-62000000D03*
X154425000Y-61200000D03*
X154425000Y-60400000D03*
X154425000Y-59600000D03*
X154425000Y-58800000D03*
X154425000Y-58000000D03*
X154425000Y-57200000D03*
X154425000Y-56400000D03*
X154425000Y-55600000D03*
X154425000Y-54800000D03*
X154425000Y-54000000D03*
D24*
X153325000Y-53100000D03*
X152525000Y-53100000D03*
X151725000Y-53100000D03*
X150925000Y-53100000D03*
X150125000Y-53100000D03*
X149325000Y-53100000D03*
X148525000Y-53100000D03*
X147725000Y-53100000D03*
X146925000Y-53100000D03*
X146125000Y-53100000D03*
X145325000Y-53100000D03*
X144525000Y-53100000D03*
X143725000Y-53100000D03*
D25*
X146550000Y-56025000D03*
D26*
X146550000Y-58000000D03*
X146550000Y-59975000D03*
X148525000Y-56025000D03*
X148525000Y-58000000D03*
X148525000Y-59975000D03*
X150500000Y-56025000D03*
X150500000Y-58000000D03*
X150500000Y-59975000D03*
D27*
X154475000Y-53050000D03*
X154475000Y-62950000D03*
X142575000Y-62950000D03*
X142575000Y-53050000D03*
%TD*%
D28*
%TO.C,D1*%
X186765000Y-62750000D03*
X187735000Y-62750000D03*
%TD*%
D29*
%TO.C,R8*%
X184850000Y-73860000D03*
X184850000Y-72840000D03*
%TD*%
D16*
%TO.C,C14*%
X121605000Y-62425000D03*
X120645000Y-62425000D03*
%TD*%
D30*
%TO.C,SW1*%
X157050000Y-72800000D03*
X152950000Y-72800000D03*
X157050000Y-71200000D03*
X152950000Y-71200000D03*
%TD*%
D31*
%TO.C,C7*%
X168575000Y-69292500D03*
X168575000Y-68332500D03*
%TD*%
%TO.C,C4*%
X183800000Y-68830000D03*
X183800000Y-67870000D03*
%TD*%
D29*
%TO.C,R9*%
X183800000Y-71860000D03*
X183800000Y-70840000D03*
%TD*%
%TO.C,R11*%
X184850000Y-68860000D03*
X184850000Y-67840000D03*
%TD*%
D32*
%TO.C,C6*%
X174725000Y-66912500D03*
X175685000Y-66912500D03*
%TD*%
D16*
%TO.C,C13*%
X140980000Y-54600000D03*
X140020000Y-54600000D03*
%TD*%
D10*
%TO.C,R2*%
X181760000Y-61750000D03*
X180740000Y-61750000D03*
%TD*%
D33*
%TO.C,U2*%
X186362324Y-71550080D03*
D34*
X185850000Y-71550000D03*
D35*
X185337500Y-71550000D03*
D36*
X185275000Y-70850000D03*
D37*
X185339824Y-70149123D03*
D34*
X185850000Y-70150000D03*
D38*
X186360568Y-70154777D03*
D36*
X186425000Y-70850000D03*
%TD*%
D13*
%TO.C,R17*%
X178750000Y-59990000D03*
X178750000Y-61010000D03*
%TD*%
D39*
%TO.C,C3*%
X185850000Y-72870000D03*
X185850000Y-73830000D03*
%TD*%
%TO.C,C11*%
X136500000Y-71520000D03*
X136500000Y-72480000D03*
%TD*%
D31*
%TO.C,C8*%
X176475000Y-69292500D03*
X176475000Y-68332500D03*
%TD*%
D40*
%TO.C,U7*%
X125062500Y-60825000D03*
X125062500Y-61625000D03*
X125062500Y-62425000D03*
X125062500Y-63225000D03*
X122687500Y-63225000D03*
X122687500Y-62425000D03*
X122687500Y-61625000D03*
X122687500Y-60825000D03*
%TD*%
D41*
%TO.C,U8*%
X130350000Y-62875000D03*
X131000000Y-62875000D03*
X131650000Y-62875000D03*
X131650000Y-61125000D03*
X131000000Y-61125000D03*
X130350000Y-61125000D03*
%TD*%
D30*
%TO.C,SW2*%
X149050000Y-72800000D03*
X144950000Y-72800000D03*
X149050000Y-71200000D03*
X144950000Y-71200000D03*
%TD*%
D12*
%TO.C,L1*%
X166825000Y-71062500D03*
X168950000Y-71062500D03*
%TD*%
D16*
%TO.C,C1*%
X181730000Y-60750000D03*
X180770000Y-60750000D03*
%TD*%
D42*
%TO.C,U3*%
X189650000Y-67850000D03*
X189000000Y-67850000D03*
X188350000Y-67850000D03*
D43*
X188500000Y-68850000D03*
D42*
X188350000Y-69850000D03*
X189000000Y-69850000D03*
D43*
X189500000Y-68850000D03*
D42*
X189650000Y-69850000D03*
%TD*%
D44*
%TO.C,U5*%
X175125000Y-68612500D03*
X174725000Y-68612500D03*
X174325000Y-68612500D03*
X175125000Y-69012500D03*
X174725000Y-69012500D03*
X174325000Y-69012500D03*
%TD*%
D18*
%TO.C,R7*%
X186740000Y-61750000D03*
X187760000Y-61750000D03*
%TD*%
D30*
%TO.C,SW3*%
X142050000Y-72800000D03*
X137950000Y-72800000D03*
X142050000Y-71200000D03*
X137950000Y-71200000D03*
%TD*%
D45*
%TO.C,J4*%
X180700000Y-58420000D03*
X179900000Y-58420000D03*
D46*
X178750000Y-58420000D03*
X177750000Y-58420000D03*
X177250000Y-58420000D03*
X176250000Y-58420000D03*
D45*
X175100000Y-58420000D03*
X174300000Y-58420000D03*
X174300000Y-58420000D03*
X175100000Y-58420000D03*
D46*
X175750000Y-58420000D03*
X176750000Y-58420000D03*
X178250000Y-58420000D03*
X179250000Y-58420000D03*
D45*
X179900000Y-58420000D03*
X180700000Y-58420000D03*
D47*
X182610000Y-57845000D03*
X182610000Y-53915000D03*
X172390000Y-57845000D03*
X172390000Y-53915000D03*
%TD*%
D39*
%TO.C,C9*%
X151500000Y-71520000D03*
X151500000Y-72480000D03*
%TD*%
D48*
%TO.C,D3*%
X138740000Y-65255000D03*
X138740000Y-66225000D03*
%TD*%
D32*
%TO.C,C2*%
X186770000Y-60750000D03*
X187730000Y-60750000D03*
%TD*%
D31*
%TO.C,C16*%
X130350000Y-59800711D03*
X130350000Y-58840711D03*
%TD*%
D19*
%TO.C,J2*%
X129250000Y-72250000D03*
X129250000Y-71250000D03*
X129250000Y-70250000D03*
X129250000Y-69250000D03*
D20*
X133125000Y-73550000D03*
X133125000Y-67950000D03*
%TD*%
D13*
%TO.C,R12*%
X185850000Y-67840000D03*
X185850000Y-68860000D03*
%TD*%
D18*
%TO.C,R15*%
X135490000Y-59500000D03*
X136510000Y-59500000D03*
%TD*%
%TO.C,R3*%
X180740000Y-63750000D03*
X181760000Y-63750000D03*
%TD*%
D13*
%TO.C,R14*%
X172975000Y-68302500D03*
X172975000Y-69322500D03*
%TD*%
%TO.C,R18*%
X175750000Y-59990000D03*
X175750000Y-61010000D03*
%TD*%
D16*
%TO.C,C15*%
X121585000Y-60825000D03*
X120625000Y-60825000D03*
%TD*%
D29*
%TO.C,R10*%
X186850000Y-73860000D03*
X186850000Y-72840000D03*
%TD*%
D32*
%TO.C,C5*%
X166845000Y-67000000D03*
X167805000Y-67000000D03*
%TD*%
D44*
%TO.C,U4*%
X167225000Y-68612500D03*
X166825000Y-68612500D03*
X166425000Y-68612500D03*
X167225000Y-69012500D03*
X166825000Y-69012500D03*
X166425000Y-69012500D03*
%TD*%
M02*
