%TF.GenerationSoftware,KiCad,Pcbnew,10.0.0*%
%TF.CreationDate,2026-03-31T00:41:15+02:00*%
%TF.ProjectId,esp_home_sensor,6573705f-686f-46d6-955f-73656e736f72,rev?*%
%TF.SameCoordinates,Original*%
%TF.FileFunction,Copper,L4,Bot*%
%TF.FilePolarity,Positive*%
%FSLAX46Y46*%
G04 Gerber Fmt 4.6, Leading zero omitted, Abs format (unit mm)*
G04 Created by KiCad (PCBNEW 10.0.0) date 2026-03-31 00:41:15*
%MOMM*%
%LPD*%
G01*
G04 APERTURE LIST*
G04 Aperture macros list*
%AMRoundRect*
0 Rectangle with rounded corners*
0 $1 Rounding radius*
0 $2 $3 $4 $5 $6 $7 $8 $9 X,Y pos of 4 corners*
0 Add a 4 corners polygon primitive as box body*
4,1,4,$2,$3,$4,$5,$6,$7,$8,$9,$2,$3,0*
0 Add four circle primitives for the rounded corners*
1,1,$1+$1,$2,$3*
1,1,$1+$1,$4,$5*
1,1,$1+$1,$6,$7*
1,1,$1+$1,$8,$9*
0 Add four rect primitives between the rounded corners*
20,1,$1+$1,$2,$3,$4,$5,0*
20,1,$1+$1,$4,$5,$6,$7,0*
20,1,$1+$1,$6,$7,$8,$9,0*
20,1,$1+$1,$8,$9,$2,$3,0*%
G04 Aperture macros list end*
%TA.AperFunction,SMDPad,CuDef*%
%ADD10RoundRect,0.250003X3.499997X2.999997X-3.499997X2.999997X-3.499997X-2.999997X3.499997X-2.999997X0*%
%TD*%
%TA.AperFunction,SMDPad,CuDef*%
%ADD11RoundRect,0.200000X0.200000X0.275000X-0.200000X0.275000X-0.200000X-0.275000X0.200000X-0.275000X0*%
%TD*%
%TA.AperFunction,ViaPad*%
%ADD12C,0.350000*%
%TD*%
%TA.AperFunction,ViaPad*%
%ADD13C,0.500000*%
%TD*%
%TA.AperFunction,ViaPad*%
%ADD14C,0.400000*%
%TD*%
%TA.AperFunction,Conductor*%
%ADD15C,0.300000*%
%TD*%
%TA.AperFunction,Conductor*%
%ADD16C,0.200000*%
%TD*%
%TA.AperFunction,Conductor*%
%ADD17C,0.150000*%
%TD*%
G04 APERTURE END LIST*
D10*
%TO.P,BT1,1,+_1*%
%TO.N,/Protection/BAT+*%
X192190000Y-63500000D03*
%TO.P,BT1,2,-_2*%
%TO.N,/Protection/BAT-*%
X112810000Y-63500000D03*
%TD*%
D11*
%TO.P,TH1,1*%
%TO.N,Net-(JP1-B)*%
X178325000Y-64250000D03*
%TO.P,TH1,2*%
%TO.N,GND*%
X176675000Y-64250000D03*
%TD*%
D12*
%TO.N,GND*%
X165000000Y-59750000D03*
D13*
X119825000Y-60825000D03*
D12*
X193000000Y-58750000D03*
D14*
X180000000Y-61750000D03*
D13*
X130350000Y-58075000D03*
D14*
X155000000Y-72800000D03*
D13*
X187650000Y-60050000D03*
D12*
X151000000Y-62000000D03*
X115500000Y-54000000D03*
D14*
X183750000Y-63750000D03*
D13*
X130750000Y-69250000D03*
D14*
X167425000Y-68112500D03*
X180000000Y-63750000D03*
X167425000Y-67512500D03*
X175325000Y-67512500D03*
D12*
X148525000Y-59975000D03*
D14*
X183900000Y-60450000D03*
D13*
X118750000Y-69250000D03*
D12*
X162500000Y-73750000D03*
D13*
X181250000Y-59250000D03*
D14*
X183000000Y-63750000D03*
X180000000Y-60750000D03*
X184000000Y-61750000D03*
X175925000Y-67512500D03*
D12*
X172390000Y-57845000D03*
D13*
X121875000Y-61625000D03*
D14*
X184000000Y-62750000D03*
D13*
X130350000Y-63620711D03*
D12*
X144000000Y-58000000D03*
X146550000Y-59975000D03*
D14*
X120000000Y-64500000D03*
D12*
X148525000Y-56025000D03*
X182610000Y-57845000D03*
D14*
X184500000Y-61750000D03*
X176525000Y-66912500D03*
D12*
X144000000Y-56000000D03*
X153000000Y-60000000D03*
D14*
X172975000Y-67612500D03*
D12*
X182610000Y-53915000D03*
D14*
X175925000Y-68112500D03*
D12*
X159500000Y-56500000D03*
D13*
X178750000Y-61750000D03*
D12*
X146000000Y-54000000D03*
D13*
X174000000Y-64000000D03*
D14*
X184750000Y-71450000D03*
D12*
X150500000Y-59975000D03*
X164000000Y-62250000D03*
X153000000Y-56000000D03*
X148500000Y-54000000D03*
D14*
X168625000Y-66912500D03*
D12*
X146000000Y-62000000D03*
X144000000Y-62000000D03*
X148500000Y-62000000D03*
D14*
X176525000Y-67512500D03*
X175325000Y-68112500D03*
D12*
X172390000Y-53915000D03*
D13*
X176700000Y-65250000D03*
D14*
X184500000Y-63750000D03*
D13*
X175000000Y-61000000D03*
D12*
X151000000Y-54000000D03*
D14*
X185250000Y-63750000D03*
D13*
X139200000Y-54600000D03*
D12*
X150500000Y-58000000D03*
X153000000Y-54000000D03*
D13*
X139200000Y-55600000D03*
X125875000Y-60825000D03*
D12*
X153000000Y-58000000D03*
D14*
X168025000Y-67512500D03*
X147000000Y-72800000D03*
X184750000Y-72000000D03*
D12*
X150500000Y-56025000D03*
D14*
X140000000Y-72800000D03*
D13*
X119825000Y-62425000D03*
D14*
X185850000Y-74450000D03*
X185400000Y-60450000D03*
X168625000Y-67512500D03*
X184500000Y-62750000D03*
X183150000Y-60450000D03*
D12*
X144000000Y-54000000D03*
X146550000Y-58000000D03*
D13*
X134750000Y-60500000D03*
D12*
X153000000Y-62000000D03*
X144000000Y-60000000D03*
D14*
X165075000Y-67612500D03*
D13*
X166250000Y-61750000D03*
D12*
X146550000Y-56025000D03*
D13*
X174000000Y-59500000D03*
D14*
X184650000Y-60450000D03*
X168025000Y-68112500D03*
D12*
X162000000Y-57500000D03*
X148525000Y-58000000D03*
D14*
%TO.N,3V3_AUX*%
X176225000Y-70712500D03*
X176225000Y-70112500D03*
X176825000Y-70112500D03*
D13*
X166250000Y-62750000D03*
D14*
X175625000Y-70112500D03*
D13*
X130750000Y-70250000D03*
D14*
X175625000Y-71312500D03*
X176225000Y-71312500D03*
D13*
X118750000Y-70250000D03*
D14*
X124000000Y-60500000D03*
X175625000Y-70712500D03*
%TO.N,3V3_MCU*%
X167725000Y-70112500D03*
D12*
X141750000Y-55600000D03*
D14*
X120500000Y-59000000D03*
X128000000Y-57500000D03*
X167725000Y-70712500D03*
X168325000Y-71312500D03*
X168325000Y-70712500D03*
X168325000Y-70112500D03*
D13*
X134750000Y-59500000D03*
D14*
X168925000Y-70112500D03*
X167725000Y-71312500D03*
D13*
X136990000Y-66240000D03*
D12*
%TO.N,/MCU/USER_SW*%
X138000000Y-58500000D03*
X138000000Y-68750000D03*
%TO.N,/Env_sensor/I2C.SDA*%
X149750000Y-66500000D03*
X130750000Y-71250000D03*
%TO.N,/MCU/DISP_IF.CLK*%
X165500000Y-60000000D03*
X163500000Y-62000000D03*
%TO.N,/MCU/EN*%
X144500000Y-68500000D03*
X140000000Y-60000000D03*
%TO.N,/Env_sensor/I2C.SCL*%
X130750000Y-72250000D03*
X151250000Y-68000000D03*
%TO.N,/MCU/DISP_IF.RST*%
X159250000Y-57000000D03*
X162250000Y-57000000D03*
D13*
%TO.N,VBAT*%
X187750000Y-73500000D03*
D14*
X187900000Y-68300000D03*
X136500000Y-56750000D03*
X187900000Y-68800000D03*
X166250000Y-66000000D03*
X187900000Y-67800000D03*
%TO.N,/DC_DC/EN*%
X170771446Y-69478554D03*
X143750000Y-64250000D03*
D12*
%TO.N,/MCU/BOOT*%
X153000000Y-70000000D03*
X154250000Y-67000000D03*
D14*
%TO.N,/Protection/BAT-*%
X183750000Y-73750000D03*
X182750000Y-72750000D03*
X182750000Y-74750000D03*
X183250000Y-74250000D03*
X183750000Y-72750000D03*
X182750000Y-70750000D03*
X183250000Y-73250000D03*
X182750000Y-71750000D03*
X183250000Y-71250000D03*
X183750000Y-74750000D03*
X182750000Y-73750000D03*
D12*
%TO.N,/Protection/DSG*%
X186750000Y-69250000D03*
X189000000Y-67250000D03*
D14*
%TO.N,/Protection/BAT+*%
X190150000Y-67400000D03*
X186000000Y-67200000D03*
X190150000Y-67950000D03*
%TO.N,Net-(U3-Pad4)*%
X190150000Y-69400000D03*
X187900000Y-69650000D03*
X190150000Y-68650000D03*
X187900000Y-70150000D03*
X190150000Y-70150000D03*
D12*
%TO.N,Net-(JP1-B)*%
X180000000Y-62750000D03*
%TD*%
%TO.N,GND*%
D15*
X176675000Y-64250000D02*
X176675000Y-65225000D01*
X176675000Y-65225000D02*
X176700000Y-65250000D01*
%TO.N,/MCU/USER_SW*%
D16*
X138000000Y-68750000D02*
X138000000Y-58500000D01*
%TO.N,/Env_sensor/I2C.SDA*%
X149750000Y-66500000D02*
X149750000Y-69250000D01*
X132250000Y-69750000D02*
X130750000Y-71250000D01*
X149250000Y-69750000D02*
X132250000Y-69750000D01*
X149750000Y-69250000D02*
X149250000Y-69750000D01*
%TO.N,/MCU/DISP_IF.CLK*%
X163500000Y-62000000D02*
X165500000Y-60000000D01*
%TO.N,/MCU/EN*%
X144500000Y-68500000D02*
X140000000Y-64000000D01*
X140000000Y-64000000D02*
X140000000Y-60000000D01*
%TO.N,/Env_sensor/I2C.SCL*%
X132750000Y-70250000D02*
X130750000Y-72250000D01*
X151250000Y-68000000D02*
X151250000Y-68750000D01*
X151250000Y-68750000D02*
X149750000Y-70250000D01*
X149750000Y-70250000D02*
X132750000Y-70250000D01*
%TO.N,/MCU/DISP_IF.RST*%
X159250000Y-57000000D02*
X162250000Y-57000000D01*
%TO.N,VBAT*%
D17*
X136500000Y-56750000D02*
X156250000Y-56750000D01*
D15*
X187250000Y-69450000D02*
X187900000Y-68800000D01*
D17*
X156250000Y-56750000D02*
X165500000Y-66000000D01*
X165500000Y-66000000D02*
X166250000Y-66000000D01*
D15*
X187750000Y-72750000D02*
X187250000Y-72250000D01*
X187750000Y-73500000D02*
X187750000Y-72750000D01*
X187250000Y-72250000D02*
X187250000Y-69450000D01*
%TO.N,/DC_DC/EN*%
D17*
X165728554Y-69478554D02*
X160500000Y-64250000D01*
X160500000Y-64250000D02*
X143750000Y-64250000D01*
X170771446Y-69478554D02*
X165728554Y-69478554D01*
%TO.N,/MCU/BOOT*%
D16*
X153000000Y-70000000D02*
X154250000Y-68750000D01*
X154250000Y-68750000D02*
X154250000Y-67000000D01*
%TO.N,/Protection/DSG*%
X187000000Y-67250000D02*
X186750000Y-67500000D01*
X189000000Y-67250000D02*
X187000000Y-67250000D01*
X186750000Y-67500000D02*
X186750000Y-69250000D01*
%TO.N,/Protection/BAT+*%
X189190000Y-66500000D02*
X192190000Y-63500000D01*
X186700000Y-66500000D02*
X189190000Y-66500000D01*
X186000000Y-67200000D02*
X186700000Y-66500000D01*
%TO.N,Net-(JP1-B)*%
X179825000Y-62750000D02*
X178325000Y-64250000D01*
X180000000Y-62750000D02*
X179825000Y-62750000D01*
%TD*%
%TA.AperFunction,Conductor*%
%TO.N,/Protection/BAT+*%
G36*
X190450000Y-68026000D02*
G01*
X190430315Y-68093039D01*
X190377511Y-68138794D01*
X190326000Y-68150000D01*
X189624000Y-68150000D01*
X189556961Y-68130315D01*
X189511206Y-68077511D01*
X189500000Y-68026000D01*
X189500000Y-67200000D01*
X190450000Y-67200000D01*
X190450000Y-68026000D01*
G37*
%TD.AperFunction*%
%TD*%
%TA.AperFunction,Conductor*%
%TO.N,/Protection/BAT-*%
G36*
X184054736Y-70500942D02*
G01*
X184116975Y-70513322D01*
X184134640Y-70520638D01*
X184183319Y-70553165D01*
X184196834Y-70566680D01*
X184213098Y-70591021D01*
X184229361Y-70615360D01*
X184236677Y-70633023D01*
X184249058Y-70695263D01*
X184250000Y-70704823D01*
X184250000Y-74662333D01*
X184249058Y-74671893D01*
X184236677Y-74734133D01*
X184229361Y-74751796D01*
X184194101Y-74804567D01*
X184188007Y-74811992D01*
X183558578Y-75441421D01*
X183558575Y-75441424D01*
X183501256Y-75498743D01*
X183500000Y-75498866D01*
X183500000Y-70500000D01*
X184045177Y-70500000D01*
X184054736Y-70500942D01*
G37*
%TD.AperFunction*%
%TD*%
%TA.AperFunction,Conductor*%
%TO.N,VBAT*%
G36*
X188297566Y-67550236D02*
G01*
X188301750Y-67550647D01*
X188302343Y-67550706D01*
X188307086Y-67551409D01*
X188362244Y-67562381D01*
X188371426Y-67565165D01*
X188380182Y-67568791D01*
X188388645Y-67573314D01*
X188429310Y-67600486D01*
X188436732Y-67606578D01*
X188443420Y-67613266D01*
X188449514Y-67620691D01*
X188463098Y-67641021D01*
X188476680Y-67661348D01*
X188481209Y-67669821D01*
X188484831Y-67678566D01*
X188487618Y-67687756D01*
X188498587Y-67742897D01*
X188499292Y-67747647D01*
X188499763Y-67752422D01*
X188500000Y-67757232D01*
X188500000Y-68056335D01*
X188500001Y-68056339D01*
X188518879Y-68141150D01*
X188518879Y-68141151D01*
X188518880Y-68141152D01*
X188518883Y-68141157D01*
X188571961Y-68209967D01*
X188703987Y-68319990D01*
X188721836Y-68334864D01*
X188725754Y-68338510D01*
X188729475Y-68342374D01*
X188732959Y-68346412D01*
X188771168Y-68395946D01*
X188776742Y-68405088D01*
X188781203Y-68414615D01*
X188784656Y-68424747D01*
X188798245Y-68485794D01*
X188799122Y-68491081D01*
X188799706Y-68496388D01*
X188800000Y-68501748D01*
X188800000Y-68892766D01*
X188799763Y-68897576D01*
X188799292Y-68902351D01*
X188798587Y-68907101D01*
X188787618Y-68962242D01*
X188784831Y-68971432D01*
X188781209Y-68980177D01*
X188776680Y-68988649D01*
X188749516Y-69029304D01*
X188743422Y-69036730D01*
X188736730Y-69043422D01*
X188729304Y-69049516D01*
X188688649Y-69076680D01*
X188680176Y-69081209D01*
X188671435Y-69084829D01*
X188662247Y-69087616D01*
X188623962Y-69095232D01*
X188619275Y-69096165D01*
X188610846Y-69097841D01*
X188607095Y-69098588D01*
X188602350Y-69099292D01*
X188597578Y-69099763D01*
X188592765Y-69100000D01*
X187857234Y-69100000D01*
X187852425Y-69099763D01*
X187847649Y-69099292D01*
X187842911Y-69098589D01*
X187827202Y-69095465D01*
X187787755Y-69087618D01*
X187778565Y-69084830D01*
X187769818Y-69081207D01*
X187761348Y-69076680D01*
X187741021Y-69063098D01*
X187720691Y-69049514D01*
X187713266Y-69043420D01*
X187706578Y-69036732D01*
X187700484Y-69029307D01*
X187673318Y-68988650D01*
X187668793Y-68980186D01*
X187665167Y-68971432D01*
X187662380Y-68962245D01*
X187662379Y-68962242D01*
X187651407Y-68907078D01*
X187650704Y-68902334D01*
X187650234Y-68897558D01*
X187650000Y-68892773D01*
X187650000Y-67757228D01*
X187650235Y-67752438D01*
X187650703Y-67747673D01*
X187651408Y-67742915D01*
X187662382Y-67687746D01*
X187665167Y-67678566D01*
X187668793Y-67669812D01*
X187673317Y-67661350D01*
X187700491Y-67620681D01*
X187706578Y-67613266D01*
X187713268Y-67606575D01*
X187720682Y-67600490D01*
X187761351Y-67573316D01*
X187769820Y-67568790D01*
X187778562Y-67565169D01*
X187787751Y-67562381D01*
X187842915Y-67551408D01*
X187847671Y-67550703D01*
X187848469Y-67550624D01*
X187852438Y-67550235D01*
X187857228Y-67550000D01*
X188292767Y-67550000D01*
X188297566Y-67550236D01*
G37*
%TD.AperFunction*%
%TD*%
%TA.AperFunction,Conductor*%
%TO.N,Net-(U3-Pad4)*%
G36*
X190271728Y-68350419D02*
G01*
X190278050Y-68351251D01*
X190284331Y-68352500D01*
X190343588Y-68368377D01*
X190355403Y-68373272D01*
X190366198Y-68379505D01*
X190376345Y-68387291D01*
X190410377Y-68421323D01*
X190421000Y-68437221D01*
X190423854Y-68444112D01*
X190423855Y-68464930D01*
X190425489Y-68464834D01*
X190426150Y-68476069D01*
X190440684Y-68502027D01*
X190445342Y-68513595D01*
X190448413Y-68525366D01*
X190450000Y-68537736D01*
X190450000Y-70292766D01*
X190449763Y-70297576D01*
X190449292Y-70302351D01*
X190448587Y-70307101D01*
X190437618Y-70362242D01*
X190434831Y-70371432D01*
X190431209Y-70380177D01*
X190426680Y-70388649D01*
X190399516Y-70429304D01*
X190393422Y-70436730D01*
X190386730Y-70443422D01*
X190379304Y-70449516D01*
X190338649Y-70476680D01*
X190330176Y-70481209D01*
X190321435Y-70484829D01*
X190312247Y-70487616D01*
X190273962Y-70495232D01*
X190269275Y-70496165D01*
X190260846Y-70497841D01*
X190257095Y-70498588D01*
X190252350Y-70499292D01*
X190247578Y-70499763D01*
X190242765Y-70500000D01*
X187857234Y-70500000D01*
X187852425Y-70499763D01*
X187847649Y-70499292D01*
X187842911Y-70498589D01*
X187827202Y-70495465D01*
X187787755Y-70487618D01*
X187778565Y-70484830D01*
X187769818Y-70481207D01*
X187761348Y-70476680D01*
X187741021Y-70463098D01*
X187720691Y-70449514D01*
X187713266Y-70443420D01*
X187706578Y-70436732D01*
X187700484Y-70429307D01*
X187673318Y-70388650D01*
X187668793Y-70380186D01*
X187665167Y-70371432D01*
X187662380Y-70362245D01*
X187662379Y-70362242D01*
X187651407Y-70307078D01*
X187650704Y-70302334D01*
X187650234Y-70297558D01*
X187650000Y-70292773D01*
X187650000Y-69507231D01*
X187650235Y-69502435D01*
X187650707Y-69497644D01*
X187651411Y-69492900D01*
X187651899Y-69490449D01*
X187656740Y-69476926D01*
X187663297Y-69464657D01*
X187671861Y-69453108D01*
X187803110Y-69321859D01*
X187814654Y-69313298D01*
X187826929Y-69306737D01*
X187840423Y-69301904D01*
X187840997Y-69301790D01*
X187841008Y-69301792D01*
X187841008Y-69301789D01*
X187842081Y-69301574D01*
X187842898Y-69301412D01*
X187847655Y-69300706D01*
X187852440Y-69300235D01*
X187857232Y-69300000D01*
X188949997Y-69300000D01*
X188950000Y-69300000D01*
X189026537Y-69284776D01*
X189091421Y-69241421D01*
X189134776Y-69176537D01*
X189150000Y-69100000D01*
X189150000Y-68557228D01*
X189150235Y-68552438D01*
X189150703Y-68547673D01*
X189151408Y-68542915D01*
X189162382Y-68487746D01*
X189165165Y-68478569D01*
X189168795Y-68469808D01*
X189173311Y-68461358D01*
X189200491Y-68420681D01*
X189206575Y-68413268D01*
X189213268Y-68406575D01*
X189220682Y-68400490D01*
X189261351Y-68373316D01*
X189269820Y-68368790D01*
X189278562Y-68365169D01*
X189287751Y-68362381D01*
X189342915Y-68351408D01*
X189347671Y-68350703D01*
X189348469Y-68350624D01*
X189352438Y-68350235D01*
X189357228Y-68350000D01*
X190265335Y-68350000D01*
X190271728Y-68350419D01*
G37*
%TD.AperFunction*%
%TD*%
%TA.AperFunction,Conductor*%
%TO.N,/Protection/BAT+*%
G36*
X190393039Y-66519685D02*
G01*
X190438794Y-66572489D01*
X190450000Y-66624000D01*
X190450000Y-67200000D01*
X189500000Y-67200000D01*
X189500000Y-66624000D01*
X189519685Y-66556961D01*
X189572489Y-66511206D01*
X189624000Y-66500000D01*
X190326000Y-66500000D01*
X190393039Y-66519685D01*
G37*
%TD.AperFunction*%
%TD*%
%TA.AperFunction,Conductor*%
%TO.N,/Protection/BAT-*%
G36*
X116416266Y-60001065D02*
G01*
X116443135Y-60006759D01*
X116482209Y-60015039D01*
X116500780Y-60023280D01*
X116555389Y-60062806D01*
X116575042Y-60094748D01*
X116573409Y-60101602D01*
X120220451Y-64112078D01*
X120233144Y-64147368D01*
X120217166Y-64181297D01*
X120181876Y-64193990D01*
X120159700Y-64187480D01*
X120135288Y-64173386D01*
X120135287Y-64173385D01*
X120135286Y-64173385D01*
X120046147Y-64149500D01*
X120046144Y-64149500D01*
X119953856Y-64149500D01*
X119953853Y-64149500D01*
X119864713Y-64173385D01*
X119864710Y-64173386D01*
X119784794Y-64219527D01*
X119784784Y-64219534D01*
X119719534Y-64284784D01*
X119719527Y-64284794D01*
X119673386Y-64364710D01*
X119673385Y-64364713D01*
X119649500Y-64453853D01*
X119649500Y-64546146D01*
X119673385Y-64635286D01*
X119673386Y-64635289D01*
X119716430Y-64709842D01*
X119719531Y-64715212D01*
X119784788Y-64780469D01*
X119864712Y-64826614D01*
X119886998Y-64832585D01*
X119953853Y-64850500D01*
X119953856Y-64850500D01*
X120046146Y-64850500D01*
X120090716Y-64838557D01*
X120135288Y-64826614D01*
X120215212Y-64780469D01*
X120280469Y-64715212D01*
X120326614Y-64635288D01*
X120347254Y-64558260D01*
X120350500Y-64546146D01*
X120350500Y-64453854D01*
X120327654Y-64368595D01*
X120332549Y-64331412D01*
X120362301Y-64308582D01*
X120399484Y-64313477D01*
X120411319Y-64323037D01*
X122404404Y-66525921D01*
X125940451Y-70434183D01*
X125940457Y-70434187D01*
X126007628Y-70482806D01*
X126007629Y-70482806D01*
X126007630Y-70482807D01*
X126043189Y-70490342D01*
X126088752Y-70499999D01*
X126088754Y-70499999D01*
X126088758Y-70500000D01*
X130413311Y-70500000D01*
X130447959Y-70514352D01*
X130504087Y-70570480D01*
X130515749Y-70577213D01*
X130595410Y-70623206D01*
X130595412Y-70623206D01*
X130595413Y-70623207D01*
X130675747Y-70644732D01*
X130697269Y-70650499D01*
X130697270Y-70650500D01*
X130697273Y-70650500D01*
X130802729Y-70650500D01*
X130843574Y-70639555D01*
X130889064Y-70627366D01*
X130926246Y-70632261D01*
X130949076Y-70662013D01*
X130944181Y-70699196D01*
X130936394Y-70709344D01*
X130735137Y-70910601D01*
X130710061Y-70922968D01*
X130710249Y-70923668D01*
X130624363Y-70946681D01*
X130624359Y-70946682D01*
X130550137Y-70989535D01*
X130550137Y-70989536D01*
X130489536Y-71050137D01*
X130489535Y-71050137D01*
X130446682Y-71124359D01*
X130446681Y-71124363D01*
X130424500Y-71207143D01*
X130424500Y-71292856D01*
X130446681Y-71375636D01*
X130446682Y-71375640D01*
X130488336Y-71447786D01*
X130489535Y-71449862D01*
X130550138Y-71510465D01*
X130577304Y-71526149D01*
X130624359Y-71553317D01*
X130624361Y-71553317D01*
X130624362Y-71553318D01*
X130689651Y-71570812D01*
X130707143Y-71575499D01*
X130707144Y-71575500D01*
X130707147Y-71575500D01*
X130792856Y-71575500D01*
X130792856Y-71575499D01*
X130875638Y-71553318D01*
X130949862Y-71510465D01*
X131010465Y-71449862D01*
X131053318Y-71375638D01*
X131062359Y-71341893D01*
X131076332Y-71289751D01*
X131077034Y-71289939D01*
X131089397Y-71264863D01*
X131839909Y-70514352D01*
X131874557Y-70500000D01*
X132027443Y-70500000D01*
X132062091Y-70514352D01*
X132076443Y-70549000D01*
X132062091Y-70583648D01*
X130735137Y-71910601D01*
X130710061Y-71922968D01*
X130710249Y-71923668D01*
X130624363Y-71946681D01*
X130624359Y-71946682D01*
X130550137Y-71989535D01*
X130550137Y-71989536D01*
X130489536Y-72050137D01*
X130489535Y-72050137D01*
X130446682Y-72124359D01*
X130446681Y-72124363D01*
X130424500Y-72207143D01*
X130424500Y-72292856D01*
X130446681Y-72375636D01*
X130446682Y-72375640D01*
X130489326Y-72449500D01*
X130489535Y-72449862D01*
X130550138Y-72510465D01*
X130560361Y-72516367D01*
X130624359Y-72553317D01*
X130624361Y-72553317D01*
X130624362Y-72553318D01*
X130689651Y-72570812D01*
X130707143Y-72575499D01*
X130707144Y-72575500D01*
X130707147Y-72575500D01*
X130792856Y-72575500D01*
X130792856Y-72575499D01*
X130875638Y-72553318D01*
X130949862Y-72510465D01*
X131010465Y-72449862D01*
X131053318Y-72375638D01*
X131071139Y-72309130D01*
X131076332Y-72289751D01*
X131077034Y-72289939D01*
X131089397Y-72264863D01*
X132839409Y-70514852D01*
X132874057Y-70500500D01*
X149802089Y-70500500D01*
X149807168Y-70500000D01*
X167358094Y-70500000D01*
X167392742Y-70514352D01*
X167407094Y-70549000D01*
X167400528Y-70573501D01*
X167398387Y-70577207D01*
X167398385Y-70577213D01*
X167374500Y-70666353D01*
X167374500Y-70758646D01*
X167398385Y-70847786D01*
X167398386Y-70847789D01*
X167424999Y-70893883D01*
X167444531Y-70927712D01*
X167444534Y-70927715D01*
X167494671Y-70977852D01*
X167509023Y-71012500D01*
X167494671Y-71047148D01*
X167444534Y-71097284D01*
X167444527Y-71097294D01*
X167398386Y-71177210D01*
X167398385Y-71177213D01*
X167374500Y-71266353D01*
X167374500Y-71358646D01*
X167398385Y-71447786D01*
X167398386Y-71447789D01*
X167424999Y-71493883D01*
X167444531Y-71527712D01*
X167509788Y-71592969D01*
X167589712Y-71639114D01*
X167611998Y-71645085D01*
X167678853Y-71663000D01*
X167678856Y-71663000D01*
X167771146Y-71663000D01*
X167815716Y-71651057D01*
X167860288Y-71639114D01*
X167940212Y-71592969D01*
X167990352Y-71542829D01*
X168025000Y-71528477D01*
X168059648Y-71542829D01*
X168109788Y-71592969D01*
X168189712Y-71639114D01*
X168211998Y-71645085D01*
X168278853Y-71663000D01*
X168278856Y-71663000D01*
X168371146Y-71663000D01*
X168415716Y-71651057D01*
X168460288Y-71639114D01*
X168540212Y-71592969D01*
X168605469Y-71527712D01*
X168651614Y-71447788D01*
X168670946Y-71375640D01*
X168675500Y-71358646D01*
X168675500Y-71266353D01*
X168651614Y-71177213D01*
X168651613Y-71177210D01*
X168621100Y-71124362D01*
X168605469Y-71097288D01*
X168555329Y-71047148D01*
X168540977Y-71012500D01*
X168555329Y-70977852D01*
X168605469Y-70927712D01*
X168651614Y-70847788D01*
X168663557Y-70803216D01*
X168675500Y-70758646D01*
X168675500Y-70666353D01*
X168657585Y-70599498D01*
X168651614Y-70577212D01*
X168651613Y-70577210D01*
X168651612Y-70577207D01*
X168649472Y-70573501D01*
X168644575Y-70536319D01*
X168667405Y-70506566D01*
X168691906Y-70500000D01*
X175258094Y-70500000D01*
X175292742Y-70514352D01*
X175307094Y-70549000D01*
X175300528Y-70573501D01*
X175298387Y-70577207D01*
X175298385Y-70577213D01*
X175274500Y-70666353D01*
X175274500Y-70758646D01*
X175298385Y-70847786D01*
X175298386Y-70847789D01*
X175324999Y-70893883D01*
X175344531Y-70927712D01*
X175344534Y-70927715D01*
X175394671Y-70977852D01*
X175409023Y-71012500D01*
X175394671Y-71047148D01*
X175344534Y-71097284D01*
X175344527Y-71097294D01*
X175298386Y-71177210D01*
X175298385Y-71177213D01*
X175274500Y-71266353D01*
X175274500Y-71358646D01*
X175298385Y-71447786D01*
X175298386Y-71447789D01*
X175324999Y-71493883D01*
X175344531Y-71527712D01*
X175409788Y-71592969D01*
X175489712Y-71639114D01*
X175511998Y-71645085D01*
X175578853Y-71663000D01*
X175578856Y-71663000D01*
X175671146Y-71663000D01*
X175715716Y-71651057D01*
X175760288Y-71639114D01*
X175840212Y-71592969D01*
X175890352Y-71542829D01*
X175925000Y-71528477D01*
X175959648Y-71542829D01*
X176009788Y-71592969D01*
X176089712Y-71639114D01*
X176111998Y-71645085D01*
X176178853Y-71663000D01*
X176178856Y-71663000D01*
X176271146Y-71663000D01*
X176315716Y-71651057D01*
X176360288Y-71639114D01*
X176440212Y-71592969D01*
X176505469Y-71527712D01*
X176551614Y-71447788D01*
X176570946Y-71375640D01*
X176575500Y-71358646D01*
X176575500Y-71266353D01*
X176551614Y-71177213D01*
X176551613Y-71177210D01*
X176521100Y-71124362D01*
X176505469Y-71097288D01*
X176455329Y-71047148D01*
X176440977Y-71012500D01*
X176455329Y-70977852D01*
X176505469Y-70927712D01*
X176551614Y-70847788D01*
X176563557Y-70803216D01*
X176575500Y-70758646D01*
X176575500Y-70666353D01*
X176557585Y-70599498D01*
X176551614Y-70577212D01*
X176551613Y-70577210D01*
X176551612Y-70577207D01*
X176549472Y-70573501D01*
X176544575Y-70536319D01*
X176567405Y-70506566D01*
X176591906Y-70500000D01*
X178504574Y-70500000D01*
X178539222Y-70514352D01*
X178553574Y-70549000D01*
X178547009Y-70573500D01*
X178513084Y-70632261D01*
X178479246Y-70690870D01*
X178471594Y-70709344D01*
X178387671Y-70911949D01*
X178387667Y-70911959D01*
X178325737Y-71143086D01*
X178325735Y-71143094D01*
X178325735Y-71143098D01*
X178295120Y-71375640D01*
X178294500Y-71380353D01*
X178294500Y-71619646D01*
X178294499Y-71619646D01*
X178294500Y-71619650D01*
X178325735Y-71856902D01*
X178325736Y-71856906D01*
X178325737Y-71856913D01*
X178387667Y-72088040D01*
X178387670Y-72088047D01*
X178479246Y-72309130D01*
X178514854Y-72370806D01*
X178598893Y-72516367D01*
X178598903Y-72516382D01*
X178744562Y-72706208D01*
X178744573Y-72706220D01*
X178913779Y-72875426D01*
X178913791Y-72875437D01*
X179103617Y-73021096D01*
X179103626Y-73021102D01*
X179103630Y-73021105D01*
X179310870Y-73140754D01*
X179531953Y-73232330D01*
X179531956Y-73232330D01*
X179531959Y-73232332D01*
X179763086Y-73294262D01*
X179763087Y-73294262D01*
X179763098Y-73294265D01*
X180000350Y-73325500D01*
X180000353Y-73325500D01*
X180239646Y-73325500D01*
X180239650Y-73325500D01*
X180476902Y-73294265D01*
X180708047Y-73232330D01*
X180929130Y-73140754D01*
X181136370Y-73021105D01*
X181144059Y-73015205D01*
X181326208Y-72875437D01*
X181326210Y-72875434D01*
X181326218Y-72875429D01*
X181495429Y-72706218D01*
X181527280Y-72664710D01*
X181641096Y-72516382D01*
X181641097Y-72516379D01*
X181641105Y-72516370D01*
X181760754Y-72309130D01*
X181852330Y-72088047D01*
X181914265Y-71856902D01*
X181945500Y-71619650D01*
X181945500Y-71380350D01*
X181914265Y-71143098D01*
X181914262Y-71143086D01*
X181852332Y-70911959D01*
X181852328Y-70911949D01*
X181825752Y-70847789D01*
X181760754Y-70690870D01*
X181692990Y-70573499D01*
X181688096Y-70536318D01*
X181710926Y-70506565D01*
X181735426Y-70500000D01*
X183500000Y-70500000D01*
X183500000Y-75498867D01*
X183499198Y-75498946D01*
X183498666Y-75499235D01*
X183498069Y-75499057D01*
X183493581Y-75499500D01*
X109049000Y-75499500D01*
X109014352Y-75485148D01*
X109000000Y-75450500D01*
X109000000Y-72905519D01*
X109299500Y-72905519D01*
X109299500Y-73094480D01*
X109329059Y-73281115D01*
X109329060Y-73281118D01*
X109387453Y-73460833D01*
X109473236Y-73629193D01*
X109473239Y-73629197D01*
X109473240Y-73629199D01*
X109584310Y-73782073D01*
X109584312Y-73782075D01*
X109584315Y-73782079D01*
X109717920Y-73915684D01*
X109717923Y-73915686D01*
X109717927Y-73915690D01*
X109870801Y-74026760D01*
X109870803Y-74026761D01*
X109870806Y-74026763D01*
X109922922Y-74053317D01*
X110039168Y-74112547D01*
X110218882Y-74170940D01*
X110405519Y-74200500D01*
X110405520Y-74200500D01*
X110594480Y-74200500D01*
X110594481Y-74200500D01*
X110781118Y-74170940D01*
X110960832Y-74112547D01*
X111129199Y-74026760D01*
X111282073Y-73915690D01*
X111415690Y-73782073D01*
X111470130Y-73707143D01*
X162174500Y-73707143D01*
X162174500Y-73792856D01*
X162196681Y-73875636D01*
X162196682Y-73875640D01*
X162239535Y-73949862D01*
X162300138Y-74010465D01*
X162327304Y-74026149D01*
X162374359Y-74053317D01*
X162374361Y-74053317D01*
X162374362Y-74053318D01*
X162439651Y-74070812D01*
X162457143Y-74075499D01*
X162457144Y-74075500D01*
X162457147Y-74075500D01*
X162542856Y-74075500D01*
X162542856Y-74075499D01*
X162625638Y-74053318D01*
X162699862Y-74010465D01*
X162760465Y-73949862D01*
X162803318Y-73875638D01*
X162825499Y-73792856D01*
X162825500Y-73792856D01*
X162825500Y-73707144D01*
X162825499Y-73707143D01*
X162803318Y-73624363D01*
X162803317Y-73624359D01*
X162760464Y-73550137D01*
X162699862Y-73489535D01*
X162625640Y-73446682D01*
X162625636Y-73446681D01*
X162542856Y-73424500D01*
X162542853Y-73424500D01*
X162457147Y-73424500D01*
X162457144Y-73424500D01*
X162374363Y-73446681D01*
X162374359Y-73446682D01*
X162300137Y-73489535D01*
X162300137Y-73489536D01*
X162239536Y-73550137D01*
X162239535Y-73550137D01*
X162196682Y-73624359D01*
X162196681Y-73624363D01*
X162174500Y-73707143D01*
X111470130Y-73707143D01*
X111526760Y-73629199D01*
X111612547Y-73460832D01*
X111670940Y-73281118D01*
X111700500Y-73094481D01*
X111700500Y-72905519D01*
X111695734Y-72875426D01*
X111677185Y-72758309D01*
X111676479Y-72753853D01*
X139649500Y-72753853D01*
X139649500Y-72846146D01*
X139673385Y-72935286D01*
X139673386Y-72935289D01*
X139716430Y-73009842D01*
X139719531Y-73015212D01*
X139784788Y-73080469D01*
X139864712Y-73126614D01*
X139886998Y-73132585D01*
X139953853Y-73150500D01*
X139953856Y-73150500D01*
X140046146Y-73150500D01*
X140090716Y-73138557D01*
X140135288Y-73126614D01*
X140215212Y-73080469D01*
X140280469Y-73015212D01*
X140326614Y-72935288D01*
X140342654Y-72875426D01*
X140350500Y-72846146D01*
X140350500Y-72753853D01*
X146649500Y-72753853D01*
X146649500Y-72846146D01*
X146673385Y-72935286D01*
X146673386Y-72935289D01*
X146716430Y-73009842D01*
X146719531Y-73015212D01*
X146784788Y-73080469D01*
X146864712Y-73126614D01*
X146886998Y-73132585D01*
X146953853Y-73150500D01*
X146953856Y-73150500D01*
X147046146Y-73150500D01*
X147090716Y-73138557D01*
X147135288Y-73126614D01*
X147215212Y-73080469D01*
X147280469Y-73015212D01*
X147326614Y-72935288D01*
X147342654Y-72875426D01*
X147350500Y-72846146D01*
X147350500Y-72753853D01*
X154649500Y-72753853D01*
X154649500Y-72846146D01*
X154673385Y-72935286D01*
X154673386Y-72935289D01*
X154716430Y-73009842D01*
X154719531Y-73015212D01*
X154784788Y-73080469D01*
X154864712Y-73126614D01*
X154886998Y-73132585D01*
X154953853Y-73150500D01*
X154953856Y-73150500D01*
X155046146Y-73150500D01*
X155090716Y-73138557D01*
X155135288Y-73126614D01*
X155215212Y-73080469D01*
X155280469Y-73015212D01*
X155326614Y-72935288D01*
X155342654Y-72875426D01*
X155350500Y-72846146D01*
X155350500Y-72753853D01*
X155326614Y-72664713D01*
X155326613Y-72664710D01*
X155280472Y-72584794D01*
X155280469Y-72584788D01*
X155215212Y-72519531D01*
X155199508Y-72510464D01*
X155135289Y-72473386D01*
X155135286Y-72473385D01*
X155046147Y-72449500D01*
X155046144Y-72449500D01*
X154953856Y-72449500D01*
X154953853Y-72449500D01*
X154864713Y-72473385D01*
X154864710Y-72473386D01*
X154784794Y-72519527D01*
X154784784Y-72519534D01*
X154719534Y-72584784D01*
X154719527Y-72584794D01*
X154673386Y-72664710D01*
X154673385Y-72664713D01*
X154649500Y-72753853D01*
X147350500Y-72753853D01*
X147326614Y-72664713D01*
X147326613Y-72664710D01*
X147280472Y-72584794D01*
X147280469Y-72584788D01*
X147215212Y-72519531D01*
X147199508Y-72510464D01*
X147135289Y-72473386D01*
X147135286Y-72473385D01*
X147046147Y-72449500D01*
X147046144Y-72449500D01*
X146953856Y-72449500D01*
X146953853Y-72449500D01*
X146864713Y-72473385D01*
X146864710Y-72473386D01*
X146784794Y-72519527D01*
X146784784Y-72519534D01*
X146719534Y-72584784D01*
X146719527Y-72584794D01*
X146673386Y-72664710D01*
X146673385Y-72664713D01*
X146649500Y-72753853D01*
X140350500Y-72753853D01*
X140326614Y-72664713D01*
X140326613Y-72664710D01*
X140280472Y-72584794D01*
X140280469Y-72584788D01*
X140215212Y-72519531D01*
X140199508Y-72510464D01*
X140135289Y-72473386D01*
X140135286Y-72473385D01*
X140046147Y-72449500D01*
X140046144Y-72449500D01*
X139953856Y-72449500D01*
X139953853Y-72449500D01*
X139864713Y-72473385D01*
X139864710Y-72473386D01*
X139784794Y-72519527D01*
X139784784Y-72519534D01*
X139719534Y-72584784D01*
X139719527Y-72584794D01*
X139673386Y-72664710D01*
X139673385Y-72664713D01*
X139649500Y-72753853D01*
X111676479Y-72753853D01*
X111670940Y-72718884D01*
X111670940Y-72718882D01*
X111612547Y-72539168D01*
X111602543Y-72519534D01*
X111526763Y-72370806D01*
X111526761Y-72370803D01*
X111526760Y-72370801D01*
X111415690Y-72217927D01*
X111415686Y-72217923D01*
X111415684Y-72217920D01*
X111282079Y-72084315D01*
X111282080Y-72084315D01*
X111252600Y-72062897D01*
X111129199Y-71973240D01*
X111129197Y-71973239D01*
X111129193Y-71973236D01*
X110960833Y-71887453D01*
X110781118Y-71829060D01*
X110781115Y-71829059D01*
X110637744Y-71806352D01*
X110594481Y-71799500D01*
X110405519Y-71799500D01*
X110370397Y-71805062D01*
X110218884Y-71829059D01*
X110218881Y-71829060D01*
X110039166Y-71887453D01*
X109870806Y-71973236D01*
X109717920Y-72084315D01*
X109584315Y-72217920D01*
X109473236Y-72370806D01*
X109387453Y-72539166D01*
X109329060Y-72718881D01*
X109329059Y-72718884D01*
X109299500Y-72905519D01*
X109000000Y-72905519D01*
X109000000Y-70197269D01*
X118349500Y-70197269D01*
X118349500Y-70302730D01*
X118376792Y-70404585D01*
X118376793Y-70404589D01*
X118421953Y-70482806D01*
X118429520Y-70495913D01*
X118504087Y-70570480D01*
X118515749Y-70577213D01*
X118595410Y-70623206D01*
X118595412Y-70623206D01*
X118595413Y-70623207D01*
X118675747Y-70644732D01*
X118697269Y-70650499D01*
X118697270Y-70650500D01*
X118697273Y-70650500D01*
X118802730Y-70650500D01*
X118802730Y-70650499D01*
X118904587Y-70623207D01*
X118995913Y-70570480D01*
X119070480Y-70495913D01*
X119123207Y-70404587D01*
X119150499Y-70302730D01*
X119150500Y-70302730D01*
X119150500Y-70197270D01*
X119150499Y-70197269D01*
X119144732Y-70175747D01*
X119123207Y-70095413D01*
X119123206Y-70095412D01*
X119123206Y-70095410D01*
X119070479Y-70004086D01*
X118995913Y-69929520D01*
X118904589Y-69876793D01*
X118904585Y-69876792D01*
X118802730Y-69849500D01*
X118802727Y-69849500D01*
X118697273Y-69849500D01*
X118697270Y-69849500D01*
X118595414Y-69876792D01*
X118595410Y-69876793D01*
X118504086Y-69929520D01*
X118504086Y-69929521D01*
X118429521Y-70004086D01*
X118429520Y-70004086D01*
X118376793Y-70095410D01*
X118376792Y-70095414D01*
X118349500Y-70197269D01*
X109000000Y-70197269D01*
X109000000Y-69197269D01*
X118349500Y-69197269D01*
X118349500Y-69302730D01*
X118376792Y-69404585D01*
X118376793Y-69404589D01*
X118429520Y-69495913D01*
X118504087Y-69570480D01*
X118537513Y-69589778D01*
X118595410Y-69623206D01*
X118595412Y-69623206D01*
X118595413Y-69623207D01*
X118675747Y-69644732D01*
X118697269Y-69650499D01*
X118697270Y-69650500D01*
X118697273Y-69650500D01*
X118802730Y-69650500D01*
X118802730Y-69650499D01*
X118904587Y-69623207D01*
X118995913Y-69570480D01*
X119070480Y-69495913D01*
X119123207Y-69404587D01*
X119150499Y-69302730D01*
X119150500Y-69302730D01*
X119150500Y-69197270D01*
X119150499Y-69197269D01*
X119123207Y-69095414D01*
X119123206Y-69095410D01*
X119070479Y-69004086D01*
X118995913Y-68929520D01*
X118904589Y-68876793D01*
X118904585Y-68876792D01*
X118802730Y-68849500D01*
X118802727Y-68849500D01*
X118697273Y-68849500D01*
X118697270Y-68849500D01*
X118595414Y-68876792D01*
X118595410Y-68876793D01*
X118504086Y-68929520D01*
X118504086Y-68929521D01*
X118429521Y-69004086D01*
X118429520Y-69004086D01*
X118376793Y-69095410D01*
X118376792Y-69095414D01*
X118349500Y-69197269D01*
X109000000Y-69197269D01*
X109000000Y-60204823D01*
X109000939Y-60195274D01*
X109013323Y-60133018D01*
X109020638Y-60115360D01*
X109029831Y-60101602D01*
X109053167Y-60066677D01*
X109066677Y-60053167D01*
X109115361Y-60020637D01*
X109133018Y-60013323D01*
X109195274Y-60000939D01*
X109204823Y-60000000D01*
X116406108Y-60000000D01*
X116416266Y-60001065D01*
G37*
%TD.AperFunction*%
%TD*%
%TA.AperFunction,Conductor*%
%TO.N,GND*%
G36*
X126868039Y-51520185D02*
G01*
X126913794Y-51572989D01*
X126925000Y-51624500D01*
X126925000Y-52400000D01*
X170124999Y-52400000D01*
X170125000Y-52400000D01*
X170170506Y-51617302D01*
X170194049Y-51551519D01*
X170249419Y-51508906D01*
X170294297Y-51500500D01*
X196857670Y-51500500D01*
X196892606Y-51505523D01*
X196907604Y-51509927D01*
X196966355Y-51547672D01*
X196967542Y-51549041D01*
X196995018Y-51603902D01*
X196996663Y-51611460D01*
X196999500Y-51637831D01*
X196999500Y-75357670D01*
X196994475Y-75392614D01*
X196990070Y-75407612D01*
X196952327Y-75466355D01*
X196950958Y-75467542D01*
X196896097Y-75495018D01*
X196888539Y-75496663D01*
X196862168Y-75499500D01*
X184019771Y-75499500D01*
X183952732Y-75479815D01*
X183906977Y-75427011D01*
X183897033Y-75357853D01*
X183926058Y-75294297D01*
X183932090Y-75287819D01*
X184297961Y-74921948D01*
X184297962Y-74921947D01*
X184308206Y-74910645D01*
X184314300Y-74903220D01*
X184323395Y-74890957D01*
X184358655Y-74838186D01*
X184373025Y-74811302D01*
X184380341Y-74793639D01*
X184389189Y-74764471D01*
X184401570Y-74702231D01*
X184403809Y-74687141D01*
X184404751Y-74677581D01*
X184405500Y-74662333D01*
X184405500Y-70704823D01*
X184404751Y-70689575D01*
X184403809Y-70680015D01*
X184401570Y-70664925D01*
X184389189Y-70602685D01*
X184380341Y-70573517D01*
X184373025Y-70555854D01*
X184358654Y-70528969D01*
X184326127Y-70480289D01*
X184321810Y-70475029D01*
X184306789Y-70456725D01*
X184303538Y-70453474D01*
X184293274Y-70443210D01*
X184269712Y-70423872D01*
X184258769Y-70416560D01*
X184221045Y-70391352D01*
X184221026Y-70391341D01*
X184194145Y-70376974D01*
X184194141Y-70376972D01*
X184176476Y-70369656D01*
X184147312Y-70360810D01*
X184091954Y-70349799D01*
X184085072Y-70348430D01*
X184085068Y-70348429D01*
X184085066Y-70348429D01*
X184070006Y-70346194D01*
X184069997Y-70346193D01*
X184069058Y-70346100D01*
X184060427Y-70345250D01*
X184060411Y-70345249D01*
X184060413Y-70345249D01*
X184055145Y-70344990D01*
X184045177Y-70344500D01*
X184045165Y-70344500D01*
X181735426Y-70344500D01*
X181695175Y-70349799D01*
X181695174Y-70349799D01*
X181670696Y-70356358D01*
X181670681Y-70356363D01*
X181653876Y-70362067D01*
X181584066Y-70364972D01*
X181523768Y-70329674D01*
X181515649Y-70320132D01*
X181495438Y-70293793D01*
X181495435Y-70293790D01*
X181495430Y-70293783D01*
X181495424Y-70293776D01*
X181326223Y-70124575D01*
X181326216Y-70124569D01*
X181136367Y-69978892D01*
X181136365Y-69978891D01*
X181136357Y-69978886D01*
X181134947Y-69978004D01*
X181133237Y-69977085D01*
X181133138Y-69977028D01*
X180929140Y-69859251D01*
X180929132Y-69859247D01*
X180929130Y-69859246D01*
X180870714Y-69835049D01*
X180870713Y-69835048D01*
X180708043Y-69767668D01*
X180558591Y-69727623D01*
X180476900Y-69705734D01*
X180476894Y-69705733D01*
X180476889Y-69705732D01*
X180241528Y-69674747D01*
X180239847Y-69674500D01*
X180239656Y-69674500D01*
X180239650Y-69674500D01*
X180000350Y-69674500D01*
X180000344Y-69674500D01*
X180000342Y-69674500D01*
X179994222Y-69675253D01*
X179993316Y-69675425D01*
X179763109Y-69705732D01*
X179763102Y-69705733D01*
X179763099Y-69705734D01*
X179750623Y-69709077D01*
X179531955Y-69767668D01*
X179310892Y-69859236D01*
X179310883Y-69859239D01*
X179310876Y-69859243D01*
X179310859Y-69859251D01*
X179310842Y-69859259D01*
X179106859Y-69977028D01*
X179105090Y-69977980D01*
X179103634Y-69978891D01*
X179103632Y-69978892D01*
X178932017Y-70110578D01*
X178913782Y-70124570D01*
X178913775Y-70124576D01*
X178913767Y-70124583D01*
X178744583Y-70293767D01*
X178744576Y-70293775D01*
X178744562Y-70293790D01*
X178722535Y-70322496D01*
X178666106Y-70363697D01*
X178596360Y-70367849D01*
X178576712Y-70361568D01*
X178564086Y-70356338D01*
X178564076Y-70356335D01*
X178504576Y-70344500D01*
X178504574Y-70344500D01*
X177287300Y-70344500D01*
X177220261Y-70324815D01*
X177174506Y-70272011D01*
X177164562Y-70202853D01*
X177167525Y-70188408D01*
X177169359Y-70181559D01*
X177175500Y-70158644D01*
X177175500Y-70066356D01*
X177151614Y-69977212D01*
X177151612Y-69977209D01*
X177140030Y-69957147D01*
X177105473Y-69897294D01*
X177105472Y-69897293D01*
X177105470Y-69897289D01*
X177041378Y-69833197D01*
X177040212Y-69832031D01*
X177040209Y-69832029D01*
X177040205Y-69832026D01*
X176974190Y-69793911D01*
X176973835Y-69793704D01*
X176973460Y-69793306D01*
X176967895Y-69789036D01*
X176961999Y-69786594D01*
X176958596Y-69785124D01*
X176958126Y-69784912D01*
X176956234Y-69784206D01*
X176952684Y-69782735D01*
X176944520Y-69781661D01*
X176925419Y-69776543D01*
X176871144Y-69762000D01*
X176871143Y-69762000D01*
X176778856Y-69762000D01*
X176696466Y-69784075D01*
X176696451Y-69784080D01*
X176689712Y-69785886D01*
X176689711Y-69785886D01*
X176689709Y-69785887D01*
X176689706Y-69785888D01*
X176686906Y-69787504D01*
X176686902Y-69787506D01*
X176644990Y-69811705D01*
X176641753Y-69812490D01*
X176642084Y-69813095D01*
X176583294Y-69845183D01*
X176515043Y-69860024D01*
X176513225Y-69859894D01*
X176455031Y-69840526D01*
X176423883Y-69820509D01*
X176421787Y-69820272D01*
X176407900Y-69813374D01*
X176360293Y-69785888D01*
X176360290Y-69785887D01*
X176360289Y-69785886D01*
X176360288Y-69785886D01*
X176358304Y-69785354D01*
X176356026Y-69784119D01*
X176352684Y-69782735D01*
X176344520Y-69781661D01*
X176325419Y-69776543D01*
X176271144Y-69762000D01*
X176271143Y-69762000D01*
X176178856Y-69762000D01*
X176096466Y-69784075D01*
X176096451Y-69784080D01*
X176089712Y-69785886D01*
X176089711Y-69785886D01*
X176089709Y-69785887D01*
X176089706Y-69785888D01*
X176086906Y-69787504D01*
X176086902Y-69787506D01*
X176044990Y-69811705D01*
X176041753Y-69812490D01*
X176042084Y-69813095D01*
X175983294Y-69845183D01*
X175915043Y-69860024D01*
X175913225Y-69859894D01*
X175855031Y-69840526D01*
X175823883Y-69820509D01*
X175821787Y-69820272D01*
X175807900Y-69813374D01*
X175760293Y-69785888D01*
X175760290Y-69785887D01*
X175760289Y-69785886D01*
X175760288Y-69785886D01*
X175758304Y-69785354D01*
X175756026Y-69784119D01*
X175752684Y-69782735D01*
X175744520Y-69781661D01*
X175725419Y-69776543D01*
X175671144Y-69762000D01*
X175671143Y-69762000D01*
X175578856Y-69762000D01*
X175496466Y-69784075D01*
X175496451Y-69784080D01*
X175489712Y-69785886D01*
X175489711Y-69785886D01*
X175489709Y-69785887D01*
X175489706Y-69785888D01*
X175486906Y-69787504D01*
X175486902Y-69787506D01*
X175409804Y-69832019D01*
X175409786Y-69832031D01*
X175344531Y-69897286D01*
X175344519Y-69897304D01*
X175300006Y-69974402D01*
X175300004Y-69974406D01*
X175298388Y-69977206D01*
X175298387Y-69977209D01*
X175298386Y-69977211D01*
X175298386Y-69977212D01*
X175296580Y-69983951D01*
X175296575Y-69983966D01*
X175274500Y-70066356D01*
X175274500Y-70158645D01*
X175282475Y-70188408D01*
X175280811Y-70258258D01*
X175241648Y-70316120D01*
X175177419Y-70343623D01*
X175162700Y-70344500D01*
X169387300Y-70344500D01*
X169320261Y-70324815D01*
X169274506Y-70272011D01*
X169264562Y-70202853D01*
X169267525Y-70188408D01*
X169269359Y-70181559D01*
X169275500Y-70158644D01*
X169275500Y-70066356D01*
X169251614Y-69977212D01*
X169249992Y-69974402D01*
X169207231Y-69900339D01*
X169195687Y-69869154D01*
X169193647Y-69863943D01*
X169193455Y-69863124D01*
X169192743Y-69861201D01*
X169191185Y-69852896D01*
X169194411Y-69820790D01*
X169196193Y-69788581D01*
X169197882Y-69786246D01*
X169198171Y-69783377D01*
X169218241Y-69758114D01*
X169237156Y-69731978D01*
X169240570Y-69730008D01*
X169241634Y-69728670D01*
X169244705Y-69727623D01*
X169266198Y-69715229D01*
X169266516Y-69715098D01*
X169266524Y-69715097D01*
X169266530Y-69715093D01*
X169270233Y-69713582D01*
X169305121Y-69704966D01*
X169305185Y-69704960D01*
X169305193Y-69704957D01*
X169308555Y-69704632D01*
X169320519Y-69704054D01*
X170432073Y-69704054D01*
X170467005Y-69709075D01*
X170492249Y-69716488D01*
X170544995Y-69747784D01*
X170556234Y-69759023D01*
X170556237Y-69759024D01*
X170556240Y-69759027D01*
X170636152Y-69805165D01*
X170636153Y-69805165D01*
X170636158Y-69805168D01*
X170725302Y-69829054D01*
X170817588Y-69829054D01*
X170817590Y-69829054D01*
X170906734Y-69805168D01*
X170986658Y-69759023D01*
X171051915Y-69693766D01*
X171098060Y-69613842D01*
X171121946Y-69524698D01*
X171121946Y-69432410D01*
X171098060Y-69343266D01*
X171091779Y-69332387D01*
X171051919Y-69263348D01*
X171051918Y-69263347D01*
X171051917Y-69263345D01*
X171051915Y-69263343D01*
X171051915Y-69263342D01*
X170986658Y-69198085D01*
X170986655Y-69198083D01*
X170986651Y-69198080D01*
X170920636Y-69159965D01*
X170920281Y-69159758D01*
X170919906Y-69159360D01*
X170914341Y-69155090D01*
X170908445Y-69152648D01*
X170905042Y-69151178D01*
X170904572Y-69150966D01*
X170902680Y-69150260D01*
X170899130Y-69148789D01*
X170890966Y-69147715D01*
X170855821Y-69138298D01*
X170817590Y-69128054D01*
X170817589Y-69128054D01*
X170725302Y-69128054D01*
X170642912Y-69150129D01*
X170642897Y-69150134D01*
X170636158Y-69151940D01*
X170636157Y-69151940D01*
X170636155Y-69151941D01*
X170636152Y-69151942D01*
X170633352Y-69153558D01*
X170633348Y-69153560D01*
X170556250Y-69198073D01*
X170556232Y-69198085D01*
X170550183Y-69204134D01*
X170521936Y-69225279D01*
X170498851Y-69237885D01*
X170439422Y-69253054D01*
X165891151Y-69253054D01*
X165856215Y-69248031D01*
X165830973Y-69240619D01*
X165778228Y-69209323D01*
X163722761Y-67153856D01*
X185649500Y-67153856D01*
X185649500Y-67246144D01*
X185655001Y-67266673D01*
X185662014Y-67292849D01*
X185673383Y-67335276D01*
X185673389Y-67335296D01*
X185715600Y-67408405D01*
X185719526Y-67415205D01*
X185719529Y-67415209D01*
X185719531Y-67415212D01*
X185784788Y-67480469D01*
X185784791Y-67480470D01*
X185784794Y-67480473D01*
X185791020Y-67484067D01*
X185791684Y-67484730D01*
X185793036Y-67485566D01*
X185795651Y-67486741D01*
X185864706Y-67526611D01*
X185864707Y-67526611D01*
X185864712Y-67526614D01*
X185953856Y-67550500D01*
X185953858Y-67550500D01*
X186046142Y-67550500D01*
X186046144Y-67550500D01*
X186135288Y-67526614D01*
X186215212Y-67480469D01*
X186266547Y-67429133D01*
X186297073Y-67406773D01*
X186318139Y-67395831D01*
X186331786Y-67385859D01*
X186401530Y-67381676D01*
X186462464Y-67415863D01*
X186483289Y-67444359D01*
X186485008Y-67447595D01*
X186499500Y-67505767D01*
X186499500Y-68983327D01*
X186495274Y-69015423D01*
X186487111Y-69045885D01*
X186474725Y-69075788D01*
X186446682Y-69124360D01*
X186445356Y-69129311D01*
X186424500Y-69207147D01*
X186424500Y-69292853D01*
X186432401Y-69322341D01*
X186441688Y-69357000D01*
X186441689Y-69357002D01*
X186445130Y-69369843D01*
X186446682Y-69375637D01*
X186446685Y-69375644D01*
X186489166Y-69449226D01*
X186489450Y-69449776D01*
X186489453Y-69449780D01*
X186550141Y-69510468D01*
X186550821Y-69510958D01*
X186553316Y-69512300D01*
X186624355Y-69553314D01*
X186624362Y-69553318D01*
X186707147Y-69575500D01*
X186707149Y-69575500D01*
X186798183Y-69575500D01*
X186801131Y-69575535D01*
X186812118Y-69575796D01*
X186825100Y-69576105D01*
X186891653Y-69597378D01*
X186936133Y-69651240D01*
X186939481Y-69659055D01*
X186949500Y-69707885D01*
X186949500Y-72289564D01*
X186954745Y-72309140D01*
X186954746Y-72309140D01*
X186969979Y-72365991D01*
X186978139Y-72380125D01*
X186978143Y-72380130D01*
X187003117Y-72423386D01*
X187003120Y-72423391D01*
X187009537Y-72434508D01*
X187009538Y-72434509D01*
X187009548Y-72434520D01*
X187400573Y-72825544D01*
X187421723Y-72853796D01*
X187434331Y-72876885D01*
X187449500Y-72936314D01*
X187449500Y-73169929D01*
X187445275Y-73202023D01*
X187437112Y-73232487D01*
X187424724Y-73262393D01*
X187376795Y-73345408D01*
X187376792Y-73345413D01*
X187349500Y-73447273D01*
X187349500Y-73552727D01*
X187376793Y-73654587D01*
X187429520Y-73745913D01*
X187504087Y-73820480D01*
X187595413Y-73873207D01*
X187697273Y-73900500D01*
X187697275Y-73900500D01*
X187802725Y-73900500D01*
X187802727Y-73900500D01*
X187904587Y-73873207D01*
X187995913Y-73820480D01*
X188070480Y-73745913D01*
X188123207Y-73654587D01*
X188150500Y-73552727D01*
X188150500Y-73447273D01*
X188123207Y-73345413D01*
X188075272Y-73262388D01*
X188062888Y-73232487D01*
X188054725Y-73202021D01*
X188050500Y-73169929D01*
X188050500Y-72905507D01*
X193299500Y-72905507D01*
X193299500Y-73094491D01*
X193321332Y-73232330D01*
X193329059Y-73281118D01*
X193387454Y-73460836D01*
X193473240Y-73629199D01*
X193584310Y-73782073D01*
X193717927Y-73915690D01*
X193804229Y-73978393D01*
X193870796Y-74026757D01*
X193870797Y-74026757D01*
X193870801Y-74026760D01*
X193950347Y-74067290D01*
X194032722Y-74109263D01*
X194034320Y-74110199D01*
X194038037Y-74111999D01*
X194040021Y-74112985D01*
X194043775Y-74114043D01*
X194135497Y-74143846D01*
X194218881Y-74170940D01*
X194405514Y-74200500D01*
X194405519Y-74200500D01*
X194594485Y-74200500D01*
X194594486Y-74200500D01*
X194781118Y-74170940D01*
X194960832Y-74112547D01*
X195129199Y-74026760D01*
X195282073Y-73915690D01*
X195415690Y-73782073D01*
X195526760Y-73629199D01*
X195612547Y-73460832D01*
X195670940Y-73281118D01*
X195678667Y-73232330D01*
X195700500Y-73094486D01*
X195700500Y-72905513D01*
X195670940Y-72718881D01*
X195621098Y-72565486D01*
X195614049Y-72543790D01*
X195612987Y-72540025D01*
X195611989Y-72538016D01*
X195610197Y-72534317D01*
X195609259Y-72532714D01*
X195559220Y-72434508D01*
X195541383Y-72399500D01*
X195541383Y-72399499D01*
X195526761Y-72370803D01*
X195526759Y-72370800D01*
X195415690Y-72217927D01*
X195282073Y-72084310D01*
X195129199Y-71973240D01*
X195113443Y-71965212D01*
X194960836Y-71887454D01*
X194781118Y-71829059D01*
X194781112Y-71829058D01*
X194594491Y-71799500D01*
X194594486Y-71799500D01*
X194594481Y-71799500D01*
X194405519Y-71799500D01*
X194405514Y-71799500D01*
X194405509Y-71799500D01*
X194218886Y-71829058D01*
X194218884Y-71829058D01*
X194218881Y-71829059D01*
X194039163Y-71887454D01*
X193948178Y-71933813D01*
X193870807Y-71973236D01*
X193870794Y-71973244D01*
X193792031Y-72030468D01*
X193792032Y-72030469D01*
X193729798Y-72075685D01*
X193722417Y-72079818D01*
X193579817Y-72222418D01*
X193575687Y-72229794D01*
X193560931Y-72250105D01*
X193560929Y-72250107D01*
X193476734Y-72365991D01*
X193473240Y-72370800D01*
X193473238Y-72370802D01*
X193473236Y-72370807D01*
X193468486Y-72380130D01*
X193387454Y-72539163D01*
X193329059Y-72718881D01*
X193329058Y-72718884D01*
X193329058Y-72718886D01*
X193299500Y-72905507D01*
X188050500Y-72905507D01*
X188050500Y-72902492D01*
X188050500Y-72710438D01*
X188047749Y-72700172D01*
X188030022Y-72634012D01*
X187990460Y-72565489D01*
X187599426Y-72174455D01*
X187578274Y-72146199D01*
X187565667Y-72123110D01*
X187550500Y-72063685D01*
X187550500Y-70744211D01*
X187570185Y-70677172D01*
X187622989Y-70631417D01*
X187692147Y-70621473D01*
X187717577Y-70628115D01*
X187717626Y-70627981D01*
X187719053Y-70628491D01*
X187719059Y-70628494D01*
X187733422Y-70633633D01*
X187742612Y-70636421D01*
X187757419Y-70640130D01*
X187812575Y-70651101D01*
X187820089Y-70652405D01*
X187824827Y-70653108D01*
X187832388Y-70654041D01*
X187837164Y-70654512D01*
X187837178Y-70654513D01*
X187837198Y-70654515D01*
X187844209Y-70655033D01*
X187844771Y-70655075D01*
X187848257Y-70655246D01*
X187849557Y-70655311D01*
X187849562Y-70655311D01*
X187849580Y-70655312D01*
X187857234Y-70655500D01*
X190242747Y-70655500D01*
X190242765Y-70655500D01*
X190250413Y-70655312D01*
X190255226Y-70655075D01*
X190262852Y-70654511D01*
X190267624Y-70654040D01*
X190272655Y-70653418D01*
X190275172Y-70653108D01*
X190276752Y-70652873D01*
X190279916Y-70652404D01*
X190287466Y-70651093D01*
X190291172Y-70650355D01*
X190299601Y-70648679D01*
X190299616Y-70648676D01*
X190342588Y-70640127D01*
X190357384Y-70636421D01*
X190366572Y-70633634D01*
X190380933Y-70628496D01*
X190380953Y-70628487D01*
X190380958Y-70628486D01*
X190389640Y-70624890D01*
X190389674Y-70624876D01*
X190403479Y-70618347D01*
X190411952Y-70613818D01*
X190425038Y-70605975D01*
X190465693Y-70578811D01*
X190477949Y-70569722D01*
X190485375Y-70563628D01*
X190496685Y-70553377D01*
X190503377Y-70546685D01*
X190513628Y-70535375D01*
X190519722Y-70527949D01*
X190528811Y-70515693D01*
X190555975Y-70475038D01*
X190563815Y-70461959D01*
X190568344Y-70453487D01*
X190574874Y-70439680D01*
X190578496Y-70430935D01*
X190583639Y-70416560D01*
X190586426Y-70407370D01*
X190590130Y-70392581D01*
X190601099Y-70337440D01*
X190602402Y-70329930D01*
X190603107Y-70325180D01*
X190604041Y-70317615D01*
X190604512Y-70312840D01*
X190605075Y-70305229D01*
X190605312Y-70300419D01*
X190605500Y-70292766D01*
X190605500Y-68537736D01*
X190604236Y-68517948D01*
X190602649Y-68505578D01*
X190598877Y-68486111D01*
X190595806Y-68474340D01*
X190589587Y-68455513D01*
X190589586Y-68455512D01*
X190589582Y-68455498D01*
X190586651Y-68448221D01*
X190584929Y-68443945D01*
X190582072Y-68437978D01*
X190579867Y-68433106D01*
X190574809Y-68421257D01*
X190567520Y-68384611D01*
X190564666Y-68377720D01*
X190550292Y-68350828D01*
X190539669Y-68334930D01*
X190536107Y-68330590D01*
X190530408Y-68317238D01*
X190527602Y-68293542D01*
X190520473Y-68270777D01*
X190523559Y-68259391D01*
X190522194Y-68247853D01*
X190532326Y-68227055D01*
X190538571Y-68204019D01*
X190579516Y-68136850D01*
X190599201Y-68069811D01*
X190605500Y-68026000D01*
X190605500Y-67200000D01*
X190605500Y-67024500D01*
X190625185Y-66957461D01*
X190677989Y-66911706D01*
X190729500Y-66900500D01*
X195721521Y-66900500D01*
X195805665Y-66887173D01*
X195807912Y-66886817D01*
X195815299Y-66885647D01*
X195815299Y-66885646D01*
X195815302Y-66885646D01*
X195928341Y-66828049D01*
X196018049Y-66738341D01*
X196075646Y-66625302D01*
X196075646Y-66625300D01*
X196075647Y-66625299D01*
X196075649Y-66625282D01*
X196076785Y-66620557D01*
X196076789Y-66620538D01*
X196077173Y-66615665D01*
X196088705Y-66542852D01*
X196090500Y-66531521D01*
X196090500Y-60468478D01*
X196090499Y-60468472D01*
X196075648Y-60374703D01*
X196075647Y-60374700D01*
X196048824Y-60322058D01*
X196048823Y-60322057D01*
X196018169Y-60261895D01*
X196018051Y-60261661D01*
X196018047Y-60261657D01*
X196018047Y-60261656D01*
X195928343Y-60171952D01*
X195928342Y-60171951D01*
X195815301Y-60114353D01*
X195815300Y-60114352D01*
X195815299Y-60114352D01*
X195815297Y-60114351D01*
X195815293Y-60114350D01*
X195721527Y-60099500D01*
X195721521Y-60099500D01*
X195721516Y-60099500D01*
X188658484Y-60099500D01*
X188658479Y-60099500D01*
X188636392Y-60102998D01*
X188564699Y-60114352D01*
X188564697Y-60114353D01*
X188451654Y-60171952D01*
X188361952Y-60261654D01*
X188304353Y-60374697D01*
X188304350Y-60374705D01*
X188289500Y-60468472D01*
X188289500Y-66107670D01*
X188284475Y-66142614D01*
X188280070Y-66157612D01*
X188242327Y-66216355D01*
X188240958Y-66217542D01*
X188186097Y-66245018D01*
X188178539Y-66246663D01*
X188152168Y-66249500D01*
X186650169Y-66249500D01*
X186620429Y-66261819D01*
X186563100Y-66285566D01*
X186558100Y-66287637D01*
X186045035Y-66800702D01*
X186016782Y-66821852D01*
X185989838Y-66836565D01*
X185957715Y-66848221D01*
X185957777Y-66848449D01*
X185955145Y-66849154D01*
X185954600Y-66849352D01*
X185953850Y-66849501D01*
X185902385Y-66863290D01*
X185902386Y-66863291D01*
X185871459Y-66871577D01*
X185871446Y-66871581D01*
X185864712Y-66873386D01*
X185864711Y-66873386D01*
X185864709Y-66873387D01*
X185864706Y-66873388D01*
X185861907Y-66875003D01*
X185861904Y-66875005D01*
X185784804Y-66919519D01*
X185784786Y-66919531D01*
X185719531Y-66984786D01*
X185719519Y-66984804D01*
X185674549Y-67062694D01*
X185674548Y-67062695D01*
X185673388Y-67064706D01*
X185673387Y-67064709D01*
X185673386Y-67064711D01*
X185673386Y-67064712D01*
X185649500Y-67153856D01*
X163722761Y-67153856D01*
X160708612Y-64139707D01*
X160708610Y-64139705D01*
X160691170Y-64122264D01*
X160627736Y-64058830D01*
X160627735Y-64058829D01*
X160627734Y-64058828D01*
X160627733Y-64058827D01*
X160627726Y-64058823D01*
X160577652Y-64038083D01*
X160548924Y-64026184D01*
X160545632Y-64024681D01*
X160544857Y-64024499D01*
X160544856Y-64024499D01*
X160544855Y-64024499D01*
X160455145Y-64024499D01*
X160440711Y-64024499D01*
X160436871Y-64024499D01*
X160436839Y-64024500D01*
X144089373Y-64024500D01*
X144054437Y-64019477D01*
X144029195Y-64012065D01*
X143976450Y-63980769D01*
X143965211Y-63969530D01*
X143965208Y-63969528D01*
X143965199Y-63969521D01*
X143900860Y-63932375D01*
X143900838Y-63932363D01*
X143885293Y-63923388D01*
X143885290Y-63923387D01*
X143885289Y-63923386D01*
X143885288Y-63923386D01*
X143883304Y-63922854D01*
X143881026Y-63921619D01*
X143877684Y-63920235D01*
X143869520Y-63919161D01*
X143831229Y-63908901D01*
X143796144Y-63899500D01*
X143796143Y-63899500D01*
X143703856Y-63899500D01*
X143621466Y-63921575D01*
X143621451Y-63921580D01*
X143614712Y-63923386D01*
X143614711Y-63923386D01*
X143614709Y-63923387D01*
X143614706Y-63923388D01*
X143611906Y-63925004D01*
X143611902Y-63925006D01*
X143534804Y-63969519D01*
X143534786Y-63969531D01*
X143469531Y-64034786D01*
X143469519Y-64034804D01*
X143425006Y-64111902D01*
X143425004Y-64111906D01*
X143423388Y-64114706D01*
X143423387Y-64114709D01*
X143423386Y-64114711D01*
X143423386Y-64114712D01*
X143421362Y-64122265D01*
X143412682Y-64154659D01*
X143399500Y-64203856D01*
X143399500Y-64296142D01*
X143423384Y-64385282D01*
X143423387Y-64385290D01*
X143423388Y-64385293D01*
X143469526Y-64465205D01*
X143469529Y-64465209D01*
X143469531Y-64465212D01*
X143534788Y-64530469D01*
X143534791Y-64530470D01*
X143534794Y-64530473D01*
X143541020Y-64534067D01*
X143541684Y-64534730D01*
X143543036Y-64535566D01*
X143545651Y-64536741D01*
X143614706Y-64576611D01*
X143614707Y-64576611D01*
X143614712Y-64576614D01*
X143703856Y-64600500D01*
X143703858Y-64600500D01*
X143796142Y-64600500D01*
X143796144Y-64600500D01*
X143885288Y-64576614D01*
X143965212Y-64530469D01*
X143971257Y-64524423D01*
X143999507Y-64503275D01*
X144022599Y-64490667D01*
X144082024Y-64475500D01*
X160337403Y-64475500D01*
X160372335Y-64480521D01*
X160397579Y-64487934D01*
X160450325Y-64519230D01*
X165537383Y-69606288D01*
X165537384Y-69606290D01*
X165600818Y-69669724D01*
X165625093Y-69679779D01*
X165683699Y-69704055D01*
X165683700Y-69704055D01*
X165787843Y-69704055D01*
X165791683Y-69704055D01*
X165791715Y-69704054D01*
X167323528Y-69704054D01*
X167358463Y-69709077D01*
X167370410Y-69712585D01*
X167429188Y-69750360D01*
X167458213Y-69813915D01*
X167449722Y-69879766D01*
X167439357Y-69904332D01*
X167432496Y-69918129D01*
X167400005Y-69974402D01*
X167400001Y-69974410D01*
X167398388Y-69977206D01*
X167398387Y-69977209D01*
X167398386Y-69977211D01*
X167398386Y-69977212D01*
X167396580Y-69983950D01*
X167396577Y-69983960D01*
X167374500Y-70066356D01*
X167374500Y-70158645D01*
X167382475Y-70188408D01*
X167380811Y-70258258D01*
X167341648Y-70316120D01*
X167277419Y-70343623D01*
X167262700Y-70344500D01*
X153391732Y-70344500D01*
X153324693Y-70324815D01*
X153278938Y-70272011D01*
X153268994Y-70202853D01*
X153276296Y-70175216D01*
X153279691Y-70166560D01*
X153303318Y-70125638D01*
X153319636Y-70064734D01*
X153322172Y-70058271D01*
X153324587Y-70055154D01*
X153330221Y-70041555D01*
X153345989Y-70014244D01*
X153365691Y-69988567D01*
X154374449Y-68979808D01*
X154374455Y-68979805D01*
X154391896Y-68962364D01*
X154391897Y-68962364D01*
X154462364Y-68891897D01*
X154500500Y-68799828D01*
X154500500Y-67266673D01*
X154504724Y-67234583D01*
X154504800Y-67234296D01*
X154512889Y-67204110D01*
X154525272Y-67174215D01*
X154553318Y-67125638D01*
X154575500Y-67042853D01*
X154575500Y-66957147D01*
X154553318Y-66874362D01*
X154538964Y-66849500D01*
X154523002Y-66821852D01*
X154510473Y-66800150D01*
X154510465Y-66800138D01*
X154510458Y-66800130D01*
X154449868Y-66739540D01*
X154449866Y-66739539D01*
X154449863Y-66739536D01*
X154449855Y-66739530D01*
X154435457Y-66731217D01*
X154375661Y-66696694D01*
X154375637Y-66696681D01*
X154315034Y-66680443D01*
X154292853Y-66674500D01*
X154292852Y-66674500D01*
X154207147Y-66674500D01*
X154124364Y-66696681D01*
X154124357Y-66696683D01*
X154124356Y-66696684D01*
X154124346Y-66696689D01*
X154050152Y-66739525D01*
X154050148Y-66739527D01*
X154050144Y-66739530D01*
X154050136Y-66739536D01*
X154050132Y-66739539D01*
X154050130Y-66739540D01*
X153989540Y-66800130D01*
X153989539Y-66800132D01*
X153989536Y-66800135D01*
X153989536Y-66800136D01*
X153989530Y-66800144D01*
X153989527Y-66800148D01*
X153989525Y-66800152D01*
X153946689Y-66874346D01*
X153946684Y-66874356D01*
X153946683Y-66874357D01*
X153946681Y-66874364D01*
X153932575Y-66927009D01*
X153924500Y-66957147D01*
X153924500Y-67042853D01*
X153925881Y-67048006D01*
X153938548Y-67095282D01*
X153938549Y-67095285D01*
X153941341Y-67105703D01*
X153946682Y-67125637D01*
X153946683Y-67125640D01*
X153977462Y-67178951D01*
X153979771Y-67183915D01*
X153980359Y-67187813D01*
X153987110Y-67204111D01*
X153995274Y-67234577D01*
X153999500Y-67266673D01*
X153999500Y-68577047D01*
X153994476Y-68611984D01*
X153987064Y-68637225D01*
X153955769Y-68689969D01*
X153011436Y-69634301D01*
X152985755Y-69654007D01*
X152958439Y-69669778D01*
X152928534Y-69682165D01*
X152876183Y-69696193D01*
X152874480Y-69696622D01*
X152874363Y-69696681D01*
X152874337Y-69696694D01*
X152800152Y-69739525D01*
X152800148Y-69739527D01*
X152800144Y-69739530D01*
X152800136Y-69739536D01*
X152800132Y-69739539D01*
X152800130Y-69739540D01*
X152739540Y-69800130D01*
X152739539Y-69800132D01*
X152739536Y-69800135D01*
X152739536Y-69800136D01*
X152739530Y-69800144D01*
X152739527Y-69800148D01*
X152739525Y-69800152D01*
X152696689Y-69874346D01*
X152696684Y-69874356D01*
X152696683Y-69874357D01*
X152696681Y-69874364D01*
X152681902Y-69929521D01*
X152674500Y-69957147D01*
X152674500Y-70042853D01*
X152696682Y-70125636D01*
X152696682Y-70125637D01*
X152696685Y-70125644D01*
X152717831Y-70162270D01*
X152719741Y-70166191D01*
X152724875Y-70196508D01*
X152732127Y-70226400D01*
X152730656Y-70230648D01*
X152731407Y-70235080D01*
X152719330Y-70263370D01*
X152709274Y-70292427D01*
X152705742Y-70295204D01*
X152703977Y-70299340D01*
X152678522Y-70316610D01*
X152654353Y-70335618D01*
X152648982Y-70336652D01*
X152646159Y-70338569D01*
X152637982Y-70338773D01*
X152608267Y-70344500D01*
X150309123Y-70344500D01*
X150242084Y-70324815D01*
X150196329Y-70272011D01*
X150186385Y-70202853D01*
X150215410Y-70139297D01*
X150221442Y-70132819D01*
X150829565Y-69524696D01*
X151462364Y-68891897D01*
X151500500Y-68799828D01*
X151500500Y-68700173D01*
X151500500Y-68700172D01*
X151500500Y-68266673D01*
X151504725Y-68234580D01*
X151512888Y-68204115D01*
X151525276Y-68174208D01*
X151527834Y-68169777D01*
X151553318Y-68125638D01*
X151575500Y-68042853D01*
X151575500Y-67957147D01*
X151553318Y-67874362D01*
X151553314Y-67874355D01*
X151510469Y-67800144D01*
X151510463Y-67800136D01*
X151510459Y-67800132D01*
X151510458Y-67800130D01*
X151449868Y-67739540D01*
X151449866Y-67739539D01*
X151449863Y-67739536D01*
X151449855Y-67739530D01*
X151424482Y-67724881D01*
X151375661Y-67696694D01*
X151375637Y-67696681D01*
X151315034Y-67680443D01*
X151292853Y-67674500D01*
X151292852Y-67674500D01*
X151207147Y-67674500D01*
X151124364Y-67696681D01*
X151124357Y-67696683D01*
X151124356Y-67696684D01*
X151124346Y-67696689D01*
X151050152Y-67739525D01*
X151050148Y-67739527D01*
X151050144Y-67739530D01*
X151050136Y-67739536D01*
X151050132Y-67739539D01*
X151050130Y-67739540D01*
X150989540Y-67800130D01*
X150989539Y-67800132D01*
X150989536Y-67800135D01*
X150989536Y-67800136D01*
X150989530Y-67800144D01*
X150989527Y-67800148D01*
X150989525Y-67800152D01*
X150946689Y-67874346D01*
X150946684Y-67874356D01*
X150946683Y-67874357D01*
X150946681Y-67874364D01*
X150924500Y-67957147D01*
X150924500Y-68042853D01*
X150932733Y-68073580D01*
X150943029Y-68112002D01*
X150946682Y-68125637D01*
X150946683Y-68125640D01*
X150977120Y-68178359D01*
X150979187Y-68182677D01*
X150979801Y-68186467D01*
X150987110Y-68204111D01*
X150995274Y-68234577D01*
X150999500Y-68266673D01*
X150999500Y-68577047D01*
X150994476Y-68611984D01*
X150987064Y-68637225D01*
X150955769Y-68689969D01*
X150209667Y-69436070D01*
X150181419Y-69457218D01*
X150171877Y-69462429D01*
X150103605Y-69477285D01*
X150038139Y-69452871D01*
X149996265Y-69396940D01*
X149991276Y-69327248D01*
X149997886Y-69306140D01*
X150000501Y-69299827D01*
X150000501Y-69190183D01*
X150000500Y-69190169D01*
X150000500Y-66766673D01*
X150004725Y-66734581D01*
X150012888Y-66704115D01*
X150025272Y-66674213D01*
X150053318Y-66625638D01*
X150075500Y-66542853D01*
X150075500Y-66457147D01*
X150053318Y-66374362D01*
X150053314Y-66374355D01*
X150010469Y-66300144D01*
X150010463Y-66300136D01*
X150010459Y-66300132D01*
X150010458Y-66300130D01*
X149949868Y-66239540D01*
X149949866Y-66239539D01*
X149949863Y-66239536D01*
X149949855Y-66239530D01*
X149925554Y-66225500D01*
X149875661Y-66196694D01*
X149875637Y-66196681D01*
X149815034Y-66180443D01*
X149792853Y-66174500D01*
X149792852Y-66174500D01*
X149707147Y-66174500D01*
X149624364Y-66196681D01*
X149624357Y-66196683D01*
X149624356Y-66196684D01*
X149624346Y-66196689D01*
X149550152Y-66239525D01*
X149550148Y-66239527D01*
X149550144Y-66239530D01*
X149550136Y-66239536D01*
X149550132Y-66239539D01*
X149550130Y-66239540D01*
X149489540Y-66300130D01*
X149489539Y-66300132D01*
X149489536Y-66300135D01*
X149489536Y-66300136D01*
X149489530Y-66300144D01*
X149489527Y-66300148D01*
X149489525Y-66300152D01*
X149446689Y-66374346D01*
X149446684Y-66374356D01*
X149446683Y-66374357D01*
X149446681Y-66374364D01*
X149441262Y-66394589D01*
X149424500Y-66457147D01*
X149424500Y-66542852D01*
X149429223Y-66560478D01*
X149446679Y-66625629D01*
X149446683Y-66625640D01*
X149446684Y-66625642D01*
X149474723Y-66674207D01*
X149487110Y-66704111D01*
X149495274Y-66734577D01*
X149499500Y-66766673D01*
X149499500Y-69077047D01*
X149494476Y-69111984D01*
X149487064Y-69137225D01*
X149455769Y-69189969D01*
X149195165Y-69450573D01*
X149166914Y-69471722D01*
X149143826Y-69484330D01*
X149084396Y-69499500D01*
X132200169Y-69499500D01*
X132108100Y-69537637D01*
X131374788Y-70270950D01*
X131346538Y-70292099D01*
X131336611Y-70297520D01*
X131268338Y-70312374D01*
X131202873Y-70287960D01*
X131161000Y-70232028D01*
X131160996Y-70232017D01*
X131160485Y-70230648D01*
X131158901Y-70226400D01*
X131156760Y-70220658D01*
X131152875Y-70205049D01*
X131152603Y-70205123D01*
X131150295Y-70196508D01*
X131123207Y-70095413D01*
X131070480Y-70004087D01*
X130995913Y-69929520D01*
X130925245Y-69888720D01*
X130904589Y-69876794D01*
X130904588Y-69876793D01*
X130904587Y-69876793D01*
X130802727Y-69849500D01*
X130802726Y-69849500D01*
X130697273Y-69849500D01*
X130595413Y-69876792D01*
X130595408Y-69876795D01*
X130504088Y-69929518D01*
X130504082Y-69929523D01*
X130429523Y-70004082D01*
X130429518Y-70004088D01*
X130376795Y-70095408D01*
X130376792Y-70095413D01*
X130349500Y-70197273D01*
X130349500Y-70220500D01*
X130329815Y-70287539D01*
X130277011Y-70333294D01*
X130225500Y-70344500D01*
X126124039Y-70344500D01*
X126057000Y-70324815D01*
X126032089Y-70303693D01*
X122375627Y-66262339D01*
X122307710Y-66187273D01*
X136589500Y-66187273D01*
X136589500Y-66292727D01*
X136616793Y-66394587D01*
X136669520Y-66485913D01*
X136744087Y-66560480D01*
X136835413Y-66613207D01*
X136937273Y-66640500D01*
X136937275Y-66640500D01*
X137042725Y-66640500D01*
X137042727Y-66640500D01*
X137144587Y-66613207D01*
X137235913Y-66560480D01*
X137310480Y-66485913D01*
X137363207Y-66394587D01*
X137390500Y-66292727D01*
X137390500Y-66187273D01*
X137363207Y-66085413D01*
X137310480Y-65994087D01*
X137235913Y-65919520D01*
X137169059Y-65880922D01*
X137144589Y-65866794D01*
X137144588Y-65866793D01*
X137144587Y-65866793D01*
X137042727Y-65839500D01*
X137042726Y-65839500D01*
X136937273Y-65839500D01*
X136835413Y-65866792D01*
X136835408Y-65866795D01*
X136744088Y-65919518D01*
X136744082Y-65919523D01*
X136669523Y-65994082D01*
X136669518Y-65994088D01*
X136616795Y-66085408D01*
X136616792Y-66085413D01*
X136592922Y-66174500D01*
X136589500Y-66187273D01*
X122307710Y-66187273D01*
X120526640Y-64218722D01*
X120526639Y-64218721D01*
X120526631Y-64218714D01*
X120526628Y-64218710D01*
X120509031Y-64202072D01*
X120509025Y-64202066D01*
X120509023Y-64202065D01*
X120497224Y-64192534D01*
X120494146Y-64190110D01*
X120494139Y-64190106D01*
X120450367Y-64171976D01*
X120395963Y-64128136D01*
X120381137Y-64099383D01*
X120379467Y-64094739D01*
X120366774Y-64059449D01*
X120366397Y-64058823D01*
X120335495Y-64007459D01*
X120210127Y-63869598D01*
X117103924Y-60453856D01*
X123649500Y-60453856D01*
X123649500Y-60546143D01*
X123655191Y-60567385D01*
X123673384Y-60635282D01*
X123673386Y-60635288D01*
X123673387Y-60635290D01*
X123673388Y-60635293D01*
X123719526Y-60715205D01*
X123719529Y-60715209D01*
X123719531Y-60715212D01*
X123784788Y-60780469D01*
X123784791Y-60780470D01*
X123784794Y-60780473D01*
X123791020Y-60784067D01*
X123791684Y-60784730D01*
X123793036Y-60785566D01*
X123795651Y-60786741D01*
X123864706Y-60826611D01*
X123864707Y-60826611D01*
X123864712Y-60826614D01*
X123953856Y-60850500D01*
X123953858Y-60850500D01*
X124046142Y-60850500D01*
X124046144Y-60850500D01*
X124135288Y-60826614D01*
X124215212Y-60780469D01*
X124280469Y-60715212D01*
X124326614Y-60635288D01*
X124350500Y-60546144D01*
X124350500Y-60453856D01*
X124326614Y-60364712D01*
X124326612Y-60364709D01*
X124315803Y-60345987D01*
X124280473Y-60284794D01*
X124280472Y-60284793D01*
X124280470Y-60284789D01*
X124216378Y-60220697D01*
X124215212Y-60219531D01*
X124215209Y-60219529D01*
X124215205Y-60219526D01*
X124149190Y-60181411D01*
X124148835Y-60181204D01*
X124148460Y-60180806D01*
X124142895Y-60176536D01*
X124136999Y-60174094D01*
X124133596Y-60172624D01*
X124133126Y-60172412D01*
X124131234Y-60171706D01*
X124127684Y-60170235D01*
X124119520Y-60169161D01*
X124103692Y-60164920D01*
X124046144Y-60149500D01*
X124046143Y-60149500D01*
X123953856Y-60149500D01*
X123871466Y-60171575D01*
X123871451Y-60171580D01*
X123864712Y-60173386D01*
X123864711Y-60173386D01*
X123864709Y-60173387D01*
X123864706Y-60173388D01*
X123861906Y-60175004D01*
X123861902Y-60175006D01*
X123784804Y-60219519D01*
X123784786Y-60219531D01*
X123719531Y-60284786D01*
X123719519Y-60284804D01*
X123673389Y-60364704D01*
X123673388Y-60364705D01*
X123673384Y-60364716D01*
X123649500Y-60453856D01*
X117103924Y-60453856D01*
X116724118Y-60036201D01*
X116710248Y-60017757D01*
X116687831Y-59981323D01*
X116687830Y-59981321D01*
X116646566Y-59936843D01*
X116646557Y-59936835D01*
X116591957Y-59897316D01*
X116591954Y-59897314D01*
X116563858Y-59881148D01*
X116545285Y-59872906D01*
X116545279Y-59872904D01*
X116514443Y-59862916D01*
X116448513Y-59848945D01*
X116448494Y-59848941D01*
X116432486Y-59846413D01*
X116422358Y-59845351D01*
X116422325Y-59845348D01*
X116418847Y-59845166D01*
X116406108Y-59844500D01*
X116406097Y-59844500D01*
X109204811Y-59844500D01*
X109189608Y-59845245D01*
X109189604Y-59845245D01*
X109180070Y-59846183D01*
X109180038Y-59846187D01*
X109166487Y-59848196D01*
X109164936Y-59848427D01*
X109164925Y-59848429D01*
X109164920Y-59848430D01*
X109102682Y-59860810D01*
X109073509Y-59869659D01*
X109055849Y-59876975D01*
X109028968Y-59891344D01*
X108980284Y-59923874D01*
X108980280Y-59923878D01*
X108956716Y-59943216D01*
X108943216Y-59956716D01*
X108923874Y-59980285D01*
X108891353Y-60028954D01*
X108891345Y-60028968D01*
X108876980Y-60055840D01*
X108876977Y-60055846D01*
X108869659Y-60073512D01*
X108869656Y-60073519D01*
X108860816Y-60102659D01*
X108860810Y-60102681D01*
X108848430Y-60164920D01*
X108848425Y-60164950D01*
X108846187Y-60180038D01*
X108846183Y-60180070D01*
X108845245Y-60189604D01*
X108845245Y-60189608D01*
X108844500Y-60204811D01*
X108844500Y-75375500D01*
X108824815Y-75442539D01*
X108772011Y-75488294D01*
X108720500Y-75499500D01*
X108142330Y-75499500D01*
X108107389Y-75494475D01*
X108092390Y-75490070D01*
X108033644Y-75452327D01*
X108032457Y-75450958D01*
X108004977Y-75396083D01*
X108003332Y-75388521D01*
X108000500Y-75362168D01*
X108000500Y-59447273D01*
X134349500Y-59447273D01*
X134349500Y-59552727D01*
X134376793Y-59654587D01*
X134429520Y-59745913D01*
X134504087Y-59820480D01*
X134595413Y-59873207D01*
X134697273Y-59900500D01*
X134697275Y-59900500D01*
X134802725Y-59900500D01*
X134802727Y-59900500D01*
X134904587Y-59873207D01*
X134995913Y-59820480D01*
X135070480Y-59745913D01*
X135123207Y-59654587D01*
X135150500Y-59552727D01*
X135150500Y-59447273D01*
X135123207Y-59345413D01*
X135070480Y-59254087D01*
X134995913Y-59179520D01*
X134929059Y-59140922D01*
X134929055Y-59140919D01*
X134929051Y-59140917D01*
X134918720Y-59134952D01*
X134912193Y-59129943D01*
X134896981Y-59123642D01*
X134888819Y-59122568D01*
X134881658Y-59120649D01*
X134802727Y-59099500D01*
X134802726Y-59099500D01*
X134697273Y-59099500D01*
X134595413Y-59126792D01*
X134595408Y-59126795D01*
X134504088Y-59179518D01*
X134504082Y-59179523D01*
X134429523Y-59254082D01*
X134429518Y-59254088D01*
X134376795Y-59345408D01*
X134376792Y-59345413D01*
X134349500Y-59447273D01*
X108000500Y-59447273D01*
X108000500Y-58953856D01*
X120149500Y-58953856D01*
X120149500Y-59046143D01*
X120155191Y-59067385D01*
X120173384Y-59135282D01*
X120173386Y-59135288D01*
X120173387Y-59135290D01*
X120173388Y-59135293D01*
X120219526Y-59215205D01*
X120219529Y-59215209D01*
X120219531Y-59215212D01*
X120284788Y-59280469D01*
X120284791Y-59280470D01*
X120284794Y-59280473D01*
X120291020Y-59284067D01*
X120291684Y-59284730D01*
X120293036Y-59285566D01*
X120295651Y-59286741D01*
X120364706Y-59326611D01*
X120364707Y-59326611D01*
X120364712Y-59326614D01*
X120453856Y-59350500D01*
X120453858Y-59350500D01*
X120546142Y-59350500D01*
X120546144Y-59350500D01*
X120635288Y-59326614D01*
X120715212Y-59280469D01*
X120780469Y-59215212D01*
X120826614Y-59135288D01*
X120850500Y-59046144D01*
X120850500Y-58953856D01*
X120826614Y-58864712D01*
X120826612Y-58864709D01*
X120821382Y-58855650D01*
X120780473Y-58784794D01*
X120780472Y-58784793D01*
X120780470Y-58784789D01*
X120716378Y-58720697D01*
X120715212Y-58719531D01*
X120715209Y-58719529D01*
X120715205Y-58719526D01*
X120649190Y-58681411D01*
X120648835Y-58681204D01*
X120648460Y-58680806D01*
X120642895Y-58676536D01*
X120636999Y-58674094D01*
X120633596Y-58672624D01*
X120633126Y-58672412D01*
X120631234Y-58671706D01*
X120627684Y-58670235D01*
X120619520Y-58669161D01*
X120546144Y-58649500D01*
X120546143Y-58649500D01*
X120453856Y-58649500D01*
X120371466Y-58671575D01*
X120371451Y-58671580D01*
X120364712Y-58673386D01*
X120364711Y-58673386D01*
X120364709Y-58673387D01*
X120364706Y-58673388D01*
X120361906Y-58675004D01*
X120361902Y-58675006D01*
X120284804Y-58719519D01*
X120284786Y-58719531D01*
X120219531Y-58784786D01*
X120219519Y-58784804D01*
X120173389Y-58864704D01*
X120173388Y-58864705D01*
X120173384Y-58864716D01*
X120149500Y-58953856D01*
X108000500Y-58953856D01*
X108000500Y-58457147D01*
X137674500Y-58457147D01*
X137674500Y-58542852D01*
X137679785Y-58562577D01*
X137696679Y-58625629D01*
X137696683Y-58625640D01*
X137696684Y-58625642D01*
X137724723Y-58674207D01*
X137737110Y-58704111D01*
X137745274Y-58734577D01*
X137749500Y-58766673D01*
X137749500Y-68483327D01*
X137745274Y-68515423D01*
X137737111Y-68545885D01*
X137724725Y-68575788D01*
X137696681Y-68624361D01*
X137696682Y-68624362D01*
X137674500Y-68707147D01*
X137674500Y-68792853D01*
X137693889Y-68865212D01*
X137696682Y-68875637D01*
X137696685Y-68875644D01*
X137739427Y-68949677D01*
X137739506Y-68949833D01*
X137800137Y-69010464D01*
X137800830Y-69010964D01*
X137803347Y-69012318D01*
X137851593Y-69040173D01*
X137851595Y-69040173D01*
X137874362Y-69053318D01*
X137957147Y-69075500D01*
X137957149Y-69075500D01*
X138042851Y-69075500D01*
X138042853Y-69075500D01*
X138125638Y-69053318D01*
X138199862Y-69010465D01*
X138260465Y-68949862D01*
X138303318Y-68875638D01*
X138325500Y-68792853D01*
X138325500Y-68707147D01*
X138303318Y-68624362D01*
X138275274Y-68575788D01*
X138262887Y-68545882D01*
X138254725Y-68515419D01*
X138250500Y-68483327D01*
X138250500Y-59957147D01*
X139674500Y-59957147D01*
X139674500Y-60042853D01*
X139693659Y-60114354D01*
X139696682Y-60125637D01*
X139696683Y-60125640D01*
X139726977Y-60178110D01*
X139728946Y-60182178D01*
X139729566Y-60185900D01*
X139737110Y-60204111D01*
X139745274Y-60234577D01*
X139749500Y-60266673D01*
X139749500Y-64049829D01*
X139787636Y-64141897D01*
X139787637Y-64141898D01*
X144134304Y-68488565D01*
X144154009Y-68514244D01*
X144156147Y-68517948D01*
X144169777Y-68541555D01*
X144182165Y-68571461D01*
X144196681Y-68625637D01*
X144196708Y-68625700D01*
X144197190Y-68626519D01*
X144237684Y-68696659D01*
X144239067Y-68699231D01*
X144239453Y-68699780D01*
X144300141Y-68760468D01*
X144300823Y-68760960D01*
X144303329Y-68762308D01*
X144356234Y-68792852D01*
X144356236Y-68792853D01*
X144356235Y-68792853D01*
X144368317Y-68799828D01*
X144374362Y-68803318D01*
X144457147Y-68825500D01*
X144457149Y-68825500D01*
X144542851Y-68825500D01*
X144542853Y-68825500D01*
X144625638Y-68803318D01*
X144699862Y-68760465D01*
X144760465Y-68699862D01*
X144803318Y-68625638D01*
X144825500Y-68542853D01*
X144825500Y-68457147D01*
X144809254Y-68396514D01*
X144803320Y-68374367D01*
X144803318Y-68374363D01*
X144803318Y-68374362D01*
X144800529Y-68369531D01*
X144760469Y-68300144D01*
X144760463Y-68300136D01*
X144760459Y-68300132D01*
X144760458Y-68300130D01*
X144699868Y-68239540D01*
X144699866Y-68239539D01*
X144699863Y-68239536D01*
X144699855Y-68239530D01*
X144668638Y-68221507D01*
X144637917Y-68203770D01*
X144637914Y-68203769D01*
X144625644Y-68196685D01*
X144625639Y-68196682D01*
X144568463Y-68181362D01*
X144565481Y-68180400D01*
X144562809Y-68178581D01*
X144541555Y-68169777D01*
X144514246Y-68154010D01*
X144488565Y-68134304D01*
X140299426Y-63945165D01*
X140278274Y-63916909D01*
X140265667Y-63893820D01*
X140250500Y-63834395D01*
X140250500Y-60266673D01*
X140254725Y-60234581D01*
X140262888Y-60204115D01*
X140275272Y-60174213D01*
X140303318Y-60125638D01*
X140325500Y-60042853D01*
X140325500Y-59957147D01*
X140303318Y-59874362D01*
X140302650Y-59873205D01*
X140260469Y-59800144D01*
X140260463Y-59800136D01*
X140260458Y-59800130D01*
X140199868Y-59739540D01*
X140199866Y-59739539D01*
X140199863Y-59739536D01*
X140199855Y-59739530D01*
X140185457Y-59731217D01*
X140125661Y-59696694D01*
X140125637Y-59696681D01*
X140065034Y-59680443D01*
X140042853Y-59674500D01*
X140042852Y-59674500D01*
X139957147Y-59674500D01*
X139874364Y-59696681D01*
X139874357Y-59696683D01*
X139874356Y-59696684D01*
X139874346Y-59696689D01*
X139800152Y-59739525D01*
X139800148Y-59739527D01*
X139800144Y-59739530D01*
X139800136Y-59739536D01*
X139800132Y-59739539D01*
X139800130Y-59739540D01*
X139739540Y-59800130D01*
X139739539Y-59800132D01*
X139739536Y-59800135D01*
X139739536Y-59800136D01*
X139739530Y-59800144D01*
X139739527Y-59800148D01*
X139739525Y-59800152D01*
X139696689Y-59874346D01*
X139696684Y-59874356D01*
X139696683Y-59874357D01*
X139696681Y-59874364D01*
X139679941Y-59936840D01*
X139674500Y-59957147D01*
X138250500Y-59957147D01*
X138250500Y-58766673D01*
X138254725Y-58734581D01*
X138262888Y-58704115D01*
X138275272Y-58674213D01*
X138303318Y-58625638D01*
X138325500Y-58542853D01*
X138325500Y-58457147D01*
X138303318Y-58374362D01*
X138303314Y-58374355D01*
X138260469Y-58300144D01*
X138260463Y-58300136D01*
X138260459Y-58300132D01*
X138260458Y-58300130D01*
X138199868Y-58239540D01*
X138199866Y-58239539D01*
X138199863Y-58239536D01*
X138199855Y-58239530D01*
X138185457Y-58231217D01*
X138125661Y-58196694D01*
X138125637Y-58196681D01*
X138065034Y-58180443D01*
X138042853Y-58174500D01*
X138042852Y-58174500D01*
X137957147Y-58174500D01*
X137874364Y-58196681D01*
X137874357Y-58196683D01*
X137874356Y-58196684D01*
X137874346Y-58196689D01*
X137800152Y-58239525D01*
X137800148Y-58239527D01*
X137800144Y-58239530D01*
X137800136Y-58239536D01*
X137800132Y-58239539D01*
X137800130Y-58239540D01*
X137739540Y-58300130D01*
X137739539Y-58300132D01*
X137739536Y-58300135D01*
X137739536Y-58300136D01*
X137739530Y-58300144D01*
X137739527Y-58300148D01*
X137739525Y-58300152D01*
X137696689Y-58374346D01*
X137696684Y-58374356D01*
X137696683Y-58374357D01*
X137696682Y-58374362D01*
X137674500Y-58457147D01*
X108000500Y-58457147D01*
X108000500Y-57453856D01*
X127649500Y-57453856D01*
X127649500Y-57546144D01*
X127665609Y-57606265D01*
X127673387Y-57635290D01*
X127673388Y-57635293D01*
X127719526Y-57715205D01*
X127719529Y-57715209D01*
X127719531Y-57715212D01*
X127784788Y-57780469D01*
X127784791Y-57780470D01*
X127784794Y-57780473D01*
X127791020Y-57784067D01*
X127791684Y-57784730D01*
X127793036Y-57785566D01*
X127795651Y-57786741D01*
X127864706Y-57826611D01*
X127864707Y-57826611D01*
X127864712Y-57826614D01*
X127953856Y-57850500D01*
X127953858Y-57850500D01*
X128046142Y-57850500D01*
X128046144Y-57850500D01*
X128135288Y-57826614D01*
X128215212Y-57780469D01*
X128280469Y-57715212D01*
X128326614Y-57635288D01*
X128350500Y-57546144D01*
X128350500Y-57453856D01*
X128326614Y-57364712D01*
X128303974Y-57325499D01*
X128286744Y-57295657D01*
X128285565Y-57293033D01*
X128281449Y-57286374D01*
X128280550Y-57284870D01*
X128280469Y-57284789D01*
X128280469Y-57284788D01*
X128215212Y-57219531D01*
X128215209Y-57219529D01*
X128215205Y-57219526D01*
X128149190Y-57181411D01*
X128148835Y-57181204D01*
X128148460Y-57180806D01*
X128142895Y-57176536D01*
X128136999Y-57174094D01*
X128133596Y-57172624D01*
X128133126Y-57172412D01*
X128131234Y-57171706D01*
X128127684Y-57170235D01*
X128119520Y-57169161D01*
X128046144Y-57149500D01*
X128046143Y-57149500D01*
X127953856Y-57149500D01*
X127871466Y-57171575D01*
X127871451Y-57171580D01*
X127864712Y-57173386D01*
X127864711Y-57173386D01*
X127864709Y-57173387D01*
X127864706Y-57173388D01*
X127861906Y-57175004D01*
X127861902Y-57175006D01*
X127784804Y-57219519D01*
X127784786Y-57219531D01*
X127719531Y-57284786D01*
X127719519Y-57284804D01*
X127674549Y-57362694D01*
X127674548Y-57362695D01*
X127673388Y-57364706D01*
X127673387Y-57364709D01*
X127673386Y-57364711D01*
X127673386Y-57364712D01*
X127649500Y-57453856D01*
X108000500Y-57453856D01*
X108000500Y-55380348D01*
X123054500Y-55380348D01*
X123054500Y-55619650D01*
X123054503Y-55619674D01*
X123085732Y-55856889D01*
X123085733Y-55856894D01*
X123085734Y-55856900D01*
X123147669Y-56088045D01*
X123239243Y-56309123D01*
X123239251Y-56309140D01*
X123239256Y-56309150D01*
X123331851Y-56469530D01*
X123356408Y-56512065D01*
X123357028Y-56513138D01*
X123357985Y-56514916D01*
X123358886Y-56516357D01*
X123358891Y-56516365D01*
X123358892Y-56516367D01*
X123504569Y-56706216D01*
X123504575Y-56706223D01*
X123673776Y-56875424D01*
X123673783Y-56875430D01*
X123863632Y-57021107D01*
X123863634Y-57021108D01*
X123863649Y-57021116D01*
X123865081Y-57022013D01*
X123866847Y-57022963D01*
X123972107Y-57083734D01*
X124069002Y-57139676D01*
X124070563Y-57140613D01*
X124070845Y-57140739D01*
X124070859Y-57140748D01*
X124070862Y-57140749D01*
X124070870Y-57140754D01*
X124070948Y-57140786D01*
X124072598Y-57141529D01*
X124072599Y-57141530D01*
X124072608Y-57141534D01*
X124073049Y-57141732D01*
X124074892Y-57142420D01*
X124291953Y-57232330D01*
X124523098Y-57294265D01*
X124760350Y-57325500D01*
X124760357Y-57325500D01*
X124999643Y-57325500D01*
X124999650Y-57325500D01*
X125020038Y-57322815D01*
X125020236Y-57322790D01*
X125034946Y-57320853D01*
X125034946Y-57320852D01*
X125236902Y-57294265D01*
X125468047Y-57232330D01*
X125689130Y-57140754D01*
X125858703Y-57042852D01*
X125893172Y-57022951D01*
X125893376Y-57022842D01*
X125896090Y-57021266D01*
X125896365Y-57021108D01*
X125896367Y-57021107D01*
X125896370Y-57021105D01*
X126086218Y-56875429D01*
X126255429Y-56706218D01*
X126257241Y-56703856D01*
X136149500Y-56703856D01*
X136149500Y-56796144D01*
X136150858Y-56801213D01*
X136150858Y-56801215D01*
X136170741Y-56875421D01*
X136170742Y-56875421D01*
X136173388Y-56885293D01*
X136173389Y-56885294D01*
X136214874Y-56957149D01*
X136219526Y-56965205D01*
X136219529Y-56965209D01*
X136219531Y-56965212D01*
X136284788Y-57030469D01*
X136284791Y-57030470D01*
X136284794Y-57030473D01*
X136291020Y-57034067D01*
X136291684Y-57034730D01*
X136293036Y-57035566D01*
X136295651Y-57036741D01*
X136364706Y-57076611D01*
X136364707Y-57076611D01*
X136364712Y-57076614D01*
X136453856Y-57100500D01*
X136453858Y-57100500D01*
X136546142Y-57100500D01*
X136546144Y-57100500D01*
X136635288Y-57076614D01*
X136715212Y-57030469D01*
X136721257Y-57024423D01*
X136749507Y-57003275D01*
X136772599Y-56990667D01*
X136832024Y-56975500D01*
X156087403Y-56975500D01*
X156122335Y-56980521D01*
X156147579Y-56987934D01*
X156200324Y-57019229D01*
X165308829Y-66127735D01*
X165372266Y-66191172D01*
X165430290Y-66215205D01*
X165443109Y-66220514D01*
X165443111Y-66220516D01*
X165450309Y-66223497D01*
X165455145Y-66225500D01*
X165910627Y-66225500D01*
X165945559Y-66230521D01*
X165970803Y-66237934D01*
X166023549Y-66269230D01*
X166034866Y-66280547D01*
X166036392Y-66281459D01*
X166043036Y-66285566D01*
X166045651Y-66286741D01*
X166114706Y-66326611D01*
X166114707Y-66326611D01*
X166114712Y-66326614D01*
X166203856Y-66350500D01*
X166203858Y-66350500D01*
X166296142Y-66350500D01*
X166296144Y-66350500D01*
X166385288Y-66326614D01*
X166465212Y-66280469D01*
X166530469Y-66215212D01*
X166541164Y-66196689D01*
X166576611Y-66135293D01*
X166576610Y-66135293D01*
X166576614Y-66135288D01*
X166600500Y-66046144D01*
X166600500Y-65953856D01*
X166576614Y-65864712D01*
X166562058Y-65839500D01*
X166530473Y-65784794D01*
X166530470Y-65784791D01*
X166530469Y-65784788D01*
X166465212Y-65719531D01*
X166465209Y-65719529D01*
X166465205Y-65719526D01*
X166399190Y-65681411D01*
X166398835Y-65681204D01*
X166398460Y-65680806D01*
X166392895Y-65676536D01*
X166386999Y-65674094D01*
X166383596Y-65672624D01*
X166383126Y-65672412D01*
X166381234Y-65671706D01*
X166377684Y-65670235D01*
X166369520Y-65669161D01*
X166296144Y-65649500D01*
X166296143Y-65649500D01*
X166203856Y-65649500D01*
X166121466Y-65671575D01*
X166121451Y-65671580D01*
X166114712Y-65673386D01*
X166114711Y-65673386D01*
X166114709Y-65673387D01*
X166114706Y-65673388D01*
X166111906Y-65675004D01*
X166111902Y-65675006D01*
X166034804Y-65719519D01*
X166034786Y-65719531D01*
X166028737Y-65725580D01*
X166000490Y-65746725D01*
X165977405Y-65759331D01*
X165917976Y-65774500D01*
X165662598Y-65774500D01*
X165627662Y-65769477D01*
X165602420Y-65762065D01*
X165549675Y-65730769D01*
X164400496Y-64581590D01*
X175775001Y-64581590D01*
X175781406Y-64652087D01*
X175781407Y-64652099D01*
X175781409Y-64652108D01*
X175781412Y-64652118D01*
X175831979Y-64814391D01*
X175831981Y-64814397D01*
X175919922Y-64959871D01*
X175919923Y-64959872D01*
X175919925Y-64959874D01*
X175919927Y-64959877D01*
X176040122Y-65080072D01*
X176040123Y-65080073D01*
X176078402Y-65103213D01*
X176185604Y-65168019D01*
X176185603Y-65168019D01*
X176264067Y-65192469D01*
X176271201Y-65195727D01*
X176291691Y-65213482D01*
X176347891Y-65218589D01*
X176347894Y-65218590D01*
X176347893Y-65218590D01*
X176418408Y-65224998D01*
X176418426Y-65224999D01*
X176424999Y-65224998D01*
X176425000Y-65224998D01*
X176425000Y-64500000D01*
X175775001Y-64500000D01*
X175775001Y-64581590D01*
X164400496Y-64581590D01*
X163737333Y-63918427D01*
X175775000Y-63918427D01*
X175775000Y-64000000D01*
X176425000Y-64000000D01*
X176425000Y-63275000D01*
X176925000Y-63275000D01*
X176925000Y-65224999D01*
X176931580Y-65224999D01*
X176931581Y-65224999D01*
X176949185Y-65223399D01*
X177002094Y-65218592D01*
X177002095Y-65218591D01*
X177002102Y-65218591D01*
X177002107Y-65218590D01*
X177164396Y-65168018D01*
X177241424Y-65121453D01*
X177309871Y-65080076D01*
X177309872Y-65080075D01*
X177309871Y-65080075D01*
X177309877Y-65080072D01*
X177430072Y-64959877D01*
X177518019Y-64814396D01*
X177559408Y-64681573D01*
X177574590Y-64649728D01*
X177576418Y-64646984D01*
X177580861Y-64640313D01*
X177634408Y-64595432D01*
X177703720Y-64586625D01*
X177766788Y-64616687D01*
X177771700Y-64621087D01*
X177800359Y-64658984D01*
X177835802Y-64731484D01*
X177835803Y-64731485D01*
X177918514Y-64814196D01*
X177918515Y-64814196D01*
X177918517Y-64814198D01*
X178023607Y-64865573D01*
X178057673Y-64870536D01*
X178091739Y-64875500D01*
X178091740Y-64875500D01*
X178091741Y-64875500D01*
X178558261Y-64875500D01*
X178558262Y-64875500D01*
X178562803Y-64874838D01*
X178580971Y-64872191D01*
X178626393Y-64865573D01*
X178731483Y-64814198D01*
X178814198Y-64731483D01*
X178865573Y-64626393D01*
X178875500Y-64558260D01*
X178875500Y-64122951D01*
X178880522Y-64088018D01*
X178887934Y-64062773D01*
X178919228Y-64010031D01*
X179812382Y-63116876D01*
X179840632Y-63095729D01*
X179857148Y-63086710D01*
X179919524Y-63071579D01*
X179929939Y-63071827D01*
X179949071Y-63074578D01*
X179949090Y-63074439D01*
X179957146Y-63075500D01*
X179957147Y-63075500D01*
X179957149Y-63075500D01*
X180042851Y-63075500D01*
X180042853Y-63075500D01*
X180125638Y-63053318D01*
X180199862Y-63010465D01*
X180260465Y-62949862D01*
X180303318Y-62875638D01*
X180325500Y-62792853D01*
X180325500Y-62707147D01*
X180303318Y-62624362D01*
X180303314Y-62624355D01*
X180260469Y-62550144D01*
X180260463Y-62550136D01*
X180260459Y-62550132D01*
X180260458Y-62550130D01*
X180199868Y-62489540D01*
X180199866Y-62489539D01*
X180199863Y-62489536D01*
X180199855Y-62489530D01*
X180185457Y-62481217D01*
X180125661Y-62446694D01*
X180125637Y-62446681D01*
X180061588Y-62429520D01*
X180042853Y-62424500D01*
X180042852Y-62424500D01*
X179957147Y-62424500D01*
X179874362Y-62446682D01*
X179874360Y-62446683D01*
X179874355Y-62446685D01*
X179813452Y-62481846D01*
X179799965Y-62488575D01*
X179797580Y-62489588D01*
X179786080Y-62493918D01*
X179786276Y-62494393D01*
X179740217Y-62513973D01*
X179739922Y-62514007D01*
X179739159Y-62514416D01*
X179683104Y-62537633D01*
X178645164Y-63575573D01*
X178616913Y-63596722D01*
X178593825Y-63609330D01*
X178534395Y-63624500D01*
X178091739Y-63624500D01*
X178033341Y-63633008D01*
X178023607Y-63634426D01*
X177918511Y-63685804D01*
X177835803Y-63768512D01*
X177802323Y-63836995D01*
X177782474Y-63866166D01*
X177774848Y-63874514D01*
X177715099Y-63910734D01*
X177645254Y-63908901D01*
X177587486Y-63869598D01*
X177587484Y-63869594D01*
X177583309Y-63864512D01*
X177560737Y-63822689D01*
X177518021Y-63685610D01*
X177518020Y-63685609D01*
X177518019Y-63685604D01*
X177430072Y-63540122D01*
X177430071Y-63540120D01*
X177309878Y-63419927D01*
X177241422Y-63378544D01*
X177241418Y-63378542D01*
X177164395Y-63331980D01*
X177164396Y-63331980D01*
X177085938Y-63307532D01*
X177078796Y-63304270D01*
X177058306Y-63286515D01*
X176949381Y-63276618D01*
X176931572Y-63275000D01*
X176931571Y-63275000D01*
X176925000Y-63275000D01*
X176425000Y-63275000D01*
X176425000Y-63274999D01*
X176424999Y-63274998D01*
X176418456Y-63274999D01*
X176418413Y-63275000D01*
X176418407Y-63275001D01*
X176347911Y-63281406D01*
X176347899Y-63281407D01*
X176347890Y-63281409D01*
X176347880Y-63281412D01*
X176185607Y-63331979D01*
X176185601Y-63331981D01*
X176040127Y-63419922D01*
X176040126Y-63419923D01*
X175919925Y-63540123D01*
X175831980Y-63685603D01*
X175781407Y-63847900D01*
X175775699Y-63910734D01*
X175775000Y-63918427D01*
X163737333Y-63918427D01*
X162516179Y-62697273D01*
X165849500Y-62697273D01*
X165849500Y-62802727D01*
X165876793Y-62904587D01*
X165929520Y-62995913D01*
X166004087Y-63070480D01*
X166095413Y-63123207D01*
X166197273Y-63150500D01*
X166197275Y-63150500D01*
X166302725Y-63150500D01*
X166302727Y-63150500D01*
X166404587Y-63123207D01*
X166495913Y-63070480D01*
X166570480Y-62995913D01*
X166623207Y-62904587D01*
X166650500Y-62802727D01*
X166650500Y-62697273D01*
X166623207Y-62595413D01*
X166570480Y-62504087D01*
X166495913Y-62429520D01*
X166429059Y-62390922D01*
X166404589Y-62376794D01*
X166404588Y-62376793D01*
X166404587Y-62376793D01*
X166302727Y-62349500D01*
X166302726Y-62349500D01*
X166197273Y-62349500D01*
X166095413Y-62376792D01*
X166095408Y-62376795D01*
X166004088Y-62429518D01*
X166004082Y-62429523D01*
X165929523Y-62504082D01*
X165929518Y-62504088D01*
X165876795Y-62595408D01*
X165876792Y-62595413D01*
X165869036Y-62624362D01*
X165849500Y-62697273D01*
X162516179Y-62697273D01*
X161855607Y-62036701D01*
X161776053Y-61957147D01*
X163174500Y-61957147D01*
X163174500Y-62042853D01*
X163177942Y-62055696D01*
X163181267Y-62068108D01*
X163181268Y-62068112D01*
X163190763Y-62103548D01*
X163196682Y-62125637D01*
X163196685Y-62125644D01*
X163239530Y-62199855D01*
X163239534Y-62199860D01*
X163239535Y-62199862D01*
X163240103Y-62200430D01*
X163300141Y-62260468D01*
X163300821Y-62260958D01*
X163303316Y-62262300D01*
X163374355Y-62303314D01*
X163374362Y-62303318D01*
X163457147Y-62325500D01*
X163457149Y-62325500D01*
X163542851Y-62325500D01*
X163542853Y-62325500D01*
X163625638Y-62303318D01*
X163699862Y-62260465D01*
X163760465Y-62199862D01*
X163803318Y-62125638D01*
X163817835Y-62071454D01*
X163830216Y-62041563D01*
X163845993Y-62014237D01*
X163865689Y-61988570D01*
X165488570Y-60365689D01*
X165514237Y-60345993D01*
X165541563Y-60330216D01*
X165571454Y-60317835D01*
X165625638Y-60303318D01*
X165699862Y-60260465D01*
X165760465Y-60199862D01*
X165803318Y-60125638D01*
X165825500Y-60042853D01*
X165825500Y-59957147D01*
X165803318Y-59874362D01*
X165802650Y-59873205D01*
X165760469Y-59800144D01*
X165760463Y-59800136D01*
X165760458Y-59800130D01*
X165699868Y-59739540D01*
X165699866Y-59739539D01*
X165699863Y-59739536D01*
X165699855Y-59739530D01*
X165685457Y-59731217D01*
X165625661Y-59696694D01*
X165625637Y-59696681D01*
X165565034Y-59680443D01*
X165542853Y-59674500D01*
X165542852Y-59674500D01*
X165457147Y-59674500D01*
X165374364Y-59696681D01*
X165374357Y-59696683D01*
X165374356Y-59696684D01*
X165374346Y-59696689D01*
X165300152Y-59739525D01*
X165300148Y-59739527D01*
X165300144Y-59739530D01*
X165300136Y-59739536D01*
X165300132Y-59739539D01*
X165300130Y-59739540D01*
X165239540Y-59800130D01*
X165239539Y-59800132D01*
X165239536Y-59800135D01*
X165239536Y-59800136D01*
X165239530Y-59800144D01*
X165239527Y-59800148D01*
X165239525Y-59800152D01*
X165198845Y-59870611D01*
X165198842Y-59870618D01*
X165196685Y-59874355D01*
X165196683Y-59874359D01*
X165196682Y-59874361D01*
X165196682Y-59874362D01*
X165194691Y-59881792D01*
X165194686Y-59881806D01*
X165182165Y-59928536D01*
X165169777Y-59958442D01*
X165154008Y-59985754D01*
X165134303Y-60011434D01*
X163511436Y-61634301D01*
X163485755Y-61654007D01*
X163458439Y-61669778D01*
X163428534Y-61682165D01*
X163376183Y-61696193D01*
X163374480Y-61696622D01*
X163374363Y-61696681D01*
X163374337Y-61696694D01*
X163300152Y-61739525D01*
X163300148Y-61739527D01*
X163300144Y-61739530D01*
X163300136Y-61739536D01*
X163300132Y-61739539D01*
X163300130Y-61739540D01*
X163239540Y-61800130D01*
X163239539Y-61800132D01*
X163239536Y-61800135D01*
X163239536Y-61800136D01*
X163239530Y-61800144D01*
X163239527Y-61800148D01*
X163239525Y-61800152D01*
X163196689Y-61874346D01*
X163196684Y-61874356D01*
X163196683Y-61874357D01*
X163196681Y-61874364D01*
X163175028Y-61955174D01*
X163175028Y-61955176D01*
X163174500Y-61957147D01*
X161776053Y-61957147D01*
X156855606Y-57036701D01*
X156776052Y-56957147D01*
X158924500Y-56957147D01*
X158924500Y-57042853D01*
X158939947Y-57100500D01*
X158942439Y-57109803D01*
X158942440Y-57109807D01*
X158946678Y-57125626D01*
X158946681Y-57125635D01*
X158946682Y-57125637D01*
X158946685Y-57125644D01*
X158989530Y-57199855D01*
X158989534Y-57199860D01*
X158989535Y-57199862D01*
X158990103Y-57200430D01*
X159050141Y-57260468D01*
X159050821Y-57260958D01*
X159053316Y-57262300D01*
X159124355Y-57303314D01*
X159124362Y-57303318D01*
X159207147Y-57325500D01*
X159207149Y-57325500D01*
X159292851Y-57325500D01*
X159292853Y-57325500D01*
X159375638Y-57303318D01*
X159424215Y-57275271D01*
X159454112Y-57262888D01*
X159484584Y-57254723D01*
X159516673Y-57250500D01*
X161983327Y-57250500D01*
X162015419Y-57254725D01*
X162045882Y-57262887D01*
X162075789Y-57275274D01*
X162124362Y-57303318D01*
X162207147Y-57325500D01*
X162207149Y-57325500D01*
X162292851Y-57325500D01*
X162292853Y-57325500D01*
X162375638Y-57303318D01*
X162400469Y-57288982D01*
X174184500Y-57288982D01*
X174184500Y-57401018D01*
X174213497Y-57509237D01*
X174269515Y-57606263D01*
X174348737Y-57685485D01*
X174445763Y-57741503D01*
X174553982Y-57770500D01*
X174553984Y-57770500D01*
X174666016Y-57770500D01*
X174666018Y-57770500D01*
X174774237Y-57741503D01*
X174871263Y-57685485D01*
X174950485Y-57606263D01*
X175006503Y-57509237D01*
X175035500Y-57401018D01*
X175035500Y-57288982D01*
X179964500Y-57288982D01*
X179964500Y-57401018D01*
X179993497Y-57509237D01*
X180049515Y-57606263D01*
X180128737Y-57685485D01*
X180225763Y-57741503D01*
X180333982Y-57770500D01*
X180333984Y-57770500D01*
X180446016Y-57770500D01*
X180446018Y-57770500D01*
X180554237Y-57741503D01*
X180651263Y-57685485D01*
X180730485Y-57606263D01*
X180786503Y-57509237D01*
X180815500Y-57401018D01*
X180815500Y-57288982D01*
X180786503Y-57180763D01*
X180730485Y-57083737D01*
X180651263Y-57004515D01*
X180569219Y-56957147D01*
X180554239Y-56948498D01*
X180554238Y-56948497D01*
X180554237Y-56948497D01*
X180446018Y-56919500D01*
X180446017Y-56919500D01*
X180333982Y-56919500D01*
X180225770Y-56948494D01*
X180225759Y-56948498D01*
X180225758Y-56948499D01*
X180128737Y-57004514D01*
X180128728Y-57004521D01*
X180049521Y-57083728D01*
X180049514Y-57083737D01*
X179993499Y-57180758D01*
X179993498Y-57180759D01*
X179993494Y-57180770D01*
X179972140Y-57260468D01*
X179964500Y-57288982D01*
X175035500Y-57288982D01*
X175006503Y-57180763D01*
X174950485Y-57083737D01*
X174871263Y-57004515D01*
X174789219Y-56957147D01*
X174774239Y-56948498D01*
X174774238Y-56948497D01*
X174774237Y-56948497D01*
X174666018Y-56919500D01*
X174666017Y-56919500D01*
X174553982Y-56919500D01*
X174445770Y-56948494D01*
X174445759Y-56948498D01*
X174445758Y-56948499D01*
X174348737Y-57004514D01*
X174348728Y-57004521D01*
X174269521Y-57083728D01*
X174269514Y-57083737D01*
X174213499Y-57180758D01*
X174213498Y-57180759D01*
X174213494Y-57180770D01*
X174192140Y-57260468D01*
X174184500Y-57288982D01*
X162400469Y-57288982D01*
X162449862Y-57260465D01*
X162510465Y-57199862D01*
X162510466Y-57199860D01*
X162510595Y-57199731D01*
X162510830Y-57199414D01*
X162512294Y-57196693D01*
X162539541Y-57149500D01*
X162553318Y-57125638D01*
X162575500Y-57042853D01*
X162575500Y-56957147D01*
X162553318Y-56874362D01*
X162553314Y-56874355D01*
X162510469Y-56800144D01*
X162510463Y-56800136D01*
X162510459Y-56800132D01*
X162510458Y-56800130D01*
X162449868Y-56739540D01*
X162449866Y-56739539D01*
X162449863Y-56739536D01*
X162449855Y-56739530D01*
X162424212Y-56724725D01*
X162375661Y-56696694D01*
X162375637Y-56696681D01*
X162315034Y-56680443D01*
X162292853Y-56674500D01*
X162292852Y-56674500D01*
X162207147Y-56674500D01*
X162150978Y-56689550D01*
X162150976Y-56689550D01*
X162124362Y-56696682D01*
X162124361Y-56696682D01*
X162071443Y-56727233D01*
X162066883Y-56729395D01*
X162063049Y-56730001D01*
X162045885Y-56737111D01*
X162015423Y-56745274D01*
X161983327Y-56749500D01*
X159516673Y-56749500D01*
X159484580Y-56745275D01*
X159475549Y-56742855D01*
X159454115Y-56737112D01*
X159424210Y-56724725D01*
X159375638Y-56696682D01*
X159375634Y-56696681D01*
X159292853Y-56674500D01*
X159292852Y-56674500D01*
X159207147Y-56674500D01*
X159124364Y-56696681D01*
X159124357Y-56696683D01*
X159124356Y-56696684D01*
X159124346Y-56696689D01*
X159050152Y-56739525D01*
X159050148Y-56739527D01*
X159050144Y-56739530D01*
X159050136Y-56739536D01*
X159050132Y-56739539D01*
X159050130Y-56739540D01*
X158989540Y-56800130D01*
X158989539Y-56800132D01*
X158989536Y-56800135D01*
X158989536Y-56800136D01*
X158989530Y-56800144D01*
X158989527Y-56800148D01*
X158989525Y-56800152D01*
X158946689Y-56874346D01*
X158946684Y-56874356D01*
X158946683Y-56874357D01*
X158946681Y-56874364D01*
X158926818Y-56948497D01*
X158924500Y-56957147D01*
X156776052Y-56957147D01*
X156458612Y-56639707D01*
X156458610Y-56639705D01*
X156441170Y-56622264D01*
X156377736Y-56558830D01*
X156377735Y-56558829D01*
X156377734Y-56558828D01*
X156377733Y-56558827D01*
X156377726Y-56558823D01*
X156353457Y-56548771D01*
X156298924Y-56526184D01*
X156295632Y-56524681D01*
X156294857Y-56524499D01*
X156294856Y-56524499D01*
X156294855Y-56524499D01*
X156205145Y-56524499D01*
X156190711Y-56524499D01*
X156186871Y-56524499D01*
X156186839Y-56524500D01*
X136839373Y-56524500D01*
X136804437Y-56519477D01*
X136779195Y-56512065D01*
X136726450Y-56480769D01*
X136715211Y-56469530D01*
X136715208Y-56469528D01*
X136715199Y-56469521D01*
X136650860Y-56432375D01*
X136650838Y-56432363D01*
X136635293Y-56423388D01*
X136635290Y-56423387D01*
X136635289Y-56423386D01*
X136635288Y-56423386D01*
X136633304Y-56422854D01*
X136631026Y-56421619D01*
X136627684Y-56420235D01*
X136619520Y-56419161D01*
X136546144Y-56399500D01*
X136546143Y-56399500D01*
X136453856Y-56399500D01*
X136371466Y-56421575D01*
X136371451Y-56421580D01*
X136364712Y-56423386D01*
X136364711Y-56423386D01*
X136364709Y-56423387D01*
X136364706Y-56423388D01*
X136361906Y-56425004D01*
X136361902Y-56425006D01*
X136284804Y-56469519D01*
X136284786Y-56469531D01*
X136219531Y-56534786D01*
X136219519Y-56534804D01*
X136174549Y-56612694D01*
X136174548Y-56612695D01*
X136173388Y-56614706D01*
X136173387Y-56614709D01*
X136173386Y-56614711D01*
X136173386Y-56614712D01*
X136149500Y-56703856D01*
X126257241Y-56703856D01*
X126401105Y-56516370D01*
X126401945Y-56514916D01*
X126520748Y-56309140D01*
X126520754Y-56309130D01*
X126612330Y-56088047D01*
X126674265Y-55856902D01*
X126705500Y-55619650D01*
X126705500Y-55557147D01*
X141424500Y-55557147D01*
X141424500Y-55642852D01*
X141424501Y-55642854D01*
X141446681Y-55725634D01*
X141446683Y-55725641D01*
X141446684Y-55725642D01*
X141446685Y-55725644D01*
X141489530Y-55799855D01*
X141489534Y-55799860D01*
X141489535Y-55799862D01*
X141490103Y-55800430D01*
X141550141Y-55860468D01*
X141550821Y-55860958D01*
X141553316Y-55862300D01*
X141624355Y-55903314D01*
X141624362Y-55903318D01*
X141707147Y-55925500D01*
X141707149Y-55925500D01*
X141792851Y-55925500D01*
X141792853Y-55925500D01*
X141875638Y-55903318D01*
X141949862Y-55860465D01*
X142010465Y-55799862D01*
X142053318Y-55725638D01*
X142075500Y-55642853D01*
X142075500Y-55557147D01*
X142053318Y-55474362D01*
X142051497Y-55471208D01*
X142042236Y-55455166D01*
X142042233Y-55455162D01*
X142010470Y-55400145D01*
X142010466Y-55400140D01*
X142010461Y-55400134D01*
X142010455Y-55400127D01*
X142008358Y-55398030D01*
X187334500Y-55398030D01*
X187334500Y-55601968D01*
X187366395Y-55803347D01*
X187366398Y-55803363D01*
X187366400Y-55803368D01*
X187429414Y-55997303D01*
X187475649Y-56088043D01*
X187521989Y-56178990D01*
X187641848Y-56343962D01*
X187786038Y-56488152D01*
X187951010Y-56608011D01*
X188132701Y-56700587D01*
X188326636Y-56763601D01*
X188402163Y-56775563D01*
X188528037Y-56795500D01*
X188528042Y-56795500D01*
X188731962Y-56795500D01*
X188731963Y-56795500D01*
X188843850Y-56777778D01*
X188933364Y-56763601D01*
X189127299Y-56700587D01*
X189308990Y-56608011D01*
X189473962Y-56488152D01*
X189618152Y-56343962D01*
X189738011Y-56178990D01*
X189830587Y-55997299D01*
X189893601Y-55803364D01*
X189919023Y-55642853D01*
X189925500Y-55601963D01*
X189925500Y-55398036D01*
X189893601Y-55196639D01*
X189893601Y-55196636D01*
X189830587Y-55002701D01*
X189830585Y-55002698D01*
X189830585Y-55002696D01*
X189738010Y-54821009D01*
X189618152Y-54656038D01*
X189473962Y-54511848D01*
X189308990Y-54391989D01*
X189127303Y-54299414D01*
X188946890Y-54240793D01*
X188946879Y-54240790D01*
X188933364Y-54236399D01*
X188933362Y-54236398D01*
X188933360Y-54236398D01*
X188918963Y-54234117D01*
X188918956Y-54234116D01*
X188731968Y-54204500D01*
X188731963Y-54204500D01*
X188731958Y-54204500D01*
X188528042Y-54204500D01*
X188528037Y-54204500D01*
X188528032Y-54204500D01*
X188326642Y-54236397D01*
X188326639Y-54236398D01*
X188150078Y-54293767D01*
X188132695Y-54299415D01*
X187951008Y-54391989D01*
X187856884Y-54460374D01*
X187786035Y-54511850D01*
X187786033Y-54511852D01*
X187786032Y-54511852D01*
X187641852Y-54656032D01*
X187641852Y-54656033D01*
X187641850Y-54656035D01*
X187616527Y-54690889D01*
X187521989Y-54821008D01*
X187429415Y-55002695D01*
X187366397Y-55196642D01*
X187334500Y-55398030D01*
X142008358Y-55398030D01*
X141949868Y-55339540D01*
X141949866Y-55339539D01*
X141949863Y-55339536D01*
X141949855Y-55339530D01*
X141935457Y-55331217D01*
X141875661Y-55296694D01*
X141875637Y-55296681D01*
X141815034Y-55280443D01*
X141792853Y-55274500D01*
X141792852Y-55274500D01*
X141707147Y-55274500D01*
X141624364Y-55296681D01*
X141624357Y-55296683D01*
X141624356Y-55296684D01*
X141624346Y-55296689D01*
X141550152Y-55339525D01*
X141550148Y-55339527D01*
X141550144Y-55339530D01*
X141550136Y-55339536D01*
X141550132Y-55339539D01*
X141550130Y-55339540D01*
X141489540Y-55400130D01*
X141489539Y-55400132D01*
X141489538Y-55400134D01*
X141489536Y-55400136D01*
X141489530Y-55400144D01*
X141489527Y-55400148D01*
X141489525Y-55400152D01*
X141446689Y-55474346D01*
X141446684Y-55474356D01*
X141446683Y-55474357D01*
X141446682Y-55474362D01*
X141424500Y-55557147D01*
X126705500Y-55557147D01*
X126705500Y-55380350D01*
X126674265Y-55143098D01*
X126612330Y-54911953D01*
X126520754Y-54690870D01*
X126500644Y-54656038D01*
X126402963Y-54486847D01*
X126402014Y-54485083D01*
X126401116Y-54483649D01*
X126401108Y-54483634D01*
X126401107Y-54483632D01*
X126255430Y-54293783D01*
X126255424Y-54293776D01*
X126195764Y-54234116D01*
X126086225Y-54124576D01*
X126086180Y-54124537D01*
X126085703Y-54124176D01*
X125922599Y-53999021D01*
X125922589Y-53999013D01*
X125896367Y-53978892D01*
X125894920Y-53977987D01*
X125893138Y-53977028D01*
X125829968Y-53940557D01*
X125769259Y-53905507D01*
X193299500Y-53905507D01*
X193299500Y-54094491D01*
X193316924Y-54204500D01*
X193329059Y-54281118D01*
X193387454Y-54460836D01*
X193473240Y-54629199D01*
X193584310Y-54782073D01*
X193717927Y-54915690D01*
X193804229Y-54978393D01*
X193870796Y-55026757D01*
X193870797Y-55026757D01*
X193870801Y-55026760D01*
X193950347Y-55067290D01*
X194032722Y-55109263D01*
X194034320Y-55110199D01*
X194038037Y-55111999D01*
X194040021Y-55112985D01*
X194043781Y-55114045D01*
X194133194Y-55143098D01*
X194218881Y-55170940D01*
X194405514Y-55200500D01*
X194405519Y-55200500D01*
X194594485Y-55200500D01*
X194594486Y-55200500D01*
X194781118Y-55170940D01*
X194960832Y-55112547D01*
X195129199Y-55026760D01*
X195282073Y-54915690D01*
X195415690Y-54782073D01*
X195526760Y-54629199D01*
X195612547Y-54460832D01*
X195670940Y-54281118D01*
X195695734Y-54124575D01*
X195700500Y-54094486D01*
X195700500Y-53905513D01*
X195670940Y-53718881D01*
X195612545Y-53539163D01*
X195526759Y-53370800D01*
X195415690Y-53217927D01*
X195282073Y-53084310D01*
X195129199Y-52973240D01*
X194960836Y-52887454D01*
X194781118Y-52829059D01*
X194781112Y-52829058D01*
X194594491Y-52799500D01*
X194594486Y-52799500D01*
X194594481Y-52799500D01*
X194405519Y-52799500D01*
X194405514Y-52799500D01*
X194405509Y-52799500D01*
X194218886Y-52829058D01*
X194218884Y-52829058D01*
X194218881Y-52829059D01*
X194039163Y-52887454D01*
X193954981Y-52930347D01*
X193870799Y-52973240D01*
X193783579Y-53036610D01*
X193783578Y-53036610D01*
X193729794Y-53075686D01*
X193722419Y-53079816D01*
X193579816Y-53222419D01*
X193575686Y-53229794D01*
X193536610Y-53283578D01*
X193536610Y-53283579D01*
X193473240Y-53370799D01*
X193430347Y-53454981D01*
X193387454Y-53539163D01*
X193329059Y-53718881D01*
X193329058Y-53718884D01*
X193329058Y-53718886D01*
X193299500Y-53905507D01*
X125769259Y-53905507D01*
X125691123Y-53860395D01*
X125691117Y-53860392D01*
X125689140Y-53859251D01*
X125689132Y-53859247D01*
X125689130Y-53859246D01*
X125558581Y-53805170D01*
X125558474Y-53805126D01*
X125543108Y-53792690D01*
X125468051Y-53767671D01*
X125468047Y-53767670D01*
X125468048Y-53767670D01*
X125468045Y-53767669D01*
X125468034Y-53767666D01*
X125468031Y-53767665D01*
X125387385Y-53746056D01*
X125236900Y-53705734D01*
X125236894Y-53705733D01*
X125236889Y-53705732D01*
X125001528Y-53674747D01*
X124999847Y-53674500D01*
X124999656Y-53674500D01*
X124999650Y-53674500D01*
X124760350Y-53674500D01*
X124760344Y-53674500D01*
X124760342Y-53674500D01*
X124754222Y-53675253D01*
X124753316Y-53675425D01*
X124523109Y-53705732D01*
X124523102Y-53705733D01*
X124523099Y-53705734D01*
X124474249Y-53718823D01*
X124291955Y-53767668D01*
X124070889Y-53859237D01*
X124070877Y-53859242D01*
X124070876Y-53859243D01*
X124070859Y-53859251D01*
X124070842Y-53859259D01*
X123866859Y-53977028D01*
X123865090Y-53977980D01*
X123863634Y-53978891D01*
X123863632Y-53978892D01*
X123673783Y-54124569D01*
X123673776Y-54124575D01*
X123673772Y-54124579D01*
X123673767Y-54124583D01*
X123504583Y-54293767D01*
X123504576Y-54293775D01*
X123504575Y-54293776D01*
X123504569Y-54293783D01*
X123429213Y-54391989D01*
X123358892Y-54483632D01*
X123357980Y-54485090D01*
X123357028Y-54486859D01*
X123239259Y-54690842D01*
X123239237Y-54690889D01*
X123147668Y-54911955D01*
X123116907Y-55026758D01*
X123085735Y-55143098D01*
X123085732Y-55143109D01*
X123054503Y-55380324D01*
X123054500Y-55380348D01*
X108000500Y-55380348D01*
X108000500Y-53905507D01*
X109299500Y-53905507D01*
X109299500Y-54094491D01*
X109316924Y-54204500D01*
X109329059Y-54281118D01*
X109387454Y-54460836D01*
X109473240Y-54629199D01*
X109584310Y-54782073D01*
X109717927Y-54915690D01*
X109804229Y-54978393D01*
X109870796Y-55026757D01*
X109870797Y-55026757D01*
X109870801Y-55026760D01*
X109950347Y-55067290D01*
X110032722Y-55109263D01*
X110034320Y-55110199D01*
X110038037Y-55111999D01*
X110040021Y-55112985D01*
X110043781Y-55114045D01*
X110133194Y-55143098D01*
X110218881Y-55170940D01*
X110405514Y-55200500D01*
X110405519Y-55200500D01*
X110594485Y-55200500D01*
X110594486Y-55200500D01*
X110781118Y-55170940D01*
X110960832Y-55112547D01*
X111129199Y-55026760D01*
X111282073Y-54915690D01*
X111415690Y-54782073D01*
X111526760Y-54629199D01*
X111612547Y-54460832D01*
X111670940Y-54281118D01*
X111695734Y-54124575D01*
X111700500Y-54094486D01*
X111700500Y-53905513D01*
X111670940Y-53718881D01*
X111612545Y-53539163D01*
X111526759Y-53370800D01*
X111415690Y-53217927D01*
X111282073Y-53084310D01*
X111129199Y-52973240D01*
X110960836Y-52887454D01*
X110781118Y-52829059D01*
X110781112Y-52829058D01*
X110594491Y-52799500D01*
X110594486Y-52799500D01*
X110594481Y-52799500D01*
X110405519Y-52799500D01*
X110405514Y-52799500D01*
X110405509Y-52799500D01*
X110218886Y-52829058D01*
X110218884Y-52829058D01*
X110218881Y-52829059D01*
X110039163Y-52887454D01*
X109954981Y-52930347D01*
X109870799Y-52973240D01*
X109783579Y-53036610D01*
X109783578Y-53036610D01*
X109729794Y-53075686D01*
X109722419Y-53079816D01*
X109579816Y-53222419D01*
X109575686Y-53229794D01*
X109536610Y-53283578D01*
X109536610Y-53283579D01*
X109473240Y-53370799D01*
X109430347Y-53454981D01*
X109387454Y-53539163D01*
X109329059Y-53718881D01*
X109329058Y-53718884D01*
X109329058Y-53718886D01*
X109299500Y-53905507D01*
X108000500Y-53905507D01*
X108000500Y-51642329D01*
X108005523Y-51607393D01*
X108009927Y-51592395D01*
X108047672Y-51533644D01*
X108049041Y-51532457D01*
X108103920Y-51504977D01*
X108111479Y-51503333D01*
X108137832Y-51500500D01*
X126801000Y-51500500D01*
X126868039Y-51520185D01*
G37*
%TD.AperFunction*%
%TD*%
M02*
