%TF.GenerationSoftware,KiCad,Pcbnew,10.0.0*%
%TF.CreationDate,2026-03-31T00:41:15+02:00*%
%TF.ProjectId,esp_home_sensor,6573705f-686f-46d6-955f-73656e736f72,rev?*%
%TF.SameCoordinates,Original*%
%TF.FileFunction,Copper,L2,Inr*%
%TF.FilePolarity,Positive*%
%FSLAX46Y46*%
G04 Gerber Fmt 4.6, Leading zero omitted, Abs format (unit mm)*
G04 Created by KiCad (PCBNEW 10.0.0) date 2026-03-31 00:41:15*
%MOMM*%
%LPD*%
G01*
G04 APERTURE LIST*
%TA.AperFunction,ViaPad*%
%ADD10C,0.350000*%
%TD*%
%TA.AperFunction,ViaPad*%
%ADD11C,0.500000*%
%TD*%
%TA.AperFunction,ViaPad*%
%ADD12C,0.400000*%
%TD*%
G04 APERTURE END LIST*
D10*
%TO.N,GND*%
X165000000Y-59750000D03*
D11*
X119825000Y-60825000D03*
D10*
X193000000Y-58750000D03*
D12*
X180000000Y-61750000D03*
D11*
X130350000Y-58075000D03*
D12*
X155000000Y-72800000D03*
D11*
X187650000Y-60050000D03*
D10*
X151000000Y-62000000D03*
X115500000Y-54000000D03*
D12*
X183750000Y-63750000D03*
D11*
X130750000Y-69250000D03*
D12*
X167425000Y-68112500D03*
X180000000Y-63750000D03*
X167425000Y-67512500D03*
X175325000Y-67512500D03*
D10*
X148525000Y-59975000D03*
D12*
X183900000Y-60450000D03*
D11*
X118750000Y-69250000D03*
D10*
X162500000Y-73750000D03*
D11*
X181250000Y-59250000D03*
D12*
X183000000Y-63750000D03*
X180000000Y-60750000D03*
X184000000Y-61750000D03*
X175925000Y-67512500D03*
D10*
X172390000Y-57845000D03*
D11*
X121875000Y-61625000D03*
D12*
X184000000Y-62750000D03*
D11*
X130350000Y-63620711D03*
D10*
X144000000Y-58000000D03*
X146550000Y-59975000D03*
D12*
X120000000Y-64500000D03*
D10*
X148525000Y-56025000D03*
X182610000Y-57845000D03*
D12*
X184500000Y-61750000D03*
X176525000Y-66912500D03*
D10*
X144000000Y-56000000D03*
X153000000Y-60000000D03*
D12*
X172975000Y-67612500D03*
D10*
X182610000Y-53915000D03*
D12*
X175925000Y-68112500D03*
D10*
X159500000Y-56500000D03*
D11*
X178750000Y-61750000D03*
D10*
X146000000Y-54000000D03*
D11*
X174000000Y-64000000D03*
D12*
X184750000Y-71450000D03*
D10*
X150500000Y-59975000D03*
X164000000Y-62250000D03*
X153000000Y-56000000D03*
X148500000Y-54000000D03*
D12*
X168625000Y-66912500D03*
D10*
X146000000Y-62000000D03*
X144000000Y-62000000D03*
X148500000Y-62000000D03*
D12*
X176525000Y-67512500D03*
X175325000Y-68112500D03*
D10*
X172390000Y-53915000D03*
D11*
X176700000Y-65250000D03*
D12*
X184500000Y-63750000D03*
D11*
X175000000Y-61000000D03*
D10*
X151000000Y-54000000D03*
D12*
X185250000Y-63750000D03*
D11*
X139200000Y-54600000D03*
D10*
X150500000Y-58000000D03*
X153000000Y-54000000D03*
D11*
X139200000Y-55600000D03*
X125875000Y-60825000D03*
D10*
X153000000Y-58000000D03*
D12*
X168025000Y-67512500D03*
X147000000Y-72800000D03*
X184750000Y-72000000D03*
D10*
X150500000Y-56025000D03*
D12*
X140000000Y-72800000D03*
D11*
X119825000Y-62425000D03*
D12*
X185850000Y-74450000D03*
X185400000Y-60450000D03*
X168625000Y-67512500D03*
X184500000Y-62750000D03*
X183150000Y-60450000D03*
D10*
X144000000Y-54000000D03*
X146550000Y-58000000D03*
D11*
X134750000Y-60500000D03*
D10*
X153000000Y-62000000D03*
X144000000Y-60000000D03*
D12*
X165075000Y-67612500D03*
D11*
X166250000Y-61750000D03*
D10*
X146550000Y-56025000D03*
D11*
X174000000Y-59500000D03*
D12*
X184650000Y-60450000D03*
X168025000Y-68112500D03*
D10*
X162000000Y-57500000D03*
X148525000Y-58000000D03*
D12*
%TO.N,3V3_AUX*%
X176225000Y-70712500D03*
X176225000Y-70112500D03*
X176825000Y-70112500D03*
D11*
X166250000Y-62750000D03*
D12*
X175625000Y-70112500D03*
D11*
X130750000Y-70250000D03*
D12*
X175625000Y-71312500D03*
X176225000Y-71312500D03*
D11*
X118750000Y-70250000D03*
D12*
X124000000Y-60500000D03*
X175625000Y-70712500D03*
%TO.N,3V3_MCU*%
X167725000Y-70112500D03*
D10*
X141750000Y-55600000D03*
D12*
X120500000Y-59000000D03*
X128000000Y-57500000D03*
X167725000Y-70712500D03*
X168325000Y-71312500D03*
X168325000Y-70712500D03*
X168325000Y-70112500D03*
D11*
X134750000Y-59500000D03*
D12*
X168925000Y-70112500D03*
X167725000Y-71312500D03*
D11*
X136990000Y-66240000D03*
D10*
%TO.N,/MCU/USER_SW*%
X138000000Y-58500000D03*
X138000000Y-68750000D03*
%TO.N,/Env_sensor/I2C.SDA*%
X149750000Y-66500000D03*
X130750000Y-71250000D03*
%TO.N,/MCU/DISP_IF.CLK*%
X165500000Y-60000000D03*
X163500000Y-62000000D03*
%TO.N,/MCU/EN*%
X144500000Y-68500000D03*
X140000000Y-60000000D03*
%TO.N,/Env_sensor/I2C.SCL*%
X130750000Y-72250000D03*
X151250000Y-68000000D03*
%TO.N,/MCU/DISP_IF.RST*%
X159250000Y-57000000D03*
X162250000Y-57000000D03*
D11*
%TO.N,VBAT*%
X187750000Y-73500000D03*
D12*
X187900000Y-68300000D03*
X136500000Y-56750000D03*
X187900000Y-68800000D03*
X166250000Y-66000000D03*
X187900000Y-67800000D03*
%TO.N,/DC_DC/EN*%
X170771446Y-69478554D03*
X143750000Y-64250000D03*
D10*
%TO.N,/MCU/BOOT*%
X153000000Y-70000000D03*
X154250000Y-67000000D03*
D12*
%TO.N,/Protection/BAT-*%
X183750000Y-73750000D03*
X182750000Y-72750000D03*
X182750000Y-74750000D03*
X183250000Y-74250000D03*
X183750000Y-72750000D03*
X182750000Y-70750000D03*
X183250000Y-73250000D03*
X182750000Y-71750000D03*
X183250000Y-71250000D03*
X183750000Y-74750000D03*
X182750000Y-73750000D03*
D10*
%TO.N,/Protection/DSG*%
X186750000Y-69250000D03*
X189000000Y-67250000D03*
D12*
%TO.N,/Protection/BAT+*%
X190150000Y-67400000D03*
X186000000Y-67200000D03*
X190150000Y-67950000D03*
%TO.N,Net-(U3-Pad4)*%
X190150000Y-69400000D03*
X187900000Y-69650000D03*
X190150000Y-68650000D03*
X187900000Y-70150000D03*
X190150000Y-70150000D03*
D10*
%TO.N,Net-(JP1-B)*%
X180000000Y-62750000D03*
%TD*%
%TA.AperFunction,Conductor*%
%TO.N,GND*%
G36*
X126895016Y-51520185D02*
G01*
X126940771Y-51572989D01*
X126951901Y-51628821D01*
X126925000Y-52400000D01*
X170124999Y-52400000D01*
X170125000Y-52400000D01*
X170170506Y-51617302D01*
X170194049Y-51551519D01*
X170249419Y-51508906D01*
X170294297Y-51500500D01*
X196857670Y-51500500D01*
X196892606Y-51505523D01*
X196907604Y-51509927D01*
X196966355Y-51547672D01*
X196967542Y-51549041D01*
X196995018Y-51603902D01*
X196996663Y-51611460D01*
X196999500Y-51637831D01*
X196999500Y-75357670D01*
X196994475Y-75392614D01*
X196990070Y-75407612D01*
X196952327Y-75466355D01*
X196950958Y-75467542D01*
X196896097Y-75495018D01*
X196888539Y-75496663D01*
X196862168Y-75499500D01*
X108142330Y-75499500D01*
X108107389Y-75494475D01*
X108092390Y-75490070D01*
X108033644Y-75452327D01*
X108032457Y-75450958D01*
X108004977Y-75396083D01*
X108003332Y-75388521D01*
X108000500Y-75362168D01*
X108000500Y-72905507D01*
X109299500Y-72905507D01*
X109299500Y-73094491D01*
X109324777Y-73254082D01*
X109329059Y-73281118D01*
X109387454Y-73460836D01*
X109473240Y-73629199D01*
X109584310Y-73782073D01*
X109717927Y-73915690D01*
X109786078Y-73965205D01*
X109870796Y-74026757D01*
X109870797Y-74026757D01*
X109870801Y-74026760D01*
X109950347Y-74067290D01*
X110032722Y-74109263D01*
X110034320Y-74110199D01*
X110038037Y-74111999D01*
X110040021Y-74112985D01*
X110043775Y-74114043D01*
X110135497Y-74143846D01*
X110218881Y-74170940D01*
X110405514Y-74200500D01*
X110405519Y-74200500D01*
X110594485Y-74200500D01*
X110594486Y-74200500D01*
X110781118Y-74170940D01*
X110960832Y-74112547D01*
X111129199Y-74026760D01*
X111282073Y-73915690D01*
X111415690Y-73782073D01*
X111526760Y-73629199D01*
X111612547Y-73460832D01*
X111670940Y-73281118D01*
X111678667Y-73232330D01*
X111700500Y-73094486D01*
X111700500Y-72905513D01*
X111670940Y-72718881D01*
X111638889Y-72620240D01*
X111624352Y-72575498D01*
X111624352Y-72575497D01*
X111620099Y-72562412D01*
X111612547Y-72539168D01*
X111612545Y-72539165D01*
X111612545Y-72539163D01*
X111610302Y-72534762D01*
X111609992Y-72533966D01*
X111609260Y-72532716D01*
X111600190Y-72514916D01*
X111541383Y-72399500D01*
X111541383Y-72399499D01*
X111526761Y-72370802D01*
X111454908Y-72271906D01*
X111415690Y-72217927D01*
X111404910Y-72207147D01*
X130424500Y-72207147D01*
X130424500Y-72292853D01*
X130428862Y-72309130D01*
X130432106Y-72321240D01*
X130432107Y-72321242D01*
X130446683Y-72375641D01*
X130446684Y-72375642D01*
X130446685Y-72375644D01*
X130489530Y-72449855D01*
X130489534Y-72449860D01*
X130489535Y-72449862D01*
X130490103Y-72450430D01*
X130550141Y-72510468D01*
X130550823Y-72510960D01*
X130553329Y-72512308D01*
X130599853Y-72539168D01*
X130599855Y-72539169D01*
X130599854Y-72539169D01*
X130619176Y-72550324D01*
X130624362Y-72553318D01*
X130707147Y-72575500D01*
X130707149Y-72575500D01*
X130792851Y-72575500D01*
X130792853Y-72575500D01*
X130875638Y-72553318D01*
X130949862Y-72510465D01*
X131010465Y-72449862D01*
X131053318Y-72375638D01*
X131075500Y-72292853D01*
X131075500Y-72207147D01*
X131053318Y-72124362D01*
X131053314Y-72124355D01*
X131010469Y-72050144D01*
X131010463Y-72050136D01*
X131010459Y-72050132D01*
X131010458Y-72050130D01*
X130949868Y-71989540D01*
X130949866Y-71989539D01*
X130949863Y-71989536D01*
X130949855Y-71989530D01*
X130935457Y-71981217D01*
X130875661Y-71946694D01*
X130875637Y-71946681D01*
X130815034Y-71930443D01*
X130792853Y-71924500D01*
X130792852Y-71924500D01*
X130707147Y-71924500D01*
X130624364Y-71946681D01*
X130624357Y-71946683D01*
X130624356Y-71946684D01*
X130624346Y-71946689D01*
X130550152Y-71989525D01*
X130550148Y-71989527D01*
X130550144Y-71989530D01*
X130550136Y-71989536D01*
X130550132Y-71989539D01*
X130550130Y-71989540D01*
X130489540Y-72050130D01*
X130489539Y-72050132D01*
X130489536Y-72050135D01*
X130489536Y-72050136D01*
X130489530Y-72050144D01*
X130489527Y-72050148D01*
X130489525Y-72050152D01*
X130446689Y-72124346D01*
X130446684Y-72124356D01*
X130446683Y-72124357D01*
X130446682Y-72124362D01*
X130424500Y-72207147D01*
X111404910Y-72207147D01*
X111282073Y-72084310D01*
X111129199Y-71973240D01*
X111113443Y-71965212D01*
X110960836Y-71887454D01*
X110781118Y-71829059D01*
X110781112Y-71829058D01*
X110594491Y-71799500D01*
X110594486Y-71799500D01*
X110594481Y-71799500D01*
X110405519Y-71799500D01*
X110405514Y-71799500D01*
X110405509Y-71799500D01*
X110218886Y-71829058D01*
X110218884Y-71829058D01*
X110218881Y-71829059D01*
X110039163Y-71887454D01*
X109966457Y-71924500D01*
X109870807Y-71973236D01*
X109870794Y-71973244D01*
X109792031Y-72030468D01*
X109792032Y-72030469D01*
X109729798Y-72075685D01*
X109722417Y-72079818D01*
X109579819Y-72222416D01*
X109575688Y-72229793D01*
X109545092Y-72271906D01*
X109518032Y-72309150D01*
X109473240Y-72370799D01*
X109447302Y-72421706D01*
X109387454Y-72539163D01*
X109329059Y-72718881D01*
X109329059Y-72718883D01*
X109329058Y-72718886D01*
X109299500Y-72905507D01*
X108000500Y-72905507D01*
X108000500Y-71207147D01*
X130424500Y-71207147D01*
X130424500Y-71292853D01*
X130442129Y-71358643D01*
X130444511Y-71367534D01*
X130444512Y-71367541D01*
X130446680Y-71375631D01*
X130446682Y-71375637D01*
X130446685Y-71375644D01*
X130489530Y-71449855D01*
X130489534Y-71449860D01*
X130489535Y-71449862D01*
X130490103Y-71450430D01*
X130550137Y-71510464D01*
X130550830Y-71510964D01*
X130553347Y-71512318D01*
X130592276Y-71534794D01*
X130592277Y-71534794D01*
X130624362Y-71553318D01*
X130707147Y-71575500D01*
X130707149Y-71575500D01*
X130792851Y-71575500D01*
X130792853Y-71575500D01*
X130875638Y-71553318D01*
X130949862Y-71510465D01*
X131010465Y-71449862D01*
X131053318Y-71375638D01*
X131075500Y-71292853D01*
X131075500Y-71207147D01*
X131053318Y-71124362D01*
X131047743Y-71114706D01*
X131010469Y-71050144D01*
X131010463Y-71050136D01*
X131010458Y-71050130D01*
X130949868Y-70989540D01*
X130949866Y-70989539D01*
X130949863Y-70989536D01*
X130949855Y-70989530D01*
X130917235Y-70970697D01*
X130875661Y-70946694D01*
X130875637Y-70946681D01*
X130804814Y-70927705D01*
X130792853Y-70924500D01*
X130792852Y-70924500D01*
X130707147Y-70924500D01*
X130624364Y-70946681D01*
X130624357Y-70946683D01*
X130624356Y-70946684D01*
X130624346Y-70946689D01*
X130550152Y-70989525D01*
X130550148Y-70989527D01*
X130550144Y-70989530D01*
X130550136Y-70989536D01*
X130550132Y-70989539D01*
X130550130Y-70989540D01*
X130489540Y-71050130D01*
X130489539Y-71050132D01*
X130489536Y-71050135D01*
X130489536Y-71050136D01*
X130489530Y-71050144D01*
X130489527Y-71050148D01*
X130489525Y-71050152D01*
X130446689Y-71124346D01*
X130446684Y-71124356D01*
X130446683Y-71124357D01*
X130446681Y-71124364D01*
X130432522Y-71177209D01*
X130424500Y-71207147D01*
X108000500Y-71207147D01*
X108000500Y-70197273D01*
X118349500Y-70197273D01*
X118349500Y-70302727D01*
X118371857Y-70386163D01*
X118374209Y-70394941D01*
X118376793Y-70404588D01*
X118376797Y-70404595D01*
X118387644Y-70423382D01*
X118387646Y-70423384D01*
X118387647Y-70423386D01*
X118404546Y-70452656D01*
X118424292Y-70486859D01*
X118429520Y-70495913D01*
X118504087Y-70570480D01*
X118595413Y-70623207D01*
X118697273Y-70650500D01*
X118697275Y-70650500D01*
X118802725Y-70650500D01*
X118802727Y-70650500D01*
X118904587Y-70623207D01*
X118995913Y-70570480D01*
X119070480Y-70495913D01*
X119123207Y-70404587D01*
X119150500Y-70302727D01*
X119150500Y-70197273D01*
X130349500Y-70197273D01*
X130349500Y-70302727D01*
X130371857Y-70386163D01*
X130374209Y-70394941D01*
X130376793Y-70404588D01*
X130376797Y-70404595D01*
X130387644Y-70423382D01*
X130387646Y-70423384D01*
X130387647Y-70423386D01*
X130404546Y-70452656D01*
X130424292Y-70486859D01*
X130429520Y-70495913D01*
X130504087Y-70570480D01*
X130595413Y-70623207D01*
X130697273Y-70650500D01*
X130697275Y-70650500D01*
X130802725Y-70650500D01*
X130802727Y-70650500D01*
X130904587Y-70623207D01*
X130995913Y-70570480D01*
X131070480Y-70495913D01*
X131123207Y-70404587D01*
X131150500Y-70302727D01*
X131150500Y-70197273D01*
X131123207Y-70095413D01*
X131070480Y-70004087D01*
X131023540Y-69957147D01*
X152674500Y-69957147D01*
X152674500Y-70042853D01*
X152688584Y-70095413D01*
X152691149Y-70104989D01*
X152691150Y-70104991D01*
X152696399Y-70124583D01*
X152696682Y-70125637D01*
X152696685Y-70125644D01*
X152739530Y-70199855D01*
X152739534Y-70199860D01*
X152739535Y-70199862D01*
X152740103Y-70200430D01*
X152800137Y-70260464D01*
X152800830Y-70260964D01*
X152803347Y-70262318D01*
X152857834Y-70293776D01*
X152857845Y-70293782D01*
X152874362Y-70303318D01*
X152957147Y-70325500D01*
X152957149Y-70325500D01*
X153042851Y-70325500D01*
X153042853Y-70325500D01*
X153125638Y-70303318D01*
X153199862Y-70260465D01*
X153260465Y-70199862D01*
X153303318Y-70125638D01*
X153319202Y-70066356D01*
X167374500Y-70066356D01*
X167374500Y-70158644D01*
X167383612Y-70192651D01*
X167384547Y-70196143D01*
X167385544Y-70199862D01*
X167398387Y-70247790D01*
X167398388Y-70247793D01*
X167424220Y-70292535D01*
X167425838Y-70295427D01*
X167447602Y-70335596D01*
X167447549Y-70335637D01*
X167457785Y-70354390D01*
X167457866Y-70354540D01*
X167464969Y-70387715D01*
X167472524Y-70422455D01*
X167472394Y-70424273D01*
X167453026Y-70482468D01*
X167433007Y-70513617D01*
X167432769Y-70515722D01*
X167425877Y-70529594D01*
X167398389Y-70577204D01*
X167398388Y-70577205D01*
X167398384Y-70577216D01*
X167374500Y-70666356D01*
X167374500Y-70758643D01*
X167375445Y-70762168D01*
X167398384Y-70847782D01*
X167398387Y-70847790D01*
X167398388Y-70847793D01*
X167424220Y-70892535D01*
X167425838Y-70895427D01*
X167447602Y-70935596D01*
X167447549Y-70935637D01*
X167457785Y-70954390D01*
X167457866Y-70954540D01*
X167464920Y-70987486D01*
X167472524Y-71022455D01*
X167472394Y-71024273D01*
X167453026Y-71082468D01*
X167433007Y-71113617D01*
X167432769Y-71115722D01*
X167425877Y-71129594D01*
X167400006Y-71174402D01*
X167400004Y-71174406D01*
X167398388Y-71177206D01*
X167398387Y-71177209D01*
X167398386Y-71177211D01*
X167398386Y-71177212D01*
X167396580Y-71183951D01*
X167396575Y-71183966D01*
X167385715Y-71224500D01*
X167374500Y-71266356D01*
X167374500Y-71358644D01*
X167383752Y-71393175D01*
X167385446Y-71399497D01*
X167392281Y-71425006D01*
X167398386Y-71447788D01*
X167398389Y-71447796D01*
X167434860Y-71510964D01*
X167444526Y-71527705D01*
X167444529Y-71527709D01*
X167444531Y-71527712D01*
X167509788Y-71592969D01*
X167509791Y-71592970D01*
X167509794Y-71592973D01*
X167516020Y-71596567D01*
X167516684Y-71597230D01*
X167518036Y-71598066D01*
X167520651Y-71599241D01*
X167589706Y-71639111D01*
X167589707Y-71639111D01*
X167589712Y-71639114D01*
X167678856Y-71663000D01*
X167678858Y-71663000D01*
X167771142Y-71663000D01*
X167771144Y-71663000D01*
X167860288Y-71639114D01*
X167905081Y-71613252D01*
X167907934Y-71611657D01*
X167948096Y-71589897D01*
X167948139Y-71589953D01*
X167966784Y-71579772D01*
X167967043Y-71579632D01*
X168000343Y-71572502D01*
X168034946Y-71564973D01*
X168036756Y-71565102D01*
X168094957Y-71584470D01*
X168102397Y-71589252D01*
X168126105Y-71604488D01*
X168128231Y-71604730D01*
X168142071Y-71611608D01*
X168188882Y-71638635D01*
X168189682Y-71639106D01*
X168189712Y-71639114D01*
X168278856Y-71663000D01*
X168278858Y-71663000D01*
X168371142Y-71663000D01*
X168371144Y-71663000D01*
X168460288Y-71639114D01*
X168540212Y-71592969D01*
X168605469Y-71527712D01*
X168651614Y-71447788D01*
X168675500Y-71358644D01*
X168675500Y-71266356D01*
X168651614Y-71177212D01*
X168649176Y-71172989D01*
X168625780Y-71132467D01*
X168624152Y-71129556D01*
X168602396Y-71089402D01*
X168602453Y-71089360D01*
X168592228Y-71070634D01*
X168592132Y-71070457D01*
X168585066Y-71037455D01*
X168577472Y-71002563D01*
X168577602Y-71000748D01*
X168596970Y-70942542D01*
X168601752Y-70935102D01*
X168601751Y-70935101D01*
X168616986Y-70911395D01*
X168617226Y-70909284D01*
X168624116Y-70895415D01*
X168651614Y-70847788D01*
X168675500Y-70758644D01*
X168675500Y-70666356D01*
X168661266Y-70613237D01*
X168657077Y-70578196D01*
X168657407Y-70564324D01*
X168678681Y-70497773D01*
X168732535Y-70453297D01*
X168734033Y-70452655D01*
X168791713Y-70442950D01*
X168796713Y-70443308D01*
X168819948Y-70447215D01*
X168878856Y-70463000D01*
X168878859Y-70463000D01*
X168971142Y-70463000D01*
X168971144Y-70463000D01*
X169060288Y-70439114D01*
X169140212Y-70392969D01*
X169205469Y-70327712D01*
X169251614Y-70247788D01*
X169275500Y-70158644D01*
X169275500Y-70066356D01*
X175274500Y-70066356D01*
X175274500Y-70158644D01*
X175283612Y-70192651D01*
X175284547Y-70196143D01*
X175285544Y-70199862D01*
X175298387Y-70247790D01*
X175298388Y-70247793D01*
X175324220Y-70292535D01*
X175325838Y-70295427D01*
X175347602Y-70335596D01*
X175347549Y-70335637D01*
X175357785Y-70354390D01*
X175357866Y-70354540D01*
X175364969Y-70387715D01*
X175372524Y-70422455D01*
X175372394Y-70424273D01*
X175353026Y-70482468D01*
X175333007Y-70513617D01*
X175332769Y-70515722D01*
X175325877Y-70529594D01*
X175298389Y-70577204D01*
X175298388Y-70577205D01*
X175298384Y-70577216D01*
X175274500Y-70666356D01*
X175274500Y-70758643D01*
X175275445Y-70762168D01*
X175298384Y-70847782D01*
X175298387Y-70847790D01*
X175298388Y-70847793D01*
X175324220Y-70892535D01*
X175325838Y-70895427D01*
X175347602Y-70935596D01*
X175347549Y-70935637D01*
X175357785Y-70954390D01*
X175357866Y-70954540D01*
X175364920Y-70987486D01*
X175372524Y-71022455D01*
X175372394Y-71024273D01*
X175353026Y-71082468D01*
X175333007Y-71113617D01*
X175332769Y-71115722D01*
X175325877Y-71129594D01*
X175300006Y-71174402D01*
X175300004Y-71174406D01*
X175298388Y-71177206D01*
X175298387Y-71177209D01*
X175298386Y-71177211D01*
X175298386Y-71177212D01*
X175296580Y-71183951D01*
X175296575Y-71183966D01*
X175285715Y-71224500D01*
X175274500Y-71266356D01*
X175274500Y-71358644D01*
X175283752Y-71393175D01*
X175285446Y-71399497D01*
X175292281Y-71425006D01*
X175298386Y-71447788D01*
X175298389Y-71447796D01*
X175334860Y-71510964D01*
X175344526Y-71527705D01*
X175344529Y-71527709D01*
X175344531Y-71527712D01*
X175409788Y-71592969D01*
X175409791Y-71592970D01*
X175409794Y-71592973D01*
X175416020Y-71596567D01*
X175416684Y-71597230D01*
X175418036Y-71598066D01*
X175420651Y-71599241D01*
X175489706Y-71639111D01*
X175489707Y-71639111D01*
X175489712Y-71639114D01*
X175578856Y-71663000D01*
X175578858Y-71663000D01*
X175671142Y-71663000D01*
X175671144Y-71663000D01*
X175760288Y-71639114D01*
X175805081Y-71613252D01*
X175807934Y-71611657D01*
X175848096Y-71589897D01*
X175848139Y-71589953D01*
X175866784Y-71579772D01*
X175867043Y-71579632D01*
X175900343Y-71572502D01*
X175934946Y-71564973D01*
X175936756Y-71565102D01*
X175994957Y-71584470D01*
X176002397Y-71589252D01*
X176026105Y-71604488D01*
X176028231Y-71604730D01*
X176042071Y-71611608D01*
X176088882Y-71638635D01*
X176089682Y-71639106D01*
X176089712Y-71639114D01*
X176178856Y-71663000D01*
X176178858Y-71663000D01*
X176271142Y-71663000D01*
X176271144Y-71663000D01*
X176360288Y-71639114D01*
X176440212Y-71592969D01*
X176505469Y-71527712D01*
X176551614Y-71447788D01*
X176569684Y-71380348D01*
X178294500Y-71380348D01*
X178294500Y-71619650D01*
X178294503Y-71619674D01*
X178325732Y-71856889D01*
X178325733Y-71856892D01*
X178325734Y-71856900D01*
X178361275Y-71989540D01*
X178387668Y-72088043D01*
X178463827Y-72271907D01*
X178479243Y-72309123D01*
X178479251Y-72309140D01*
X178479256Y-72309150D01*
X178571852Y-72469531D01*
X178595770Y-72510960D01*
X178597028Y-72513138D01*
X178597985Y-72514916D01*
X178598886Y-72516357D01*
X178598891Y-72516365D01*
X178598892Y-72516367D01*
X178744569Y-72706216D01*
X178744575Y-72706223D01*
X178913776Y-72875424D01*
X178913783Y-72875430D01*
X179103632Y-73021107D01*
X179103634Y-73021108D01*
X179103649Y-73021116D01*
X179105081Y-73022013D01*
X179106847Y-73022963D01*
X179230730Y-73094486D01*
X179309002Y-73139676D01*
X179310563Y-73140613D01*
X179310845Y-73140739D01*
X179310859Y-73140748D01*
X179310862Y-73140749D01*
X179310870Y-73140754D01*
X179310948Y-73140786D01*
X179312598Y-73141529D01*
X179312599Y-73141530D01*
X179312608Y-73141534D01*
X179313049Y-73141732D01*
X179314892Y-73142420D01*
X179531953Y-73232330D01*
X179763098Y-73294265D01*
X180000350Y-73325500D01*
X180000357Y-73325500D01*
X180239643Y-73325500D01*
X180239650Y-73325500D01*
X180476902Y-73294265D01*
X180708047Y-73232330D01*
X180929130Y-73140754D01*
X181136370Y-73021105D01*
X181326218Y-72875429D01*
X181495429Y-72706218D01*
X181497241Y-72703856D01*
X182399500Y-72703856D01*
X182399500Y-72796144D01*
X182400858Y-72801213D01*
X182400858Y-72801215D01*
X182420741Y-72875421D01*
X182420742Y-72875421D01*
X182420744Y-72875429D01*
X182423387Y-72885290D01*
X182423388Y-72885293D01*
X182469526Y-72965205D01*
X182469529Y-72965209D01*
X182469531Y-72965212D01*
X182534788Y-73030469D01*
X182534791Y-73030470D01*
X182534794Y-73030473D01*
X182541020Y-73034067D01*
X182541684Y-73034730D01*
X182543036Y-73035566D01*
X182545651Y-73036741D01*
X182614706Y-73076611D01*
X182614707Y-73076611D01*
X182614712Y-73076614D01*
X182703856Y-73100500D01*
X182703858Y-73100500D01*
X182757670Y-73100500D01*
X182792606Y-73105523D01*
X182807604Y-73109927D01*
X182866355Y-73147672D01*
X182867542Y-73149041D01*
X182895018Y-73203902D01*
X182896663Y-73211460D01*
X182899500Y-73237831D01*
X182899500Y-73257670D01*
X182894475Y-73292614D01*
X182890070Y-73307612D01*
X182852327Y-73366355D01*
X182850958Y-73367542D01*
X182796097Y-73395018D01*
X182788539Y-73396663D01*
X182762168Y-73399500D01*
X182703856Y-73399500D01*
X182621466Y-73421575D01*
X182621451Y-73421580D01*
X182614712Y-73423386D01*
X182614711Y-73423386D01*
X182614709Y-73423387D01*
X182614706Y-73423388D01*
X182611906Y-73425004D01*
X182611902Y-73425006D01*
X182534804Y-73469519D01*
X182534786Y-73469531D01*
X182469531Y-73534786D01*
X182469519Y-73534804D01*
X182425006Y-73611902D01*
X182425004Y-73611906D01*
X182423388Y-73614706D01*
X182423387Y-73614709D01*
X182423386Y-73614711D01*
X182423386Y-73614712D01*
X182421580Y-73621451D01*
X182421575Y-73621466D01*
X182399500Y-73703856D01*
X182399500Y-73796145D01*
X182420146Y-73873200D01*
X182420147Y-73873200D01*
X182420148Y-73873205D01*
X182423387Y-73885290D01*
X182423388Y-73885293D01*
X182469526Y-73965205D01*
X182469529Y-73965209D01*
X182469531Y-73965212D01*
X182534788Y-74030469D01*
X182534791Y-74030470D01*
X182534794Y-74030473D01*
X182541020Y-74034067D01*
X182541684Y-74034730D01*
X182543036Y-74035566D01*
X182545651Y-74036741D01*
X182614706Y-74076611D01*
X182614707Y-74076611D01*
X182614712Y-74076614D01*
X182703856Y-74100500D01*
X182703858Y-74100500D01*
X182757670Y-74100500D01*
X182792606Y-74105523D01*
X182807604Y-74109927D01*
X182866355Y-74147672D01*
X182867542Y-74149041D01*
X182895018Y-74203902D01*
X182896663Y-74211460D01*
X182899500Y-74237831D01*
X182899500Y-74257670D01*
X182894475Y-74292614D01*
X182890070Y-74307612D01*
X182852327Y-74366355D01*
X182850958Y-74367542D01*
X182796097Y-74395018D01*
X182788539Y-74396663D01*
X182762168Y-74399500D01*
X182703856Y-74399500D01*
X182621466Y-74421575D01*
X182621451Y-74421580D01*
X182614712Y-74423386D01*
X182614711Y-74423386D01*
X182614709Y-74423387D01*
X182614706Y-74423388D01*
X182611906Y-74425004D01*
X182611902Y-74425006D01*
X182534804Y-74469519D01*
X182534786Y-74469531D01*
X182469531Y-74534786D01*
X182469519Y-74534804D01*
X182425006Y-74611902D01*
X182425004Y-74611906D01*
X182423388Y-74614706D01*
X182423387Y-74614709D01*
X182423386Y-74614711D01*
X182423386Y-74614712D01*
X182421579Y-74621455D01*
X182421575Y-74621467D01*
X182407771Y-74672988D01*
X182407771Y-74672989D01*
X182399500Y-74703856D01*
X182399500Y-74796143D01*
X182405191Y-74817385D01*
X182423384Y-74885282D01*
X182423386Y-74885288D01*
X182423387Y-74885290D01*
X182423388Y-74885293D01*
X182469526Y-74965205D01*
X182469529Y-74965209D01*
X182469531Y-74965212D01*
X182534788Y-75030469D01*
X182534791Y-75030470D01*
X182534794Y-75030473D01*
X182541020Y-75034067D01*
X182541684Y-75034730D01*
X182543036Y-75035566D01*
X182545651Y-75036741D01*
X182614706Y-75076611D01*
X182614707Y-75076611D01*
X182614712Y-75076614D01*
X182703856Y-75100500D01*
X182703858Y-75100500D01*
X182796142Y-75100500D01*
X182796144Y-75100500D01*
X182885288Y-75076614D01*
X182965212Y-75030469D01*
X183030469Y-74965212D01*
X183076614Y-74885288D01*
X183100500Y-74796144D01*
X183100500Y-74742329D01*
X183105523Y-74707393D01*
X183109927Y-74692395D01*
X183147672Y-74633644D01*
X183149041Y-74632457D01*
X183203920Y-74604977D01*
X183211479Y-74603333D01*
X183237832Y-74600500D01*
X183257670Y-74600500D01*
X183292606Y-74605523D01*
X183307604Y-74609927D01*
X183366355Y-74647672D01*
X183367542Y-74649041D01*
X183395018Y-74703902D01*
X183396663Y-74711460D01*
X183399500Y-74737831D01*
X183399500Y-74796143D01*
X183405191Y-74817385D01*
X183423384Y-74885282D01*
X183423386Y-74885288D01*
X183423387Y-74885290D01*
X183423388Y-74885293D01*
X183469526Y-74965205D01*
X183469529Y-74965209D01*
X183469531Y-74965212D01*
X183534788Y-75030469D01*
X183534791Y-75030470D01*
X183534794Y-75030473D01*
X183541020Y-75034067D01*
X183541684Y-75034730D01*
X183543036Y-75035566D01*
X183545651Y-75036741D01*
X183614706Y-75076611D01*
X183614707Y-75076611D01*
X183614712Y-75076614D01*
X183703856Y-75100500D01*
X183703858Y-75100500D01*
X183796142Y-75100500D01*
X183796144Y-75100500D01*
X183885288Y-75076614D01*
X183965212Y-75030469D01*
X184030469Y-74965212D01*
X184076614Y-74885288D01*
X184100500Y-74796144D01*
X184100500Y-74703856D01*
X184076614Y-74614712D01*
X184076612Y-74614709D01*
X184068409Y-74600500D01*
X184030473Y-74534794D01*
X184030472Y-74534793D01*
X184030470Y-74534789D01*
X183966378Y-74470697D01*
X183965212Y-74469531D01*
X183965209Y-74469529D01*
X183965205Y-74469526D01*
X183899190Y-74431411D01*
X183898835Y-74431204D01*
X183898460Y-74430806D01*
X183892895Y-74426536D01*
X183886999Y-74424094D01*
X183883596Y-74422624D01*
X183883126Y-74422412D01*
X183881234Y-74421706D01*
X183877684Y-74420235D01*
X183869520Y-74419161D01*
X183796144Y-74399500D01*
X183796143Y-74399500D01*
X183742330Y-74399500D01*
X183707389Y-74394475D01*
X183692390Y-74390070D01*
X183633644Y-74352327D01*
X183632457Y-74350958D01*
X183604977Y-74296083D01*
X183603332Y-74288521D01*
X183600500Y-74262168D01*
X183600500Y-74242329D01*
X183605523Y-74207393D01*
X183609927Y-74192395D01*
X183647672Y-74133644D01*
X183649041Y-74132457D01*
X183703920Y-74104977D01*
X183711479Y-74103333D01*
X183737832Y-74100500D01*
X183796142Y-74100500D01*
X183796144Y-74100500D01*
X183885288Y-74076614D01*
X183965212Y-74030469D01*
X184030469Y-73965212D01*
X184076614Y-73885288D01*
X184100500Y-73796144D01*
X184100500Y-73703856D01*
X184076614Y-73614712D01*
X184054619Y-73576616D01*
X184054618Y-73576614D01*
X184030473Y-73534794D01*
X184030471Y-73534792D01*
X184030469Y-73534788D01*
X184022512Y-73526831D01*
X183965212Y-73469531D01*
X183965209Y-73469529D01*
X183965205Y-73469526D01*
X183926663Y-73447273D01*
X187349500Y-73447273D01*
X187349500Y-73552727D01*
X187376793Y-73654587D01*
X187429520Y-73745913D01*
X187504087Y-73820480D01*
X187595413Y-73873207D01*
X187697273Y-73900500D01*
X187697275Y-73900500D01*
X187802725Y-73900500D01*
X187802727Y-73900500D01*
X187904587Y-73873207D01*
X187995913Y-73820480D01*
X188070480Y-73745913D01*
X188123207Y-73654587D01*
X188150500Y-73552727D01*
X188150500Y-73447273D01*
X188123207Y-73345413D01*
X188070480Y-73254087D01*
X187995913Y-73179520D01*
X187916453Y-73133644D01*
X187904589Y-73126794D01*
X187904588Y-73126793D01*
X187904587Y-73126793D01*
X187802727Y-73099500D01*
X187802726Y-73099500D01*
X187697273Y-73099500D01*
X187595413Y-73126792D01*
X187595408Y-73126795D01*
X187504088Y-73179518D01*
X187504082Y-73179523D01*
X187429523Y-73254082D01*
X187429518Y-73254088D01*
X187376795Y-73345408D01*
X187376792Y-73345413D01*
X187349500Y-73447273D01*
X183926663Y-73447273D01*
X183899190Y-73431411D01*
X183898835Y-73431204D01*
X183898460Y-73430806D01*
X183892895Y-73426536D01*
X183886999Y-73424094D01*
X183883596Y-73422624D01*
X183883126Y-73422412D01*
X183881234Y-73421706D01*
X183877684Y-73420235D01*
X183869520Y-73419161D01*
X183796144Y-73399500D01*
X183796143Y-73399500D01*
X183742330Y-73399500D01*
X183707389Y-73394475D01*
X183692390Y-73390070D01*
X183633644Y-73352327D01*
X183632457Y-73350958D01*
X183604977Y-73296083D01*
X183603332Y-73288521D01*
X183600500Y-73262168D01*
X183600500Y-73242329D01*
X183605523Y-73207393D01*
X183609927Y-73192395D01*
X183647672Y-73133644D01*
X183649041Y-73132457D01*
X183703920Y-73104977D01*
X183711479Y-73103333D01*
X183737832Y-73100500D01*
X183796142Y-73100500D01*
X183796144Y-73100500D01*
X183885288Y-73076614D01*
X183965212Y-73030469D01*
X184030469Y-72965212D01*
X184064940Y-72905507D01*
X193299500Y-72905507D01*
X193299500Y-73094491D01*
X193324777Y-73254082D01*
X193329059Y-73281118D01*
X193387454Y-73460836D01*
X193473240Y-73629199D01*
X193584310Y-73782073D01*
X193717927Y-73915690D01*
X193786078Y-73965205D01*
X193870796Y-74026757D01*
X193870797Y-74026757D01*
X193870801Y-74026760D01*
X193950347Y-74067290D01*
X194032722Y-74109263D01*
X194034320Y-74110199D01*
X194038037Y-74111999D01*
X194040021Y-74112985D01*
X194043775Y-74114043D01*
X194135497Y-74143846D01*
X194218881Y-74170940D01*
X194405514Y-74200500D01*
X194405519Y-74200500D01*
X194594485Y-74200500D01*
X194594486Y-74200500D01*
X194781118Y-74170940D01*
X194960832Y-74112547D01*
X195129199Y-74026760D01*
X195282073Y-73915690D01*
X195415690Y-73782073D01*
X195526760Y-73629199D01*
X195612547Y-73460832D01*
X195670940Y-73281118D01*
X195678667Y-73232330D01*
X195700500Y-73094486D01*
X195700500Y-72905513D01*
X195670940Y-72718881D01*
X195638889Y-72620240D01*
X195624352Y-72575498D01*
X195624352Y-72575497D01*
X195620099Y-72562412D01*
X195612547Y-72539168D01*
X195612545Y-72539165D01*
X195612545Y-72539163D01*
X195610302Y-72534762D01*
X195609992Y-72533966D01*
X195609260Y-72532716D01*
X195600190Y-72514916D01*
X195541383Y-72399500D01*
X195541383Y-72399499D01*
X195526761Y-72370803D01*
X195526760Y-72370801D01*
X195415690Y-72217927D01*
X195282073Y-72084310D01*
X195129199Y-71973240D01*
X195113443Y-71965212D01*
X194960836Y-71887454D01*
X194781118Y-71829059D01*
X194781112Y-71829058D01*
X194594491Y-71799500D01*
X194594486Y-71799500D01*
X194594481Y-71799500D01*
X194405519Y-71799500D01*
X194405514Y-71799500D01*
X194405509Y-71799500D01*
X194218886Y-71829058D01*
X194218884Y-71829058D01*
X194218881Y-71829059D01*
X194039163Y-71887454D01*
X193966457Y-71924500D01*
X193870807Y-71973236D01*
X193870794Y-71973244D01*
X193792031Y-72030468D01*
X193792032Y-72030469D01*
X193729798Y-72075685D01*
X193722417Y-72079818D01*
X193579819Y-72222416D01*
X193575688Y-72229793D01*
X193545092Y-72271906D01*
X193518032Y-72309150D01*
X193473240Y-72370799D01*
X193447302Y-72421706D01*
X193387454Y-72539163D01*
X193329059Y-72718881D01*
X193329059Y-72718883D01*
X193329058Y-72718886D01*
X193299500Y-72905507D01*
X184064940Y-72905507D01*
X184076614Y-72885288D01*
X184100500Y-72796144D01*
X184100500Y-72703856D01*
X184076614Y-72614712D01*
X184076609Y-72614704D01*
X184053974Y-72575499D01*
X184053973Y-72575498D01*
X184036744Y-72545657D01*
X184035565Y-72543033D01*
X184031449Y-72536374D01*
X184030550Y-72534870D01*
X184030469Y-72534789D01*
X184030469Y-72534788D01*
X183965212Y-72469531D01*
X183965209Y-72469529D01*
X183965205Y-72469526D01*
X183899190Y-72431411D01*
X183898835Y-72431204D01*
X183898460Y-72430806D01*
X183892895Y-72426536D01*
X183886999Y-72424094D01*
X183883596Y-72422624D01*
X183883126Y-72422412D01*
X183881234Y-72421706D01*
X183877684Y-72420235D01*
X183869520Y-72419161D01*
X183796144Y-72399500D01*
X183796143Y-72399500D01*
X183703856Y-72399500D01*
X183621466Y-72421575D01*
X183621451Y-72421580D01*
X183614712Y-72423386D01*
X183614711Y-72423386D01*
X183614709Y-72423387D01*
X183614706Y-72423388D01*
X183611906Y-72425004D01*
X183611902Y-72425006D01*
X183534804Y-72469519D01*
X183534786Y-72469531D01*
X183469531Y-72534786D01*
X183469519Y-72534804D01*
X183423389Y-72614704D01*
X183423388Y-72614705D01*
X183423384Y-72614716D01*
X183399500Y-72703856D01*
X183399500Y-72757670D01*
X183394475Y-72792614D01*
X183390070Y-72807612D01*
X183352327Y-72866355D01*
X183350958Y-72867542D01*
X183296097Y-72895018D01*
X183288539Y-72896663D01*
X183262168Y-72899500D01*
X183242330Y-72899500D01*
X183207389Y-72894475D01*
X183192390Y-72890070D01*
X183133644Y-72852327D01*
X183132457Y-72850958D01*
X183104977Y-72796083D01*
X183103332Y-72788521D01*
X183100500Y-72762168D01*
X183100500Y-72703858D01*
X183100500Y-72703856D01*
X183076614Y-72614712D01*
X183076609Y-72614704D01*
X183053974Y-72575499D01*
X183053973Y-72575498D01*
X183036744Y-72545657D01*
X183035565Y-72543033D01*
X183031449Y-72536374D01*
X183030550Y-72534870D01*
X183030469Y-72534789D01*
X183030469Y-72534788D01*
X182965212Y-72469531D01*
X182965209Y-72469529D01*
X182965205Y-72469526D01*
X182899190Y-72431411D01*
X182898835Y-72431204D01*
X182898460Y-72430806D01*
X182892895Y-72426536D01*
X182886999Y-72424094D01*
X182883596Y-72422624D01*
X182883126Y-72422412D01*
X182881234Y-72421706D01*
X182877684Y-72420235D01*
X182869520Y-72419161D01*
X182796144Y-72399500D01*
X182796143Y-72399500D01*
X182703856Y-72399500D01*
X182621466Y-72421575D01*
X182621451Y-72421580D01*
X182614712Y-72423386D01*
X182614711Y-72423386D01*
X182614709Y-72423387D01*
X182614706Y-72423388D01*
X182611906Y-72425004D01*
X182611902Y-72425006D01*
X182534804Y-72469519D01*
X182534786Y-72469531D01*
X182469531Y-72534786D01*
X182469519Y-72534804D01*
X182424549Y-72612694D01*
X182424548Y-72612695D01*
X182423388Y-72614706D01*
X182423387Y-72614709D01*
X182423386Y-72614711D01*
X182423386Y-72614712D01*
X182399500Y-72703856D01*
X181497241Y-72703856D01*
X181641105Y-72516370D01*
X181641108Y-72516365D01*
X181760752Y-72309134D01*
X181760752Y-72309132D01*
X181760754Y-72309130D01*
X181852330Y-72088047D01*
X181914265Y-71856902D01*
X181945500Y-71619650D01*
X181945500Y-71380350D01*
X181914265Y-71143098D01*
X181852330Y-70911953D01*
X181851224Y-70909284D01*
X181817146Y-70827011D01*
X181795810Y-70775500D01*
X181782423Y-70743181D01*
X181766134Y-70703856D01*
X182399500Y-70703856D01*
X182399500Y-70796145D01*
X182413337Y-70847789D01*
X182413338Y-70847789D01*
X182413339Y-70847793D01*
X182423387Y-70885290D01*
X182423388Y-70885293D01*
X182438781Y-70911954D01*
X182458835Y-70946689D01*
X182469526Y-70965205D01*
X182469529Y-70965209D01*
X182469531Y-70965212D01*
X182534788Y-71030469D01*
X182534791Y-71030470D01*
X182534794Y-71030473D01*
X182541020Y-71034067D01*
X182541684Y-71034730D01*
X182543036Y-71035566D01*
X182545651Y-71036741D01*
X182614706Y-71076611D01*
X182614707Y-71076611D01*
X182614712Y-71076614D01*
X182703856Y-71100500D01*
X182703858Y-71100500D01*
X182757670Y-71100500D01*
X182792606Y-71105523D01*
X182807604Y-71109927D01*
X182866355Y-71147672D01*
X182867542Y-71149041D01*
X182895018Y-71203902D01*
X182896663Y-71211460D01*
X182899500Y-71237831D01*
X182899500Y-71257670D01*
X182894475Y-71292612D01*
X182893438Y-71296144D01*
X182890070Y-71307612D01*
X182852327Y-71366355D01*
X182850958Y-71367542D01*
X182796097Y-71395018D01*
X182788539Y-71396663D01*
X182762168Y-71399500D01*
X182703856Y-71399500D01*
X182621466Y-71421575D01*
X182621451Y-71421580D01*
X182614712Y-71423386D01*
X182614711Y-71423386D01*
X182614709Y-71423387D01*
X182614706Y-71423388D01*
X182611906Y-71425004D01*
X182611902Y-71425006D01*
X182534804Y-71469519D01*
X182534786Y-71469531D01*
X182469531Y-71534786D01*
X182469519Y-71534804D01*
X182425006Y-71611902D01*
X182425004Y-71611906D01*
X182423388Y-71614706D01*
X182423387Y-71614709D01*
X182423386Y-71614711D01*
X182423386Y-71614712D01*
X182421580Y-71621451D01*
X182421575Y-71621466D01*
X182399500Y-71703856D01*
X182399500Y-71796145D01*
X182415779Y-71856900D01*
X182423380Y-71885267D01*
X182423385Y-71885284D01*
X182423386Y-71885288D01*
X182423388Y-71885293D01*
X182423389Y-71885294D01*
X182458835Y-71946689D01*
X182469526Y-71965205D01*
X182469529Y-71965209D01*
X182469531Y-71965212D01*
X182534788Y-72030469D01*
X182534791Y-72030470D01*
X182534794Y-72030473D01*
X182541020Y-72034067D01*
X182541684Y-72034730D01*
X182543036Y-72035566D01*
X182545651Y-72036741D01*
X182614706Y-72076611D01*
X182614707Y-72076611D01*
X182614712Y-72076614D01*
X182703856Y-72100500D01*
X182703858Y-72100500D01*
X182796142Y-72100500D01*
X182796144Y-72100500D01*
X182885288Y-72076614D01*
X182965212Y-72030469D01*
X183030469Y-71965212D01*
X183076614Y-71885288D01*
X183100500Y-71796144D01*
X183100500Y-71742329D01*
X183105523Y-71707393D01*
X183109927Y-71692395D01*
X183147672Y-71633644D01*
X183149041Y-71632457D01*
X183203920Y-71604977D01*
X183211479Y-71603333D01*
X183237832Y-71600500D01*
X183296142Y-71600500D01*
X183296144Y-71600500D01*
X183385288Y-71576614D01*
X183465212Y-71530469D01*
X183530469Y-71465212D01*
X183576614Y-71385288D01*
X183600500Y-71296144D01*
X183600500Y-71203856D01*
X183576614Y-71114712D01*
X183566558Y-71097294D01*
X183530473Y-71034794D01*
X183530470Y-71034791D01*
X183530469Y-71034788D01*
X183465212Y-70969531D01*
X183465209Y-70969529D01*
X183465205Y-70969526D01*
X183399190Y-70931411D01*
X183398835Y-70931204D01*
X183398460Y-70930806D01*
X183392895Y-70926536D01*
X183386999Y-70924094D01*
X183383596Y-70922624D01*
X183383126Y-70922412D01*
X183381234Y-70921706D01*
X183377684Y-70920235D01*
X183369520Y-70919161D01*
X183296144Y-70899500D01*
X183296143Y-70899500D01*
X183242330Y-70899500D01*
X183207389Y-70894475D01*
X183192390Y-70890070D01*
X183133644Y-70852327D01*
X183132457Y-70850958D01*
X183104977Y-70796083D01*
X183103332Y-70788521D01*
X183100500Y-70762168D01*
X183100500Y-70703858D01*
X183100500Y-70703856D01*
X183076614Y-70614712D01*
X183076612Y-70614709D01*
X183065821Y-70596018D01*
X183030473Y-70534794D01*
X183030472Y-70534793D01*
X183030470Y-70534789D01*
X182966378Y-70470697D01*
X182965212Y-70469531D01*
X182965209Y-70469529D01*
X182965205Y-70469526D01*
X182899190Y-70431411D01*
X182898835Y-70431204D01*
X182898460Y-70430806D01*
X182892895Y-70426536D01*
X182886999Y-70424094D01*
X182883596Y-70422624D01*
X182883126Y-70422412D01*
X182881234Y-70421706D01*
X182877684Y-70420235D01*
X182869520Y-70419161D01*
X182796144Y-70399500D01*
X182796143Y-70399500D01*
X182703856Y-70399500D01*
X182621466Y-70421575D01*
X182621451Y-70421580D01*
X182614712Y-70423386D01*
X182614711Y-70423386D01*
X182614709Y-70423387D01*
X182614706Y-70423388D01*
X182611906Y-70425004D01*
X182611902Y-70425006D01*
X182534804Y-70469519D01*
X182534786Y-70469531D01*
X182469531Y-70534786D01*
X182469519Y-70534804D01*
X182425006Y-70611902D01*
X182425004Y-70611906D01*
X182423388Y-70614706D01*
X182423387Y-70614709D01*
X182423386Y-70614711D01*
X182423386Y-70614712D01*
X182421580Y-70621451D01*
X182421575Y-70621466D01*
X182399500Y-70703856D01*
X181766134Y-70703856D01*
X181760757Y-70690876D01*
X181760748Y-70690859D01*
X181642963Y-70486847D01*
X181642013Y-70485081D01*
X181641116Y-70483649D01*
X181641108Y-70483634D01*
X181641107Y-70483632D01*
X181495430Y-70293783D01*
X181495424Y-70293776D01*
X181326223Y-70124575D01*
X181326216Y-70124569D01*
X181136367Y-69978892D01*
X181136365Y-69978891D01*
X181136357Y-69978886D01*
X181134947Y-69978004D01*
X181133237Y-69977085D01*
X181133138Y-69977028D01*
X180929140Y-69859251D01*
X180929132Y-69859247D01*
X180929130Y-69859246D01*
X180870714Y-69835049D01*
X180870713Y-69835048D01*
X180708043Y-69767668D01*
X180592472Y-69736701D01*
X180476900Y-69705734D01*
X180476894Y-69705733D01*
X180476889Y-69705732D01*
X180241528Y-69674747D01*
X180239847Y-69674500D01*
X180239656Y-69674500D01*
X180239650Y-69674500D01*
X180000350Y-69674500D01*
X180000344Y-69674500D01*
X180000342Y-69674500D01*
X179994222Y-69675253D01*
X179993316Y-69675425D01*
X179763109Y-69705732D01*
X179763102Y-69705733D01*
X179763099Y-69705734D01*
X179732448Y-69713947D01*
X179531955Y-69767668D01*
X179310892Y-69859236D01*
X179310883Y-69859239D01*
X179310876Y-69859243D01*
X179310859Y-69859251D01*
X179310842Y-69859259D01*
X179106859Y-69977028D01*
X179105090Y-69977980D01*
X179103634Y-69978891D01*
X179103632Y-69978892D01*
X178939298Y-70104991D01*
X178913782Y-70124570D01*
X178913775Y-70124576D01*
X178913767Y-70124583D01*
X178744583Y-70293767D01*
X178744576Y-70293775D01*
X178744575Y-70293776D01*
X178744569Y-70293783D01*
X178630109Y-70442950D01*
X178598892Y-70483632D01*
X178597980Y-70485090D01*
X178597028Y-70486859D01*
X178479259Y-70690842D01*
X178479237Y-70690889D01*
X178387668Y-70911955D01*
X178341980Y-71082468D01*
X178325735Y-71143098D01*
X178325732Y-71143109D01*
X178294503Y-71380324D01*
X178294500Y-71380348D01*
X176569684Y-71380348D01*
X176575500Y-71358644D01*
X176575500Y-71266356D01*
X176551614Y-71177212D01*
X176549176Y-71172989D01*
X176525780Y-71132467D01*
X176524152Y-71129556D01*
X176502396Y-71089402D01*
X176502453Y-71089360D01*
X176492228Y-71070634D01*
X176492132Y-71070457D01*
X176485066Y-71037455D01*
X176477472Y-71002563D01*
X176477602Y-71000748D01*
X176496970Y-70942542D01*
X176501752Y-70935102D01*
X176501751Y-70935101D01*
X176516986Y-70911395D01*
X176517226Y-70909284D01*
X176524116Y-70895415D01*
X176551614Y-70847788D01*
X176575500Y-70758644D01*
X176575500Y-70666356D01*
X176561266Y-70613237D01*
X176557077Y-70578196D01*
X176557407Y-70564324D01*
X176578681Y-70497773D01*
X176632535Y-70453297D01*
X176634033Y-70452655D01*
X176691713Y-70442950D01*
X176696713Y-70443308D01*
X176719948Y-70447215D01*
X176778856Y-70463000D01*
X176778859Y-70463000D01*
X176871142Y-70463000D01*
X176871144Y-70463000D01*
X176960288Y-70439114D01*
X177040212Y-70392969D01*
X177105469Y-70327712D01*
X177151614Y-70247788D01*
X177175500Y-70158644D01*
X177175500Y-70066356D01*
X177151614Y-69977212D01*
X177151612Y-69977209D01*
X177137716Y-69953140D01*
X177105473Y-69897294D01*
X177105472Y-69897293D01*
X177105470Y-69897289D01*
X177041378Y-69833197D01*
X177040212Y-69832031D01*
X177040209Y-69832029D01*
X177040205Y-69832026D01*
X176974190Y-69793911D01*
X176973835Y-69793704D01*
X176973460Y-69793306D01*
X176967895Y-69789036D01*
X176961999Y-69786594D01*
X176958596Y-69785124D01*
X176958126Y-69784912D01*
X176956234Y-69784206D01*
X176952684Y-69782735D01*
X176944520Y-69781661D01*
X176943232Y-69781316D01*
X176871144Y-69762000D01*
X176871143Y-69762000D01*
X176778856Y-69762000D01*
X176696466Y-69784075D01*
X176696451Y-69784080D01*
X176689712Y-69785886D01*
X176689711Y-69785886D01*
X176689709Y-69785887D01*
X176689706Y-69785888D01*
X176686906Y-69787504D01*
X176686902Y-69787506D01*
X176644990Y-69811705D01*
X176641753Y-69812490D01*
X176642084Y-69813095D01*
X176583294Y-69845183D01*
X176515043Y-69860024D01*
X176513225Y-69859894D01*
X176455031Y-69840526D01*
X176423883Y-69820509D01*
X176421787Y-69820272D01*
X176407900Y-69813374D01*
X176360293Y-69785888D01*
X176360290Y-69785887D01*
X176360289Y-69785886D01*
X176360288Y-69785886D01*
X176358304Y-69785354D01*
X176356026Y-69784119D01*
X176352684Y-69782735D01*
X176344520Y-69781661D01*
X176343232Y-69781316D01*
X176271144Y-69762000D01*
X176271143Y-69762000D01*
X176178856Y-69762000D01*
X176096466Y-69784075D01*
X176096451Y-69784080D01*
X176089712Y-69785886D01*
X176089711Y-69785886D01*
X176089709Y-69785887D01*
X176089706Y-69785888D01*
X176086906Y-69787504D01*
X176086902Y-69787506D01*
X176044990Y-69811705D01*
X176041753Y-69812490D01*
X176042084Y-69813095D01*
X175983294Y-69845183D01*
X175915043Y-69860024D01*
X175913225Y-69859894D01*
X175855031Y-69840526D01*
X175823883Y-69820509D01*
X175821787Y-69820272D01*
X175807900Y-69813374D01*
X175760293Y-69785888D01*
X175760290Y-69785887D01*
X175760289Y-69785886D01*
X175760288Y-69785886D01*
X175758304Y-69785354D01*
X175756026Y-69784119D01*
X175752684Y-69782735D01*
X175744520Y-69781661D01*
X175743232Y-69781316D01*
X175671144Y-69762000D01*
X175671143Y-69762000D01*
X175578856Y-69762000D01*
X175496466Y-69784075D01*
X175496451Y-69784080D01*
X175489712Y-69785886D01*
X175489711Y-69785886D01*
X175489709Y-69785887D01*
X175489706Y-69785888D01*
X175486906Y-69787504D01*
X175486902Y-69787506D01*
X175409804Y-69832019D01*
X175409786Y-69832031D01*
X175344531Y-69897286D01*
X175344519Y-69897304D01*
X175300006Y-69974402D01*
X175300004Y-69974406D01*
X175298388Y-69977206D01*
X175298387Y-69977209D01*
X175298386Y-69977211D01*
X175298386Y-69977212D01*
X175296580Y-69983951D01*
X175296575Y-69983966D01*
X175274500Y-70066356D01*
X169275500Y-70066356D01*
X169251614Y-69977212D01*
X169251611Y-69977206D01*
X169206730Y-69899471D01*
X169206591Y-69899104D01*
X169206456Y-69898885D01*
X169205552Y-69897371D01*
X169141378Y-69833197D01*
X169140212Y-69832031D01*
X169140209Y-69832029D01*
X169140205Y-69832026D01*
X169074190Y-69793911D01*
X169073835Y-69793704D01*
X169073460Y-69793306D01*
X169067895Y-69789036D01*
X169061999Y-69786594D01*
X169058596Y-69785124D01*
X169058126Y-69784912D01*
X169056234Y-69784206D01*
X169052684Y-69782735D01*
X169044520Y-69781661D01*
X169043232Y-69781316D01*
X168971144Y-69762000D01*
X168971143Y-69762000D01*
X168878856Y-69762000D01*
X168796466Y-69784075D01*
X168796451Y-69784080D01*
X168789712Y-69785886D01*
X168789711Y-69785886D01*
X168789709Y-69785887D01*
X168789706Y-69785888D01*
X168786906Y-69787504D01*
X168786902Y-69787506D01*
X168744990Y-69811705D01*
X168741753Y-69812490D01*
X168742084Y-69813095D01*
X168683294Y-69845183D01*
X168615043Y-69860024D01*
X168613225Y-69859894D01*
X168555031Y-69840526D01*
X168523883Y-69820509D01*
X168521787Y-69820272D01*
X168507900Y-69813374D01*
X168460293Y-69785888D01*
X168460290Y-69785887D01*
X168460289Y-69785886D01*
X168460288Y-69785886D01*
X168458304Y-69785354D01*
X168456026Y-69784119D01*
X168452684Y-69782735D01*
X168444520Y-69781661D01*
X168443232Y-69781316D01*
X168371144Y-69762000D01*
X168371143Y-69762000D01*
X168278856Y-69762000D01*
X168196466Y-69784075D01*
X168196451Y-69784080D01*
X168189712Y-69785886D01*
X168189711Y-69785886D01*
X168189709Y-69785887D01*
X168189706Y-69785888D01*
X168186906Y-69787504D01*
X168186902Y-69787506D01*
X168144990Y-69811705D01*
X168141753Y-69812490D01*
X168142084Y-69813095D01*
X168083294Y-69845183D01*
X168015043Y-69860024D01*
X168013225Y-69859894D01*
X167955031Y-69840526D01*
X167923883Y-69820509D01*
X167921787Y-69820272D01*
X167907900Y-69813374D01*
X167860293Y-69785888D01*
X167860290Y-69785887D01*
X167860289Y-69785886D01*
X167860288Y-69785886D01*
X167858304Y-69785354D01*
X167856026Y-69784119D01*
X167852684Y-69782735D01*
X167844520Y-69781661D01*
X167843232Y-69781316D01*
X167771144Y-69762000D01*
X167771143Y-69762000D01*
X167678856Y-69762000D01*
X167596466Y-69784075D01*
X167596451Y-69784080D01*
X167589712Y-69785886D01*
X167589711Y-69785886D01*
X167589709Y-69785887D01*
X167589706Y-69785888D01*
X167586906Y-69787504D01*
X167586902Y-69787506D01*
X167509804Y-69832019D01*
X167509786Y-69832031D01*
X167444531Y-69897286D01*
X167444519Y-69897304D01*
X167399549Y-69975194D01*
X167399548Y-69975195D01*
X167398388Y-69977206D01*
X167398387Y-69977209D01*
X167398386Y-69977211D01*
X167398386Y-69977212D01*
X167374500Y-70066356D01*
X153319202Y-70066356D01*
X153325500Y-70042853D01*
X153325500Y-69957147D01*
X153303318Y-69874362D01*
X153282325Y-69838000D01*
X153282324Y-69837998D01*
X153282324Y-69837997D01*
X153260473Y-69800150D01*
X153260462Y-69800135D01*
X153260458Y-69800130D01*
X153199868Y-69739540D01*
X153199866Y-69739539D01*
X153199863Y-69739536D01*
X153199855Y-69739530D01*
X153185457Y-69731217D01*
X153125661Y-69696694D01*
X153125637Y-69696681D01*
X153063734Y-69680095D01*
X153042853Y-69674500D01*
X153042852Y-69674500D01*
X152957147Y-69674500D01*
X152874364Y-69696681D01*
X152874357Y-69696683D01*
X152874356Y-69696684D01*
X152874346Y-69696689D01*
X152800152Y-69739525D01*
X152800148Y-69739527D01*
X152800144Y-69739530D01*
X152800136Y-69739536D01*
X152800132Y-69739539D01*
X152800130Y-69739540D01*
X152739540Y-69800130D01*
X152739539Y-69800132D01*
X152739536Y-69800135D01*
X152739536Y-69800136D01*
X152739530Y-69800144D01*
X152739527Y-69800148D01*
X152739525Y-69800152D01*
X152696689Y-69874346D01*
X152696684Y-69874356D01*
X152696683Y-69874357D01*
X152696681Y-69874364D01*
X152675573Y-69953140D01*
X152675573Y-69953141D01*
X152674500Y-69957147D01*
X131023540Y-69957147D01*
X130995913Y-69929520D01*
X130917957Y-69884512D01*
X130904589Y-69876794D01*
X130904588Y-69876793D01*
X130904587Y-69876793D01*
X130802727Y-69849500D01*
X130802726Y-69849500D01*
X130697273Y-69849500D01*
X130595413Y-69876792D01*
X130595408Y-69876795D01*
X130504088Y-69929518D01*
X130504082Y-69929523D01*
X130429523Y-70004082D01*
X130429522Y-70004084D01*
X130429521Y-70004085D01*
X130393567Y-70066358D01*
X130376795Y-70095408D01*
X130376792Y-70095413D01*
X130359850Y-70158644D01*
X130349500Y-70197273D01*
X119150500Y-70197273D01*
X119123207Y-70095413D01*
X119070480Y-70004087D01*
X118995913Y-69929520D01*
X118917957Y-69884512D01*
X118904589Y-69876794D01*
X118904588Y-69876793D01*
X118904587Y-69876793D01*
X118802727Y-69849500D01*
X118802726Y-69849500D01*
X118697273Y-69849500D01*
X118595413Y-69876792D01*
X118595408Y-69876795D01*
X118504088Y-69929518D01*
X118504082Y-69929523D01*
X118429523Y-70004082D01*
X118429522Y-70004084D01*
X118429521Y-70004085D01*
X118393567Y-70066358D01*
X118376795Y-70095408D01*
X118376792Y-70095413D01*
X118359850Y-70158644D01*
X118349500Y-70197273D01*
X108000500Y-70197273D01*
X108000500Y-69432410D01*
X170420946Y-69432410D01*
X170420946Y-69524698D01*
X170422304Y-69529766D01*
X170422304Y-69529768D01*
X170442154Y-69603850D01*
X170442156Y-69603858D01*
X170444833Y-69613844D01*
X170444834Y-69613847D01*
X170468840Y-69655426D01*
X170486663Y-69686297D01*
X170490972Y-69693759D01*
X170490975Y-69693763D01*
X170490977Y-69693766D01*
X170556234Y-69759023D01*
X170556237Y-69759024D01*
X170556240Y-69759027D01*
X170562466Y-69762621D01*
X170563130Y-69763284D01*
X170564482Y-69764120D01*
X170567097Y-69765295D01*
X170636152Y-69805165D01*
X170636153Y-69805165D01*
X170636158Y-69805168D01*
X170725302Y-69829054D01*
X170725304Y-69829054D01*
X170817588Y-69829054D01*
X170817590Y-69829054D01*
X170906734Y-69805168D01*
X170986658Y-69759023D01*
X171051915Y-69693766D01*
X171098060Y-69613842D01*
X171121946Y-69524698D01*
X171121946Y-69432410D01*
X171098060Y-69343266D01*
X171098059Y-69343265D01*
X171098059Y-69343263D01*
X171072791Y-69299500D01*
X171051915Y-69263342D01*
X170995720Y-69207147D01*
X186424500Y-69207147D01*
X186424500Y-69292853D01*
X186435208Y-69332817D01*
X186435209Y-69332820D01*
X186438007Y-69343260D01*
X186446682Y-69375637D01*
X186446685Y-69375644D01*
X186489530Y-69449855D01*
X186489534Y-69449860D01*
X186489535Y-69449862D01*
X186489848Y-69450175D01*
X186550141Y-69510468D01*
X186550821Y-69510958D01*
X186553316Y-69512300D01*
X186624355Y-69553314D01*
X186624362Y-69553318D01*
X186707147Y-69575500D01*
X186707149Y-69575500D01*
X186792851Y-69575500D01*
X186792853Y-69575500D01*
X186875638Y-69553318D01*
X186949862Y-69510465D01*
X187010465Y-69449862D01*
X187053318Y-69375638D01*
X187075500Y-69292853D01*
X187075500Y-69207147D01*
X187053318Y-69124362D01*
X187049422Y-69117614D01*
X187010469Y-69050144D01*
X187010468Y-69050143D01*
X187010466Y-69050139D01*
X187010464Y-69050137D01*
X187010458Y-69050130D01*
X186949868Y-68989540D01*
X186949866Y-68989539D01*
X186949863Y-68989536D01*
X186949855Y-68989530D01*
X186935457Y-68981217D01*
X186875661Y-68946694D01*
X186875637Y-68946681D01*
X186794532Y-68924950D01*
X186792853Y-68924500D01*
X186792852Y-68924500D01*
X186707147Y-68924500D01*
X186624364Y-68946681D01*
X186624357Y-68946683D01*
X186624356Y-68946684D01*
X186624346Y-68946689D01*
X186550152Y-68989525D01*
X186550148Y-68989527D01*
X186550144Y-68989530D01*
X186550136Y-68989536D01*
X186550132Y-68989539D01*
X186550130Y-68989540D01*
X186489540Y-69050130D01*
X186489539Y-69050132D01*
X186489536Y-69050135D01*
X186489536Y-69050136D01*
X186489530Y-69050144D01*
X186489527Y-69050148D01*
X186489525Y-69050152D01*
X186446689Y-69124346D01*
X186446684Y-69124356D01*
X186446683Y-69124357D01*
X186446681Y-69124364D01*
X186424500Y-69207147D01*
X170995720Y-69207147D01*
X170986658Y-69198085D01*
X170986655Y-69198083D01*
X170986651Y-69198080D01*
X170920636Y-69159965D01*
X170920281Y-69159758D01*
X170919906Y-69159360D01*
X170914341Y-69155090D01*
X170908445Y-69152648D01*
X170905042Y-69151178D01*
X170904572Y-69150966D01*
X170902680Y-69150260D01*
X170899130Y-69148789D01*
X170890966Y-69147715D01*
X170817590Y-69128054D01*
X170817589Y-69128054D01*
X170725302Y-69128054D01*
X170642912Y-69150129D01*
X170642897Y-69150134D01*
X170636158Y-69151940D01*
X170636157Y-69151940D01*
X170636155Y-69151941D01*
X170636152Y-69151942D01*
X170633352Y-69153558D01*
X170633348Y-69153560D01*
X170556250Y-69198073D01*
X170556232Y-69198085D01*
X170490977Y-69263340D01*
X170490965Y-69263358D01*
X170445995Y-69341248D01*
X170445994Y-69341249D01*
X170444834Y-69343260D01*
X170444833Y-69343263D01*
X170444832Y-69343265D01*
X170444832Y-69343266D01*
X170420946Y-69432410D01*
X108000500Y-69432410D01*
X108000500Y-68707147D01*
X137674500Y-68707147D01*
X137674500Y-68792853D01*
X137693889Y-68865212D01*
X137696682Y-68875637D01*
X137696685Y-68875644D01*
X137739530Y-68949855D01*
X137739534Y-68949860D01*
X137739535Y-68949862D01*
X137740103Y-68950430D01*
X137800137Y-69010464D01*
X137800830Y-69010964D01*
X137803341Y-69012315D01*
X137841704Y-69034463D01*
X137868852Y-69050137D01*
X137868864Y-69050144D01*
X137874362Y-69053318D01*
X137957147Y-69075500D01*
X137957149Y-69075500D01*
X138042851Y-69075500D01*
X138042853Y-69075500D01*
X138125638Y-69053318D01*
X138199862Y-69010465D01*
X138260465Y-68949862D01*
X138303318Y-68875638D01*
X138325500Y-68792853D01*
X138325500Y-68707147D01*
X138303318Y-68624362D01*
X138263792Y-68555900D01*
X138260469Y-68550144D01*
X138260463Y-68550136D01*
X138242508Y-68532181D01*
X138242504Y-68532176D01*
X138199868Y-68489540D01*
X138199866Y-68489539D01*
X138199863Y-68489536D01*
X138199855Y-68489530D01*
X138174958Y-68475156D01*
X138143766Y-68457147D01*
X144174500Y-68457147D01*
X144174500Y-68542853D01*
X144193028Y-68612002D01*
X144193029Y-68612002D01*
X144196682Y-68625637D01*
X144196685Y-68625644D01*
X144239530Y-68699855D01*
X144239534Y-68699860D01*
X144239535Y-68699862D01*
X144240103Y-68700430D01*
X144300141Y-68760468D01*
X144300823Y-68760960D01*
X144303329Y-68762308D01*
X144356234Y-68792852D01*
X144356236Y-68792853D01*
X144356235Y-68792853D01*
X144370525Y-68801103D01*
X144374362Y-68803318D01*
X144457147Y-68825500D01*
X144457149Y-68825500D01*
X144542851Y-68825500D01*
X144542853Y-68825500D01*
X144625638Y-68803318D01*
X144699862Y-68760465D01*
X144760465Y-68699862D01*
X144803318Y-68625638D01*
X144825500Y-68542853D01*
X144825500Y-68457147D01*
X144810265Y-68400288D01*
X144803320Y-68374367D01*
X144803318Y-68374364D01*
X144803318Y-68374362D01*
X144800529Y-68369531D01*
X144760469Y-68300144D01*
X144760463Y-68300136D01*
X144760459Y-68300132D01*
X144760458Y-68300130D01*
X144699868Y-68239540D01*
X144699866Y-68239539D01*
X144699863Y-68239536D01*
X144699855Y-68239530D01*
X144672152Y-68223536D01*
X144625661Y-68196694D01*
X144625637Y-68196681D01*
X144565034Y-68180443D01*
X144542853Y-68174500D01*
X144542852Y-68174500D01*
X144457147Y-68174500D01*
X144374364Y-68196681D01*
X144374357Y-68196683D01*
X144374356Y-68196684D01*
X144374346Y-68196689D01*
X144300152Y-68239525D01*
X144300148Y-68239527D01*
X144300144Y-68239530D01*
X144300136Y-68239536D01*
X144300132Y-68239539D01*
X144300130Y-68239540D01*
X144239540Y-68300130D01*
X144239539Y-68300132D01*
X144239536Y-68300135D01*
X144239536Y-68300136D01*
X144239530Y-68300144D01*
X144239527Y-68300148D01*
X144239525Y-68300152D01*
X144196689Y-68374346D01*
X144196684Y-68374356D01*
X144196683Y-68374357D01*
X144196681Y-68374364D01*
X144174500Y-68457147D01*
X138143766Y-68457147D01*
X138125661Y-68446694D01*
X138125637Y-68446681D01*
X138065034Y-68430443D01*
X138042853Y-68424500D01*
X138042852Y-68424500D01*
X137957147Y-68424500D01*
X137874364Y-68446681D01*
X137874357Y-68446683D01*
X137874356Y-68446684D01*
X137874346Y-68446689D01*
X137800152Y-68489525D01*
X137800148Y-68489527D01*
X137800144Y-68489530D01*
X137800136Y-68489536D01*
X137800132Y-68489539D01*
X137800130Y-68489540D01*
X137739540Y-68550130D01*
X137739539Y-68550132D01*
X137739536Y-68550135D01*
X137739536Y-68550136D01*
X137739530Y-68550144D01*
X137739527Y-68550148D01*
X137739525Y-68550152D01*
X137696689Y-68624346D01*
X137696684Y-68624356D01*
X137696683Y-68624357D01*
X137696681Y-68624364D01*
X137676300Y-68700430D01*
X137674500Y-68707147D01*
X108000500Y-68707147D01*
X108000500Y-67957147D01*
X150924500Y-67957147D01*
X150924500Y-68042853D01*
X150943028Y-68112002D01*
X150943029Y-68112002D01*
X150946682Y-68125637D01*
X150946685Y-68125644D01*
X150989530Y-68199855D01*
X150989534Y-68199860D01*
X150989535Y-68199862D01*
X150990103Y-68200430D01*
X151050137Y-68260464D01*
X151050830Y-68260964D01*
X151053347Y-68262318D01*
X151118850Y-68300136D01*
X151118854Y-68300138D01*
X151124362Y-68303318D01*
X151207147Y-68325500D01*
X151207149Y-68325500D01*
X151292851Y-68325500D01*
X151292853Y-68325500D01*
X151375638Y-68303318D01*
X151449862Y-68260465D01*
X151510465Y-68199862D01*
X151553318Y-68125638D01*
X151575500Y-68042853D01*
X151575500Y-67957147D01*
X151553318Y-67874362D01*
X151553314Y-67874355D01*
X151537025Y-67846140D01*
X187549499Y-67846140D01*
X187549500Y-67846142D01*
X187549500Y-67846144D01*
X187564964Y-67903858D01*
X187564965Y-67903862D01*
X187564964Y-67903862D01*
X187570074Y-67922931D01*
X187570076Y-67922935D01*
X187573387Y-67935290D01*
X187573387Y-67935291D01*
X187596641Y-67975567D01*
X187598217Y-67978690D01*
X187598945Y-67982653D01*
X187608022Y-68005324D01*
X187612458Y-68023608D01*
X187610930Y-68087777D01*
X187607995Y-68097773D01*
X187596405Y-68124838D01*
X187573387Y-68164705D01*
X187572903Y-68166515D01*
X187572901Y-68166516D01*
X187571921Y-68170179D01*
X187549500Y-68253856D01*
X187549500Y-68253858D01*
X187549500Y-68346145D01*
X187570106Y-68423052D01*
X187570108Y-68423057D01*
X187573251Y-68434785D01*
X187573387Y-68435290D01*
X187573387Y-68435291D01*
X187596629Y-68475548D01*
X187598194Y-68478644D01*
X187598921Y-68482594D01*
X187608022Y-68505324D01*
X187610300Y-68514712D01*
X187612458Y-68523608D01*
X187610930Y-68587777D01*
X187607995Y-68597773D01*
X187596405Y-68624838D01*
X187573387Y-68664706D01*
X187572902Y-68666518D01*
X187572901Y-68666519D01*
X187570312Y-68676184D01*
X187549500Y-68753856D01*
X187549500Y-68753858D01*
X187549500Y-68846145D01*
X187570493Y-68924493D01*
X187571994Y-68930095D01*
X187573387Y-68935290D01*
X187573388Y-68935293D01*
X187582996Y-68951934D01*
X187600972Y-68983070D01*
X187619526Y-69015205D01*
X187619529Y-69015209D01*
X187619531Y-69015212D01*
X187684788Y-69080469D01*
X187723630Y-69102894D01*
X187733717Y-69108718D01*
X187733798Y-69108788D01*
X187761418Y-69130510D01*
X187771002Y-69140561D01*
X187803017Y-69202660D01*
X187796376Y-69272214D01*
X187796373Y-69272220D01*
X187795768Y-69273731D01*
X187761851Y-69321356D01*
X187758063Y-69324638D01*
X187738867Y-69338307D01*
X187684788Y-69369530D01*
X187684785Y-69369532D01*
X187619529Y-69434789D01*
X187619519Y-69434804D01*
X187575006Y-69511902D01*
X187575004Y-69511906D01*
X187573388Y-69514706D01*
X187573387Y-69514709D01*
X187573386Y-69514711D01*
X187573386Y-69514712D01*
X187571580Y-69521451D01*
X187571575Y-69521466D01*
X187557098Y-69575499D01*
X187549500Y-69603856D01*
X187549500Y-69696144D01*
X187552069Y-69705732D01*
X187568665Y-69767671D01*
X187573385Y-69785288D01*
X187594906Y-69822563D01*
X187608022Y-69855324D01*
X187610569Y-69865821D01*
X187612458Y-69873608D01*
X187610930Y-69937777D01*
X187607995Y-69947773D01*
X187596405Y-69974838D01*
X187573387Y-70014705D01*
X187572903Y-70016515D01*
X187572902Y-70016518D01*
X187555641Y-70080936D01*
X187549500Y-70103856D01*
X187549500Y-70196144D01*
X187566734Y-70260463D01*
X187573387Y-70285290D01*
X187573388Y-70285293D01*
X187573389Y-70285295D01*
X187602454Y-70335637D01*
X187619526Y-70365205D01*
X187619529Y-70365209D01*
X187619531Y-70365212D01*
X187684788Y-70430469D01*
X187684791Y-70430470D01*
X187684794Y-70430473D01*
X187691020Y-70434067D01*
X187691684Y-70434730D01*
X187693036Y-70435566D01*
X187695651Y-70436741D01*
X187764706Y-70476611D01*
X187764707Y-70476611D01*
X187764712Y-70476614D01*
X187853856Y-70500500D01*
X187853858Y-70500500D01*
X187946142Y-70500500D01*
X187946144Y-70500500D01*
X188035288Y-70476614D01*
X188115212Y-70430469D01*
X188180469Y-70365212D01*
X188226614Y-70285288D01*
X188250500Y-70196144D01*
X188250500Y-70103856D01*
X188226614Y-70014712D01*
X188226613Y-70014711D01*
X188226613Y-70014709D01*
X188205093Y-69977437D01*
X188191978Y-69944680D01*
X188187541Y-69926391D01*
X188189070Y-69862214D01*
X188189752Y-69859894D01*
X188192006Y-69852217D01*
X188203595Y-69825157D01*
X188206415Y-69820272D01*
X188226613Y-69785290D01*
X188226614Y-69785288D01*
X188250500Y-69696144D01*
X188250500Y-69603856D01*
X188226614Y-69514712D01*
X188226612Y-69514709D01*
X188189173Y-69449863D01*
X188180473Y-69434794D01*
X188180472Y-69434793D01*
X188180470Y-69434789D01*
X188115211Y-69369530D01*
X188088063Y-69353856D01*
X188066312Y-69341298D01*
X188038577Y-69319487D01*
X188028995Y-69309437D01*
X187996981Y-69247338D01*
X188003613Y-69177807D01*
X188004221Y-69176289D01*
X188038134Y-69128653D01*
X188041936Y-69125359D01*
X188061123Y-69111696D01*
X188115212Y-69080469D01*
X188180469Y-69015212D01*
X188226614Y-68935288D01*
X188250500Y-68846144D01*
X188250500Y-68753856D01*
X188226614Y-68664712D01*
X188226613Y-68664711D01*
X188226613Y-68664709D01*
X188205093Y-68627437D01*
X188191978Y-68594680D01*
X188187541Y-68576391D01*
X188189069Y-68512218D01*
X188192005Y-68502220D01*
X188203593Y-68475159D01*
X188226613Y-68435290D01*
X188226748Y-68434788D01*
X188250500Y-68346144D01*
X188250500Y-68253856D01*
X188226614Y-68164712D01*
X188226613Y-68164711D01*
X188226613Y-68164709D01*
X188205093Y-68127437D01*
X188191978Y-68094680D01*
X188187541Y-68076391D01*
X188189070Y-68012214D01*
X188192006Y-68002217D01*
X188203595Y-67975157D01*
X188226605Y-67935303D01*
X188226612Y-67935291D01*
X188226613Y-67935290D01*
X188226614Y-67935288D01*
X188250500Y-67846144D01*
X188250500Y-67753856D01*
X188226614Y-67664712D01*
X188196757Y-67612999D01*
X188186744Y-67595656D01*
X188185566Y-67593036D01*
X188181461Y-67586394D01*
X188180551Y-67584871D01*
X188180469Y-67584789D01*
X188180469Y-67584788D01*
X188115212Y-67519531D01*
X188115209Y-67519529D01*
X188115205Y-67519526D01*
X188049190Y-67481411D01*
X188048835Y-67481204D01*
X188048460Y-67480806D01*
X188042895Y-67476536D01*
X188036999Y-67474094D01*
X188033596Y-67472624D01*
X188033126Y-67472412D01*
X188031234Y-67471706D01*
X188027684Y-67470235D01*
X188019520Y-67469161D01*
X187946144Y-67449500D01*
X187946143Y-67449500D01*
X187853856Y-67449500D01*
X187771466Y-67471575D01*
X187771451Y-67471580D01*
X187764712Y-67473386D01*
X187764711Y-67473386D01*
X187764709Y-67473387D01*
X187764706Y-67473388D01*
X187761906Y-67475004D01*
X187761902Y-67475006D01*
X187684804Y-67519519D01*
X187684786Y-67519531D01*
X187619531Y-67584786D01*
X187619519Y-67584804D01*
X187575006Y-67661902D01*
X187575004Y-67661906D01*
X187573388Y-67664706D01*
X187573387Y-67664709D01*
X187573386Y-67664711D01*
X187573386Y-67664712D01*
X187571580Y-67671451D01*
X187571575Y-67671466D01*
X187549500Y-67753856D01*
X187549500Y-67846140D01*
X187549499Y-67846140D01*
X151537025Y-67846140D01*
X151514848Y-67807728D01*
X151514848Y-67807727D01*
X151511939Y-67802689D01*
X151510789Y-67800698D01*
X151510786Y-67800694D01*
X151510467Y-67800141D01*
X151510463Y-67800136D01*
X151510459Y-67800132D01*
X151510455Y-67800127D01*
X151449868Y-67739540D01*
X151449866Y-67739539D01*
X151449863Y-67739536D01*
X151449855Y-67739530D01*
X151420836Y-67722776D01*
X151375661Y-67696694D01*
X151375637Y-67696681D01*
X151315034Y-67680443D01*
X151292853Y-67674500D01*
X151292852Y-67674500D01*
X151207147Y-67674500D01*
X151124364Y-67696681D01*
X151124357Y-67696683D01*
X151124356Y-67696684D01*
X151124346Y-67696689D01*
X151050152Y-67739525D01*
X151050148Y-67739527D01*
X151050144Y-67739530D01*
X151050136Y-67739536D01*
X151050132Y-67739539D01*
X151050130Y-67739540D01*
X150989540Y-67800130D01*
X150989539Y-67800132D01*
X150989538Y-67800134D01*
X150989536Y-67800136D01*
X150989530Y-67800144D01*
X150989527Y-67800148D01*
X150989525Y-67800152D01*
X150946689Y-67874346D01*
X150946686Y-67874353D01*
X150946683Y-67874357D01*
X150946681Y-67874364D01*
X150924500Y-67957147D01*
X108000500Y-67957147D01*
X108000500Y-66957147D01*
X153924500Y-66957147D01*
X153924500Y-67042853D01*
X153945045Y-67119526D01*
X153946682Y-67125637D01*
X153946685Y-67125644D01*
X153989530Y-67199855D01*
X153989534Y-67199860D01*
X153989535Y-67199862D01*
X153990103Y-67200430D01*
X154050141Y-67260468D01*
X154050823Y-67260960D01*
X154053329Y-67262308D01*
X154106234Y-67292852D01*
X154106236Y-67292853D01*
X154106235Y-67292853D01*
X154120525Y-67301103D01*
X154124362Y-67303318D01*
X154207147Y-67325500D01*
X154207149Y-67325500D01*
X154292851Y-67325500D01*
X154292853Y-67325500D01*
X154375638Y-67303318D01*
X154449862Y-67260465D01*
X154510465Y-67199862D01*
X154537026Y-67153856D01*
X185649500Y-67153856D01*
X185649500Y-67246144D01*
X185650858Y-67251213D01*
X185650858Y-67251215D01*
X185670760Y-67325492D01*
X185670761Y-67325492D01*
X185670763Y-67325500D01*
X185673386Y-67335288D01*
X185673388Y-67335293D01*
X185696681Y-67375638D01*
X185719526Y-67415205D01*
X185719529Y-67415209D01*
X185719531Y-67415212D01*
X185784788Y-67480469D01*
X185784791Y-67480470D01*
X185784794Y-67480473D01*
X185791020Y-67484067D01*
X185791684Y-67484730D01*
X185793036Y-67485566D01*
X185795651Y-67486741D01*
X185864706Y-67526611D01*
X185864707Y-67526611D01*
X185864712Y-67526614D01*
X185953856Y-67550500D01*
X185953858Y-67550500D01*
X186046142Y-67550500D01*
X186046144Y-67550500D01*
X186135288Y-67526614D01*
X186215212Y-67480469D01*
X186280469Y-67415212D01*
X186303315Y-67375642D01*
X186326612Y-67335292D01*
X186326612Y-67335290D01*
X186326614Y-67335288D01*
X186350500Y-67246144D01*
X186350500Y-67207147D01*
X188674500Y-67207147D01*
X188674500Y-67292853D01*
X188685871Y-67335288D01*
X188696682Y-67375637D01*
X188696685Y-67375644D01*
X188739530Y-67449855D01*
X188739534Y-67449860D01*
X188739535Y-67449862D01*
X188740103Y-67450430D01*
X188800141Y-67510468D01*
X188800821Y-67510958D01*
X188803315Y-67512300D01*
X188869479Y-67550499D01*
X188874362Y-67553318D01*
X188874364Y-67553318D01*
X188874367Y-67553320D01*
X188922976Y-67566344D01*
X188957147Y-67575500D01*
X188957149Y-67575500D01*
X189042851Y-67575500D01*
X189042853Y-67575500D01*
X189125638Y-67553318D01*
X189199862Y-67510465D01*
X189260465Y-67449862D01*
X189303318Y-67375638D01*
X189309154Y-67353856D01*
X189799500Y-67353856D01*
X189799500Y-67446144D01*
X189806800Y-67473387D01*
X189823386Y-67535289D01*
X189826157Y-67540089D01*
X189826158Y-67540091D01*
X189859338Y-67597558D01*
X189872456Y-67630324D01*
X189876892Y-67648608D01*
X189875364Y-67712781D01*
X189872429Y-67722776D01*
X189860840Y-67749840D01*
X189823385Y-67814711D01*
X189823383Y-67814715D01*
X189807405Y-67874353D01*
X189807405Y-67874354D01*
X189799500Y-67903856D01*
X189799500Y-67996145D01*
X189803806Y-68012214D01*
X189812350Y-68044102D01*
X189823386Y-68085288D01*
X189823389Y-68085296D01*
X189869519Y-68165194D01*
X189869531Y-68165212D01*
X189904030Y-68199711D01*
X189925182Y-68227967D01*
X189932674Y-68241688D01*
X189947526Y-68309948D01*
X189947397Y-68311754D01*
X189928029Y-68369956D01*
X189925198Y-68374363D01*
X189923848Y-68376463D01*
X189907212Y-68397106D01*
X189869531Y-68434786D01*
X189869519Y-68434804D01*
X189825006Y-68511902D01*
X189825004Y-68511906D01*
X189823388Y-68514706D01*
X189823387Y-68514709D01*
X189823386Y-68514711D01*
X189823386Y-68514712D01*
X189821580Y-68521451D01*
X189821575Y-68521466D01*
X189806858Y-68576394D01*
X189799500Y-68603856D01*
X189799500Y-68696144D01*
X189816734Y-68760463D01*
X189823387Y-68785290D01*
X189823388Y-68785293D01*
X189823389Y-68785295D01*
X189869519Y-68865194D01*
X189869531Y-68865212D01*
X189919843Y-68915524D01*
X189932317Y-68930095D01*
X189948485Y-68952244D01*
X189972112Y-69017998D01*
X189956439Y-69086087D01*
X189956437Y-69086090D01*
X189949680Y-69098117D01*
X189929256Y-69125061D01*
X189869529Y-69184789D01*
X189869519Y-69184804D01*
X189825006Y-69261902D01*
X189825004Y-69261906D01*
X189823388Y-69264706D01*
X189823387Y-69264709D01*
X189823386Y-69264711D01*
X189823386Y-69264712D01*
X189821580Y-69271451D01*
X189821575Y-69271466D01*
X189799500Y-69353856D01*
X189799500Y-69446145D01*
X189820546Y-69524692D01*
X189823383Y-69535278D01*
X189823386Y-69535288D01*
X189823387Y-69535290D01*
X189823388Y-69535293D01*
X189833795Y-69553318D01*
X189869519Y-69615194D01*
X189869531Y-69615212D01*
X189919843Y-69665524D01*
X189932317Y-69680095D01*
X189948485Y-69702244D01*
X189972112Y-69767998D01*
X189956439Y-69836087D01*
X189956437Y-69836090D01*
X189949680Y-69848117D01*
X189929256Y-69875061D01*
X189869529Y-69934789D01*
X189869519Y-69934804D01*
X189825006Y-70011902D01*
X189825004Y-70011906D01*
X189823388Y-70014706D01*
X189823387Y-70014709D01*
X189823386Y-70014711D01*
X189823386Y-70014712D01*
X189821580Y-70021451D01*
X189821575Y-70021466D01*
X189801763Y-70095409D01*
X189799500Y-70103856D01*
X189799500Y-70196144D01*
X189816734Y-70260463D01*
X189823387Y-70285290D01*
X189823388Y-70285293D01*
X189823389Y-70285295D01*
X189852454Y-70335637D01*
X189869526Y-70365205D01*
X189869529Y-70365209D01*
X189869531Y-70365212D01*
X189934788Y-70430469D01*
X189934791Y-70430470D01*
X189934794Y-70430473D01*
X189941020Y-70434067D01*
X189941684Y-70434730D01*
X189943036Y-70435566D01*
X189945651Y-70436741D01*
X190014706Y-70476611D01*
X190014707Y-70476611D01*
X190014712Y-70476614D01*
X190103856Y-70500500D01*
X190103858Y-70500500D01*
X190196142Y-70500500D01*
X190196144Y-70500500D01*
X190285288Y-70476614D01*
X190365212Y-70430469D01*
X190430469Y-70365212D01*
X190476614Y-70285288D01*
X190500500Y-70196144D01*
X190500500Y-70103856D01*
X190476614Y-70014712D01*
X190474482Y-70011019D01*
X190470479Y-70004084D01*
X190470479Y-70004083D01*
X190436748Y-69945662D01*
X190430470Y-69934789D01*
X190380193Y-69884512D01*
X190367743Y-69869974D01*
X190361635Y-69861612D01*
X190361636Y-69861612D01*
X190351534Y-69847783D01*
X190327888Y-69782041D01*
X190343537Y-69713949D01*
X190350283Y-69701932D01*
X190370722Y-69674958D01*
X190430469Y-69615212D01*
X190476614Y-69535288D01*
X190500500Y-69446144D01*
X190500500Y-69353856D01*
X190476614Y-69264712D01*
X190476612Y-69264709D01*
X190446880Y-69213212D01*
X190430473Y-69184794D01*
X190430470Y-69184791D01*
X190430469Y-69184788D01*
X190380193Y-69134512D01*
X190367743Y-69119974D01*
X190361635Y-69111612D01*
X190361636Y-69111612D01*
X190351534Y-69097783D01*
X190327888Y-69032041D01*
X190343537Y-68963949D01*
X190350283Y-68951932D01*
X190370722Y-68924958D01*
X190430469Y-68865212D01*
X190476614Y-68785288D01*
X190500500Y-68696144D01*
X190500500Y-68603856D01*
X190476614Y-68514712D01*
X190476612Y-68514709D01*
X190462081Y-68489540D01*
X190430473Y-68434794D01*
X190430470Y-68434791D01*
X190430469Y-68434788D01*
X190395969Y-68400288D01*
X190374817Y-68372032D01*
X190367325Y-68358311D01*
X190352473Y-68290051D01*
X190352602Y-68288242D01*
X190371968Y-68230047D01*
X190376161Y-68223523D01*
X190392789Y-68202891D01*
X190398999Y-68196682D01*
X190430469Y-68165212D01*
X190476614Y-68085288D01*
X190500500Y-67996144D01*
X190500500Y-67903856D01*
X190476614Y-67814712D01*
X190472582Y-67807729D01*
X190472581Y-67807727D01*
X190441479Y-67753858D01*
X190440658Y-67752436D01*
X190427544Y-67719679D01*
X190423107Y-67701390D01*
X190424635Y-67637218D01*
X190426660Y-67630324D01*
X190427571Y-67627218D01*
X190439157Y-67600163D01*
X190476611Y-67535293D01*
X190476610Y-67535293D01*
X190476614Y-67535288D01*
X190476614Y-67535284D01*
X190478333Y-67532309D01*
X190487095Y-67517131D01*
X190485820Y-67511875D01*
X190489903Y-67485692D01*
X190500500Y-67446144D01*
X190500500Y-67353856D01*
X190476614Y-67264712D01*
X190476612Y-67264709D01*
X190465893Y-67246142D01*
X190430473Y-67184794D01*
X190430472Y-67184793D01*
X190430470Y-67184789D01*
X190366378Y-67120697D01*
X190365212Y-67119531D01*
X190365209Y-67119529D01*
X190365205Y-67119526D01*
X190299190Y-67081411D01*
X190298835Y-67081204D01*
X190298460Y-67080806D01*
X190292895Y-67076536D01*
X190286999Y-67074094D01*
X190283596Y-67072624D01*
X190283126Y-67072412D01*
X190281234Y-67071706D01*
X190277684Y-67070235D01*
X190269520Y-67069161D01*
X190252912Y-67064711D01*
X190196144Y-67049500D01*
X190196143Y-67049500D01*
X190103856Y-67049500D01*
X190021466Y-67071575D01*
X190021451Y-67071580D01*
X190014712Y-67073386D01*
X190014711Y-67073386D01*
X190014709Y-67073387D01*
X190014706Y-67073388D01*
X190011906Y-67075004D01*
X190011902Y-67075006D01*
X189934804Y-67119519D01*
X189934790Y-67119529D01*
X189934786Y-67119531D01*
X189869531Y-67184786D01*
X189869519Y-67184804D01*
X189823335Y-67264796D01*
X189822902Y-67266518D01*
X189800934Y-67348502D01*
X189800934Y-67348503D01*
X189799500Y-67353856D01*
X189309154Y-67353856D01*
X189325500Y-67292853D01*
X189325500Y-67207147D01*
X189316344Y-67172976D01*
X189303320Y-67124367D01*
X189303318Y-67124364D01*
X189303318Y-67124362D01*
X189297124Y-67113633D01*
X189260469Y-67050144D01*
X189260463Y-67050136D01*
X189260461Y-67050134D01*
X189260458Y-67050130D01*
X189199868Y-66989540D01*
X189199866Y-66989539D01*
X189199863Y-66989536D01*
X189199855Y-66989530D01*
X189185457Y-66981217D01*
X189125661Y-66946694D01*
X189125637Y-66946681D01*
X189065034Y-66930443D01*
X189042853Y-66924500D01*
X189042852Y-66924500D01*
X188957147Y-66924500D01*
X188874364Y-66946681D01*
X188874357Y-66946683D01*
X188874356Y-66946684D01*
X188874346Y-66946689D01*
X188800152Y-66989525D01*
X188800148Y-66989527D01*
X188800144Y-66989530D01*
X188800136Y-66989536D01*
X188800132Y-66989539D01*
X188800130Y-66989540D01*
X188739540Y-67050130D01*
X188739539Y-67050132D01*
X188739538Y-67050134D01*
X188739536Y-67050136D01*
X188739530Y-67050144D01*
X188739527Y-67050148D01*
X188739525Y-67050152D01*
X188696689Y-67124346D01*
X188696684Y-67124356D01*
X188696683Y-67124357D01*
X188696681Y-67124364D01*
X188675453Y-67203588D01*
X188675453Y-67203589D01*
X188674500Y-67207147D01*
X186350500Y-67207147D01*
X186350500Y-67153856D01*
X186326614Y-67064712D01*
X186318200Y-67050138D01*
X186318195Y-67050130D01*
X186308981Y-67034171D01*
X186280473Y-66984794D01*
X186280470Y-66984791D01*
X186280469Y-66984788D01*
X186215212Y-66919531D01*
X186215209Y-66919529D01*
X186215205Y-66919526D01*
X186149190Y-66881411D01*
X186148835Y-66881204D01*
X186148460Y-66880806D01*
X186142895Y-66876536D01*
X186136999Y-66874094D01*
X186133596Y-66872624D01*
X186133126Y-66872412D01*
X186131234Y-66871706D01*
X186127684Y-66870235D01*
X186119520Y-66869161D01*
X186046144Y-66849500D01*
X186046143Y-66849500D01*
X185953856Y-66849500D01*
X185871466Y-66871575D01*
X185871451Y-66871580D01*
X185864712Y-66873386D01*
X185864711Y-66873386D01*
X185864709Y-66873387D01*
X185864706Y-66873388D01*
X185861906Y-66875004D01*
X185861902Y-66875006D01*
X185784804Y-66919519D01*
X185784786Y-66919531D01*
X185719531Y-66984786D01*
X185719519Y-66984804D01*
X185674549Y-67062694D01*
X185674548Y-67062695D01*
X185673388Y-67064706D01*
X185673387Y-67064709D01*
X185673386Y-67064711D01*
X185673386Y-67064712D01*
X185649500Y-67153856D01*
X154537026Y-67153856D01*
X154553318Y-67125638D01*
X154555671Y-67116856D01*
X154556535Y-67113633D01*
X154565224Y-67081204D01*
X154575500Y-67042853D01*
X154575500Y-66957147D01*
X154553318Y-66874362D01*
X154512301Y-66803318D01*
X154510469Y-66800144D01*
X154510463Y-66800136D01*
X154449863Y-66739536D01*
X154449855Y-66739530D01*
X154375644Y-66696685D01*
X154375640Y-66696683D01*
X154375638Y-66696682D01*
X154368297Y-66694715D01*
X154368296Y-66694714D01*
X154313058Y-66679914D01*
X154292853Y-66674500D01*
X154292852Y-66674500D01*
X154207147Y-66674500D01*
X154124364Y-66696681D01*
X154124357Y-66696683D01*
X154124356Y-66696684D01*
X154124346Y-66696689D01*
X154050152Y-66739525D01*
X154050148Y-66739527D01*
X154050144Y-66739530D01*
X154050136Y-66739536D01*
X154050132Y-66739539D01*
X154050130Y-66739540D01*
X153989540Y-66800130D01*
X153989539Y-66800132D01*
X153989536Y-66800135D01*
X153989536Y-66800136D01*
X153989530Y-66800144D01*
X153989527Y-66800148D01*
X153989525Y-66800152D01*
X153946689Y-66874346D01*
X153946684Y-66874356D01*
X153946683Y-66874357D01*
X153946681Y-66874364D01*
X153925816Y-66952234D01*
X153924500Y-66957147D01*
X108000500Y-66957147D01*
X108000500Y-66187273D01*
X136589500Y-66187273D01*
X136589500Y-66292727D01*
X136616793Y-66394587D01*
X136669520Y-66485913D01*
X136744087Y-66560480D01*
X136835413Y-66613207D01*
X136937273Y-66640500D01*
X136937275Y-66640500D01*
X137042725Y-66640500D01*
X137042727Y-66640500D01*
X137144587Y-66613207D01*
X137235913Y-66560480D01*
X137310480Y-66485913D01*
X137327088Y-66457147D01*
X149424500Y-66457147D01*
X149424500Y-66542852D01*
X149437305Y-66590644D01*
X149446681Y-66625634D01*
X149446683Y-66625641D01*
X149446684Y-66625642D01*
X149446685Y-66625644D01*
X149489530Y-66699855D01*
X149489534Y-66699860D01*
X149489535Y-66699862D01*
X149490103Y-66700430D01*
X149550137Y-66760464D01*
X149550830Y-66760964D01*
X149553347Y-66762318D01*
X149618850Y-66800136D01*
X149618854Y-66800138D01*
X149624362Y-66803318D01*
X149707147Y-66825500D01*
X149707149Y-66825500D01*
X149792851Y-66825500D01*
X149792853Y-66825500D01*
X149875638Y-66803318D01*
X149949862Y-66760465D01*
X150010465Y-66699862D01*
X150053318Y-66625638D01*
X150075500Y-66542853D01*
X150075500Y-66457147D01*
X150053318Y-66374362D01*
X150053314Y-66374355D01*
X150010469Y-66300144D01*
X150010463Y-66300136D01*
X150010459Y-66300132D01*
X150010458Y-66300130D01*
X149949868Y-66239540D01*
X149949866Y-66239539D01*
X149949863Y-66239536D01*
X149949855Y-66239530D01*
X149907738Y-66215214D01*
X149875661Y-66196694D01*
X149875637Y-66196681D01*
X149815034Y-66180443D01*
X149792853Y-66174500D01*
X149792852Y-66174500D01*
X149707147Y-66174500D01*
X149624364Y-66196681D01*
X149624357Y-66196683D01*
X149624356Y-66196684D01*
X149624346Y-66196689D01*
X149550152Y-66239525D01*
X149550148Y-66239527D01*
X149550144Y-66239530D01*
X149550136Y-66239536D01*
X149550132Y-66239539D01*
X149550130Y-66239540D01*
X149489540Y-66300130D01*
X149489539Y-66300132D01*
X149489536Y-66300135D01*
X149489536Y-66300136D01*
X149489530Y-66300144D01*
X149489527Y-66300148D01*
X149489525Y-66300152D01*
X149446689Y-66374346D01*
X149446684Y-66374356D01*
X149446683Y-66374357D01*
X149446681Y-66374364D01*
X149441262Y-66394589D01*
X149424500Y-66457147D01*
X137327088Y-66457147D01*
X137363207Y-66394587D01*
X137390500Y-66292727D01*
X137390500Y-66187273D01*
X137363207Y-66085413D01*
X137340534Y-66046143D01*
X137318356Y-66007729D01*
X137310480Y-65994087D01*
X137270249Y-65953856D01*
X165899500Y-65953856D01*
X165899500Y-66046144D01*
X165910021Y-66085410D01*
X165923386Y-66135288D01*
X165923389Y-66135296D01*
X165958838Y-66196694D01*
X165969526Y-66215205D01*
X165969529Y-66215209D01*
X165969531Y-66215212D01*
X166034788Y-66280469D01*
X166034791Y-66280470D01*
X166034794Y-66280473D01*
X166041020Y-66284067D01*
X166041684Y-66284730D01*
X166043036Y-66285566D01*
X166045651Y-66286741D01*
X166114706Y-66326611D01*
X166114707Y-66326611D01*
X166114712Y-66326614D01*
X166203856Y-66350500D01*
X166203858Y-66350500D01*
X166296142Y-66350500D01*
X166296144Y-66350500D01*
X166385288Y-66326614D01*
X166465212Y-66280469D01*
X166530469Y-66215212D01*
X166576614Y-66135288D01*
X166600500Y-66046144D01*
X166600500Y-65953856D01*
X166576614Y-65864712D01*
X166562058Y-65839500D01*
X166530473Y-65784794D01*
X166530470Y-65784791D01*
X166530469Y-65784788D01*
X166465212Y-65719531D01*
X166465209Y-65719529D01*
X166465205Y-65719526D01*
X166399190Y-65681411D01*
X166398835Y-65681204D01*
X166398460Y-65680806D01*
X166392895Y-65676536D01*
X166386999Y-65674094D01*
X166383596Y-65672624D01*
X166383126Y-65672412D01*
X166381234Y-65671706D01*
X166377684Y-65670235D01*
X166369520Y-65669161D01*
X166296144Y-65649500D01*
X166296143Y-65649500D01*
X166203856Y-65649500D01*
X166121466Y-65671575D01*
X166121451Y-65671580D01*
X166114712Y-65673386D01*
X166114711Y-65673386D01*
X166114709Y-65673387D01*
X166114706Y-65673388D01*
X166111906Y-65675004D01*
X166111902Y-65675006D01*
X166034804Y-65719519D01*
X166034786Y-65719531D01*
X165969531Y-65784786D01*
X165969519Y-65784804D01*
X165924549Y-65862694D01*
X165924548Y-65862695D01*
X165923388Y-65864706D01*
X165923387Y-65864709D01*
X165923386Y-65864711D01*
X165923386Y-65864712D01*
X165899500Y-65953856D01*
X137270249Y-65953856D01*
X137235913Y-65919520D01*
X137169059Y-65880922D01*
X137144589Y-65866794D01*
X137144588Y-65866793D01*
X137144587Y-65866793D01*
X137042727Y-65839500D01*
X137042726Y-65839500D01*
X136937273Y-65839500D01*
X136835413Y-65866792D01*
X136835408Y-65866795D01*
X136744088Y-65919518D01*
X136744082Y-65919523D01*
X136669523Y-65994082D01*
X136669518Y-65994088D01*
X136616796Y-66085407D01*
X136616792Y-66085413D01*
X136603427Y-66135296D01*
X136589500Y-66187273D01*
X108000500Y-66187273D01*
X108000500Y-64203856D01*
X143399500Y-64203856D01*
X143399500Y-64296143D01*
X143405191Y-64317385D01*
X143423384Y-64385282D01*
X143423386Y-64385288D01*
X143423387Y-64385290D01*
X143423388Y-64385293D01*
X143469526Y-64465205D01*
X143469529Y-64465209D01*
X143469531Y-64465212D01*
X143534788Y-64530469D01*
X143534791Y-64530470D01*
X143534794Y-64530473D01*
X143541020Y-64534067D01*
X143541684Y-64534730D01*
X143543036Y-64535566D01*
X143545651Y-64536741D01*
X143614706Y-64576611D01*
X143614707Y-64576611D01*
X143614712Y-64576614D01*
X143703856Y-64600500D01*
X143703858Y-64600500D01*
X143796142Y-64600500D01*
X143796144Y-64600500D01*
X143885288Y-64576614D01*
X143965212Y-64530469D01*
X144030469Y-64465212D01*
X144076614Y-64385288D01*
X144100500Y-64296144D01*
X144100500Y-64203856D01*
X144076614Y-64114712D01*
X144076612Y-64114709D01*
X144071382Y-64105650D01*
X144030473Y-64034794D01*
X144030472Y-64034793D01*
X144030470Y-64034789D01*
X143966378Y-63970697D01*
X143965212Y-63969531D01*
X143965209Y-63969529D01*
X143965205Y-63969526D01*
X143899190Y-63931411D01*
X143898835Y-63931204D01*
X143898460Y-63930806D01*
X143892895Y-63926536D01*
X143886999Y-63924094D01*
X143883596Y-63922624D01*
X143883126Y-63922412D01*
X143881234Y-63921706D01*
X143877684Y-63920235D01*
X143869520Y-63919161D01*
X143796144Y-63899500D01*
X143796143Y-63899500D01*
X143703856Y-63899500D01*
X143621466Y-63921575D01*
X143621451Y-63921580D01*
X143614712Y-63923386D01*
X143614711Y-63923386D01*
X143614709Y-63923387D01*
X143614706Y-63923388D01*
X143611906Y-63925004D01*
X143611902Y-63925006D01*
X143534804Y-63969519D01*
X143534786Y-63969531D01*
X143469531Y-64034786D01*
X143469519Y-64034804D01*
X143423389Y-64114704D01*
X143423388Y-64114705D01*
X143423384Y-64114716D01*
X143399500Y-64203856D01*
X108000500Y-64203856D01*
X108000500Y-62697273D01*
X165849500Y-62697273D01*
X165849500Y-62802727D01*
X165876793Y-62904587D01*
X165929520Y-62995913D01*
X166004087Y-63070480D01*
X166095413Y-63123207D01*
X166197273Y-63150500D01*
X166197275Y-63150500D01*
X166302725Y-63150500D01*
X166302727Y-63150500D01*
X166404587Y-63123207D01*
X166495913Y-63070480D01*
X166570480Y-62995913D01*
X166623207Y-62904587D01*
X166650500Y-62802727D01*
X166650500Y-62707147D01*
X179674500Y-62707147D01*
X179674500Y-62792853D01*
X179677146Y-62802726D01*
X179680547Y-62815422D01*
X179680548Y-62815425D01*
X179696681Y-62875634D01*
X179696683Y-62875641D01*
X179696684Y-62875642D01*
X179696685Y-62875644D01*
X179739530Y-62949855D01*
X179739534Y-62949860D01*
X179739535Y-62949862D01*
X179740103Y-62950430D01*
X179800141Y-63010468D01*
X179800821Y-63010958D01*
X179803316Y-63012300D01*
X179874355Y-63053314D01*
X179874362Y-63053318D01*
X179957147Y-63075500D01*
X179957149Y-63075500D01*
X180042851Y-63075500D01*
X180042853Y-63075500D01*
X180125638Y-63053318D01*
X180199862Y-63010465D01*
X180260465Y-62949862D01*
X180303318Y-62875638D01*
X180325500Y-62792853D01*
X180325500Y-62707147D01*
X180303318Y-62624362D01*
X180303314Y-62624355D01*
X180260469Y-62550144D01*
X180260463Y-62550136D01*
X180260459Y-62550132D01*
X180260458Y-62550130D01*
X180199868Y-62489540D01*
X180199866Y-62489539D01*
X180199863Y-62489536D01*
X180199855Y-62489530D01*
X180185457Y-62481217D01*
X180125661Y-62446694D01*
X180125637Y-62446681D01*
X180061588Y-62429520D01*
X180042853Y-62424500D01*
X180042852Y-62424500D01*
X179957147Y-62424500D01*
X179874364Y-62446681D01*
X179874357Y-62446683D01*
X179874356Y-62446684D01*
X179874346Y-62446689D01*
X179800152Y-62489525D01*
X179800148Y-62489527D01*
X179800144Y-62489530D01*
X179800136Y-62489536D01*
X179800132Y-62489539D01*
X179800130Y-62489540D01*
X179739540Y-62550130D01*
X179739539Y-62550132D01*
X179739536Y-62550135D01*
X179739536Y-62550136D01*
X179739530Y-62550144D01*
X179739527Y-62550148D01*
X179739525Y-62550152D01*
X179696689Y-62624346D01*
X179696684Y-62624356D01*
X179696683Y-62624357D01*
X179696681Y-62624364D01*
X179677145Y-62697275D01*
X179674500Y-62707147D01*
X166650500Y-62707147D01*
X166650500Y-62697273D01*
X166623207Y-62595413D01*
X166570480Y-62504087D01*
X166495913Y-62429520D01*
X166429059Y-62390922D01*
X166404589Y-62376794D01*
X166404588Y-62376793D01*
X166404587Y-62376793D01*
X166302727Y-62349500D01*
X166302726Y-62349500D01*
X166197273Y-62349500D01*
X166095413Y-62376792D01*
X166095408Y-62376795D01*
X166004088Y-62429518D01*
X166004082Y-62429523D01*
X165929523Y-62504082D01*
X165929518Y-62504088D01*
X165876795Y-62595408D01*
X165876792Y-62595413D01*
X165849500Y-62697273D01*
X108000500Y-62697273D01*
X108000500Y-61957147D01*
X163174500Y-61957147D01*
X163174500Y-62042852D01*
X163187305Y-62090644D01*
X163196681Y-62125634D01*
X163196683Y-62125641D01*
X163196684Y-62125642D01*
X163196685Y-62125644D01*
X163239530Y-62199855D01*
X163239534Y-62199860D01*
X163239535Y-62199862D01*
X163240103Y-62200430D01*
X163300141Y-62260468D01*
X163300821Y-62260958D01*
X163303316Y-62262300D01*
X163374355Y-62303314D01*
X163374362Y-62303318D01*
X163457147Y-62325500D01*
X163457149Y-62325500D01*
X163542851Y-62325500D01*
X163542853Y-62325500D01*
X163625638Y-62303318D01*
X163699862Y-62260465D01*
X163760465Y-62199862D01*
X163803318Y-62125638D01*
X163825500Y-62042853D01*
X163825500Y-61957147D01*
X163803318Y-61874362D01*
X163803314Y-61874355D01*
X163760469Y-61800144D01*
X163760463Y-61800136D01*
X163760459Y-61800132D01*
X163760458Y-61800130D01*
X163699868Y-61739540D01*
X163699866Y-61739539D01*
X163699863Y-61739536D01*
X163699855Y-61739530D01*
X163685457Y-61731217D01*
X163625661Y-61696694D01*
X163625637Y-61696681D01*
X163565034Y-61680443D01*
X163542853Y-61674500D01*
X163542852Y-61674500D01*
X163457147Y-61674500D01*
X163374364Y-61696681D01*
X163374357Y-61696683D01*
X163374356Y-61696684D01*
X163374346Y-61696689D01*
X163300152Y-61739525D01*
X163300148Y-61739527D01*
X163300144Y-61739530D01*
X163300136Y-61739536D01*
X163300132Y-61739539D01*
X163300130Y-61739540D01*
X163239540Y-61800130D01*
X163239539Y-61800132D01*
X163239536Y-61800135D01*
X163239536Y-61800136D01*
X163239530Y-61800144D01*
X163239527Y-61800148D01*
X163239525Y-61800152D01*
X163196689Y-61874346D01*
X163196684Y-61874356D01*
X163196683Y-61874357D01*
X163196682Y-61874362D01*
X163174500Y-61957147D01*
X108000500Y-61957147D01*
X108000500Y-60453856D01*
X123649500Y-60453856D01*
X123649500Y-60546143D01*
X123655191Y-60567385D01*
X123673384Y-60635282D01*
X123673386Y-60635288D01*
X123673387Y-60635290D01*
X123673388Y-60635293D01*
X123719526Y-60715205D01*
X123719529Y-60715209D01*
X123719531Y-60715212D01*
X123784788Y-60780469D01*
X123784791Y-60780470D01*
X123784794Y-60780473D01*
X123791020Y-60784067D01*
X123791684Y-60784730D01*
X123793036Y-60785566D01*
X123795651Y-60786741D01*
X123864706Y-60826611D01*
X123864707Y-60826611D01*
X123864712Y-60826614D01*
X123953856Y-60850500D01*
X123953858Y-60850500D01*
X124046142Y-60850500D01*
X124046144Y-60850500D01*
X124135288Y-60826614D01*
X124215212Y-60780469D01*
X124280469Y-60715212D01*
X124326614Y-60635288D01*
X124350500Y-60546144D01*
X124350500Y-60453856D01*
X124326614Y-60364712D01*
X124326609Y-60364704D01*
X124303974Y-60325499D01*
X124303973Y-60325498D01*
X124286744Y-60295657D01*
X124285565Y-60293033D01*
X124281449Y-60286374D01*
X124280550Y-60284870D01*
X124280469Y-60284789D01*
X124280469Y-60284788D01*
X124215212Y-60219531D01*
X124215209Y-60219529D01*
X124215205Y-60219526D01*
X124149190Y-60181411D01*
X124148835Y-60181204D01*
X124148460Y-60180806D01*
X124142895Y-60176536D01*
X124136999Y-60174094D01*
X124133596Y-60172624D01*
X124133126Y-60172412D01*
X124131234Y-60171706D01*
X124127684Y-60170235D01*
X124119520Y-60169161D01*
X124046144Y-60149500D01*
X124046143Y-60149500D01*
X123953856Y-60149500D01*
X123871466Y-60171575D01*
X123871451Y-60171580D01*
X123864712Y-60173386D01*
X123864711Y-60173386D01*
X123864709Y-60173387D01*
X123864706Y-60173388D01*
X123861906Y-60175004D01*
X123861902Y-60175006D01*
X123784804Y-60219519D01*
X123784786Y-60219531D01*
X123719531Y-60284786D01*
X123719519Y-60284804D01*
X123673389Y-60364704D01*
X123673388Y-60364705D01*
X123673384Y-60364716D01*
X123649500Y-60453856D01*
X108000500Y-60453856D01*
X108000500Y-59957147D01*
X139674500Y-59957147D01*
X139674500Y-60042852D01*
X139687305Y-60090644D01*
X139696681Y-60125634D01*
X139696683Y-60125641D01*
X139696684Y-60125642D01*
X139696685Y-60125644D01*
X139739530Y-60199855D01*
X139739534Y-60199860D01*
X139739535Y-60199862D01*
X139740103Y-60200430D01*
X139800137Y-60260464D01*
X139800830Y-60260964D01*
X139803347Y-60262318D01*
X139842276Y-60284794D01*
X139842277Y-60284794D01*
X139874362Y-60303318D01*
X139957147Y-60325500D01*
X139957149Y-60325500D01*
X140042851Y-60325500D01*
X140042853Y-60325500D01*
X140125638Y-60303318D01*
X140199862Y-60260465D01*
X140260465Y-60199862D01*
X140303318Y-60125638D01*
X140325500Y-60042853D01*
X140325500Y-59957147D01*
X165174500Y-59957147D01*
X165174500Y-60042852D01*
X165187305Y-60090644D01*
X165196681Y-60125634D01*
X165196683Y-60125641D01*
X165196684Y-60125642D01*
X165196685Y-60125644D01*
X165239530Y-60199855D01*
X165239534Y-60199860D01*
X165239535Y-60199862D01*
X165240103Y-60200430D01*
X165300137Y-60260464D01*
X165300830Y-60260964D01*
X165303347Y-60262318D01*
X165342276Y-60284794D01*
X165342277Y-60284794D01*
X165374362Y-60303318D01*
X165457147Y-60325500D01*
X165457149Y-60325500D01*
X165542851Y-60325500D01*
X165542853Y-60325500D01*
X165625638Y-60303318D01*
X165699862Y-60260465D01*
X165760465Y-60199862D01*
X165803318Y-60125638D01*
X165825500Y-60042853D01*
X165825500Y-59957147D01*
X165803318Y-59874362D01*
X165784422Y-59841633D01*
X165784421Y-59841631D01*
X165760473Y-59800150D01*
X165760465Y-59800138D01*
X165760458Y-59800130D01*
X165699868Y-59739540D01*
X165699866Y-59739539D01*
X165699863Y-59739536D01*
X165699855Y-59739530D01*
X165685457Y-59731217D01*
X165625661Y-59696694D01*
X165625637Y-59696681D01*
X165565034Y-59680443D01*
X165542853Y-59674500D01*
X165542852Y-59674500D01*
X165457147Y-59674500D01*
X165374364Y-59696681D01*
X165374357Y-59696683D01*
X165374356Y-59696684D01*
X165374346Y-59696689D01*
X165300152Y-59739525D01*
X165300148Y-59739527D01*
X165300144Y-59739530D01*
X165300136Y-59739536D01*
X165300132Y-59739539D01*
X165300130Y-59739540D01*
X165239540Y-59800130D01*
X165239539Y-59800132D01*
X165239536Y-59800135D01*
X165239536Y-59800136D01*
X165239530Y-59800144D01*
X165239527Y-59800148D01*
X165239525Y-59800152D01*
X165196689Y-59874346D01*
X165196684Y-59874356D01*
X165196683Y-59874357D01*
X165196681Y-59874364D01*
X165189678Y-59900500D01*
X165174500Y-59957147D01*
X140325500Y-59957147D01*
X140303318Y-59874362D01*
X140284422Y-59841633D01*
X140260474Y-59800152D01*
X140260473Y-59800150D01*
X140260465Y-59800138D01*
X140260458Y-59800130D01*
X140199868Y-59739540D01*
X140199866Y-59739539D01*
X140199863Y-59739536D01*
X140199855Y-59739530D01*
X140185457Y-59731217D01*
X140125661Y-59696694D01*
X140125637Y-59696681D01*
X140065034Y-59680443D01*
X140042853Y-59674500D01*
X140042852Y-59674500D01*
X139957147Y-59674500D01*
X139874364Y-59696681D01*
X139874357Y-59696683D01*
X139874356Y-59696684D01*
X139874346Y-59696689D01*
X139800152Y-59739525D01*
X139800148Y-59739527D01*
X139800144Y-59739530D01*
X139800136Y-59739536D01*
X139800132Y-59739539D01*
X139800130Y-59739540D01*
X139739540Y-59800130D01*
X139739539Y-59800132D01*
X139739536Y-59800135D01*
X139739536Y-59800136D01*
X139739530Y-59800144D01*
X139739527Y-59800148D01*
X139739525Y-59800152D01*
X139696689Y-59874346D01*
X139696684Y-59874356D01*
X139696683Y-59874357D01*
X139696681Y-59874364D01*
X139689678Y-59900500D01*
X139674500Y-59957147D01*
X108000500Y-59957147D01*
X108000500Y-59447273D01*
X134349500Y-59447273D01*
X134349500Y-59552727D01*
X134376793Y-59654587D01*
X134429520Y-59745913D01*
X134504087Y-59820480D01*
X134595413Y-59873207D01*
X134697273Y-59900500D01*
X134697275Y-59900500D01*
X134802725Y-59900500D01*
X134802727Y-59900500D01*
X134904587Y-59873207D01*
X134995913Y-59820480D01*
X135070480Y-59745913D01*
X135123207Y-59654587D01*
X135150500Y-59552727D01*
X135150500Y-59447273D01*
X135123207Y-59345413D01*
X135070480Y-59254087D01*
X134995913Y-59179520D01*
X134929059Y-59140922D01*
X134929055Y-59140919D01*
X134929051Y-59140917D01*
X134918720Y-59134952D01*
X134912193Y-59129943D01*
X134896981Y-59123642D01*
X134888819Y-59122568D01*
X134881658Y-59120649D01*
X134802727Y-59099500D01*
X134802726Y-59099500D01*
X134697273Y-59099500D01*
X134595413Y-59126792D01*
X134595408Y-59126795D01*
X134504088Y-59179518D01*
X134504082Y-59179523D01*
X134429523Y-59254082D01*
X134429518Y-59254088D01*
X134376795Y-59345408D01*
X134376792Y-59345413D01*
X134349500Y-59447273D01*
X108000500Y-59447273D01*
X108000500Y-58953856D01*
X120149500Y-58953856D01*
X120149500Y-59046143D01*
X120155191Y-59067385D01*
X120173384Y-59135282D01*
X120173386Y-59135288D01*
X120173387Y-59135290D01*
X120173388Y-59135293D01*
X120219526Y-59215205D01*
X120219529Y-59215209D01*
X120219531Y-59215212D01*
X120284788Y-59280469D01*
X120284791Y-59280470D01*
X120284794Y-59280473D01*
X120291020Y-59284067D01*
X120291684Y-59284730D01*
X120293036Y-59285566D01*
X120295651Y-59286741D01*
X120364706Y-59326611D01*
X120364707Y-59326611D01*
X120364712Y-59326614D01*
X120453856Y-59350500D01*
X120453858Y-59350500D01*
X120546142Y-59350500D01*
X120546144Y-59350500D01*
X120635288Y-59326614D01*
X120715212Y-59280469D01*
X120780469Y-59215212D01*
X120826614Y-59135288D01*
X120850500Y-59046144D01*
X120850500Y-58953856D01*
X120826614Y-58864712D01*
X120826609Y-58864704D01*
X120803974Y-58825499D01*
X120803973Y-58825498D01*
X120786744Y-58795657D01*
X120785565Y-58793033D01*
X120781449Y-58786374D01*
X120780550Y-58784870D01*
X120780469Y-58784789D01*
X120780469Y-58784788D01*
X120715212Y-58719531D01*
X120715209Y-58719529D01*
X120715205Y-58719526D01*
X120649190Y-58681411D01*
X120648835Y-58681204D01*
X120648460Y-58680806D01*
X120642895Y-58676536D01*
X120636999Y-58674094D01*
X120633596Y-58672624D01*
X120633126Y-58672412D01*
X120631234Y-58671706D01*
X120627684Y-58670235D01*
X120619520Y-58669161D01*
X120546144Y-58649500D01*
X120546143Y-58649500D01*
X120453856Y-58649500D01*
X120371466Y-58671575D01*
X120371451Y-58671580D01*
X120364712Y-58673386D01*
X120364711Y-58673386D01*
X120364709Y-58673387D01*
X120364706Y-58673388D01*
X120361906Y-58675004D01*
X120361902Y-58675006D01*
X120284804Y-58719519D01*
X120284786Y-58719531D01*
X120219531Y-58784786D01*
X120219519Y-58784804D01*
X120173389Y-58864704D01*
X120173388Y-58864705D01*
X120173384Y-58864716D01*
X120149500Y-58953856D01*
X108000500Y-58953856D01*
X108000500Y-58457147D01*
X137674500Y-58457147D01*
X137674500Y-58542852D01*
X137687305Y-58590644D01*
X137696681Y-58625634D01*
X137696683Y-58625641D01*
X137696684Y-58625642D01*
X137696685Y-58625644D01*
X137739530Y-58699855D01*
X137739534Y-58699860D01*
X137739535Y-58699862D01*
X137740103Y-58700430D01*
X137800137Y-58760464D01*
X137800830Y-58760964D01*
X137803347Y-58762318D01*
X137842276Y-58784794D01*
X137842277Y-58784794D01*
X137874362Y-58803318D01*
X137957147Y-58825500D01*
X137957149Y-58825500D01*
X138042851Y-58825500D01*
X138042853Y-58825500D01*
X138125638Y-58803318D01*
X138199862Y-58760465D01*
X138260465Y-58699862D01*
X138303318Y-58625638D01*
X138325500Y-58542853D01*
X138325500Y-58457147D01*
X138303318Y-58374362D01*
X138303314Y-58374355D01*
X138260469Y-58300144D01*
X138260463Y-58300136D01*
X138260459Y-58300132D01*
X138260458Y-58300130D01*
X138199868Y-58239540D01*
X138199866Y-58239539D01*
X138199863Y-58239536D01*
X138199855Y-58239530D01*
X138185457Y-58231217D01*
X138125661Y-58196694D01*
X138125637Y-58196681D01*
X138065034Y-58180443D01*
X138042853Y-58174500D01*
X138042852Y-58174500D01*
X137957147Y-58174500D01*
X137874364Y-58196681D01*
X137874357Y-58196683D01*
X137874356Y-58196684D01*
X137874346Y-58196689D01*
X137800152Y-58239525D01*
X137800148Y-58239527D01*
X137800144Y-58239530D01*
X137800136Y-58239536D01*
X137800132Y-58239539D01*
X137800130Y-58239540D01*
X137739540Y-58300130D01*
X137739539Y-58300132D01*
X137739536Y-58300135D01*
X137739536Y-58300136D01*
X137739530Y-58300144D01*
X137739527Y-58300148D01*
X137739525Y-58300152D01*
X137696689Y-58374346D01*
X137696684Y-58374356D01*
X137696683Y-58374357D01*
X137696682Y-58374362D01*
X137674500Y-58457147D01*
X108000500Y-58457147D01*
X108000500Y-57453856D01*
X127649500Y-57453856D01*
X127649500Y-57546144D01*
X127665609Y-57606265D01*
X127673387Y-57635290D01*
X127673388Y-57635293D01*
X127719526Y-57715205D01*
X127719529Y-57715209D01*
X127719531Y-57715212D01*
X127784788Y-57780469D01*
X127784791Y-57780470D01*
X127784794Y-57780473D01*
X127791020Y-57784067D01*
X127791684Y-57784730D01*
X127793036Y-57785566D01*
X127795651Y-57786741D01*
X127864706Y-57826611D01*
X127864707Y-57826611D01*
X127864712Y-57826614D01*
X127953856Y-57850500D01*
X127953858Y-57850500D01*
X128046142Y-57850500D01*
X128046144Y-57850500D01*
X128135288Y-57826614D01*
X128215212Y-57780469D01*
X128280469Y-57715212D01*
X128326614Y-57635288D01*
X128350500Y-57546144D01*
X128350500Y-57453856D01*
X128326614Y-57364712D01*
X128303974Y-57325499D01*
X128286744Y-57295657D01*
X128285565Y-57293033D01*
X128281449Y-57286374D01*
X128280550Y-57284870D01*
X128280469Y-57284789D01*
X128280469Y-57284788D01*
X128215212Y-57219531D01*
X128215209Y-57219529D01*
X128215205Y-57219526D01*
X128149190Y-57181411D01*
X128148835Y-57181204D01*
X128148460Y-57180806D01*
X128142895Y-57176536D01*
X128136999Y-57174094D01*
X128133596Y-57172624D01*
X128133126Y-57172412D01*
X128131234Y-57171706D01*
X128127684Y-57170235D01*
X128119520Y-57169161D01*
X128046144Y-57149500D01*
X128046143Y-57149500D01*
X127953856Y-57149500D01*
X127871466Y-57171575D01*
X127871451Y-57171580D01*
X127864712Y-57173386D01*
X127864711Y-57173386D01*
X127864709Y-57173387D01*
X127864706Y-57173388D01*
X127861906Y-57175004D01*
X127861902Y-57175006D01*
X127784804Y-57219519D01*
X127784786Y-57219531D01*
X127719531Y-57284786D01*
X127719519Y-57284804D01*
X127674549Y-57362694D01*
X127674548Y-57362695D01*
X127673388Y-57364706D01*
X127673387Y-57364709D01*
X127673386Y-57364711D01*
X127673386Y-57364712D01*
X127649500Y-57453856D01*
X108000500Y-57453856D01*
X108000500Y-55380348D01*
X123054500Y-55380348D01*
X123054500Y-55619650D01*
X123054503Y-55619674D01*
X123085732Y-55856889D01*
X123085733Y-55856894D01*
X123085734Y-55856900D01*
X123147669Y-56088045D01*
X123239243Y-56309123D01*
X123239251Y-56309140D01*
X123239256Y-56309150D01*
X123357028Y-56513138D01*
X123357985Y-56514916D01*
X123358886Y-56516357D01*
X123358891Y-56516365D01*
X123358892Y-56516367D01*
X123504569Y-56706216D01*
X123504575Y-56706223D01*
X123673776Y-56875424D01*
X123673783Y-56875430D01*
X123863632Y-57021107D01*
X123863634Y-57021108D01*
X123863649Y-57021116D01*
X123865081Y-57022013D01*
X123866847Y-57022963D01*
X123972107Y-57083734D01*
X124069002Y-57139676D01*
X124070563Y-57140613D01*
X124070845Y-57140739D01*
X124070859Y-57140748D01*
X124070862Y-57140749D01*
X124070870Y-57140754D01*
X124070948Y-57140786D01*
X124072598Y-57141529D01*
X124072599Y-57141530D01*
X124072608Y-57141534D01*
X124073049Y-57141732D01*
X124074892Y-57142420D01*
X124291953Y-57232330D01*
X124523098Y-57294265D01*
X124760350Y-57325500D01*
X124760357Y-57325500D01*
X124999643Y-57325500D01*
X124999650Y-57325500D01*
X125020038Y-57322815D01*
X125020236Y-57322790D01*
X125034946Y-57320853D01*
X125034946Y-57320852D01*
X125236902Y-57294265D01*
X125468047Y-57232330D01*
X125689130Y-57140754D01*
X125858703Y-57042852D01*
X125893172Y-57022951D01*
X125893376Y-57022842D01*
X125896090Y-57021266D01*
X125896365Y-57021108D01*
X125896367Y-57021107D01*
X125896370Y-57021105D01*
X126086218Y-56875429D01*
X126255429Y-56706218D01*
X126257241Y-56703856D01*
X136149500Y-56703856D01*
X136149500Y-56796144D01*
X136150858Y-56801213D01*
X136150858Y-56801215D01*
X136170741Y-56875421D01*
X136170742Y-56875421D01*
X136170744Y-56875429D01*
X136173387Y-56885290D01*
X136173388Y-56885293D01*
X136174385Y-56887019D01*
X136214874Y-56957149D01*
X136219526Y-56965205D01*
X136219529Y-56965209D01*
X136219531Y-56965212D01*
X136284788Y-57030469D01*
X136284791Y-57030470D01*
X136284794Y-57030473D01*
X136291020Y-57034067D01*
X136291684Y-57034730D01*
X136293036Y-57035566D01*
X136295651Y-57036741D01*
X136364706Y-57076611D01*
X136364707Y-57076611D01*
X136364712Y-57076614D01*
X136453856Y-57100500D01*
X136453858Y-57100500D01*
X136546142Y-57100500D01*
X136546144Y-57100500D01*
X136635288Y-57076614D01*
X136715212Y-57030469D01*
X136780469Y-56965212D01*
X136785125Y-56957147D01*
X158924500Y-56957147D01*
X158924500Y-57042853D01*
X158939947Y-57100500D01*
X158942439Y-57109803D01*
X158942440Y-57109807D01*
X158946678Y-57125626D01*
X158946681Y-57125635D01*
X158946682Y-57125637D01*
X158946685Y-57125644D01*
X158989530Y-57199855D01*
X158989534Y-57199860D01*
X158989535Y-57199862D01*
X158990103Y-57200430D01*
X159050141Y-57260468D01*
X159050821Y-57260958D01*
X159053316Y-57262300D01*
X159124355Y-57303314D01*
X159124362Y-57303318D01*
X159207147Y-57325500D01*
X159207149Y-57325500D01*
X159292851Y-57325500D01*
X159292853Y-57325500D01*
X159375638Y-57303318D01*
X159449862Y-57260465D01*
X159510465Y-57199862D01*
X159553318Y-57125638D01*
X159575500Y-57042853D01*
X159575500Y-56957147D01*
X161924500Y-56957147D01*
X161924500Y-57042853D01*
X161939947Y-57100500D01*
X161942439Y-57109803D01*
X161942440Y-57109807D01*
X161946678Y-57125626D01*
X161946681Y-57125635D01*
X161946682Y-57125637D01*
X161946685Y-57125644D01*
X161989530Y-57199855D01*
X161989534Y-57199860D01*
X161989535Y-57199862D01*
X161990103Y-57200430D01*
X162050141Y-57260468D01*
X162050821Y-57260958D01*
X162053316Y-57262300D01*
X162124355Y-57303314D01*
X162124362Y-57303318D01*
X162207147Y-57325500D01*
X162207149Y-57325500D01*
X162292851Y-57325500D01*
X162292853Y-57325500D01*
X162375638Y-57303318D01*
X162400469Y-57288982D01*
X174184500Y-57288982D01*
X174184500Y-57401018D01*
X174213497Y-57509237D01*
X174269515Y-57606263D01*
X174348737Y-57685485D01*
X174445763Y-57741503D01*
X174553982Y-57770500D01*
X174553984Y-57770500D01*
X174666016Y-57770500D01*
X174666018Y-57770500D01*
X174774237Y-57741503D01*
X174871263Y-57685485D01*
X174950485Y-57606263D01*
X175006503Y-57509237D01*
X175035500Y-57401018D01*
X175035500Y-57288982D01*
X179964500Y-57288982D01*
X179964500Y-57401018D01*
X179993497Y-57509237D01*
X180049515Y-57606263D01*
X180128737Y-57685485D01*
X180225763Y-57741503D01*
X180333982Y-57770500D01*
X180333984Y-57770500D01*
X180446016Y-57770500D01*
X180446018Y-57770500D01*
X180554237Y-57741503D01*
X180651263Y-57685485D01*
X180730485Y-57606263D01*
X180786503Y-57509237D01*
X180815500Y-57401018D01*
X180815500Y-57288982D01*
X180786503Y-57180763D01*
X180730485Y-57083737D01*
X180651263Y-57004515D01*
X180651260Y-57004513D01*
X180651256Y-57004510D01*
X180583189Y-56965212D01*
X180583185Y-56965210D01*
X180576209Y-56961183D01*
X180568368Y-56956655D01*
X180568363Y-56956650D01*
X180561844Y-56951648D01*
X180546631Y-56945346D01*
X180538469Y-56944272D01*
X180536659Y-56943787D01*
X180446018Y-56919500D01*
X180446017Y-56919500D01*
X180333982Y-56919500D01*
X180225770Y-56948494D01*
X180225759Y-56948498D01*
X180225758Y-56948499D01*
X180128737Y-57004514D01*
X180128728Y-57004521D01*
X180049521Y-57083728D01*
X180049514Y-57083737D01*
X179993499Y-57180758D01*
X179993498Y-57180759D01*
X179993494Y-57180770D01*
X179972140Y-57260468D01*
X179964500Y-57288982D01*
X175035500Y-57288982D01*
X175006503Y-57180763D01*
X174950485Y-57083737D01*
X174871263Y-57004515D01*
X174871260Y-57004513D01*
X174871256Y-57004510D01*
X174803189Y-56965212D01*
X174803185Y-56965210D01*
X174796209Y-56961183D01*
X174788368Y-56956655D01*
X174788363Y-56956650D01*
X174781844Y-56951648D01*
X174766631Y-56945346D01*
X174758469Y-56944272D01*
X174756659Y-56943787D01*
X174666018Y-56919500D01*
X174666017Y-56919500D01*
X174553982Y-56919500D01*
X174445770Y-56948494D01*
X174445759Y-56948498D01*
X174445758Y-56948499D01*
X174348737Y-57004514D01*
X174348728Y-57004521D01*
X174269521Y-57083728D01*
X174269514Y-57083737D01*
X174213499Y-57180758D01*
X174213498Y-57180759D01*
X174213494Y-57180770D01*
X174192140Y-57260468D01*
X174184500Y-57288982D01*
X162400469Y-57288982D01*
X162449862Y-57260465D01*
X162510465Y-57199862D01*
X162510466Y-57199860D01*
X162510595Y-57199731D01*
X162510830Y-57199414D01*
X162512294Y-57196693D01*
X162539541Y-57149500D01*
X162553318Y-57125638D01*
X162575500Y-57042853D01*
X162575500Y-56957147D01*
X162553318Y-56874362D01*
X162553314Y-56874355D01*
X162510469Y-56800144D01*
X162510463Y-56800136D01*
X162510459Y-56800132D01*
X162510458Y-56800130D01*
X162449868Y-56739540D01*
X162449866Y-56739539D01*
X162449863Y-56739536D01*
X162449855Y-56739530D01*
X162435457Y-56731217D01*
X162375661Y-56696694D01*
X162375637Y-56696681D01*
X162315034Y-56680443D01*
X162292853Y-56674500D01*
X162292852Y-56674500D01*
X162207147Y-56674500D01*
X162124364Y-56696681D01*
X162124357Y-56696683D01*
X162124356Y-56696684D01*
X162124346Y-56696689D01*
X162050152Y-56739525D01*
X162050148Y-56739527D01*
X162050144Y-56739530D01*
X162050136Y-56739536D01*
X162050132Y-56739539D01*
X162050130Y-56739540D01*
X161989540Y-56800130D01*
X161989539Y-56800132D01*
X161989536Y-56800135D01*
X161989536Y-56800136D01*
X161989530Y-56800144D01*
X161989527Y-56800148D01*
X161989525Y-56800152D01*
X161946689Y-56874346D01*
X161946684Y-56874356D01*
X161946683Y-56874357D01*
X161946681Y-56874364D01*
X161926818Y-56948497D01*
X161924500Y-56957147D01*
X159575500Y-56957147D01*
X159553318Y-56874362D01*
X159553314Y-56874355D01*
X159510469Y-56800144D01*
X159510463Y-56800136D01*
X159510459Y-56800132D01*
X159510458Y-56800130D01*
X159449868Y-56739540D01*
X159449866Y-56739539D01*
X159449863Y-56739536D01*
X159449855Y-56739530D01*
X159435457Y-56731217D01*
X159375661Y-56696694D01*
X159375637Y-56696681D01*
X159315034Y-56680443D01*
X159292853Y-56674500D01*
X159292852Y-56674500D01*
X159207147Y-56674500D01*
X159124364Y-56696681D01*
X159124357Y-56696683D01*
X159124356Y-56696684D01*
X159124346Y-56696689D01*
X159050152Y-56739525D01*
X159050148Y-56739527D01*
X159050144Y-56739530D01*
X159050136Y-56739536D01*
X159050132Y-56739539D01*
X159050130Y-56739540D01*
X158989540Y-56800130D01*
X158989539Y-56800132D01*
X158989536Y-56800135D01*
X158989536Y-56800136D01*
X158989530Y-56800144D01*
X158989527Y-56800148D01*
X158989525Y-56800152D01*
X158946689Y-56874346D01*
X158946684Y-56874356D01*
X158946683Y-56874357D01*
X158946681Y-56874364D01*
X158926818Y-56948497D01*
X158924500Y-56957147D01*
X136785125Y-56957147D01*
X136826614Y-56885288D01*
X136850500Y-56796144D01*
X136850500Y-56703856D01*
X136826614Y-56614712D01*
X136826612Y-56614709D01*
X136821382Y-56605650D01*
X136780473Y-56534794D01*
X136780472Y-56534793D01*
X136780470Y-56534789D01*
X136716378Y-56470697D01*
X136715212Y-56469531D01*
X136715209Y-56469529D01*
X136715205Y-56469526D01*
X136649190Y-56431411D01*
X136648835Y-56431204D01*
X136648460Y-56430806D01*
X136642895Y-56426536D01*
X136636999Y-56424094D01*
X136633596Y-56422624D01*
X136633126Y-56422412D01*
X136631234Y-56421706D01*
X136627684Y-56420235D01*
X136619520Y-56419161D01*
X136546144Y-56399500D01*
X136546143Y-56399500D01*
X136453856Y-56399500D01*
X136371466Y-56421575D01*
X136371451Y-56421580D01*
X136364712Y-56423386D01*
X136364711Y-56423386D01*
X136364709Y-56423387D01*
X136364706Y-56423388D01*
X136361906Y-56425004D01*
X136361902Y-56425006D01*
X136284804Y-56469519D01*
X136284786Y-56469531D01*
X136219531Y-56534786D01*
X136219519Y-56534804D01*
X136174549Y-56612694D01*
X136174548Y-56612695D01*
X136173388Y-56614706D01*
X136173387Y-56614709D01*
X136173386Y-56614711D01*
X136173386Y-56614712D01*
X136149500Y-56703856D01*
X126257241Y-56703856D01*
X126401105Y-56516370D01*
X126401945Y-56514916D01*
X126520748Y-56309140D01*
X126520754Y-56309130D01*
X126612330Y-56088047D01*
X126674265Y-55856902D01*
X126705500Y-55619650D01*
X126705500Y-55557147D01*
X141424500Y-55557147D01*
X141424500Y-55642852D01*
X141424501Y-55642854D01*
X141446681Y-55725634D01*
X141446683Y-55725641D01*
X141446684Y-55725642D01*
X141446685Y-55725644D01*
X141489530Y-55799855D01*
X141489534Y-55799860D01*
X141489535Y-55799862D01*
X141490103Y-55800430D01*
X141550141Y-55860468D01*
X141550821Y-55860958D01*
X141553316Y-55862300D01*
X141624355Y-55903314D01*
X141624362Y-55903318D01*
X141707147Y-55925500D01*
X141707149Y-55925500D01*
X141792851Y-55925500D01*
X141792853Y-55925500D01*
X141875638Y-55903318D01*
X141949862Y-55860465D01*
X142010465Y-55799862D01*
X142053318Y-55725638D01*
X142075500Y-55642853D01*
X142075500Y-55557147D01*
X142053318Y-55474362D01*
X142051497Y-55471208D01*
X142042236Y-55455166D01*
X142042233Y-55455162D01*
X142010470Y-55400145D01*
X142010466Y-55400140D01*
X142010461Y-55400134D01*
X142010455Y-55400127D01*
X142008358Y-55398030D01*
X187334500Y-55398030D01*
X187334500Y-55601968D01*
X187366395Y-55803347D01*
X187366398Y-55803363D01*
X187366400Y-55803368D01*
X187429414Y-55997303D01*
X187475649Y-56088043D01*
X187521989Y-56178990D01*
X187641848Y-56343962D01*
X187786038Y-56488152D01*
X187951010Y-56608011D01*
X188132701Y-56700587D01*
X188326636Y-56763601D01*
X188402163Y-56775563D01*
X188528037Y-56795500D01*
X188528042Y-56795500D01*
X188731962Y-56795500D01*
X188731963Y-56795500D01*
X188843850Y-56777778D01*
X188933364Y-56763601D01*
X189127299Y-56700587D01*
X189308990Y-56608011D01*
X189473962Y-56488152D01*
X189618152Y-56343962D01*
X189738011Y-56178990D01*
X189830587Y-55997299D01*
X189893601Y-55803364D01*
X189919023Y-55642853D01*
X189925500Y-55601963D01*
X189925500Y-55398036D01*
X189893601Y-55196639D01*
X189893601Y-55196636D01*
X189830587Y-55002701D01*
X189830585Y-55002698D01*
X189830585Y-55002696D01*
X189738010Y-54821009D01*
X189618152Y-54656038D01*
X189473962Y-54511848D01*
X189308990Y-54391989D01*
X189127303Y-54299414D01*
X188946890Y-54240793D01*
X188946879Y-54240790D01*
X188933364Y-54236399D01*
X188933362Y-54236398D01*
X188933360Y-54236398D01*
X188918963Y-54234117D01*
X188918956Y-54234116D01*
X188731968Y-54204500D01*
X188731963Y-54204500D01*
X188731958Y-54204500D01*
X188528042Y-54204500D01*
X188528037Y-54204500D01*
X188528032Y-54204500D01*
X188326642Y-54236397D01*
X188326639Y-54236398D01*
X188150078Y-54293767D01*
X188132695Y-54299415D01*
X187951008Y-54391989D01*
X187856884Y-54460374D01*
X187786035Y-54511850D01*
X187786033Y-54511852D01*
X187786032Y-54511852D01*
X187641852Y-54656032D01*
X187641852Y-54656033D01*
X187641850Y-54656035D01*
X187616527Y-54690889D01*
X187521989Y-54821008D01*
X187429415Y-55002695D01*
X187366397Y-55196642D01*
X187334500Y-55398030D01*
X142008358Y-55398030D01*
X141949868Y-55339540D01*
X141949866Y-55339539D01*
X141949863Y-55339536D01*
X141949855Y-55339530D01*
X141935457Y-55331217D01*
X141875661Y-55296694D01*
X141875637Y-55296681D01*
X141815034Y-55280443D01*
X141792853Y-55274500D01*
X141792852Y-55274500D01*
X141707147Y-55274500D01*
X141624364Y-55296681D01*
X141624357Y-55296683D01*
X141624356Y-55296684D01*
X141624346Y-55296689D01*
X141550152Y-55339525D01*
X141550148Y-55339527D01*
X141550144Y-55339530D01*
X141550136Y-55339536D01*
X141550132Y-55339539D01*
X141550130Y-55339540D01*
X141489540Y-55400130D01*
X141489539Y-55400132D01*
X141489538Y-55400134D01*
X141489536Y-55400136D01*
X141489530Y-55400144D01*
X141489527Y-55400148D01*
X141489525Y-55400152D01*
X141446689Y-55474346D01*
X141446684Y-55474356D01*
X141446683Y-55474357D01*
X141446682Y-55474362D01*
X141424500Y-55557147D01*
X126705500Y-55557147D01*
X126705500Y-55380350D01*
X126674265Y-55143098D01*
X126612330Y-54911953D01*
X126520754Y-54690870D01*
X126500644Y-54656038D01*
X126402963Y-54486847D01*
X126402014Y-54485083D01*
X126401116Y-54483649D01*
X126401108Y-54483634D01*
X126401107Y-54483632D01*
X126255430Y-54293783D01*
X126255424Y-54293776D01*
X126195764Y-54234116D01*
X126086225Y-54124576D01*
X126086180Y-54124537D01*
X126085703Y-54124176D01*
X125922599Y-53999021D01*
X125922589Y-53999013D01*
X125896367Y-53978892D01*
X125894920Y-53977987D01*
X125893138Y-53977028D01*
X125829968Y-53940557D01*
X125769259Y-53905507D01*
X193299500Y-53905507D01*
X193299500Y-54094491D01*
X193316924Y-54204500D01*
X193329059Y-54281118D01*
X193387454Y-54460836D01*
X193473240Y-54629199D01*
X193584310Y-54782073D01*
X193717927Y-54915690D01*
X193804229Y-54978393D01*
X193870796Y-55026757D01*
X193870797Y-55026757D01*
X193870801Y-55026760D01*
X193950347Y-55067290D01*
X194032722Y-55109263D01*
X194034320Y-55110199D01*
X194038037Y-55111999D01*
X194040021Y-55112985D01*
X194043781Y-55114045D01*
X194133194Y-55143098D01*
X194218881Y-55170940D01*
X194405514Y-55200500D01*
X194405519Y-55200500D01*
X194594485Y-55200500D01*
X194594486Y-55200500D01*
X194781118Y-55170940D01*
X194960832Y-55112547D01*
X195129199Y-55026760D01*
X195282073Y-54915690D01*
X195415690Y-54782073D01*
X195526760Y-54629199D01*
X195612547Y-54460832D01*
X195670940Y-54281118D01*
X195695734Y-54124575D01*
X195700500Y-54094486D01*
X195700500Y-53905513D01*
X195670940Y-53718881D01*
X195612545Y-53539163D01*
X195526759Y-53370800D01*
X195415690Y-53217927D01*
X195282073Y-53084310D01*
X195129199Y-52973240D01*
X194960836Y-52887454D01*
X194781118Y-52829059D01*
X194781112Y-52829058D01*
X194594491Y-52799500D01*
X194594486Y-52799500D01*
X194594481Y-52799500D01*
X194405519Y-52799500D01*
X194405514Y-52799500D01*
X194405509Y-52799500D01*
X194218886Y-52829058D01*
X194218884Y-52829058D01*
X194218881Y-52829059D01*
X194039163Y-52887454D01*
X193954981Y-52930347D01*
X193870799Y-52973240D01*
X193783579Y-53036610D01*
X193783578Y-53036610D01*
X193729794Y-53075686D01*
X193722419Y-53079816D01*
X193579816Y-53222419D01*
X193575686Y-53229794D01*
X193536610Y-53283578D01*
X193536610Y-53283579D01*
X193473240Y-53370799D01*
X193430347Y-53454981D01*
X193387454Y-53539163D01*
X193329059Y-53718881D01*
X193329058Y-53718884D01*
X193329058Y-53718886D01*
X193299500Y-53905507D01*
X125769259Y-53905507D01*
X125691123Y-53860395D01*
X125691117Y-53860392D01*
X125689140Y-53859251D01*
X125689132Y-53859247D01*
X125689130Y-53859246D01*
X125558581Y-53805170D01*
X125558474Y-53805126D01*
X125543108Y-53792690D01*
X125468051Y-53767671D01*
X125468047Y-53767670D01*
X125468048Y-53767670D01*
X125468045Y-53767669D01*
X125468034Y-53767666D01*
X125468031Y-53767665D01*
X125387385Y-53746056D01*
X125236900Y-53705734D01*
X125236894Y-53705733D01*
X125236889Y-53705732D01*
X125001528Y-53674747D01*
X124999847Y-53674500D01*
X124999656Y-53674500D01*
X124999650Y-53674500D01*
X124760350Y-53674500D01*
X124760344Y-53674500D01*
X124760342Y-53674500D01*
X124754222Y-53675253D01*
X124753316Y-53675425D01*
X124523109Y-53705732D01*
X124523102Y-53705733D01*
X124523099Y-53705734D01*
X124474249Y-53718823D01*
X124291955Y-53767668D01*
X124070889Y-53859237D01*
X124070877Y-53859242D01*
X124070876Y-53859243D01*
X124070859Y-53859251D01*
X124070842Y-53859259D01*
X123866859Y-53977028D01*
X123865090Y-53977980D01*
X123863634Y-53978891D01*
X123863632Y-53978892D01*
X123673783Y-54124569D01*
X123673776Y-54124575D01*
X123673772Y-54124579D01*
X123673767Y-54124583D01*
X123504583Y-54293767D01*
X123504576Y-54293775D01*
X123504575Y-54293776D01*
X123504569Y-54293783D01*
X123429213Y-54391989D01*
X123358892Y-54483632D01*
X123357980Y-54485090D01*
X123357028Y-54486859D01*
X123239259Y-54690842D01*
X123239237Y-54690889D01*
X123147668Y-54911955D01*
X123116907Y-55026758D01*
X123085735Y-55143098D01*
X123085732Y-55143109D01*
X123054503Y-55380324D01*
X123054500Y-55380348D01*
X108000500Y-55380348D01*
X108000500Y-53905507D01*
X109299500Y-53905507D01*
X109299500Y-54094491D01*
X109316924Y-54204500D01*
X109329059Y-54281118D01*
X109387454Y-54460836D01*
X109473240Y-54629199D01*
X109584310Y-54782073D01*
X109717927Y-54915690D01*
X109804229Y-54978393D01*
X109870796Y-55026757D01*
X109870797Y-55026757D01*
X109870801Y-55026760D01*
X109950347Y-55067290D01*
X110032722Y-55109263D01*
X110034320Y-55110199D01*
X110038037Y-55111999D01*
X110040021Y-55112985D01*
X110043781Y-55114045D01*
X110133194Y-55143098D01*
X110218881Y-55170940D01*
X110405514Y-55200500D01*
X110405519Y-55200500D01*
X110594485Y-55200500D01*
X110594486Y-55200500D01*
X110781118Y-55170940D01*
X110960832Y-55112547D01*
X111129199Y-55026760D01*
X111282073Y-54915690D01*
X111415690Y-54782073D01*
X111526760Y-54629199D01*
X111612547Y-54460832D01*
X111670940Y-54281118D01*
X111695734Y-54124575D01*
X111700500Y-54094486D01*
X111700500Y-53905513D01*
X111670940Y-53718881D01*
X111612545Y-53539163D01*
X111526759Y-53370800D01*
X111415690Y-53217927D01*
X111282073Y-53084310D01*
X111129199Y-52973240D01*
X110960836Y-52887454D01*
X110781118Y-52829059D01*
X110781112Y-52829058D01*
X110594491Y-52799500D01*
X110594486Y-52799500D01*
X110594481Y-52799500D01*
X110405519Y-52799500D01*
X110405514Y-52799500D01*
X110405509Y-52799500D01*
X110218886Y-52829058D01*
X110218884Y-52829058D01*
X110218881Y-52829059D01*
X110039163Y-52887454D01*
X109954981Y-52930347D01*
X109870799Y-52973240D01*
X109783579Y-53036610D01*
X109783578Y-53036610D01*
X109729794Y-53075686D01*
X109722419Y-53079816D01*
X109579816Y-53222419D01*
X109575686Y-53229794D01*
X109536610Y-53283578D01*
X109536610Y-53283579D01*
X109473240Y-53370799D01*
X109430347Y-53454981D01*
X109387454Y-53539163D01*
X109329059Y-53718881D01*
X109329058Y-53718884D01*
X109329058Y-53718886D01*
X109299500Y-53905507D01*
X108000500Y-53905507D01*
X108000500Y-51642329D01*
X108005523Y-51607393D01*
X108009927Y-51592395D01*
X108047672Y-51533644D01*
X108049041Y-51532457D01*
X108103920Y-51504977D01*
X108111479Y-51503333D01*
X108137832Y-51500500D01*
X126827977Y-51500500D01*
X126895016Y-51520185D01*
G37*
%TD.AperFunction*%
%TD*%
M02*
