M48
; DRILL file KiCad 10.0.0 date 2026-03-31T00:41:19
; FORMAT={-:-/ absolute / metric / decimal}
; #@! TF.CreationDate,2026-03-31T00:41:19+02:00
; #@! TF.GenerationSoftware,Kicad,Pcbnew,10.0.0
; #@! TF.FileFunction,Plated,1,4,PTH
FMAT,2
METRIC
; #@! TA.AperFunction,Plated,PTH,ViaDrill
T1C0.150
; #@! TA.AperFunction,Plated,PTH,ViaDrill
T2C0.200
; #@! TA.AperFunction,Plated,PTH,ViaDrill
T3C0.300
%
G90
G05
T1
X115.5Y-54.0
X130.75Y-71.25
X130.75Y-72.25
X138.0Y-58.5
X138.0Y-68.75
X140.0Y-60.0
X141.75Y-55.6
X144.0Y-54.0
X144.0Y-56.0
X144.0Y-58.0
X144.0Y-60.0
X144.0Y-62.0
X144.5Y-68.5
X146.0Y-54.0
X146.0Y-62.0
X146.55Y-56.025
X146.55Y-58.0
X146.55Y-59.975
X148.5Y-54.0
X148.5Y-62.0
X148.525Y-56.025
X148.525Y-58.0
X148.525Y-59.975
X149.75Y-66.5
X150.5Y-56.025
X150.5Y-58.0
X150.5Y-59.975
X151.0Y-54.0
X151.0Y-62.0
X151.25Y-68.0
X153.0Y-54.0
X153.0Y-56.0
X153.0Y-58.0
X153.0Y-60.0
X153.0Y-62.0
X153.0Y-70.0
X154.25Y-67.0
X159.25Y-57.0
X159.5Y-56.5
X162.0Y-57.5
X162.25Y-57.0
X162.5Y-73.75
X163.5Y-62.0
X164.0Y-62.25
X165.0Y-59.75
X165.5Y-60.0
X172.39Y-53.915
X172.39Y-57.845
X180.0Y-62.75
X182.61Y-53.915
X182.61Y-57.845
X186.75Y-69.25
X189.0Y-67.25
X193.0Y-58.75
T2
X120.0Y-64.5
X120.5Y-59.0
X124.0Y-60.5
X128.0Y-57.5
X136.5Y-56.75
X140.0Y-72.8
X143.75Y-64.25
X147.0Y-72.8
X155.0Y-72.8
X165.075Y-67.612
X166.25Y-66.0
X167.425Y-67.513
X167.425Y-68.112
X167.725Y-70.112
X167.725Y-70.712
X167.725Y-71.312
X168.025Y-67.513
X168.025Y-68.112
X168.325Y-70.112
X168.325Y-70.712
X168.325Y-71.312
X168.625Y-66.912
X168.625Y-67.513
X168.925Y-70.112
X170.771Y-69.479
X172.975Y-67.612
X175.325Y-67.513
X175.325Y-68.112
X175.625Y-70.112
X175.625Y-70.712
X175.625Y-71.312
X175.925Y-67.513
X175.925Y-68.112
X176.225Y-70.112
X176.225Y-70.712
X176.225Y-71.312
X176.525Y-66.912
X176.525Y-67.513
X176.825Y-70.112
X180.0Y-60.75
X180.0Y-61.75
X180.0Y-63.75
X182.75Y-70.75
X182.75Y-71.75
X182.75Y-72.75
X182.75Y-73.75
X182.75Y-74.75
X183.0Y-63.75
X183.15Y-60.45
X183.25Y-71.25
X183.25Y-73.25
X183.25Y-74.25
X183.75Y-63.75
X183.75Y-72.75
X183.75Y-73.75
X183.75Y-74.75
X183.9Y-60.45
X184.0Y-61.75
X184.0Y-62.75
X184.5Y-61.75
X184.5Y-62.75
X184.5Y-63.75
X184.65Y-60.45
X184.75Y-71.45
X184.75Y-72.0
X185.25Y-63.75
X185.4Y-60.45
X185.85Y-74.45
X186.0Y-67.2
X187.9Y-67.8
X187.9Y-68.3
X187.9Y-68.8
X187.9Y-69.65
X187.9Y-70.15
X190.15Y-67.4
X190.15Y-67.95
X190.15Y-68.65
X190.15Y-69.4
X190.15Y-70.15
T3
X118.75Y-69.25
X118.75Y-70.25
X119.825Y-60.825
X119.825Y-62.425
X121.875Y-61.625
X125.875Y-60.825
X130.35Y-58.075
X130.35Y-63.621
X130.75Y-69.25
X130.75Y-70.25
X134.75Y-59.5
X134.75Y-60.5
X136.99Y-66.24
X139.2Y-54.6
X139.2Y-55.6
X166.25Y-61.75
X166.25Y-62.75
X174.0Y-59.5
X174.0Y-64.0
X175.0Y-61.0
X176.7Y-65.25
X178.75Y-61.75
X181.25Y-59.25
X187.65Y-60.05
X187.75Y-73.5
M30
